<svg xmlns="http://www.w3.org/2000/svg" viewBox="0 0 1366 768"><defs><linearGradient id="a" x1="1395.161" y1="140.628" x2="-32.839" y2="628.628" gradientUnits="userSpaceOnUse"><stop offset=".043" stop-color="#5e2c8b" stop-opacity=".3"/><stop offset=".084" stop-color="#4d298c" stop-opacity=".496"/><stop offset=".134" stop-color="#3d268d" stop-opacity=".679"/><stop offset=".19" stop-color="#31248d" stop-opacity=".822"/><stop offset=".252" stop-color="#28228e" stop-opacity=".923"/><stop offset=".327" stop-color="#23218e" stop-opacity=".982"/><stop offset=".448" stop-color="#21218e"/><stop offset=".622" stop-color="#355a80" stop-opacity=".883"/><stop offset=".845" stop-color="#4b9a70" stop-opacity=".751"/><stop offset=".959" stop-color="#54b36a" stop-opacity=".7"/></linearGradient><linearGradient id="b" x1="752.775" y1="-16.043" x2="617.782" y2="757.918" gradientUnits="userSpaceOnUse"><stop offset=".043" stop-color="#5e2c8b" stop-opacity=".3"/><stop offset=".113" stop-color="#5c4984" stop-opacity=".321"/><stop offset=".261" stop-color="#587878" stop-opacity=".356"/><stop offset=".429" stop-color="#569970" stop-opacity=".381"/><stop offset=".631" stop-color="#54ad6b" stop-opacity=".396"/><stop offset=".959" stop-color="#54b36a" stop-opacity=".4"/></linearGradient><linearGradient id="c" y1="293.487" x2="1366" y2="293.487" gradientUnits="userSpaceOnUse"><stop offset="0" stop-color="#b75d46" stop-opacity="0"/><stop offset=".182" stop-color="#b75146" stop-opacity=".275"/><stop offset=".5" stop-color="#b73b46" stop-opacity=".8"/><stop offset=".577" stop-color="#b73f46" stop-opacity=".714"/><stop offset=".726" stop-color="#b74846" stop-opacity=".489"/><stop offset=".932" stop-color="#b75846" stop-opacity=".128"/><stop offset="1" stop-color="#b75d46" stop-opacity="0"/></linearGradient></defs><path fill="#21218e" d="M0 0h1366v768H0z"/><path fill="url(#a)" d="M0 0h1366v768H0z"/><path fill="url(#b)" d="M0 0h1366v768H0z"/><path d="M1366 418.33v116.49c-47.18-18.23-117.5-25.8-221-.82-261 63-329-59-687-37l-358 22 79-70s160 17 297 0 192 35 396 58c166.77 18.8 358.93-86.7 494-88.67z" opacity=".06" fill="#54b36a"/><path d="M1366 256.46v29.77c-73.39 25.33-148.85 61.43-216 108.29-192 134-461-3-825-104-180.18-49.99-275.09-34.32-325-5.74V144.19c6.39-1.23 12.91-2.28 19.57-3.19h.01c39.18-5.33 82.82-5.37 127.77-1.77a.014.014 0 0 0 .02 0c122.4 9.84 254.55 46.77 333.23 77.89 188.6 74.6 489.4 103.4 678.4 73.4 57.84-9.18 131.97-21.45 207-34.06z" opacity=".11" fill="url(#c)"/><path d="M1079.89 0C1024.3 21.9 964.14 45.81 901.5 71c-276 111-387-99-600-23-57.74 20.61-109.24 32.02-153.63 37.71a.014.014 0 0 1-.02 0c-53.35 6.85-96.43 5.44-127.77 1.77h-.01A391.23 391.23 0 0 1 .5 84.71V74.26C237.06 67.91 181.63 29.45 335.61.11c.2-.04.4-.08.6-.11h141.43C601.58 17.13 728.03 65.82 821.5 50c40.3-6.82 111.74-26.33 191.14-50z" opacity=".08" fill="#54b36a"/></svg>