<svg xmlns="http://www.w3.org/2000/svg" xmlns:xlink="http://www.w3.org/1999/xlink" viewBox="0 0 1366 768"><defs><style>.a,.c{fill:#54b36a;}.a{opacity:0.06;}.b{opacity:0.11;fill:url(#a);}.c{opacity:0.08;}</style><linearGradient id="a" y1="293.48729" x2="1366" y2="293.48729" gradientUnits="userSpaceOnUse"><stop offset="0" stop-color="#b75d46" stop-opacity="0"/><stop offset="0.1819" stop-color="#b75146" stop-opacity="0.27508"/><stop offset="0.5" stop-color="#b73b46" stop-opacity="0.8"/><stop offset="0.57672" stop-color="#b73f46" stop-opacity="0.71393"/><stop offset="0.72616" stop-color="#b74846" stop-opacity="0.48862"/><stop offset="0.93177" stop-color="#b75846" stop-opacity="0.12809"/><stop offset="1" stop-color="#b75d46" stop-opacity="0"/></linearGradient></defs><title>02-stripes</title><path class="a" d="M1366,418.33V534.82c-47.17993-18.23-117.5-25.8-221-.82-261,63-329-59-687-37L100,519l79-70s160,17,297,0,192,35,396,58C1038.77,525.8,1230.92993,420.3,1366,418.33Z"/><path class="b" d="M1366,256.46v29.77c-73.39,25.33-148.85,61.43005-216,108.29-192,134-461-3-825-104C144.82,240.53,49.91,256.2,0,284.78V144.19c6.39-1.23,12.91-2.28,19.57-3.19h.01c39.18-5.33,82.82-5.37,127.77-1.77a.01386.01386,0,0,0,.02,0c122.4,9.84,254.55,46.77,333.23,77.89,188.6,74.6,489.4,103.4,678.4,73.4C1216.84009,281.34,1290.97,269.07,1366,256.46Z"/><path class="c" d="M1079.89,0C1024.3,21.9,964.14,45.81,901.5,71c-276,111-387-99-600-23C243.76,68.61,192.26,80.02,147.87,85.71a.01386.01386,0,0,1-.02,0C94.5,92.56,51.42,91.15,20.08,87.48h-.01C12.93,86.65,6.4,85.7.5,84.71V74.26C237.06,67.91,181.63,29.45,335.61.11c.2-.04.4-.08.6-.11H477.64C601.58,17.13,728.03,65.82,821.5,50c40.3-6.82,111.74-26.33,191.14-50Z"/></svg>