<svg xmlns="http://www.w3.org/2000/svg" viewBox="0 0 1366 768"><defs><style>.j{opacity:.75}.i,.j,.k{mix-blend-mode:darken}.i,.k{fill:#255b49}.i{opacity:.31}.k{opacity:.47}.n{fill:#4088db}.s{fill:#b2a122}</style><linearGradient id="a" x1="814.468" y1="368.536" x2="839.839" y2="342.967" gradientUnits="userSpaceOnUse"><stop offset="0" stop-color="#b75d46" stop-opacity="0"/><stop offset=".065" stop-color="#b75646" stop-opacity=".176"/><stop offset=".16" stop-color="#b74c46" stop-opacity=".398"/><stop offset=".253" stop-color="#b74546" stop-opacity=".574"/><stop offset=".342" stop-color="#b73f46" stop-opacity=".699"/><stop offset=".426" stop-color="#b73c46" stop-opacity=".774"/><stop offset=".5" stop-color="#b73b46" stop-opacity=".8"/><stop offset=".575" stop-color="#b73c46" stop-opacity=".775"/><stop offset=".659" stop-color="#b73f46" stop-opacity=".701"/><stop offset=".747" stop-color="#b74446" stop-opacity=".579"/><stop offset=".838" stop-color="#b74c46" stop-opacity=".408"/><stop offset=".931" stop-color="#b75546" stop-opacity=".191"/><stop offset="1" stop-color="#b75d46" stop-opacity="0"/></linearGradient><linearGradient id="b" x1="78.677" y1="313.583" x2="93.873" y2="329.147" gradientUnits="userSpaceOnUse"><stop offset=".074" stop-color="#455b09"/><stop offset="1" stop-color="#003909"/></linearGradient><linearGradient id="c" x1="1286.353" y1="255.498" x2="1265.883" y2="235.028" gradientUnits="userSpaceOnUse"><stop offset="0" stop-color="#007380"/><stop offset=".784" stop-color="#00484c"/></linearGradient></defs><g style="isolation:isolate"><circle cx="827.155" cy="355.75" r="14.216" fill="#b75d46"/><circle cx="827.155" cy="355.75" r="14.216" fill="url(#a)"/><circle cx="852.39" cy="460.82" r="5.392" fill="#936f1d"/><path d="M857.782 460.82a5.39 5.39 0 0 1-5.392 5.392 5.57 5.57 0 0 1-1.402-.206h-.01c-.059-.02-.127-.029-.196-.049l-.196-.058a5.128 5.128 0 0 1-1.54-.853 4.384 4.384 0 0 0 1.148.176 1.887 1.887 0 0 0 .235.01 5.39 5.39 0 0 0 5.392-5.392 5.317 5.317 0 0 0-1.235-3.422 5.393 5.393 0 0 0-.784-.784c.058.02.127.03.196.049s.137.04.196.059a5.248 5.248 0 0 1 1.539.853 5.34 5.34 0 0 1 2.05 4.225z" style="mix-blend-mode:darken" opacity=".75" fill="#936200"/><path d="M854.586 456.418a1.887 1.887 0 0 0-.235-.01 5.39 5.39 0 0 0-5.393 5.393 5.318 5.318 0 0 0 1.236 3.421 4.384 4.384 0 0 1-1.147-.176 5.389 5.389 0 0 1 3.343-9.618 5.57 5.57 0 0 1 1.402.206h.01a5.393 5.393 0 0 1 .784.784z" style="mix-blend-mode:lighten" fill="#93811d" opacity=".58"/><circle cx="86.485" cy="321.58" r="10.784" fill="url(#b)"/><circle cx="1246.375" cy="79.84" r="41.177" fill="#3b7c6a"/><path class="i" d="M1287.553 79.84a41.18 41.18 0 0 1-72.16 27.127 41.185 41.185 0 0 0 49.218-64.058 41.17 41.17 0 0 1 22.942 36.931z"/><g class="j"><path class="k" d="M1268.982 53.974a1.986 1.986 0 0 0-1.134.192c-1.687.858-1.765 4.099-.169 7.236a8.993 8.993 0 0 0 3.496 3.886c-1.588-.138-3.543-1.816-4.814-4.315-1.596-3.137-1.518-6.378.168-7.236a2.611 2.611 0 0 1 2.453.237zm2.948 15.275a1.136 1.136 0 0 0-.527.123c-.807.41-.975 1.704-.372 2.889a2.884 2.884 0 0 0 1.441 1.405 2.507 2.507 0 0 1-2.027-1.522c-.603-1.185-.435-2.48.372-2.89a1.32 1.32 0 0 1 1.113-.005zm-57.845 8.823a1.136 1.136 0 0 0-.527.123c-.807.41-.975 1.705-.372 2.89a2.884 2.884 0 0 0 1.441 1.405 2.507 2.507 0 0 1-2.027-1.523c-.603-1.184-.435-2.479.372-2.89a1.32 1.32 0 0 1 1.113-.005zm60.012 3.862a4.123 4.123 0 0 0-3.218-.011c-2.477 1.09-3.307 4.655-1.854 7.957a7.96 7.96 0 0 0 2.477 3.194 7.457 7.457 0 0 1-3.9-3.996c-1.454-3.302-.624-6.866 1.853-7.957a4.649 4.649 0 0 1 4.642.813zm-8.431-7.269a2.087 2.087 0 0 0-1.629-.006c-1.253.552-1.673 2.356-.938 4.027a4.029 4.029 0 0 0 1.254 1.617 3.774 3.774 0 0 1-1.974-2.022c-.736-1.672-.316-3.476.938-4.027a2.353 2.353 0 0 1 2.35.411zm-37.256-22.549a2.087 2.087 0 0 0-1.629-.006c-1.253.552-1.673 2.356-.938 4.027a4.029 4.029 0 0 0 1.254 1.617 3.774 3.774 0 0 1-1.974-2.022c-.736-1.672-.316-3.476.938-4.027a2.353 2.353 0 0 1 2.35.411zm30.527 42.521a5.153 5.153 0 0 0-3.015.32c-3.478 1.516-4.537 6.768-2.374 11.729a12.166 12.166 0 0 0 4.612 5.551c-2.771-.493-5.618-2.952-7.193-6.565-2.163-4.961-1.104-10.214 2.374-11.73a6.034 6.034 0 0 1 5.596.695z"/></g><circle cx="1164.265" cy="104.32" r="3.922" fill="#586d0c"/><circle cx="422.215" cy="338.43" r="25" fill="#54af32"/><path class="i" d="M447.216 338.43a25.002 25.002 0 0 1-43.811 16.47 25.005 25.005 0 0 0 29.882-38.893 24.996 24.996 0 0 1 13.929 22.423z"/><g class="j"><path class="k" d="M435.94 322.726a1.206 1.206 0 0 0-.688.116c-1.024.521-1.071 2.489-.102 4.393a5.46 5.46 0 0 0 2.122 2.36c-.964-.084-2.15-1.103-2.923-2.62-.969-1.905-.921-3.872.103-4.393a1.585 1.585 0 0 1 1.489.144zm1.79 9.274a.69.69 0 0 0-.32.074c-.49.25-.591 1.035-.226 1.754a1.75 1.75 0 0 0 .876.854 1.522 1.522 0 0 1-1.231-.925c-.366-.719-.264-1.505.226-1.754a.802.802 0 0 1 .675-.003zm-35.12 5.357a.69.69 0 0 0-.32.074c-.49.25-.592 1.035-.226 1.754a1.75 1.75 0 0 0 .876.854 1.522 1.522 0 0 1-1.231-.925c-.366-.719-.264-1.505.225-1.754a.802.802 0 0 1 .676-.003zm36.436 2.345a2.503 2.503 0 0 0-1.954-.007c-1.504.661-2.008 2.826-1.125 4.83a4.833 4.833 0 0 0 1.504 1.94 4.528 4.528 0 0 1-2.369-2.426c-.882-2.005-.378-4.17 1.126-4.831a2.822 2.822 0 0 1 2.818.494zm-5.118-4.414a1.267 1.267 0 0 0-.99-.003 1.813 1.813 0 0 0-.569 2.444 2.446 2.446 0 0 0 .761.982 2.291 2.291 0 0 1-1.198-1.228 1.813 1.813 0 0 1 .57-2.445 1.428 1.428 0 0 1 1.426.25zm-22.62-13.69a1.267 1.267 0 0 0-.99-.004 1.813 1.813 0 0 0-.569 2.445 2.446 2.446 0 0 0 .762.981 2.291 2.291 0 0 1-1.2-1.227 1.813 1.813 0 0 1 .57-2.445 1.428 1.428 0 0 1 1.427.25zm18.534 25.816a3.129 3.129 0 0 0-1.83.194c-2.112.92-2.755 4.11-1.442 7.121a7.387 7.387 0 0 0 2.8 3.37 6.475 6.475 0 0 1-4.367-3.985c-1.313-3.012-.67-6.201 1.441-7.122a3.663 3.663 0 0 1 3.398.422z"/></g><path class="n" d="M314.474 197.14c0 1.196-.04 2.382-.108 3.559a54.793 54.793 0 0 1-3.294 15.588c-.353.97-.735 1.931-1.147 2.873a54.701 54.701 0 0 1-5.667 10.02 49.237 49.237 0 0 1-3.255 4.146 55.58 55.58 0 0 1-12.814 10.961 56.855 56.855 0 0 1-8.412 4.255 55.41 55.41 0 0 1-20.697 3.99 47.76 47.76 0 0 1-3.353-.108 54.183 54.183 0 0 1-8.137-1.098 53.21 53.21 0 0 1-7.687-2.215 55.562 55.562 0 0 1-25.824-19.667 54.876 54.876 0 0 1-4.314-7.05c.696-.156 1.402-.323 2.118-.48.774-.176 1.549-.362 2.333-.539.324-.078.647-.157.98-.235.697-.157 1.393-.324 2.089-.49.206-.05.411-.108.627-.157.794-.186 1.598-.382 2.412-.579l.108-.029c1.059-.255 2.127-.52 3.206-.784s2.167-.54 3.274-.814c1.099-.274 2.216-.549 3.334-.843.559-.137 1.118-.284 1.686-.431l1.706-.442c2.275-.588 4.589-1.186 6.942-1.813a1170.967 1170.967 0 0 0 19.245-5.294c1.01-.295 2.02-.579 3.04-.873 2.539-.725 5.059-1.46 7.54-2.196 1.98-.579 3.94-1.167 5.882-1.745 1.588-.48 3.166-.951 4.725-1.432a929.187 929.187 0 0 0 17.344-5.46q4.72-1.53 9.138-3.02 3.485-1.176 6.784-2.323c.127 1.558.196 3.137.196 4.725z"/><path class="n" d="M314.278 192.415q-3.294 1.147-6.785 2.323-4.411 1.485-9.137 3.02a929.234 929.234 0 0 1-17.344 5.46c-1.559.48-3.137.951-4.725 1.432-1.942.578-3.902 1.166-5.883 1.745-2.48.735-5 1.47-7.54 2.196-1.019.294-2.029.578-3.039.873a1171.239 1171.239 0 0 1-19.245 5.294c-2.353.627-4.667 1.225-6.942 1.813l-1.706.441a938.536 938.536 0 0 1-8.294 2.089c-1.079.264-2.147.53-3.206.784-.03.01-.069.02-.108.03-.814.196-1.618.392-2.412.578-.216.059-.421.108-.627.157-.706.166-1.402.323-2.089.49-.333.078-.657.157-.98.235-.784.177-1.559.363-2.333.54-.716.156-1.422.323-2.118.48a54.439 54.439 0 0 1-3.589-8.814 45.621 45.621 0 0 1-.902-3.255 54.13 54.13 0 0 1-.696-3.284 23.373 23.373 0 0 1-.196-1.147 14.782 14.782 0 0 1-.147-.951c-.03-.206-.059-.412-.078-.618a51.199 51.199 0 0 1-.206-1.764 57.532 57.532 0 0 1-.245-3.932v-.108c-.01-.45-.02-.921-.02-1.382a55.117 55.117 0 0 1 9.618-31.196 55.707 55.707 0 0 1 5.667-7.01l.069-.069v-.01a55.733 55.733 0 0 1 15.951-11.607c.216-.108.432-.206.647-.304a62.517 62.517 0 0 1 2.628-1.147q1.015-.412 2.059-.794a53.898 53.898 0 0 1 6.647-1.922 55.448 55.448 0 0 1 9.177-1.264 72.62 72.62 0 0 1 2.931-.07 55.258 55.258 0 0 1 24.472 5.687 56.044 56.044 0 0 1 8.5 5.206 55.887 55.887 0 0 1 16.598 19.765 51.874 51.874 0 0 1 2.177 4.95c.304.775.578 1.55.843 2.344a55.157 55.157 0 0 1 2.608 12.715z"/><path d="M304.258 229.18a49.237 49.237 0 0 1-3.255 4.146c-8.804-9.53-13.216-22.206-12.51-8.735a178.757 178.757 0 0 1-.304 19.696 56.855 56.855 0 0 1-8.412 4.255c.118-18.647 11.785-26.696-.108-31.794-13.726-5.883-22.55-14.706-25.49 11.764a79.638 79.638 0 0 1-6.59 22.814 53.21 53.21 0 0 1-7.686-2.215c8.55-20.765 20.03-39.961 10.677-36.942-11.108 3.598-18.952 21.245-34.638 10.461a40.51 40.51 0 0 1-1.726-1.255 50.998 50.998 0 0 1-8.04-7.794 45.621 45.621 0 0 1-.902-3.255 54.13 54.13 0 0 1-.696-3.284 23.373 23.373 0 0 1-.196-1.147 14.782 14.782 0 0 1-.147-.951c-.03-.206-.059-.412-.078-.618a51.199 51.199 0 0 1-.206-1.764 57.532 57.532 0 0 1-.245-3.932v-.078c1.421 8.392 6.402 16.235 20.079 16.235 29.413 0-1.96-35.294 7.843-58.824q2.089-5 4.01-9.02a62.517 62.517 0 0 1 2.628-1.146q1.015-.412 2.059-.794c-6.697 18.745-5.863 54.98 10.912 53.117 14.206-1.578 15.706-40.656 22.912-54.294a55.451 55.451 0 0 1 9.403 3.608 57.813 57.813 0 0 0-3.883 9.51c-5.431 17.069-9.637 34.755-3.382 47.706a26.66 26.66 0 0 0 7.304 9.157c5.902 4.794 13.892 10.421 20.667 15.372z" style="mix-blend-mode:lighten" fill="#36c2c1" opacity=".22"/><path d="M309.925 219.16c-1.686-4.589-4.902-11.03-11.57-21.402q-2.22-3.442-4.96-7.48c-16.667-24.51-21.57-1.962-14.706 8.823a47.826 47.826 0 0 1 2.323 4.117c5.873 11.618 10.177 29.304.618 22.353-6.687-4.862-5.834-10.47-11.226-19.176-3.304-5.333-8.961-11.843-20.148-20.04-24.236-17.774-5.863-.93 9.57 23.108a139.658 139.658 0 0 1 9.058 16.108c11.765 25.108 2.187 21.334-13.157 26.853a55.498 55.498 0 0 1-45.962-30.03 54.505 54.505 0 0 1-4.49-12.068 54.152 54.152 0 0 1-.412-1.814c-.098-.49-.196-.98-.285-1.47a23.356 23.356 0 0 1-.196-1.147 14.78 14.78 0 0 1-.147-.951c-.03-.206-.059-.412-.078-.618a51.07 51.07 0 0 1-.206-1.765 57.546 57.546 0 0 1-.245-3.93c2.647 5.205 4.725 10.646 5.373 15.176a22.7 22.7 0 0 0 2.804 8.107c8.274 14.49 30.667 18.912 31.51 4.638.314-5.373-.794-8.912-2.813-11.794-4.216-6.07-12.422-9.265-19.736-20.56-6.657-10.284-7.707-21.313-7.54-28.254l5.667-7.01.069-.069c2.01 3.275 4.539 9.06 7.686 16.706 6.863 16.667 16.667-.98 8.824-26.47-.196-.657-.382-1.265-.559-1.853 1.069-.52 2.167-1 3.275-1.451 3.765 6.755 8.97 17.412 12.97 25.853 8.825 18.627 8.825-1.961-1.96-23.53a68.344 68.344 0 0 1-2.304-5.039 55.45 55.45 0 0 1 9.177-1.265 82.852 82.852 0 0 1 6.853 7.285c9.804 11.764 12.745 26.47 19.608 26.47s-12.745-27.45 8.167-23.206c.441.089.863.177 1.275.275l10.04 9.618c-.589 3.95-1.962 9.352 1.107 17.235a104.054 104.054 0 0 1 4.294 15.245c1.608 7.46 2.795 15.323 3.579 21.549z" fill="#3665c1" opacity=".24"/><path d="M314.366 200.699c-14.53 5.402-31.236 10.902-49.158 16.049-18.295 5.255-35.717 9.539-51.13 12.696-34.579 7.069-59.08 8.47-60.805 2.48a2.408 2.408 0 0 1-.098-.706 2.875 2.875 0 0 1 .059-.568 4.4 4.4 0 0 1 .117-.451c2.05-6.216 21.658-16.657 50.6-27.637q.088.882.206 1.764c.02.206.049.412.078.618.05.323.088.637.147.95.06.383.118.766.196 1.148.089.49.187.98.285 1.47.127.608.264 1.216.411 1.814-.353.128-.705.245-1.049.373-22.49 7.95-36.707 14.421-35.991 16.921v.01a1.238 1.238 0 0 0 .863.686c3.735 1.314 19.06-1.02 40.668-5.921 15.196-3.451 33.51-8.177 53.1-13.804 19.186-5.51 36.873-11.108 51.413-16.177 23.854-8.304 39.246-15.166 38.893-17.833a.29.29 0 0 0-.02-.098c-.695-2.45-15.578-.53-38.079 4.451-1.118.255-2.245.5-3.402.765a47.491 47.491 0 0 0-.843-2.343 51.874 51.874 0 0 0-2.177-4.951c33.413-6.755 57.12-8.089 59.385-2.451a2.218 2.218 0 0 1 .078.235c1.735 6.049-20.177 18.03-53.747 30.51z" fill="#e0d28c"/><g style="mix-blend-mode:darken" opacity=".47"><path class="s" d="M205.274 210.326c-.352.128-.705.245-1.049.373-22.49 7.95-36.707 14.421-35.99 16.921a22.295 22.295 0 0 1-.334-1.068c-.726-2.52 14.098-9.99 36.962-18.04.127.608.264 1.216.411 1.814zM353.2 174.591c-.009 0-.019-.01-.029-.01a.29.29 0 0 0-.02-.098c-.695-2.45-15.578-.53-38.079 4.451-1.118.255-2.245.5-3.402.765a47.491 47.491 0 0 0-.843-2.343c23.952-5.392 41.6-7.373 42.325-4.834.108.373.568 1.53.049 2.069z"/><path class="s" d="M314.37 200.699c-14.53 5.402-31.237 10.902-49.159 16.049-18.295 5.255-35.717 9.539-51.13 12.696-34.579 7.069-59.08 8.47-60.805 2.48a2.837 2.837 0 0 1 .078-1.725c2.304 5.715 26.61 4.255 60.728-2.716 15.412-3.157 32.834-7.441 51.13-12.696 17.921-5.147 34.628-10.647 49.158-16.049 30.628-11.392 51.55-22.353 53.668-28.784a2.218 2.218 0 0 1 .078.235c1.736 6.049-20.177 18.03-53.746 30.51z"/></g><circle cx="1276.445" cy="245.59" r="14.216" fill="url(#c)"/><path d="M953.492 95.65a16.1 16.1 0 0 1-.352 3.373 16.311 16.311 0 0 1-.49 1.808c-.043.129-.09.257-.138.38a16.077 16.077 0 0 1-1.175 2.508q-.129.229-.272.457a16.192 16.192 0 0 1-2.198 2.793c-.21.219-.428.428-.652.628a15.92 15.92 0 0 1-3.311 2.345c-.01.005-.014.01-.024.015a16.475 16.475 0 0 1-3.392 1.327 12 12 0 0 1-.704.167 15.876 15.876 0 0 1-2.622.356c-.28.01-.562.02-.847.02a16.186 16.186 0 0 1-3.897-.472c-.119-.028-.233-.061-.352-.095a15.938 15.938 0 0 1-3.526-1.418 16.107 16.107 0 0 1-4.082-3.197c-.3-.314-.576-.637-.837-.97a12.995 12.995 0 0 1-.386-.51h-.004a16.154 16.154 0 0 1-1.513-2.535h-.005a16.254 16.254 0 0 1-1.147-10.686 15.98 15.98 0 0 1 .876-2.674 16.188 16.188 0 0 1 2.983-4.582 15.844 15.844 0 0 1 3.116-2.626 15.491 15.491 0 0 1 2.194-1.195 16.057 16.057 0 0 1 4.777-1.294 15.12 15.12 0 0 1 1.137-.085c.219-.01.442-.015.666-.015a16.182 16.182 0 0 1 14.721 9.459c.005.014.014.029.02.043a15.898 15.898 0 0 1 1.041 3.107c.095.414.171.837.228 1.26a13.797 13.797 0 0 1 .148 1.48c.014.276.019.552.019.828z" fill="#5638c1"/><path d="M953.14 99.023a16.311 16.311 0 0 1-.49 1.808 27.887 27.887 0 0 0-7.846-3.154c-.276-.048-.552-.09-.828-.124-5.529-.652-2.607 7.375-2.488 13.731-.233.062-.467.12-.704.167a15.876 15.876 0 0 1-2.622.356c1.08-3.22 1.836-6.66-.371-8.069-3.402-2.165-2.784 2.912-4.025 6.204a.015.015 0 0 1-.005.01 5.113 5.113 0 0 1-.695 1.308 15.938 15.938 0 0 1-3.525-1.418 8.933 8.933 0 0 0 1.113-3.725c.695-6.585-.129-3.578-4.116-3.111a9.405 9.405 0 0 1-3.82-.376h-.005a16.164 16.164 0 0 1-1.575-6.98 54.268 54.268 0 0 0 8.017 2.76c3.707.875 4.05-.024.7-1.6a26.305 26.305 0 0 0-1.58-.684 26.387 26.387 0 0 1-6.709-4.182 15.98 15.98 0 0 1 .876-2.674 13.168 13.168 0 0 0 8.726 3.354 18.887 18.887 0 0 0 4.058-.357 29.13 29.13 0 0 0 5.895-1.85 29.656 29.656 0 0 0 8.422-5.363 16.31 16.31 0 0 1 2.493 3.878c-4.706 1.442-8.212 3.497-7.556 5.548a3.635 3.635 0 0 0 1.79 1.817c.175.105.361.205.56.305a48.961 48.961 0 0 0 6.31 2.421z" style="mix-blend-mode:lighten" opacity=".3" fill="#7236c1"/><path d="M952.512 101.212a16.077 16.077 0 0 1-1.175 2.507 29.556 29.556 0 0 1-4.506-1.884c-8.089-4.282-4.758 1.427 1.308 5.71a.73.73 0 0 0 .076.052 15.92 15.92 0 0 1-3.311 2.345c-.01.005-.014.01-.024.015-2.217-1.942-4.477-6-9.944-7.17-3.973-.852-6.932 1.513-9.478 3.858-.3-.314-.576-.637-.837-.97a12.995 12.995 0 0 1-.386-.51c4.045-3.33 13.08-4.286 11.177-11.418-1.442-5.41-7.256-8.084-9.987-9.059a15.844 15.844 0 0 1 3.116-2.626 47.84 47.84 0 0 1 2.808 1.87 1.7 1.7 0 0 0 2.54-.695 909.064 909.064 0 0 1 1.623-3.664c.376-.042.751-.07 1.137-.085-1.532 8.197 5.048 10.443 15.406 9.487a15.898 15.898 0 0 1 1.042 3.107c.095.414.171.837.228 1.26-1.717.69-3.33 1.328-4.591 1.832-5.03 2.013-1.551 4.025 3.778 6.038z" style="mix-blend-mode:lighten" fill="#8636c1" opacity=".3"/></g></svg>