<svg xmlns="http://www.w3.org/2000/svg" xmlns:xlink="http://www.w3.org/1999/xlink" viewBox="0 0 1366 768"><defs><style>.a{fill:#eae27f;}.b,.c,.d,.e,.f,.g{opacity:0.4;}.b{fill:url(#a);}.c{fill:url(#b);}.d{fill:url(#c);}.e{fill:url(#d);}.f{fill:url(#e);}.g{fill:url(#f);}</style><linearGradient id="a" x1="79.92195" y1="138.84036" x2="90.03157" y2="138.84036" gradientUnits="userSpaceOnUse"><stop offset="0.71171" stop-color="#66e066"/><stop offset="0.74514" stop-color="#66e066"/><stop offset="0.9482" stop-color="#66e066"/></linearGradient><linearGradient id="b" x1="348.31741" y1="97.66543" x2="356.11038" y2="97.66543" xlink:href="#a"/><linearGradient id="c" x1="61.91316" y1="247.4387" x2="75.18204" y2="247.4387" xlink:href="#a"/><linearGradient id="d" x1="282.91316" y1="385.4387" x2="296.18204" y2="385.4387" xlink:href="#a"/><linearGradient id="e" x1="1288.91316" y1="395.4387" x2="1302.18204" y2="395.4387" xlink:href="#a"/><linearGradient id="f" x1="620.91316" y1="372.4387" x2="634.18204" y2="372.4387" xlink:href="#a"/></defs><title>03-stars</title><path class="a" d="M1240.2728,202.5c-6.3637,0-7.2728,10.90909-7.2728,10.90909S1232.0909,202.5,1225.7272,202.5c6.3637,0,7.2728-10.90909,7.2728-10.90909S1233.9091,202.5,1240.2728,202.5Z"/><path class="a" d="M815.2728,495.5c-6.3637,0-7.2728,10.90909-7.2728,10.90909S807.0909,495.5,800.7272,495.5c6.3637,0,7.2728-10.90909,7.2728-10.90909S808.9091,495.5,815.2728,495.5Z"/><path class="a" d="M847.2728,55.5C840.9091,55.5,840,66.40909,840,66.40909S839.0909,55.5,832.7272,55.5C839.0909,55.5,840,44.59091,840,44.59091S840.9091,55.5,847.2728,55.5Z"/><path class="b" d="M90.03157,138.84036c-4.423,0-5.05481,7.58214-5.05481,7.58214s-.63185-7.58214-5.05481-7.58214c4.423,0,5.05481-7.58214,5.05481-7.58214S85.60861,138.84036,90.03157,138.84036Z"/><path class="c" d="M356.11038,97.66543c-3.40942,0-3.89648,5.84467-3.89648,5.84467s-.48706-5.84467-3.89648-5.84467c3.40942,0,3.89648-5.84467,3.89648-5.84467S352.701,97.66543,356.11038,97.66543Z"/><path class="d" d="M75.182,247.4387c-5.80513,0-6.63444,9.95156-6.63444,9.95156s-.8293-9.95156-6.63444-9.95156c5.80513,0,6.63444-9.95156,6.63444-9.95156S69.3769,247.4387,75.182,247.4387Z"/><path class="e" d="M296.182,385.4387c-5.80513,0-6.63444,9.95156-6.63444,9.95156s-.8293-9.95156-6.63444-9.95156c5.80513,0,6.63444-9.95156,6.63444-9.95156S290.3769,385.4387,296.182,385.4387Z"/><path class="f" d="M1302.182,395.4387c-5.80513,0-6.63444,9.95156-6.63444,9.95156s-.82931-9.95156-6.63444-9.95156c5.80513,0,6.63444-9.95156,6.63444-9.95156S1296.3769,395.4387,1302.182,395.4387Z"/><path class="g" d="M634.182,372.4387c-5.80513,0-6.63444,9.95156-6.63444,9.95156s-.8293-9.95156-6.63444-9.95156c5.80513,0,6.63444-9.95156,6.63444-9.95156S628.3769,372.4387,634.182,372.4387Z"/><path class="a" d="M571.2728,436.5c-6.3637,0-7.2728,10.90909-7.2728,10.90909S563.0909,436.5,556.7272,436.5c6.3637,0,7.2728-10.90909,7.2728-10.90909S564.9091,436.5,571.2728,436.5Z"/><path class="a" d="M516.2728,136.5c-6.3637,0-7.2728,10.90909-7.2728,10.90909S508.0909,136.5,501.7272,136.5c6.3637,0,7.2728-10.90909,7.2728-10.90909S509.9091,136.5,516.2728,136.5Z"/><path class="a" d="M167.2728,81.5C160.9091,81.5,160,92.40909,160,92.40909S159.0909,81.5,152.7272,81.5C159.0909,81.5,160,70.59091,160,70.59091S160.9091,81.5,167.2728,81.5Z"/><path class="a" d="M1188.38647,355.375c-9.74441,0-11.13647,16.70454-11.13647,16.70454s-1.39206-16.70454-11.13647-16.70454c9.74441,0,11.13647-16.70454,11.13647-16.70454S1178.64205,355.375,1188.38647,355.375Z"/></svg>