<svg xmlns="http://www.w3.org/2000/svg" xmlns:xlink="http://www.w3.org/1999/xlink" viewBox="0 0 1366 768"><defs><style>.a{fill:#eae27f}</style><linearGradient id="a" x1="79.922" y1="138.84" x2="90.032" y2="138.84" gradientUnits="userSpaceOnUse"><stop offset=".712" stop-color="#66e066"/><stop offset=".745" stop-color="#66e066"/><stop offset=".948" stop-color="#66e066"/></linearGradient><linearGradient id="b" x1="348.317" y1="97.665" x2="356.11" y2="97.665" xlink:href="#a"/><linearGradient id="c" x1="61.913" y1="247.439" x2="75.182" y2="247.439" xlink:href="#a"/><linearGradient id="d" x1="282.913" y1="385.439" x2="296.182" y2="385.439" xlink:href="#a"/><linearGradient id="e" x1="1288.913" y1="395.439" x2="1302.182" y2="395.439" xlink:href="#a"/><linearGradient id="f" x1="620.913" y1="372.439" x2="634.182" y2="372.439" xlink:href="#a"/></defs><path class="a" d="M1240.273 202.5c-6.364 0-7.273 10.91-7.273 10.91s-.91-10.91-7.273-10.91c6.364 0 7.273-10.91 7.273-10.91s.91 10.91 7.273 10.91zM815.273 495.5c-6.364 0-7.273 10.91-7.273 10.91s-.91-10.91-7.273-10.91c6.364 0 7.273-10.91 7.273-10.91s.91 10.91 7.273 10.91zM847.273 55.5c-6.364 0-7.273 10.91-7.273 10.91s-.91-10.91-7.273-10.91c6.364 0 7.273-10.91 7.273-10.91s.91 10.91 7.273 10.91z"/><path d="M90.032 138.84c-4.423 0-5.055 7.583-5.055 7.583s-.632-7.583-5.055-7.583c4.423 0 5.055-7.582 5.055-7.582s.632 7.582 5.055 7.582z" fill="url(#a)" opacity=".4"/><path d="M356.11 97.665c-3.409 0-3.896 5.845-3.896 5.845s-.487-5.845-3.897-5.845c3.41 0 3.897-5.844 3.897-5.844s.487 5.844 3.896 5.844z" fill="url(#b)" opacity=".4"/><path d="M75.182 247.439c-5.805 0-6.634 9.951-6.634 9.951s-.83-9.951-6.635-9.951c5.805 0 6.635-9.952 6.635-9.952s.829 9.952 6.634 9.952z" fill="url(#c)" opacity=".4"/><path d="M296.182 385.439c-5.805 0-6.634 9.951-6.634 9.951s-.83-9.951-6.635-9.951c5.805 0 6.635-9.952 6.635-9.952s.829 9.952 6.634 9.952z" fill="url(#d)" opacity=".4"/><path d="M1302.182 395.439c-5.805 0-6.634 9.951-6.634 9.951s-.83-9.951-6.635-9.951c5.805 0 6.635-9.952 6.635-9.952s.829 9.952 6.634 9.952z" fill="url(#e)" opacity=".4"/><path d="M634.182 372.439c-5.805 0-6.634 9.951-6.634 9.951s-.83-9.951-6.635-9.951c5.805 0 6.635-9.952 6.635-9.952s.829 9.952 6.634 9.952z" fill="url(#f)" opacity=".4"/><path class="a" d="M571.273 436.5c-6.364 0-7.273 10.91-7.273 10.91s-.91-10.91-7.273-10.91c6.364 0 7.273-10.91 7.273-10.91s.91 10.91 7.273 10.91zM516.273 136.5c-6.364 0-7.273 10.91-7.273 10.91s-.91-10.91-7.273-10.91c6.364 0 7.273-10.91 7.273-10.91s.91 10.91 7.273 10.91zM167.273 81.5c-6.364 0-7.273 10.91-7.273 10.91s-.91-10.91-7.273-10.91c6.364 0 7.273-10.91 7.273-10.91s.91 10.91 7.273 10.91zM1188.386 355.375c-9.744 0-11.136 16.705-11.136 16.705s-1.392-16.705-11.136-16.705c9.744 0 11.136-16.705 11.136-16.705s1.392 16.705 11.136 16.705z"/></svg>