<svg xmlns="http://www.w3.org/2000/svg" xmlns:xlink="http://www.w3.org/1999/xlink" viewBox="0 0 1366 768"><defs><style>.a{fill:#eae27f;}.b,.c,.d,.e,.f,.g{opacity:0.4;}.b{fill:url(#a);}.c{fill:url(#b);}.d{fill:url(#c);}.e{fill:url(#d);}.f{fill:url(#e);}.g{fill:url(#f);}</style><linearGradient id="a" x1="69.41652" y1="98.84036" x2="80.53699" y2="98.84036" gradientUnits="userSpaceOnUse"><stop offset="0.71171" stop-color="#66e066"/><stop offset="0.74514" stop-color="#66e066"/><stop offset="0.9482" stop-color="#66e066"/></linearGradient><linearGradient id="b" x1="337.92781" y1="57.66543" x2="346.49999" y2="57.66543" xlink:href="#a"/><linearGradient id="c" x1="61.24979" y1="207.4387" x2="75.84541" y2="207.4387" xlink:href="#a"/><linearGradient id="d" x1="272.24979" y1="345.4387" x2="286.84541" y2="345.4387" xlink:href="#a"/><linearGradient id="e" x1="1258.24979" y1="355.4387" x2="1272.84541" y2="355.4387" xlink:href="#a"/><linearGradient id="f" x1="610.24979" y1="332.4387" x2="624.84541" y2="332.4387" xlink:href="#a"/></defs><title>03-stars</title><path class="a" d="M1216,162.5c-7,0-8,12-8,12s-1-12-8-12c7,0,8-12,8-12S1209,162.5,1216,162.5Z"/><path class="a" d="M838,35.5c-7,0-8,12-8,12s-1-12-8-12c7,0,8-12,8-12S831,35.5,838,35.5Z"/><path class="b" d="M80.537,98.84036c-4.86521,0-5.56024,8.34035-5.56024,8.34035s-.695-8.34035-5.56024-8.34035c4.86521,0,5.56024-8.34035,5.56024-8.34035S75.67178,98.84036,80.537,98.84036Z"/><path class="c" d="M346.5,57.66543c-3.75033,0-4.28609,6.42913-4.28609,6.42913s-.53576-6.42913-4.28609-6.42913c3.75033,0,4.28609-6.42913,4.28609-6.42913S342.74966,57.66543,346.5,57.66543Z"/><path class="d" d="M75.84541,207.4387c-6.38558,0-7.29781,10.94671-7.29781,10.94671s-.91223-10.94671-7.29781-10.94671c6.38558,0,7.29781-10.94671,7.29781-10.94671S69.45983,207.4387,75.84541,207.4387Z"/><path class="e" d="M286.84541,345.4387c-6.38558,0-7.29781,10.94671-7.29781,10.94671s-.91223-10.94671-7.29781-10.94671c6.38558,0,7.29781-10.94671,7.29781-10.94671S280.45983,345.4387,286.84541,345.4387Z"/><path class="f" d="M1272.84541,355.4387c-6.38558,0-7.29781,10.94671-7.29781,10.94671s-.91223-10.94671-7.29781-10.94671c6.38558,0,7.29781-10.94671,7.29781-10.94671S1266.45982,355.4387,1272.84541,355.4387Z"/><path class="g" d="M624.84541,332.4387c-6.38558,0-7.29781,10.94671-7.29781,10.94671s-.91223-10.94671-7.29781-10.94671c6.38558,0,7.29781-10.94671,7.29781-10.94671S618.45983,332.4387,624.84541,332.4387Z"/><path class="a" d="M562,396.5c-7,0-8,12-8,12s-1-12-8-12c7,0,8-12,8-12S555,396.5,562,396.5Z"/><path class="a" d="M507,96.5c-7,0-8,12-8,12s-1-12-8-12c7,0,8-12,8-12S500,96.5,507,96.5Z"/><path class="a" d="M158,41.5c-7,0-8,12-8,12s-1-12-8-12c7,0,8-12,8-12S151,41.5,158,41.5Z"/><path class="a" d="M1179.5,315.375c-10.71875,0-12.25,18.375-12.25,18.375s-1.53125-18.375-12.25-18.375c10.71875,0,12.25-18.375,12.25-18.375S1168.78124,315.375,1179.5,315.375Z"/></svg>