<svg xmlns="http://www.w3.org/2000/svg" xmlns:xlink="http://www.w3.org/1999/xlink" viewBox="0 0 1366 768"><defs><style>.a{isolation:isolate;}.b{fill:#b75d46;}.c{fill:url(#a);}.d{fill:#936f1d;}.e{fill:#936200;}.e,.j{opacity:0.75;}.e,.i,.j,.k,.r{mix-blend-mode:darken;}.f{fill:#93811d;opacity:0.58;}.f,.o,.v,.w{mix-blend-mode:lighten;}.g{fill:url(#b);}.h{fill:#3b7c6a;}.i,.k{fill:#255b49;}.i{opacity:0.31;}.k,.r{opacity:0.47;}.l{fill:#586d0c;}.m{fill:#54af32;}.n{fill:#4088db;}.o{fill:#36c2c1;opacity:0.22;}.p{fill:#3665c1;opacity:0.24;}.q{fill:#e0d28c;}.s{fill:#b2a122;}.t{fill:url(#c);}.u{fill:#5638c1;}.v{fill:#7236c1;}.v,.w{opacity:0.3;}.w{fill:#8636c1;}</style><linearGradient id="a" x1="814.46793" y1="368.53579" x2="839.83939" y2="342.96689" gradientUnits="userSpaceOnUse"><stop offset="0" stop-color="#b75d46" stop-opacity="0"/><stop offset="0.06462" stop-color="#b75646" stop-opacity="0.1759"/><stop offset="0.15951" stop-color="#b74c46" stop-opacity="0.39848"/><stop offset="0.25258" stop-color="#b74546" stop-opacity="0.57359"/><stop offset="0.34202" stop-color="#b73f46" stop-opacity="0.69876"/><stop offset="0.42627" stop-color="#b73c46" stop-opacity="0.7742"/><stop offset="0.5" stop-color="#b73b46" stop-opacity="0.8"/><stop offset="0.57516" stop-color="#b73c46" stop-opacity="0.77498"/><stop offset="0.65906" stop-color="#b73f46" stop-opacity="0.70145"/><stop offset="0.7472" stop-color="#b74446" stop-opacity="0.57933"/><stop offset="0.83826" stop-color="#b74c46" stop-opacity="0.40845"/><stop offset="0.93061" stop-color="#b75546" stop-opacity="0.19122"/><stop offset="1" stop-color="#b75d46" stop-opacity="0"/></linearGradient><linearGradient id="b" x1="78.67679" y1="313.58286" x2="93.87311" y2="329.14684" gradientUnits="userSpaceOnUse"><stop offset="0.07432" stop-color="#455b09"/><stop offset="1" stop-color="#003909"/></linearGradient><linearGradient id="c" x1="1286.35305" y1="255.49806" x2="1265.88281" y2="235.02782" gradientUnits="userSpaceOnUse"><stop offset="0" stop-color="#007380"/><stop offset="0.78378" stop-color="#00484c"/></linearGradient></defs><title>04-planets</title><g class="a"><circle class="b" cx="827.155" cy="355.74999" r="14.21592"/><circle class="c" cx="827.155" cy="355.74999" r="14.21592"/><circle class="d" cx="852.38979" cy="460.8202" r="5.39224"/><path class="e" d="M857.78212,460.8202a5.38922,5.38922,0,0,1-5.39233,5.39216,5.56913,5.56913,0,0,1-1.402-.2059H850.978c-.05882-.01963-.12746-.02938-.1961-.049s-.12746-.03919-.1961-.05882a5.12774,5.12774,0,0,1-1.53921-.85294,4.38384,4.38384,0,0,0,1.14708.17646,1.88723,1.88723,0,0,0,.23529.00981,5.38922,5.38922,0,0,0,5.39233-5.39216,5.31739,5.31739,0,0,0-1.23534-3.42156,5.39309,5.39309,0,0,0-.78433-.78436c.05882.01963.12746.02944.1961.04907s.13727.03919.1961.05882a5.248,5.248,0,0,1,1.53921.85294A5.34,5.34,0,0,1,857.78212,460.8202Z"/><path class="f" d="M854.58593,456.41825a1.88723,1.88723,0,0,0-.23529-.00981,5.38918,5.38918,0,0,0-5.39233,5.39216,5.31764,5.31764,0,0,0,1.23534,3.42156,4.38384,4.38384,0,0,1-1.14708-.17646,5.3886,5.3886,0,0,1,3.34322-9.61764,5.56908,5.56908,0,0,1,1.402.20584h.00981A5.39309,5.39309,0,0,1,854.58593,456.41825Z"/><circle class="g" cx="86.48501" cy="321.57999" r="10.78449"/><circle class="h" cx="1246.37499" cy="79.84" r="41.17714"/><path class="i" d="M1287.55279,79.84a41.18007,41.18007,0,0,1-72.15918,27.12743,41.18489,41.18489,0,0,0,49.21724-64.05879A41.17049,41.17049,0,0,1,1287.55279,79.84Z"/><g class="j"><path class="k" d="M1268.98193,53.974a1.986,1.986,0,0,0-1.13427.19214c-1.6864.858-1.76454,4.09878-.16838,7.2357a8.99278,8.99278,0,0,0,3.4956,3.88642c-1.58823-.1379-3.54244-1.8166-4.814-4.31561-1.59616-3.13692-1.518-6.37766.16838-7.2357A2.61115,2.61115,0,0,1,1268.98193,53.974Z"/><path class="k" d="M1271.92971,69.24882a1.13616,1.13616,0,0,0-.527.12277c-.80687.41054-.97474,1.70467-.372,2.8892a2.88388,2.88388,0,0,0,1.44158,1.40568,2.507,2.507,0,0,1-2.02756-1.5229c-.60273-1.18453-.43486-2.47866.372-2.8892A1.32093,1.32093,0,0,1,1271.92971,69.24882Z"/><path class="k" d="M1214.08469,78.07235a1.13615,1.13615,0,0,0-.527.12277c-.80688.41054-.97474,1.70467-.372,2.8892a2.88388,2.88388,0,0,0,1.44158,1.40568,2.507,2.507,0,0,1-2.02756-1.5229c-.60273-1.18453-.43486-2.47866.372-2.8892A1.32093,1.32093,0,0,1,1214.08469,78.07235Z"/><path class="k" d="M1274.09719,81.93432a4.123,4.123,0,0,0-3.21867-.01148c-2.47666,1.09014-3.307,4.65483-1.85343,7.95694a7.96089,7.96089,0,0,0,2.47729,3.19426,7.45711,7.45711,0,0,1-3.90128-3.99569c-1.45356-3.30211-.62323-6.8668,1.85343-7.95694A4.64853,4.64853,0,0,1,1274.09719,81.93432Z"/><path class="k" d="M1265.66636,74.6651a2.08656,2.08656,0,0,0-1.62891-.00581c-1.2534.5517-1.67361,2.35573-.938,4.02688a4.02887,4.02887,0,0,0,1.25372,1.61656,3.77392,3.77392,0,0,1-1.97438-2.02216c-.73563-1.67114-.31541-3.47518.938-4.02688A2.35255,2.35255,0,0,1,1265.66636,74.6651Z"/><path class="k" d="M1228.41025,52.11608a2.08656,2.08656,0,0,0-1.62891-.00581c-1.2534.5517-1.67361,2.35573-.938,4.02688a4.02888,4.02888,0,0,0,1.25372,1.61656,3.77392,3.77392,0,0,1-1.97438-2.02216c-.73563-1.67114-.31541-3.47518.938-4.02688A2.35255,2.35255,0,0,1,1228.41025,52.11608Z"/><path class="k" d="M1258.9374,94.63687a5.15344,5.15344,0,0,0-3.01562.31973c-3.47822,1.51595-4.53641,6.76834-2.374,11.72938a12.16613,12.16613,0,0,0,4.61205,5.551c-2.771-.49275-5.6183-2.95218-7.193-6.56506-2.16236-4.961-1.10417-10.21344,2.374-11.72938A6.03361,6.03361,0,0,1,1258.9374,94.63687Z"/></g><circle class="l" cx="1164.26499" cy="104.32" r="3.92163"/><circle class="m" cx="422.21501" cy="338.42999" r="25.00041"/><path class="i" d="M447.21582,338.43a25.00219,25.00219,0,0,1-43.81093,16.47023,25.00511,25.00511,0,0,0,29.88189-38.89284A24.99637,24.99637,0,0,1,447.21582,338.43Z"/><g class="j"><path class="k" d="M435.94065,322.72562a1.20579,1.20579,0,0,0-.68866.11666c-1.02389.521-1.07133,2.48855-.10223,4.3931a5.4599,5.4599,0,0,0,2.12233,2.35961c-.96428-.08372-2.15077-1.10293-2.9228-2.62019-.9691-1.90456-.92166-3.87215.10223-4.3931A1.58534,1.58534,0,0,1,435.94065,322.72562Z"/><path class="k" d="M437.73037,331.99963a.68981.68981,0,0,0-.32.07454c-.48989.24926-.59181,1.035-.22587,1.75416a1.75093,1.75093,0,0,0,.87525.85345,1.5221,1.5221,0,0,1-1.231-.92462c-.36594-.71918-.264-1.5049.22587-1.75416A.802.802,0,0,1,437.73037,331.99963Z"/><path class="k" d="M402.61018,337.35678a.68981.68981,0,0,0-.32.07454c-.48989.24926-.59181,1.035-.22587,1.75416a1.75093,1.75093,0,0,0,.87525.85345,1.5221,1.5221,0,0,1-1.231-.92462c-.36594-.71918-.264-1.5049.22587-1.75416A.802.802,0,0,1,402.61018,337.35678Z"/><path class="k" d="M439.04634,339.70155a2.50322,2.50322,0,0,0-1.95419-.007c-1.50369.66187-2.00782,2.82615-1.1253,4.831a4.8334,4.8334,0,0,0,1.50407,1.93937,4.52753,4.52753,0,0,1-2.36864-2.426c-.88252-2.00485-.37839-4.16913,1.1253-4.831A2.82232,2.82232,0,0,1,439.04634,339.70155Z"/><path class="k" d="M433.92763,335.28809a1.26684,1.26684,0,0,0-.989-.00353,1.81308,1.81308,0,0,0-.56949,2.44489,2.4461,2.4461,0,0,0,.76119.98148,2.29131,2.29131,0,0,1-1.19873-1.22774,1.81308,1.81308,0,0,1,.56949-2.44489A1.42833,1.42833,0,0,1,433.92763,335.28809Z"/><path class="k" d="M411.30785,321.59761a1.26684,1.26684,0,0,0-.989-.00353,1.81308,1.81308,0,0,0-.56949,2.44489,2.4461,2.4461,0,0,0,.76119.98148,2.29131,2.29131,0,0,1-1.19873-1.22774,1.81308,1.81308,0,0,1,.56949-2.44489A1.42833,1.42833,0,0,1,411.30785,321.59761Z"/><path class="k" d="M429.84219,347.41381a3.12887,3.12887,0,0,0-1.83091.19412c-2.11177.9204-2.75425,4.10935-1.44139,7.12141a7.38657,7.38657,0,0,0,2.80017,3.37027,6.47528,6.47528,0,0,1-4.3672-3.98593c-1.31286-3.01206-.67039-6.201,1.44139-7.12141A3.66326,3.66326,0,0,1,429.84219,347.41381Z"/></g><path class="n" d="M314.47409,197.14c0,1.196-.0392,2.38235-.10783,3.55883a54.79323,54.79323,0,0,1-3.29421,15.5882c-.353.97058-.73532,1.9314-1.14714,2.87254a54.7013,54.7013,0,0,1-5.66682,10.01964,49.23743,49.23743,0,0,1-3.255,4.147A55.58008,55.58008,0,0,1,288.18893,244.287a56.855,56.855,0,0,1-8.41205,4.25493,55.41068,55.41068,0,0,1-20.69674,3.9902c-1.12751,0-2.24515-.02944-3.353-.10783a54.1828,54.1828,0,0,1-8.13751-1.09809,53.21021,53.21021,0,0,1-7.68655-2.21564,55.562,55.562,0,0,1-25.82439-19.66666,54.87552,54.87552,0,0,1-4.31383-7.049c.69606-.1569,1.402-.32355,2.11769-.48044.77457-.17646,1.54909-.36274,2.33341-.5392.32356-.07839.64711-.15684.98042-.23528.69612-.15684,1.39219-.32355,2.08831-.4902.20591-.049.41176-.10783.62749-.15684.79414-.18628,1.5981-.38237,2.4118-.57846.03926-.00981.07845-.01963.10789-.02938,1.05881-.25491,2.1275-.51964,3.20595-.78436s2.16676-.5392,3.27464-.81368c1.09807-.27454,2.21577-.549,3.33347-.84318.55879-.13721,1.11764-.28429,1.6863-.43137s1.13727-.29411,1.70593-.44113c2.27459-.58827,4.58838-1.1863,6.94142-1.81376,6.2061-1.64705,12.64749-3.42156,19.24573-5.29408,1.00981-.29417,2.01967-.57846,3.03929-.87256,2.53932-.72548,5.059-1.46077,7.53946-2.19607,1.98048-.57846,3.94132-1.16667,5.88254-1.74513,1.58828-.48038,3.16681-.951,4.72565-1.43133,6.02963-1.83339,11.83372-3.66672,17.3437-5.46079q4.72077-1.52947,9.13756-3.01962,3.4854-1.17645,6.78452-2.32352C314.40546,193.97329,314.47409,195.55177,314.47409,197.14Z"/><path class="n" d="M314.278,192.4145q-3.29421,1.147-6.78452,2.32352-4.41191,1.48531-9.13756,3.01962c-5.51,1.79407-11.31407,3.6274-17.3437,5.46079-1.55884.48038-3.13737.951-4.72565,1.43133-1.94122.57846-3.90207,1.16667-5.88254,1.74513-2.48044.73529-5.00014,1.47059-7.53946,2.19607-1.01962.29411-2.02948.5784-3.03929.87256-6.59823,1.87252-13.03963,3.647-19.24573,5.29408-2.353.62747-4.66683,1.22549-6.94142,1.81376q-.853.22053-1.70593.44113c-2.82363.72554-5.59824,1.42158-8.29441,2.08824-1.07844.26472-2.14713.52945-3.20595.78436-.02944.00975-.06864.01957-.10789.02938-.81371.19609-1.61766.39218-2.4118.57846-.21572.05882-.42158.10783-.62749.15684-.70588.16665-1.402.32355-2.08831.4902-.33331.07845-.65687.1569-.98042.23528-.78433.17646-1.55884.36274-2.33341.5392-.71569.1569-1.42163.32355-2.11769.48044a54.43888,54.43888,0,0,1-3.58839-8.81378c-.34312-1.06859-.63724-2.15681-.902-3.25485-.14709-.59808-.2843-1.20592-.41176-1.81376-.09808-.4902-.1961-.98039-.28436-1.47059-.07839-.38237-.13721-.76467-.196-1.147-.05882-.31373-.10789-.62747-.14709-.951-.02938-.20584-.05882-.41175-.07845-.61765-.07839-.5784-.147-1.17642-.20585-1.76469-.12746-1.29412-.20591-2.60782-.24511-3.93138v-.10783c-.00981-.45094-.01963-.92157-.01963-1.38233a55.117,55.117,0,0,1,9.618-31.19608,55.70728,55.70728,0,0,1,5.66688-7.00983l.06858-.06863v-.00975a55.73264,55.73264,0,0,1,15.95152-11.60787c.21572-.10783.43139-.2059.64711-.30392.86272-.40193,1.74512-.7843,2.62753-1.147q1.01474-.41181,2.05887-.79412a53.89794,53.89794,0,0,1,6.6473-1.92159,55.44811,55.44811,0,0,1,9.17675-1.26468c.97061-.03925,1.951-.06863,2.93146-.06863a55.25841,55.25841,0,0,1,24.4714,5.68626A56.04405,56.04405,0,0,1,292.0518,152.64a55.88652,55.88652,0,0,1,16.59857,19.76468,51.87384,51.87384,0,0,1,2.17657,4.951c.30393.77449.57842,1.549.84315,2.34309A55.15672,55.15672,0,0,1,314.278,192.4145Z"/><path class="o" d="M304.25809,229.1792a49.23743,49.23743,0,0,1-3.255,4.147c-8.80419-9.52938-13.2161-22.20585-12.51022-8.73527a178.7567,178.7567,0,0,1-.30393,19.696,56.855,56.855,0,0,1-8.41205,4.25493c.11765-18.64708,11.78472-26.69606-.10783-31.79411-13.72594-5.88235-22.54975-14.70588-25.491,11.76471a79.63784,79.63784,0,0,1-6.58842,22.81368,53.21021,53.21021,0,0,1-7.68655-2.21564c8.54927-20.76476,20.03005-39.96079,10.67683-36.94123-11.10822,3.59808-18.95161,21.24514-34.6384,10.46083-.57848-.402-1.15689-.81374-1.72556-1.25493a50.998,50.998,0,0,1-8.03949-7.79413c-.34312-1.06859-.63724-2.15681-.902-3.25485-.14709-.59808-.2843-1.20592-.41176-1.81376-.09808-.4902-.1961-.98039-.28436-1.47059-.07839-.38237-.13721-.76467-.196-1.147-.05882-.31373-.10789-.62747-.14709-.951-.02938-.20584-.05882-.41175-.07845-.61765-.07839-.5784-.147-1.17642-.20585-1.76469-.12746-1.29412-.20591-2.60782-.24511-3.93138v-.07839c1.42157,8.39215,6.40214,16.23529,20.07906,16.23529,29.41272,0-1.96085-35.29412,7.84339-58.82353q2.08828-5,4.01-9.01962c.86272-.40193,1.74512-.7843,2.62753-1.147q1.01474-.41181,2.05887-.79412c-6.69631,18.74509-5.86292,54.98035,10.91212,53.11764,14.20633-1.57842,15.70641-40.65689,22.9125-54.29412a55.45129,55.45129,0,0,1,9.40229,3.60784,57.81345,57.81345,0,0,0-3.8825,9.50982c-5.43153,17.0686-9.63758,34.75491-3.38247,47.70585a26.65968,26.65968,0,0,0,7.30417,9.15689C289.49291,218.60079,297.48333,224.22824,304.25809,229.1792Z"/><path class="p" d="M309.92493,219.1596c-1.68633-4.58824-4.90212-11.02941-11.569-21.402q-2.22066-3.44118-4.96095-7.48039c-16.66721-24.5098-21.56933-1.96078-14.70636,8.82353.78434,1.22549,1.56868,2.62745,2.3236,4.11765,5.87274,11.61765,10.1768,29.30392.61767,22.35294-6.68649-4.86274-5.83352-10.47059-11.22585-19.17647-3.304-5.33333-8.96108-11.84314-20.14771-20.03922-24.23608-17.77451-5.86294-.93137,9.56894,23.10784a139.65759,139.65759,0,0,1,9.05912,16.10784c11.76509,25.10784,2.18635,21.33333-13.15729,26.85294a55.49839,55.49839,0,0,1-45.96228-30.02941,54.50529,54.50529,0,0,1-4.49034-12.06863c-.14706-.598-.28432-1.20588-.41178-1.81373-.098-.4902-.19608-.98039-.28432-1.47059-.07843-.38235-.13726-.76471-.19608-1.14706-.05883-.31373-.10785-.62745-.14706-.951-.02941-.20588-.05883-.41176-.07843-.61765-.07843-.57843-.14706-1.17647-.20589-1.76471-.12746-1.29412-.20589-2.60784-.24511-3.93137,2.64714,5.20588,4.72564,10.64706,5.37272,15.17647a22.69914,22.69914,0,0,0,2.804,8.10784c8.27478,14.4902,30.66766,18.91176,31.51083,4.63725.31374-5.37255-.79414-8.91176-2.81382-11.79412-4.21582-6.06863-12.422-9.26471-19.73593-20.55882-6.65708-10.28431-7.70613-21.31372-7.53946-28.2549l5.66685-7.0098.06863-.06863c2.00987,3.27451,4.53936,9.05882,7.68652,16.70588,6.863,16.66667,16.66721-.98039,8.82382-26.47059-.19608-.65686-.38237-1.26471-.55884-1.85294,1.06866-.51961,2.16674-1,3.27462-1.451,3.76483,6.7549,8.97088,17.41176,12.971,25.85294,8.82382,18.62745,8.82382-1.96078-1.96085-23.52941-.97062-1.93137-1.72555-3.60784-2.304-5.03922a55.44979,55.44979,0,0,1,9.17677-1.26471,82.85178,82.85178,0,0,1,6.85316,7.28431c9.80424,11.76471,12.74551,26.47059,19.60848,26.47059s-12.74551-27.451,8.16693-23.20588c.44119.08824.86277.17647,1.27455.27451l10.03954,9.61765c-.58825,3.951-1.96085,9.35294,1.10788,17.23529a104.05415,104.05415,0,0,1,4.29426,15.2451c1.6079,7.46078,2.79421,15.32353,3.57855,21.549Z"/><path class="q" d="M314.36626,200.69882c-14.52989,5.402-31.23629,10.902-49.15847,16.049-18.29469,5.25489-35.71684,9.5392-51.12913,12.69609-34.57951,7.06859-59.0803,8.47054-60.80585,2.48036a2.40788,2.40788,0,0,1-.09808-.70585,2.87469,2.87469,0,0,1,.05882-.56864,4.40089,4.40089,0,0,1,.11765-.451c2.04911-6.21565,21.65759-16.65685,50.59973-27.63726q.08823.88241.20585,1.76469c.01963.2059.04907.41181.07845.61765.049.32355.08826.63728.14709.951.05882.38237.11765.76467.196,1.147.08826.4902.18628.98039.28436,1.47059.12746.60784.26467,1.21568.41176,1.81376-.35294.1274-.70588.2451-1.04906.37249-22.49093,7.951-36.70708,14.42159-35.99133,16.92158v.00981a1.23847,1.23847,0,0,0,.86272.68629c3.73547,1.31375,19.05944-1.01959,40.668-5.92155,15.19657-3.451,33.51088-8.1765,53.09974-13.80394,19.1869-5.5098,36.87373-11.10786,51.41344-16.17647,23.85373-8.304,39.2464-15.1667,38.8934-17.83334a.28965.28965,0,0,0-.01957-.098c-.69612-2.451-15.579-.52945-38.07969,4.451-1.1177.25491-2.24515.5-3.402.76467-.26473-.79412-.53922-1.5686-.84315-2.34309a51.87384,51.87384,0,0,0-2.17657-4.951c33.41287-6.75486,57.11951-8.08824,59.38429-2.451a2.21846,2.21846,0,0,1,.07845.23534C369.84842,176.238,347.936,188.21839,314.36626,200.69882Z"/><g class="r"><path class="s" d="M205.27447,210.32628c-.35294.1274-.70588.2451-1.04906.37249-22.49093,7.951-36.70708,14.42159-35.99133,16.92158-.06864-.18628-.28436-.88232-.33337-1.06859-.7255-2.51962,14.0985-9.9902,36.962-18.03924C204.99017,209.12036,205.12738,209.7282,205.27447,210.32628Z"/><path class="s" d="M353.20084,174.591c-.00981,0-.01963-.00981-.02944-.00981a.28965.28965,0,0,0-.01957-.098c-.69612-2.451-15.579-.52945-38.07969,4.451-1.1177.25491-2.24515.5-3.402.76467-.26473-.79412-.53922-1.5686-.84315-2.34309,23.95175-5.39216,41.59938-7.37257,42.32489-4.83333C353.25966,172.89486,353.72049,174.05177,353.20084,174.591Z"/><path class="s" d="M314.36953,200.69882c-14.52989,5.402-31.23629,10.902-49.15847,16.049-18.29469,5.25489-35.71684,9.5392-51.12913,12.69609-34.57951,7.06859-59.0803,8.47054-60.80585,2.48036a2.83678,2.83678,0,0,1,.07839-1.7255c2.304,5.7157,26.60872,4.25493,60.72746-2.71565,15.4123-3.15689,32.83445-7.4412,51.12913-12.69609,17.92218-5.14706,34.62858-10.647,49.15847-16.049,30.62844-11.39215,51.55065-22.353,53.6684-28.78436a2.21843,2.21843,0,0,1,.07845.23534C369.85169,176.238,347.93924,188.21839,314.36953,200.69882Z"/></g><circle class="t" cx="1276.44499" cy="245.59" r="14.21592"/><path class="u" d="M953.492,95.65a16.10044,16.10044,0,0,1-.35208,3.37325,16.31141,16.31141,0,0,1-.49008,1.808c-.04281.12844-.0904.25691-.138.38062a16.07681,16.07681,0,0,1-1.17523,2.50733q-.12846.22838-.27118.45676a16.19246,16.19246,0,0,1-2.19817,2.79282c-.20935.21887-.42823.42821-.65186.628a15.92075,15.92075,0,0,1-3.31151,2.34558c-.00953.00476-.01429.00952-.02378.01429a16.47532,16.47532,0,0,1-3.39241,1.32741c-.23313.06185-.4663.11894-.70419.16651a15.87588,15.87588,0,0,1-2.6216.35683c-.28073.00952-.56146.019-.84693.019a16.1857,16.1857,0,0,1-3.89675-.471c-.11895-.02855-.23313-.06185-.35208-.09516a15.93772,15.93772,0,0,1-3.52565-1.41784,16.10669,16.10669,0,0,1-4.08229-3.19722c-.29975-.314-.57572-.63756-.8374-.97058-.13324-.16654-.26168-.33781-.38539-.50909h-.00476a16.15394,16.15394,0,0,1-1.513-2.53591h-.00476a16.25377,16.25377,0,0,1-1.14665-10.686,15.97956,15.97956,0,0,1,.87544-2.67387,16.18838,16.18838,0,0,1,2.98324-4.58175,15.84374,15.84374,0,0,1,3.11644-2.62628,15.49122,15.49122,0,0,1,2.1934-1.19421,16.05718,16.05718,0,0,1,4.777-1.29413c.37587-.0428.75173-.07135,1.13713-.08564.21888-.0095.44251-.01426.66612-.01426A16.182,16.182,0,0,1,952.03606,88.932c.00476.01426.01426.02855.019.0428a15.89775,15.89775,0,0,1,1.042,3.10685c.09516.41393.17131.83737.2284,1.2608a13.79713,13.79713,0,0,1,.14749,1.47969C953.48723,95.09808,953.492,95.374,953.492,95.65Z"/><path class="v" d="M953.13991,99.02325a16.31141,16.31141,0,0,1-.49008,1.808,27.88652,27.88652,0,0,0-7.84584-3.15441c-.276-.0476-.55191-.0904-.82788-.12371-5.52872-.65181-2.60734,7.37457-2.48839,13.731-.23313.06185-.4663.11894-.70419.16651a15.87588,15.87588,0,0,1-2.6216.35683c1.08-3.221,1.83656-6.6609-.37113-8.06919-3.40194-2.16479-2.78338,2.91176-4.02523,6.20414a.01479.01479,0,0,1-.00473.00952,5.11308,5.11308,0,0,1-.69467,1.30839,15.93772,15.93772,0,0,1-3.52565-1.41784,8.93289,8.93289,0,0,0,1.11337-3.72533c.69467-6.58479-.12847-3.57786-4.11563-3.11161a9.40462,9.40462,0,0,1-3.82061-.37585h-.00476A16.16361,16.16361,0,0,1,921.138,95.65a54.26808,54.26808,0,0,0,8.01712,2.75951c3.70645.87545,4.049-.02378.69943-1.59861-.45677-.21887-.9849-.44723-1.57964-.68512a26.38684,26.38684,0,0,1-6.70868-4.18211,15.97956,15.97956,0,0,1,.87544-2.67387,13.16822,13.16822,0,0,0,8.72607,3.35426,18.88726,18.88726,0,0,0,4.05851-.35683,29.13024,29.13024,0,0,0,5.89509-1.85079,29.65616,29.65616,0,0,0,8.42156-5.362,16.3091,16.3091,0,0,1,2.49316,3.87761c-4.70561,1.44159-8.21221,3.497-7.55561,5.54756a3.63514,3.63514,0,0,0,1.789,1.81748c.176.10466.36161.20458.56143.30451A48.96125,48.96125,0,0,0,953.13991,99.02325Z"/><path class="w" d="M952.51186,101.21185a16.07681,16.07681,0,0,1-1.17523,2.50733,29.55611,29.55611,0,0,1-4.50576-1.88406c-8.0885-4.282-4.75794,1.42734,1.30843,5.70934a.72948.72948,0,0,0,.07611.05233,15.92075,15.92075,0,0,1-3.31151,2.34558c-.00953.00476-.01429.00952-.02378.01429-2.21722-1.94118-4.47724-5.99959-9.94411-7.17-3.97287-.85166-6.93232,1.513-9.47781,3.85856-.29975-.314-.57572-.63756-.8374-.97058-.13324-.16654-.26168-.33781-.38539-.50909,4.04425-3.33045,13.07957-4.28677,11.1764-11.41868-1.44167-5.4096-7.25586-8.08347-9.98691-9.05884a15.84374,15.84374,0,0,1,3.11644-2.62628c1.023.62327,2.0126,1.30363,2.8072,1.86981a1.70008,1.70008,0,0,0,2.54072-.69465c.44248-1.00389,1.01344-2.298,1.62247-3.6635.37587-.0428.75173-.07135,1.13713-.08564-1.532,8.19768,5.0482,10.44334,15.40621,9.487a15.89775,15.89775,0,0,1,1.042,3.10685c.09516.41393.17131.83737.2284,1.2608-1.71764.68988-3.33056,1.32744-4.59142,1.83176C943.7049,97.18675,947.183,99.19929,952.51186,101.21185Z"/></g></svg>