<svg xmlns="http://www.w3.org/2000/svg" xmlns:xlink="http://www.w3.org/1999/xlink" viewBox="0 0 1366 768"><defs><style>.a{isolation:isolate;}.b{fill:#b75d46;}.c{fill:url(#a);}.d{fill:#936f1d;}.e{fill:#936200;}.e,.j{opacity:0.75;}.e,.i,.j,.k,.r{mix-blend-mode:darken;}.f{fill:#93811d;opacity:0.58;}.f,.o,.v,.w{mix-blend-mode:lighten;}.g{fill:url(#b);}.h{fill:#3b7c6a;}.i,.k{fill:#255b49;}.i{opacity:0.31;}.k,.r{opacity:0.47;}.l{fill:#586d0c;}.m{fill:#54af32;}.n{fill:#4088db;}.o{fill:#36c2c1;opacity:0.22;}.p{fill:#3665c1;opacity:0.24;}.q{fill:#e0d28c;}.s{fill:#b2a122;}.t{fill:url(#c);}.u{fill:#5638c1;}.v{fill:#7236c1;}.v,.w{opacity:0.3;}.w{fill:#8636c1;}</style><linearGradient id="a" x1="813.5594" y1="362.5413" x2="839.43788" y2="336.46144" gradientUnits="userSpaceOnUse"><stop offset="0" stop-color="#b75d46" stop-opacity="0"/><stop offset="0.06462" stop-color="#b75646" stop-opacity="0.1759"/><stop offset="0.15951" stop-color="#b74c46" stop-opacity="0.39848"/><stop offset="0.25258" stop-color="#b74546" stop-opacity="0.57359"/><stop offset="0.34202" stop-color="#b73f46" stop-opacity="0.69876"/><stop offset="0.42627" stop-color="#b73c46" stop-opacity="0.7742"/><stop offset="0.5" stop-color="#b73b46" stop-opacity="0.8"/><stop offset="0.57516" stop-color="#b73c46" stop-opacity="0.77498"/><stop offset="0.65906" stop-color="#b73f46" stop-opacity="0.70145"/><stop offset="0.7472" stop-color="#b74446" stop-opacity="0.57933"/><stop offset="0.83826" stop-color="#b74c46" stop-opacity="0.40845"/><stop offset="0.93061" stop-color="#b75546" stop-opacity="0.19122"/><stop offset="1" stop-color="#b75d46" stop-opacity="0"/></linearGradient><linearGradient id="b" x1="110.03574" y1="307.84306" x2="125.53574" y2="323.71806" gradientUnits="userSpaceOnUse"><stop offset="0.07432" stop-color="#455b09"/><stop offset="1" stop-color="#003909"/></linearGradient><linearGradient id="c" x1="1276.10606" y1="251.60606" x2="1255.22676" y2="230.72676" gradientUnits="userSpaceOnUse"><stop offset="0" stop-color="#007380"/><stop offset="0.78378" stop-color="#00484c"/></linearGradient></defs><title>04-planets</title><g class="a"><circle class="b" cx="826.5" cy="349.5" r="14.5"/><circle class="c" cx="826.5" cy="349.5" r="14.5"/><circle class="d" cx="851.23999" cy="452.51001" r="5.5"/><path class="e" d="M856.74,452.51a5.49691,5.49691,0,0,1-5.5,5.5,5.68015,5.68015,0,0,1-1.43-.21h-.01c-.06-.02-.13-.03-.2-.05s-.13-.04-.2-.06a5.23007,5.23007,0,0,1-1.56995-.87A4.47124,4.47124,0,0,0,849,457a1.92484,1.92484,0,0,0,.24.01,5.49691,5.49691,0,0,0,5.5-5.5,5.42385,5.42385,0,0,0-1.26-3.49,5.50087,5.50087,0,0,0-.8-.8c.06.02.13.03.2.05s.14.04.2.06a5.35276,5.35276,0,0,1,1.56995.87A5.4469,5.4469,0,0,1,856.74,452.51Z"/><path class="f" d="M853.48,448.02a1.92486,1.92486,0,0,0-.24-.01,5.49688,5.49688,0,0,0-5.5,5.5A5.42409,5.42409,0,0,0,849,457a4.47124,4.47124,0,0,1-1.17-.18,5.49641,5.49641,0,0,1,3.41-9.81,5.68011,5.68011,0,0,1,1.43.21h.01A5.50087,5.50087,0,0,1,853.48,448.02Z"/><circle class="g" cx="118" cy="316" r="11"/><circle class="h" cx="1237.5" cy="79" r="42"/><path class="i" d="M1279.5,79a42.002,42.002,0,0,1-73.6,27.67,42.0083,42.0083,0,0,0,50.2-65.34A41.994,41.994,0,0,1,1279.5,79Z"/><g class="j"><path class="k" d="M1260.55833,52.61665a2.0256,2.0256,0,0,0-1.15692.196c-1.72007.8752-1.79978,4.18076-.17174,7.38041a9.17251,9.17251,0,0,0,3.56539,3.96415c-1.61994-.14066-3.61317-1.85293-4.91015-4.40192-1.628-3.19965-1.54833-6.50521.17174-7.38041A2.66322,2.66322,0,0,1,1260.55833,52.61665Z"/><path class="k" d="M1263.565,68.197a1.15881,1.15881,0,0,0-.53753.12523c-.823.41875-.99421,1.73877-.37944,2.947a2.9415,2.9415,0,0,0,1.47037,1.43379,2.55705,2.55705,0,0,1-2.068-1.55336c-.61476-1.20822-.44354-2.52824.37944-2.947A1.34726,1.34726,0,0,1,1263.565,68.197Z"/><path class="k" d="M1204.565,77.197a1.15881,1.15881,0,0,0-.53753.12523c-.823.41875-.99421,1.73877-.37944,2.947a2.9415,2.9415,0,0,0,1.47037,1.43379,2.55705,2.55705,0,0,1-2.068-1.55336c-.61476-1.20822-.44354-2.52824.37944-2.947A1.34726,1.34726,0,0,1,1204.565,77.197Z"/><path class="k" d="M1265.77573,81.13621a4.20515,4.20515,0,0,0-3.28293-.01171c-2.52611,1.11194-3.373,4.74793-1.89044,8.11608a8.12007,8.12007,0,0,0,2.52676,3.25814,7.60613,7.60613,0,0,1-3.97918-4.07561c-1.48259-3.36815-.63567-7.00414,1.89044-8.11608A4.74123,4.74123,0,0,1,1265.77573,81.13621Z"/><path class="k" d="M1257.17656,73.7216a2.12816,2.12816,0,0,0-1.66144-.00593c-1.27842.56273-1.707,2.40285-.95672,4.10741a4.10943,4.10943,0,0,0,1.27875,1.64889,3.84934,3.84934,0,0,1-2.0138-2.0626c-.75031-1.70457-.3217-3.54468.95672-4.10741A2.39946,2.39946,0,0,1,1257.17656,73.7216Z"/><path class="k" d="M1219.17656,50.7216a2.12816,2.12816,0,0,0-1.66144-.00593c-1.27842.56273-1.707,2.40285-.95672,4.10741a4.10943,4.10943,0,0,0,1.27875,1.64889,3.84934,3.84934,0,0,1-2.0138-2.0626c-.75031-1.70457-.3217-3.54468.95672-4.10741A2.39946,2.39946,0,0,1,1219.17656,50.7216Z"/><path class="k" d="M1250.31325,94.09281a5.25618,5.25618,0,0,0-3.07583.32613c-3.54766,1.54627-4.627,6.90371-2.42145,11.964a12.40934,12.40934,0,0,0,4.70414,5.662c-2.82636-.50261-5.73048-3.01123-7.33667-6.69636-2.20554-5.06026-1.12622-10.4177,2.42145-11.964A6.15392,6.15392,0,0,1,1250.31325,94.09281Z"/></g><circle class="l" cx="1157" cy="103" r="4"/><circle class="m" cx="429.5" cy="333.5" r="25.5"/><path class="i" d="M455,333.5a25.50123,25.50123,0,0,1-44.6857,16.79963,25.505,25.505,0,0,0,30.47854-39.67069A25.49638,25.49638,0,0,1,455,333.5Z"/><g class="j"><path class="k" d="M443.4997,317.48153a1.22983,1.22983,0,0,0-.70242.119c-1.04433.53137-1.09272,2.53832-.10427,4.481a5.569,5.569,0,0,0,2.1647,2.40681c-.98353-.0854-2.19371-1.125-2.98116-2.6726-.98845-1.94265-.94006-3.94959.10427-4.481A1.617,1.617,0,0,1,443.4997,317.48153Z"/><path class="k" d="M445.32516,326.941a.70356.70356,0,0,0-.32636.076c-.49967.25424-.60363,1.05568-.23038,1.78924a1.78591,1.78591,0,0,0,.89272.87051,1.5525,1.5525,0,0,1-1.2556-.94311c-.37325-.73356-.26929-1.535.23038-1.78924A.818.818,0,0,1,445.32516,326.941Z"/><path class="k" d="M409.50373,332.40532a.70356.70356,0,0,0-.32636.076c-.49967.25424-.60363,1.05568-.23038,1.78924a1.78591,1.78591,0,0,0,.89272.87051,1.5525,1.5525,0,0,1-1.2556-.94311c-.37325-.73356-.26929-1.535.23038-1.78924A.818.818,0,0,1,409.50373,332.40532Z"/><path class="k" d="M446.66741,334.797a2.55313,2.55313,0,0,0-1.99321-.00711c-1.53371.67511-2.04791,2.88267-1.14777,4.92762a4.93,4.93,0,0,0,1.5341,1.97816,4.618,4.618,0,0,1-2.41593-2.47448c-.90014-2.04495-.38595-4.25251,1.14777-4.92762A2.8786,2.8786,0,0,1,446.66741,334.797Z"/><path class="k" d="M441.44649,330.29526a1.2921,1.2921,0,0,0-1.00873-.0036,1.84938,1.84938,0,0,0-.58087,2.49379,2.495,2.495,0,0,0,.77638,1.00111,2.3371,2.3371,0,0,1-1.22266-1.25229,1.84938,1.84938,0,0,1,.58087-2.49379A1.45681,1.45681,0,0,1,441.44649,330.29526Z"/><path class="k" d="M418.37506,316.331a1.2921,1.2921,0,0,0-1.00873-.0036,1.84938,1.84938,0,0,0-.58087,2.49379,2.495,2.495,0,0,0,.77638,1.00111,2.3371,2.3371,0,0,1-1.22266-1.25229,1.84938,1.84938,0,0,1,.58087-2.49379A1.45681,1.45681,0,0,1,418.37506,316.331Z"/><path class="k" d="M437.27947,342.66349a3.19125,3.19125,0,0,0-1.86747.198c-2.15394.9388-2.80924,4.19154-1.47017,7.26384a7.53425,7.53425,0,0,0,2.85608,3.43767,6.60464,6.60464,0,0,1-4.4544-4.06565c-1.33908-3.0723-.68377-6.325,1.47017-7.26384A3.73631,3.73631,0,0,1,437.27947,342.66349Z"/></g><path class="n" d="M326,194c0,1.22-.04,2.43-.11,3.63a55.89066,55.89066,0,0,1-3.36,15.9c-.36.99-.75,1.97-1.17,2.93a55.79583,55.79583,0,0,1-5.78,10.22,50.222,50.222,0,0,1-3.32,4.23,56.69034,56.69034,0,0,1-13.07,11.18,57.98945,57.98945,0,0,1-8.58,4.34,56.51545,56.51545,0,0,1-21.11,4.07c-1.15,0-2.29-.03-3.42-.11a55.263,55.263,0,0,1-8.3-1.12006,54.27131,54.27131,0,0,1-7.84-2.25995,56.67162,56.67162,0,0,1-26.34-20.06,55.97336,55.97336,0,0,1-4.4-7.19c.71-.16,1.43-.33,2.16-.49005.79-.18,1.58-.37,2.38-.55.33-.08.66-.16,1-.24.71-.16,1.42-.33,2.13-.5.21-.05.42-.11.64-.16.81-.19,1.63-.39,2.46-.59.04-.01.08-.02.11-.03,1.08-.26,2.17-.53,3.27-.8s2.21-.55,3.34-.83c1.12-.28,2.26-.56,3.4-.86.56995-.14,1.14-.29,1.72-.44s1.16-.3,1.74-.45c2.32-.6,4.68-1.21,7.08-1.85,6.33-1.68,12.9-3.49,19.63-5.4,1.03-.3,2.06-.59,3.1-.89,2.59-.74,5.16-1.49,7.69-2.24,2.02-.59,4.02-1.19,6-1.78,1.62-.49,3.23-.97,4.82-1.46,6.15-1.87006,12.07-3.74005,17.69-5.57q4.815-1.56006,9.32-3.08,3.555-1.2,6.92-2.37C325.93,190.77,326,192.38,326,194Z"/><path class="n" d="M325.8,189.18q-3.36,1.17-6.92,2.37-4.5,1.515-9.32,3.08c-5.62,1.83-11.54,3.7-17.69,5.57-1.59.49-3.2.97-4.82,1.46-1.98.59-3.98,1.19-6,1.78-2.53.75-5.1,1.5-7.69,2.24-1.04.3-2.07.59-3.1.89-6.73,1.91-13.3,3.72-19.63,5.4-2.4.64-4.76,1.25-7.08,1.85q-.87.22495-1.74.45c-2.88.74005-5.71,1.45-8.46,2.13-1.1.27-2.19.54-3.27.8-.03.00995-.07.02-.11.03-.83.2-1.65.4-2.46.59-.22.06-.43.11-.64.16-.72.17-1.43.33-2.13.5-.34.08-.67.16-1,.24-.8.18-1.59.37-2.38.55-.73.16-1.45.33-2.16.49005a55.5287,55.5287,0,0,1-3.66-8.99005c-.35-1.09-.65-2.2-.92-3.31995-.15-.61-.29-1.23-.42-1.85-.1-.5-.2-1-.29-1.5-.08-.39-.14-.78-.2-1.17-.06-.32-.11-.64-.15-.97-.03-.21-.06-.42-.08-.63-.08-.59-.15-1.2-.21-1.8-.13-1.32-.21-2.66-.25-4.01v-.11c-.01-.46-.02-.94-.02-1.41a56.2206,56.2206,0,0,1,9.81-31.82,56.82105,56.82105,0,0,1,5.78-7.15l.06995-.07V154.95a56.84553,56.84553,0,0,1,16.27-11.84c.22-.11.44-.21.66-.31.87994-.41,1.78-.8,2.68-1.17q1.035-.42,2.1-.81a54.97274,54.97274,0,0,1,6.78-1.96,56.5535,56.5535,0,0,1,9.36-1.29c.99-.04,1.99-.07,2.99-.07a56.36029,56.36029,0,0,1,24.96,5.8,57.16274,57.16274,0,0,1,8.67,5.31,57.00383,57.00383,0,0,1,16.93,20.16,52.9122,52.9122,0,0,1,2.22,5.05c.31.79.59,1.58.86,2.39A56.26145,56.26145,0,0,1,325.8,189.18Z"/><path class="o" d="M315.58,226.68a50.222,50.222,0,0,1-3.32,4.23c-8.98-9.72-13.48-22.65-12.76-8.91a182.33774,182.33774,0,0,1-.31,20.09,57.98945,57.98945,0,0,1-8.58,4.34c.12-19.02,12.02-27.23-.11-32.43-14-6-23-15-26,12a81.2326,81.2326,0,0,1-6.72,23.27,54.27131,54.27131,0,0,1-7.84-2.25995c8.72-21.18005,20.43-40.76,10.89-37.68005C249.5,213,241.5,231,225.5,220c-.59-.41-1.18-.83-1.76-1.28a52.01707,52.01707,0,0,1-8.2-7.95c-.35-1.09-.65-2.2-.92-3.31995-.15-.61-.29-1.23-.42-1.85-.1-.5-.2-1-.29-1.5-.08-.39-.14-.78-.2-1.17-.06-.32-.11-.64-.15-.97-.03-.21-.06-.42-.08-.63-.08-.59-.15-1.2-.21-1.8-.13-1.32-.21-2.66-.25-4.01v-.08C214.47,204,219.55,212,233.5,212c30,0-2-36,8-60q2.13-5.1,4.09-9.2c.87994-.41,1.78-.8,2.68-1.17q1.035-.42,2.1-.81c-6.83,19.12-5.98,56.08,11.13,54.18,14.49-1.61,16.02-41.47,23.37-55.38a56.55736,56.55736,0,0,1,9.59,3.68,58.97078,58.97078,0,0,0-3.96,9.7c-5.54,17.41-9.83,35.45-3.45,48.66A27.19273,27.19273,0,0,0,294.5,211C300.52,215.89,308.67,221.63,315.58,226.68Z"/><path class="p" d="M321.36,216.46c-1.72-4.68-5-11.25-11.8-21.83q-2.265-3.51-5.06-7.63c-17-25-22-2-15,9,.8,1.25,1.6,2.68,2.37,4.2,5.99,11.85,10.38,29.89.63,22.8-6.82-4.96-5.95-10.68-11.45-19.56-3.37-5.44-9.14-12.08-20.55-20.44-24.72-18.13-5.98-.95,9.76,23.57A142.452,142.452,0,0,1,279.5,223c12,25.61,2.23,21.76-13.42,27.39a56.607,56.607,0,0,1-46.88-30.63,55.59653,55.59653,0,0,1-4.58-12.31c-.15-.61-.29-1.23-.42-1.85-.1-.5-.2-1-.29-1.5-.08-.39-.14-.78-.2-1.17-.06-.32-.11-.64-.15-.97-.03-.21-.06-.42-.08-.63-.08-.59-.15-1.2-.21-1.8-.13-1.32-.21-2.66-.25-4.01,2.7,5.31,4.82,10.86,5.48,15.48a23.15362,23.15362,0,0,0,2.86,8.27c8.44,14.78,31.28,19.29,32.14,4.73.32-5.48-.81-9.09-2.87-12.03-4.3-6.19-12.67-9.45-20.13-20.97-6.79-10.49-7.86-21.74-7.69-28.82l5.78-7.15.07-.07c2.05,3.34,4.63,9.24,7.84,17.04,7,17,17-1,9-27-.2-.67-.39-1.29-.57-1.89,1.09-.53,2.21-1.02,3.34-1.48,3.84,6.89,9.15,17.76,13.23,26.37,9,19,9-2-2-24-.99-1.97-1.76-3.68-2.35-5.14a56.55522,56.55522,0,0,1,9.36-1.29A84.5077,84.5077,0,0,1,273.5,145c10,12,13,27,20,27s-13-28,8.33-23.67c.45.09.88.18,1.3.28l10.24,9.81c-.6,4.03-2,9.54,1.13,17.58a106.13791,106.13791,0,0,1,4.38,15.55c1.64,7.61,2.85,15.63,3.65,21.98Z"/><path class="q" d="M325.89,197.63c-14.82,5.51-31.86,11.12-50.14,16.37-18.66,5.36-36.43,9.73-52.15,12.95-35.27,7.21-60.25995,8.64-62.02,2.53a2.45612,2.45612,0,0,1-.1-.72,2.93227,2.93227,0,0,1,.06-.58,4.489,4.489,0,0,1,.12-.46c2.09-6.34,22.09-16.99,51.61-28.19q.09.90005.21,1.8c.02.21.05.42.08.63.05.33.09.65.15.97.06.39.12.78.2,1.17.09.5.19,1,.29,1.5.13.62.27,1.24.42,1.85-.36.12994-.72.25-1.07.37994-22.94,8.11-37.44,14.71-36.71,17.26v.01a1.26321,1.26321,0,0,0,.87994.7c3.81006,1.34,19.44-1.04,41.48-6.04,15.5-3.52,34.18-8.34,54.16-14.08,19.57-5.62,37.61-11.33,52.44-16.5,24.33-8.47,40.03-15.47,39.67-18.19a.29545.29545,0,0,0-.02-.1c-.71-2.5-15.89-.54-38.84,4.54-1.14.26-2.29.51-3.47.78-.27-.81-.55-1.6-.86-2.39a52.9122,52.9122,0,0,0-2.22-5.05c34.08-6.89,58.26-8.25,60.57-2.5a2.26289,2.26289,0,0,1,.08.24005C382.48,172.68,360.13,184.9,325.89,197.63Z"/><g class="r"><path class="s" d="M214.62,207.45c-.36.12994-.72.25-1.07.37994-22.94,8.11-37.44,14.71-36.71,17.26-.07-.19-.29-.9-.34-1.09-.74-2.57,14.38-10.19,37.7-18.4C214.33,206.22,214.47,206.84,214.62,207.45Z"/><path class="s" d="M365.5,171c-.01,0-.02-.01-.03-.01a.29545.29545,0,0,0-.02-.1c-.71-2.5-15.89-.54-38.84,4.54-1.14.26-2.29.51-3.47.78-.27-.81-.55-1.6-.86-2.39,24.43-5.5,42.43-7.52,43.17-4.93C365.56,169.27,366.03,170.45,365.5,171Z"/><path class="s" d="M325.89335,197.63c-14.82,5.51-31.86,11.12-50.14,16.37-18.66,5.36-36.43,9.73-52.15,12.95-35.27,7.21-60.25995,8.64-62.02,2.53a2.8936,2.8936,0,0,1,.08-1.76c2.35,5.83,27.14,4.34,61.94-2.77,15.72-3.22,33.49005-7.59,52.15-12.95,18.28-5.25,35.32-10.86,50.14-16.37,31.24-11.62,52.58-22.8,54.74-29.36a2.26284,2.26284,0,0,1,.08.24005C382.48332,172.68,360.13334,184.9,325.89335,197.63Z"/></g><circle class="t" cx="1266" cy="241.5" r="14.5"/><path class="u" d="M951,94.5a16.423,16.423,0,0,1-.35911,3.44072,16.63808,16.63808,0,0,1-.49987,1.84414c-.04366.131-.09221.262-.14072.38823a16.39858,16.39858,0,0,1-1.19869,2.55748q-.131.23295-.27659.46589a16.51623,16.51623,0,0,1-2.24206,2.84867c-.21353.22325-.43678.43678-.66488.64059a16.23864,16.23864,0,0,1-3.37763,2.3925c-.00972.00486-.01457.00972-.02426.01457a16.804,16.804,0,0,1-3.46015,1.354c-.23779.06309-.47561.12132-.71826.16984a16.19239,16.19239,0,0,1-2.67395.364c-.28634.00972-.57267.01943-.86384.01943a16.50838,16.50838,0,0,1-3.97456-.48044c-.12132-.02912-.23779-.06309-.35911-.09706a16.25564,16.25564,0,0,1-3.596-1.4462,16.42836,16.42836,0,0,1-4.1638-3.26116c-.30574-.32028-.58722-.65031-.85412-.99-.1359-.16987-.26691-.34457-.39309-.51927h-.00486a16.47714,16.47714,0,0,1-1.54323-2.58663h-.00486a16.57934,16.57934,0,0,1-1.16955-10.89972,16.29953,16.29953,0,0,1,.89292-2.72735,16.5122,16.5122,0,0,1,3.0428-4.67338,16.16022,16.16022,0,0,1,3.17867-2.6788,15.80037,15.80037,0,0,1,2.2372-1.21809,16.37737,16.37737,0,0,1,4.87237-1.32c.38337-.04366.76674-.07278,1.15983-.08735.22325-.00969.45135-.01454.67942-.01454a16.50518,16.50518,0,0,1,15.015,9.64765c.00486.01454.01454.02912.0194.04366a16.21608,16.21608,0,0,1,1.0628,3.169c.09706.4222.17473.85412.233,1.286a14.07354,14.07354,0,0,1,.15044,1.50929C950.99514,93.937,951,94.21852,951,94.5Z"/><path class="v" d="M950.64089,97.94072a16.63808,16.63808,0,0,1-.49987,1.84414,28.4428,28.4428,0,0,0-8.0025-3.2175c-.28148-.04855-.56293-.09221-.84441-.12618-5.63912-.66485-2.6594,7.52206-2.53808,14.00558-.23779.06309-.47561.12132-.71826.16984a16.19239,16.19239,0,0,1-2.67395.364c1.1016-3.28542,1.87323-6.79412-.37854-8.23057-3.46986-2.20808-2.839,2.97-4.1056,6.32822a.01509.01509,0,0,1-.00483.00972,5.2154,5.2154,0,0,1-.70854,1.33456,16.25564,16.25564,0,0,1-3.596-1.4462,9.11176,9.11176,0,0,0,1.1356-3.79983c.70854-6.71648-.131-3.64942-4.19781-3.17384a9.5921,9.5921,0,0,1-3.8969-.38337h-.00486A16.48733,16.48733,0,0,1,918,94.5a55.35041,55.35041,0,0,0,8.17719,2.8147c3.78046.893,4.12986-.02426.7134-1.63058-.46589-.22325-1.00456-.45618-1.61118-.69882a26.91356,26.91356,0,0,1-6.84264-4.26575,16.29953,16.29953,0,0,1,.89292-2.72735A13.43091,13.43091,0,0,0,928.23,91.41354a19.26377,19.26377,0,0,0,4.13954-.364,29.71118,29.71118,0,0,0,6.0128-1.8878,30.24818,30.24818,0,0,0,8.58971-5.46927,16.63534,16.63534,0,0,1,2.54294,3.95516c-4.79957,1.47043-8.37618,3.5669-7.70647,5.65852A3.70779,3.70779,0,0,0,943.63324,95.16c.17956.10675.36883.20867.57264.3106A49.93786,49.93786,0,0,0,950.64089,97.94072Z"/><path class="w" d="M950.0003,100.17309a16.39858,16.39858,0,0,1-1.19869,2.55748,30.14571,30.14571,0,0,1-4.59572-1.92175c-8.25-4.36765-4.85294,1.45588,1.33456,5.82353a.74407.74407,0,0,0,.07763.05338,16.23864,16.23864,0,0,1-3.37763,2.3925c-.00972.00486-.01457.00972-.02426.01457-2.26149-1.98-4.56663-6.11958-10.14266-7.31339-4.05219-.8687-7.07074,1.54323-9.66705,3.93573-.30574-.32028-.58722-.65031-.85412-.99-.1359-.16987-.26691-.34457-.39309-.51927,4.125-3.39706,13.34073-4.3725,11.39955-11.64706-1.47046-5.51779-7.40074-8.24514-10.18632-9.24a16.16022,16.16022,0,0,1,3.17867-2.6788c1.04339.63573,2.05278,1.3297,2.86325,1.9072a1.734,1.734,0,0,0,2.59145-.70854c.45132-1.024,1.03368-2.344,1.65487-3.73677.38337-.04366.76674-.07278,1.15983-.08735-1.56263,8.36164,5.149,10.65221,15.71383,9.67677a16.21608,16.21608,0,0,1,1.0628,3.169c.09706.4222.17473.85412.233,1.286-1.75193.70368-3.39706,1.354-4.6831,1.8684C941.0175,96.06749,944.565,98.12028,950.0003,100.17309Z"/></g></svg>