<svg xmlns="http://www.w3.org/2000/svg" viewBox="0 0 1366 768"><defs><style>.d{fill:#550763;opacity:.54;mix-blend-mode:darken}.j{fill:#60108e}</style><linearGradient id="a" x1="278.516" y1="349.592" x2="278.516" y2="529.639" gradientUnits="userSpaceOnUse"><stop offset=".273" stop-color="#270682"/><stop offset=".435" stop-color="#21056e"/><stop offset=".809" stop-color="#130443"/><stop offset="1" stop-color="#0e0333"/></linearGradient><linearGradient id="b" x1="41.655" y1="672.121" x2="77.655" y2="758.121" gradientUnits="userSpaceOnUse"><stop offset=".273" stop-color="#782dba"/><stop offset=".423" stop-color="#6720ad"/><stop offset=".724" stop-color="#480996"/><stop offset=".894" stop-color="#3d008e"/></linearGradient><linearGradient id="c" x1="75.902" y1="543.857" x2="125.902" y2="589.857" gradientUnits="userSpaceOnUse"><stop offset=".338" stop-color="#66169f"/><stop offset=".995" stop-color="#3d008e"/></linearGradient><linearGradient id="d" x1="529.92" y1="505.27" x2="626.93" y2="553.775" gradientUnits="userSpaceOnUse"><stop offset=".099" stop-color="#450870"/><stop offset=".416" stop-color="#3f0870"/><stop offset=".843" stop-color="#2e0870"/><stop offset=".975" stop-color="#270870"/></linearGradient><linearGradient id="e" x1="349.506" y1="468.325" x2="413.506" y2="564.991" gradientUnits="userSpaceOnUse"><stop offset=".335" stop-color="#60108e"/><stop offset="1" stop-color="#43008e"/></linearGradient><linearGradient id="f" x1="1296.01" y1="525.878" x2="1344.676" y2="567.878" gradientUnits="userSpaceOnUse"><stop offset=".236" stop-color="#60108e"/><stop offset=".715" stop-color="#4c008e"/></linearGradient></defs><g style="isolation:isolate"><path d="M492 461c-.461 4.72 66.684 74.8 65 76-30.1 21.46-342.806 15.08-376.288 16.5-5.309.23-11.99.21-19.659-.01-29.836-.83-74.783-4.65-113.564-8.96-17.814-1.98-34.34-4.05-47.489-5.99V418.85c23.09-14.86 43.3-1.45 60.6-3.35 18.232-2 52.551-29 85.8-44s62.2 2 79.363 8S380.623 408 401 427c15.594 14.54 92.5 18.63 91 34z" fill="url(#a)"/><path d="M1366 530v238H0V536.21c.66.04 1.32.09 2 .13 12.47.8 27.73 1.4 46.4 1.68 19.3.29 42.24.23 69.51-.34h.01c.36 0 .72-.01 1.09-.02q10.455-.21 21.77-.54l7.33-.21c.1-.01.2-.01.29-.01 2.01-.07 4.03-.13 6.08-.2 1.99-.06 3.99-.13 6.02-.2q11.475-.39 22.74-.76h.01c.69-.01 1.38-.04 2.07-.06q22.65-.72 44.46-1.29c1.32-.04 2.63-.07 3.94-.11q9.585-.24 18.99-.47 14.19-.33 27.96-.59c1.45-.03 2.89-.05 4.33-.08 77.32-1.44 144.02-1.28 194.81.79h.01q15.3.63 28.63 1.48c8.92.57 17.16 1.23 24.65 1.97 16.54 1.62 29.49 3.66 38.4 6.12 14 3.87 40.93 4.42 73.76 3.01 11.76-.5 24.27-1.26 37.22-2.2C754.73 539.05 840.54 527.95 884 522c73-10 222 13 285-2 24.64-5.87 60.15-5.61 94.25-3.13C1316.33 520.73 1366 530 1366 530z" fill="#810f91"/><path class="d" d="M114.31 635.54C106.12 631.58 92.91 629 78 629c-24.85 0-45 7.16-45 16a7.725 7.725 0 0 0 2.69 5.46C30.23 647.81 27 644.54 27 641c0-8.84 20.15-16 45-16 19.46 0 36.03 4.39 42.31 10.54zM204 710.5a3.348 3.348 0 0 1-1.39 2.5c-2.71-2.35-9.13-4-16.61-4s-13.9 1.65-16.61 4a3.348 3.348 0 0 1-1.39-2.5c0-3.59 8.06-6.5 18-6.5s18 2.91 18 6.5zM1298 743.5a3.348 3.348 0 0 1-1.39 2.5c-2.71-2.35-9.13-4-16.61-4s-13.9 1.65-16.61 4a3.348 3.348 0 0 1-1.39-2.5c0-3.59 8.06-6.5 18-6.5s18 2.91 18 6.5zM258 744.5a3.348 3.348 0 0 1-1.39 2.5c-2.71-2.35-9.13-4-16.61-4s-13.9 1.65-16.61 4a3.348 3.348 0 0 1-1.39-2.5c0-3.59 8.06-6.5 18-6.5s18 2.91 18 6.5zM826.349 701.409a3.6 3.6 0 0 1-1.853 2.773c-3.613-2.607-12.174-4.437-22.147-4.437s-18.533 1.83-22.146 4.437a3.6 3.6 0 0 1-1.854-2.773c0-3.983 10.747-7.211 24-7.211s24 3.228 24 7.211zM895 638.3a3.6 3.6 0 0 1-1.853 2.774c-3.614-2.608-12.174-4.438-22.147-4.438s-18.533 1.83-22.147 4.438A3.6 3.6 0 0 1 847 638.3c0-3.983 10.747-7.211 24-7.211s24 3.23 24 7.211zM557 584.5a3.348 3.348 0 0 1-1.39 2.5c-2.71-2.35-9.13-4-16.61-4s-13.9 1.65-16.61 4a3.348 3.348 0 0 1-1.39-2.5c0-3.59 8.06-6.5 18-6.5s18 2.91 18 6.5zM498.15 676.61C487.48 669.72 465.45 665 440 665c-35.9 0-65 9.4-65 21a7.433 7.433 0 0 0 .85 3.39c-4.38-2.82-6.85-6.01-6.85-9.39 0-11.6 29.1-21 65-21 32.33 0 59.14 7.62 64.15 17.61zM1215.82 558.53c-4.61-2.69-13.77-4.53-24.32-4.53-15.19 0-27.5 3.81-27.5 8.5a2.73 2.73 0 0 0 .18.97c-2.03-1.19-3.18-2.54-3.18-3.97 0-4.69 12.31-8.5 27.5-8.5 14.13 0 25.76 3.3 27.32 7.53zM469.82 604.53c-4.61-2.69-13.77-4.53-24.32-4.53-15.19 0-27.5 3.81-27.5 8.5a2.73 2.73 0 0 0 .18.97c-2.03-1.19-3.18-2.54-3.18-3.97 0-4.69 12.31-8.5 27.5-8.5 14.13 0 25.76 3.3 27.32 7.53zM231.35 584.45c-3.73-2.65-11-4.45-19.35-4.45-12.15 0-22 3.81-22 8.5a3.7 3.7 0 0 0 .65 2.05c-1.69-1.21-2.65-2.59-2.65-4.05 0-4.69 9.85-8.5 22-8.5 10.32 0 18.97 2.75 21.35 6.45zM171 546.5a.66.66 0 0 1-.01.14 8.691 8.691 0 0 0-5.49-1.64c-3.5 0-6.36 1.49-6.49 3.36a2.466 2.466 0 0 1-1.01-1.86c0-1.93 2.91-3.5 6.5-3.5s6.5 1.57 6.5 3.5zM1244 747.5a.66.66 0 0 1-.01.14 8.691 8.691 0 0 0-5.49-1.64c-3.5 0-6.36 1.49-6.49 3.36a2.466 2.466 0 0 1-1.01-1.86c0-1.93 2.91-3.5 6.5-3.5s6.5 1.57 6.5 3.5zM518 607.5a.66.66 0 0 1-.01.14 8.691 8.691 0 0 0-5.49-1.64c-3.5 0-6.36 1.49-6.49 3.36a2.466 2.466 0 0 1-1.01-1.86c0-1.93 2.91-3.5 6.5-3.5s6.5 1.57 6.5 3.5zM759.394 752.884a.346.346 0 0 1-.023.151c-2.7-1.068-7.457-1.768-12.874-1.768-8.208 0-14.915 1.606-15.219 3.622-1.5-.572-2.369-1.272-2.369-2 0-2.081 6.824-3.773 15.243-3.773s15.242 1.684 15.242 3.768zM1032 559c0 1.21-1.03 2.39-2.95 3.5-9.46-5.48-40.6-9.5-77.55-9.5s-68.09 4.02-77.55 9.5c-1.92-1.11-2.95-2.29-2.95-3.5 0-7.18 36.04-13 80.5-13s80.5 5.82 80.5 13zM688.26 756.969c-14.18-6.1-46.35-10.356-83.76-10.356-50.53 0-91.5 7.769-91.5 17.345a4.766 4.766 0 0 0 1.74 3.374c-4.98-2.139-7.74-4.5-7.74-6.988 0-9.575 40.97-17.344 91.5-17.344 44.43 0 81.47 6.005 89.76 13.969zM682.518 576.76c-7.159-4.262-23.4-7.235-42.29-7.235-25.513 0-46.2 5.427-46.2 12.117a3.894 3.894 0 0 0 .879 2.358c-2.514-1.5-3.908-3.146-3.908-4.882 0-6.69 20.686-12.118 46.2-12.118 22.432 0 41.134 4.2 45.319 9.76zM702 679a1.447 1.447 0 0 1-.22.76c-12.21-3.4-38.64-5.76-69.28-5.76-40.29 0-73.31 4.07-76.28 9.24-4.63-1.28-7.22-2.72-7.22-4.24 0-5.52 34.25-10 76.5-10s76.5 4.48 76.5 10zM844 599.653a2.837 2.837 0 0 1-.178 1c-9.9-4.457-31.316-7.551-56.149-7.551-32.653 0-59.414 5.335-61.822 12.113-3.752-1.678-5.851-3.566-5.851-5.558 0-7.237 27.758-13.11 62-13.11s62 5.869 62 13.106zM809.36 768c11.09-10.47 42.11-18 78.64-18 34.81 0 64.61 6.84 76.94 16.54C963.36 752.34 926.83 741 882 741c-45.84 0-83 11.86-83 26.5a4.18 4.18 0 0 0 .02.5zM24 589s54 35 113 32 103-15-12-49-33 35-101 17z"/><path class="d" d="M693 576.05c-24 7.99-131.58-8.62-130-7.04 12 12.01 24 6.01 32 21.01s15.99 39.01-112.01 29.97S309 582.95 309 582.95s182.73-37.81 224.1-45.57c16.54 1.62 29.49 3.66 38.4 6.12 14 3.87 40.93 4.42 73.76 3.01 11.76-.5 24.27-1.26 37.22-2.2 23.12 11.57 29.09 25.55 10.52 31.74zM1366 539.84v65.64c-52.83-11.05-141-38.48-141-38.48s87-37 92-40c1.77-1.06 22.67 4.38 49 12.84z"/><path d="M163.58 768H0v-90.28a14.566 14.566 0 0 1 8.74-2.75 254.223 254.223 0 0 1 36.63 2.66c14.37 2.07 28.47 5.34 37.81 9.83 17.85 8.59 32.8 9.44 46.61 33.5 11.7 20.39 21.9 31.57 33.79 47.04z" fill="url(#b)"/><path d="M164.5 588.5c-24.85 14.02-77.72 14.64-111 9.62-18.94-2.86-31.54-7.54-29-12.62 7-14 13-22 19-38s15-18 25-25c7.7-5.39 21.92-10.19 33.99-13.02 3.61-.85 7.02-1.52 10.01-1.98 13-2 14 20 23 24s29 57 29 57z" fill="#66169f"/><path d="M164.5 588.5c-24.85 14.02-77.72 14.64-111 9.62 8.15-5.35 20.44-13 24.5-21.12 6-12 14-12 18-15s15-17 13-34-6.5-18.5-6.5-18.5-.01-.01-.01-.02c3.61-.85 7.02-1.52 10.01-1.98 13-2 14 20 23 24s29 57 29 57z" fill="url(#c)"/><path d="M616.5 558.5c-24.36 6.09-76.54-1.73-110.29-5.81-2.95-.35-5.76-.68-8.39-.97-6.82-.75-12.5-1.22-16.49-1.22-23.16 0-9.83-11 2.17-37 11.91-25.8 16.92-49.64 72.71-46.09.39.03.77.05 1.16.08.04 0 .09.01.13.01 57 4 46 40 58 48S656 546 656 546c8 2-7.5 4.5-39.5 12.5z" fill="#450870"/><path d="M616.5 558.5c-24.36 6.09-76.54-1.73-110.29-5.81A19.822 19.822 0 0 1 513 547c13-7 17-10 21-19s20 4 24-9 13-12 10-27a64.4 64.4 0 0 0-10.63-24.51c.04 0 .09.01.13.01 57 4 46 40 58 48S656 546 656 546c8 2-7.5 4.5-39.5 12.5z" fill="url(#d)"/><path class="j" d="M524.5 558.5c-4 12-64 22-105 31-30.96 6.8-88.13 7.32-114.29-9.19-8.49-5.35-13.71-12.5-13.71-21.81 0 0-11-53 26-79 29.16-20.49 50.87-36.63 70.5-35.21a33.385 33.385 0 0 1 15.5 5.21c24 15 53 19 68 46s57 51 53 63z"/><path d="M524.5 558.5c-4 12-64 22-105 31-30.96 6.8-88.13 7.32-114.29-9.19 12.6 1.44 23.12-1.93 35.79-5.31 15-4 3-10 9-21s4-10 11-18 3-9-4-13 12-8 15-15 19-8 18-20 14-14 8-27-10-16.5-10-16.5v-.21a33.385 33.385 0 0 1 15.5 5.21c24 15 53 19 68 46s57 51 53 63z" fill="url(#e)"/><path class="j" d="M1366 484.46v90.76c-11.92-2.27-31.42-4.99-44.5-1.72-20 5-42 2-59-5-10.57-4.35-31.2 3.28-36.14-.91-3.02-2.54-.23-9.45 14.14-26.09 8.92-10.32 16.29-18.33 22.75-24.63 21.1-20.53 32.52-22.78 56.25-27.37 5.02-.97 9.6-1.79 13.78-2.46 15.44-2.49 25.49-3.07 32.72-2.58z"/><path d="M1366 484.46v90.76c-11.92-2.27-31.42-4.99-44.5-1.72-20 5-42 2-59-5-10.57-4.35-31.2 3.28-36.14-.91A24.758 24.758 0 0 1 1243 563c12 1 46-8 49-21s26-4 35-20c6.97-12.39 6.74-28.37 6.28-34.96 15.44-2.49 25.49-3.07 32.72-2.58z" fill="url(#f)"/></g></svg>