<svg xmlns="http://www.w3.org/2000/svg" xmlns:xlink="http://www.w3.org/1999/xlink" viewBox="0 0 154.342 218.217"><defs><style>.e{fill:url(#d)}.h{fill:#412947;opacity:.35;mix-blend-mode:darken}.i{fill:#9e89a3;opacity:.25;mix-blend-mode:lighten}.o{fill:#ac86b5}.s{fill:#84628c}</style><linearGradient id="a" x1="133.236" y1="162.068" x2="142.32" y2="162.068" gradientUnits="userSpaceOnUse"><stop offset=".106" stop-color="#84628c"/><stop offset=".829" stop-color="#412947"/></linearGradient><linearGradient id="b" x1="125.9" y1="119.037" x2="142.761" y2="119.037" xlink:href="#a"/><linearGradient id="c" x1="137.231" y1="130.743" x2="148.753" y2="130.743" xlink:href="#a"/><linearGradient id="d" x1="148.739" y1="137.856" x2="148.937" y2="137.856" xlink:href="#a"/><linearGradient id="f" x1="135.417" y1="154.688" x2="146.154" y2="154.688" xlink:href="#a"/><linearGradient id="g" x1="138.905" y1="144.248" x2="148.781" y2="144.248" xlink:href="#a"/><linearGradient id="i" x1="45.831" y1="182.164" x2="60.129" y2="182.164" xlink:href="#a"/><linearGradient id="j" x1="33.506" y1="125.274" x2="42.318" y2="137.942" xlink:href="#a"/><linearGradient id="k" x1="27.81" y1="137.999" x2="36.622" y2="150.116" xlink:href="#a"/><linearGradient id="l" x1="24.939" y1="156.62" x2="42.381" y2="161.026" xlink:href="#a"/><linearGradient id="m" x1="34.639" y1="170.785" x2="52.58" y2="170.785" xlink:href="#a"/><linearGradient id="n" x1="13.342" y1="109.106" x2="141" y2="109.106" gradientUnits="userSpaceOnUse"><stop offset=".3" stop-color="#412947" stop-opacity="0"/><stop offset="1" stop-color="#260a2d"/></linearGradient><linearGradient id="o" x1="13.342" y1="109.106" x2="141" y2="109.106" gradientUnits="userSpaceOnUse"><stop offset="0" stop-color="#fff"/><stop offset=".5" stop-color="#412947" stop-opacity="0"/></linearGradient><linearGradient id="p" x1="33.586" y1="88.596" x2="145.945" y2="141.471" gradientUnits="userSpaceOnUse"><stop offset="0" stop-color="#fff"/><stop offset=".034" stop-color="#7739ee" stop-opacity="0"/><stop offset=".5" stop-color="#380047" stop-opacity=".4"/></linearGradient><linearGradient id="q" x1="50.513" y1="84.332" x2="103.829" y2="84.332" xlink:href="#n"/><linearGradient id="r" x1="50.513" y1="84.332" x2="103.829" y2="84.332" xlink:href="#o"/><linearGradient id="s" x1="47.89" y1="196.701" x2="90.922" y2="196.701" xlink:href="#o"/><linearGradient id="t" x1="88.207" y1="203.85" x2="44.208" y2="187.118" xlink:href="#n"/><linearGradient id="u" x1="117.086" y1="177.302" x2="154.342" y2="177.302" xlink:href="#n"/><linearGradient id="v" x1="151.113" y1="172.28" x2="109.903" y2="186.223" xlink:href="#o"/></defs><g style="isolation:isolate"><path d="M142.32 160.445l-2.232 5.765-6.852-2.658 2.181-5.626a24.668 24.668 0 0 0 6.903 2.52z" fill="url(#a)"/><path d="M142.76 122.897a7.04 7.04 0 0 1-.594 1.013 10.737 10.737 0 0 1-4.935 3.819 15.391 15.391 0 0 0-.455-.522l-3.68-4.024-4.024-4.414-3.172-3.466 5.42-4.957 4.56 4.986 6.315 6.918c.199.213.382.426.566.647z" fill="url(#b)"/><path d="M148.753 137.944a25.892 25.892 0 0 1-5.794.646c-.521 0-1.035-.015-1.542-.051a16.955 16.955 0 0 0-.764-4.575 17.578 17.578 0 0 0-3.422-6.235 10.737 10.737 0 0 0 4.935-3.819 7.04 7.04 0 0 0 .595-1.013 20.355 20.355 0 0 1 1.314 1.681 24.635 24.635 0 0 1 4.664 13.19.714.714 0 0 1 .014.176z" fill="url(#c)"/><path class="e" d="M148.937 137.9a1.674 1.674 0 0 1-.184.044.714.714 0 0 0-.014-.176z"/><path class="e" d="M148.937 137.9a1.674 1.674 0 0 1-.184.044.714.714 0 0 0-.014-.176z"/><path d="M146.154 150.553l-3.834 9.892a24.668 24.668 0 0 1-6.903-2.519l3.488-8.996a22.775 22.775 0 0 0 7.249 1.623z" fill="url(#f)"/><path d="M147.064 148.203l-.91 2.35a22.775 22.775 0 0 1-7.249-1.623l1.315-3.378a17.656 17.656 0 0 0 1.197-7.013c.507.036 1.02.051 1.542.051a25.892 25.892 0 0 0 5.794-.646 25.055 25.055 0 0 1-1.689 10.26z" fill="url(#g)"/><path class="e" d="M148.937 137.9a1.674 1.674 0 0 1-.184.044.714.714 0 0 0-.014-.176z"/><path class="h" d="M148.57 137.944a25.055 25.055 0 0 1-1.69 10.26l-.91 2.35-3.833 9.891-2.233 5.765-1.916-.742 1.946-5.023 3.833-9.892.91-2.35a25.055 25.055 0 0 0 1.69-10.26 1.674 1.674 0 0 0 .183-.043l-.198-.132a24.635 24.635 0 0 0-4.663-13.19 20.355 20.355 0 0 0-1.315-1.681c-.183-.22-.367-.434-.565-.647l-6.316-6.917-3.554-3.893 1.197-1.094 4.56 4.987 6.316 6.917c.198.213.382.426.565.647a20.355 20.355 0 0 1 1.315 1.681 24.635 24.635 0 0 1 4.663 13.19l.198.132a1.674 1.674 0 0 1-.183.044z"/><path class="i" d="M142.423 145.552l-1.314 3.378-3.489 8.996-2.18 5.626 4.934 1.916-.286.742-6.852-2.658 2.181-5.626 3.488-8.996 1.315-3.378a17.656 17.656 0 0 0 1.197-7.013 16.955 16.955 0 0 0-.764-4.575 17.578 17.578 0 0 0-3.422-6.235 15.391 15.391 0 0 0-.455-.522l-3.68-4.024-4.024-4.414-3.172-3.466 5.42-4.957 1.005 1.094-4.222 3.863 3.172 3.466 4.025 4.414 3.679 4.024c.154.17.308.345.455.522a17.578 17.578 0 0 1 3.422 6.235 16.955 16.955 0 0 1 .764 4.575 17.656 17.656 0 0 1-1.197 7.013z"/><path d="M60.129 184.18l-5.574 4.78-8.724-10.178a26.51 26.51 0 0 0 4.78-2.159 26.417 26.417 0 0 0 1.969-1.255z" fill="url(#i)"/><path d="M44.48 127.545l-.918 1.748-5.12 9.782c-.454-.118-.91-.257-1.365-.411a26.422 26.422 0 0 1-5.398-2.512l4.105-7.836 2.189-4.178z" fill="url(#j)"/><path d="M38.443 139.075l-.918 1.748-1.403 2.68a13.053 13.053 0 0 0-1.182 8.989 24.18 24.18 0 0 1-7.638-1.645 20.384 20.384 0 0 1 1.33-8.585 21.138 21.138 0 0 1 .984-2.166l2.063-3.944a26.422 26.422 0 0 0 5.398 2.512c.455.154.91.293 1.366.41z" fill="url(#k)"/><path d="M41.792 162.788a26.143 26.143 0 0 1-5.163 2.357c-.668.22-1.33.411-1.99.58l-2.438-2.842c-.309-.36-.602-.727-.874-1.101a20.263 20.263 0 0 1-4.025-10.935 24.18 24.18 0 0 0 7.638 1.645 12.919 12.919 0 0 0 1.814 4.237 12.094 12.094 0 0 0 1.02 1.373z" fill="url(#l)"/><path d="M52.58 175.368c-.625.44-1.286.859-1.968 1.255a26.51 26.51 0 0 1-4.781 2.16l-11.192-13.058c.66-.169 1.322-.36 1.99-.58a26.143 26.143 0 0 0 5.163-2.357z" fill="url(#m)"/><path class="h" d="M60.129 184.18l-5.574 4.78-.932-1.086 4.303-3.694-7.55-8.812-10.787-12.58-4.017-4.686a12.094 12.094 0 0 1-1.021-1.373 12.919 12.919 0 0 1-1.814-4.237 13.053 13.053 0 0 1 1.182-8.989l1.403-2.68.918-1.748 5.118-9.782.918-1.748-4.78-2.504.477-.903 6.507 3.407-.918 1.748-5.12 9.782-.917 1.748-1.403 2.68a13.053 13.053 0 0 0-1.182 8.989 12.919 12.919 0 0 0 1.814 4.237 12.094 12.094 0 0 0 1.02 1.373l4.018 4.686 10.788 12.58z"/><path class="i" d="M55.826 187.874l-1.27 1.087-8.725-10.179-11.192-13.057-2.438-2.842c-.309-.36-.602-.727-.874-1.101a20.318 20.318 0 0 1-2.695-19.52 21.138 21.138 0 0 1 .984-2.166l2.063-3.944 4.105-7.836 2.189-4.178 1.726.903-1.711 3.275-4.106 7.836-2.063 3.944a21.138 21.138 0 0 0-.984 2.166 20.318 20.318 0 0 0 2.695 19.52c.272.374.565.741.874 1.101l2.438 2.842 11.192 13.057z"/><ellipse class="o" cx="77.171" cy="109.106" rx="63.829" ry="22.309"/><ellipse class="o" cx="77.171" cy="109.106" rx="63.829" ry="22.309"/><ellipse cx="77.171" cy="109.106" rx="63.829" ry="22.309" style="mix-blend-mode:darken" fill="url(#n)" opacity=".51"/><ellipse cx="77.171" cy="109.106" rx="63.829" ry="22.309" style="mix-blend-mode:darken" fill="url(#o)" opacity=".51"/><ellipse cx="77.171" cy="109.106" rx="63.829" ry="22.309" style="mix-blend-mode:darken" fill="url(#p)" opacity=".51"/><path class="s" d="M103.808 96.299q.056 2.09-.044 4.123c-.03.708-.08 1.41-.141 2.106-1.983 3.73-12.878 6.832-26.11 7.189s-24.278-2.153-26.459-5.77a46.38 46.38 0 0 1-.255-2.095q-.212-2.022-.266-4.115c-.568-21.044 10.897-38.42 25.61-38.817S103.24 75.255 103.808 96.3z"/><path d="M103.808 96.299q.056 2.09-.044 4.123c-.03.708-.08 1.41-.141 2.106-1.983 3.73-12.878 6.832-26.11 7.189s-24.278-2.153-26.459-5.77a46.38 46.38 0 0 1-.255-2.095q-.212-2.022-.266-4.115c-.568-21.044 10.897-38.42 25.61-38.817S103.24 75.255 103.808 96.3z" style="mix-blend-mode:darken" fill="url(#q)" opacity=".51"/><path d="M103.808 96.299q.056 2.09-.044 4.123c-.03.708-.08 1.41-.141 2.106-1.983 3.73-12.878 6.832-26.11 7.189s-24.278-2.153-26.459-5.77a46.38 46.38 0 0 1-.255-2.095q-.212-2.022-.266-4.115c-.568-21.044 10.897-38.42 25.61-38.817S103.24 75.255 103.808 96.3z" style="mix-blend-mode:darken" fill="url(#r)" opacity=".51"/><path class="s" d="M90.919 190.99l-5.642 21.052a.105.105 0 0 1-.204-.005l-3.868-17.694a.105.105 0 0 0-.025-.049l-7.37-7.983a.105.105 0 0 0-.113-.028l-11.64 4.288a.105.105 0 0 0-.069.1v8.566a.105.105 0 0 0 .021.064l7.4 9.865a.105.105 0 0 0 .04.033l10.064 4.583a.105.105 0 0 1-.016.197l-15.802 4.234a.105.105 0 0 1-.101-.027L47.92 202.513a.105.105 0 0 1-.028-.101l5.738-21.418a.105.105 0 0 1 .075-.074l21.41-5.732a.105.105 0 0 1 .102.027l15.674 15.673a.105.105 0 0 1 .027.102z"/><path d="M90.919 190.99l-5.642 21.052a.105.105 0 0 1-.204-.005l-3.868-17.694a.105.105 0 0 0-.025-.049l-7.37-7.983a.105.105 0 0 0-.113-.028l-11.64 4.288a.105.105 0 0 0-.069.1v8.566a.105.105 0 0 0 .021.064l7.4 9.865a.105.105 0 0 0 .04.033l10.064 4.583a.105.105 0 0 1-.016.197l-15.802 4.234a.105.105 0 0 1-.101-.027L47.92 202.513a.105.105 0 0 1-.028-.101l5.738-21.418a.105.105 0 0 1 .075-.074l21.41-5.732a.105.105 0 0 1 .102.027l15.674 15.673a.105.105 0 0 1 .027.102z" style="mix-blend-mode:darken" fill="url(#s)" opacity=".51"/><path d="M90.919 190.99l-5.642 21.052a.105.105 0 0 1-.204-.005l-3.868-17.694a.105.105 0 0 0-.025-.049l-7.37-7.983a.105.105 0 0 0-.113-.028l-11.64 4.288a.105.105 0 0 0-.069.1v8.566a.105.105 0 0 0 .021.064l7.4 9.865a.105.105 0 0 0 .04.033l10.064 4.583a.105.105 0 0 1-.016.197l-15.802 4.234a.105.105 0 0 1-.101-.027L47.92 202.513a.105.105 0 0 1-.028-.101l5.738-21.418a.105.105 0 0 1 .075-.074l21.41-5.732a.105.105 0 0 1 .102.027l15.674 15.673a.105.105 0 0 1 .027.102z" style="mix-blend-mode:darken" fill="url(#t)" opacity=".51"/><path class="s" d="M154.342 172.495l-4.989 18.635-17.218 4.61a.2.2 0 0 1-.183-.343l11.217-9.758 2.479-9.915-7.437-5.577-7.436 3.098-2.479 8.056 1.402 12.89a.36.36 0 0 1-.613.293l-12-11.999 4.99-18.634 18.634-4.995z"/><path d="M154.342 172.495l-4.989 18.635-17.218 4.61a.2.2 0 0 1-.183-.343l11.217-9.758 2.479-9.915-7.437-5.577-7.436 3.098-2.479 8.056 1.402 12.89a.36.36 0 0 1-.613.293l-12-11.999 4.99-18.634 18.634-4.995z" style="mix-blend-mode:darken" fill="url(#u)" opacity=".51"/><path d="M154.342 172.495l-4.989 18.635-17.218 4.61a.2.2 0 0 1-.183-.343l11.217-9.758 2.479-9.915-7.437-5.577-7.436 3.098-2.479 8.056 1.402 12.89a.36.36 0 0 1-.613.293l-12-11.999 4.99-18.634 18.634-4.995z" style="mix-blend-mode:darken" fill="url(#v)" opacity=".51"/></g></svg>