<svg xmlns="http://www.w3.org/2000/svg" xmlns:xlink="http://www.w3.org/1999/xlink" viewBox="0 0 154.342 218.217"><defs><style>.a{isolation:isolate;}.b{fill:url(#a);}.c{fill:url(#b);}.d{fill:url(#c);}.e{fill:url(#d);}.f{fill:url(#f);}.g{fill:url(#g);}.h{fill:#412947;opacity:0.35;}.h,.p,.q,.r,.t,.u,.v,.w,.x,.y{mix-blend-mode:darken;}.i{fill:#9e89a3;opacity:0.25;mix-blend-mode:lighten;}.j{fill:url(#i);}.k{fill:url(#j);}.l{fill:url(#k);}.m{fill:url(#l);}.n{fill:url(#m);}.o{fill:#ac86b5;}.p,.q,.r,.t,.u,.v,.w,.x,.y{opacity:0.51;}.p{fill:url(#n);}.q{fill:url(#o);}.r{fill:url(#p);}.s{fill:#84628c;}.t{fill:url(#q);}.u{fill:url(#r);}.v{fill:url(#s);}.w{fill:url(#t);}.x{fill:url(#u);}.y{fill:url(#v);}</style><linearGradient id="a" x1="133.23607" y1="162.06808" x2="142.32028" y2="162.06808" gradientUnits="userSpaceOnUse"><stop offset="0.10586" stop-color="#84628c"/><stop offset="0.82883" stop-color="#412947"/></linearGradient><linearGradient id="b" x1="125.89967" y1="119.03738" x2="142.76094" y2="119.03738" xlink:href="#a"/><linearGradient id="c" x1="137.23107" y1="130.74334" x2="148.75342" y2="130.74334" xlink:href="#a"/><linearGradient id="d" x1="148.73872" y1="137.85576" x2="148.93701" y2="137.85576" xlink:href="#a"/><linearGradient id="f" x1="135.41719" y1="154.68763" x2="146.15375" y2="154.68763" xlink:href="#a"/><linearGradient id="g" x1="138.90547" y1="144.24849" x2="148.78084" y2="144.24849" xlink:href="#a"/><linearGradient id="i" x1="45.83074" y1="182.16425" x2="60.12905" y2="182.16425" xlink:href="#a"/><linearGradient id="j" x1="33.50563" y1="125.2737" x2="42.31813" y2="137.94166" xlink:href="#a"/><linearGradient id="k" x1="27.80957" y1="137.99902" x2="36.62207" y2="150.11621" xlink:href="#a"/><linearGradient id="l" x1="24.93943" y1="156.62016" x2="42.38084" y2="161.02641" xlink:href="#a"/><linearGradient id="m" x1="34.63888" y1="170.78514" x2="52.57965" y2="170.78514" xlink:href="#a"/><linearGradient id="n" x1="13.342" y1="109.10645" x2="140.99987" y2="109.10645" gradientUnits="userSpaceOnUse"><stop offset="0.3" stop-color="#412947" stop-opacity="0"/><stop offset="1" stop-color="#260a2d"/></linearGradient><linearGradient id="o" x1="13.342" y1="109.10645" x2="140.99987" y2="109.10645" gradientUnits="userSpaceOnUse"><stop offset="0" stop-color="#fff"/><stop offset="0.5" stop-color="#412947" stop-opacity="0"/></linearGradient><linearGradient id="p" x1="33.58568" y1="88.59575" x2="145.94506" y2="141.47075" gradientUnits="userSpaceOnUse"><stop offset="0" stop-color="#fff"/><stop offset="0.03378" stop-color="#7739ee" stop-opacity="0"/><stop offset="0.5" stop-color="#380047" stop-opacity="0.4"/></linearGradient><linearGradient id="q" x1="50.51306" y1="84.33195" x2="103.82882" y2="84.33195" xlink:href="#n"/><linearGradient id="r" x1="50.51306" y1="84.33195" x2="103.82882" y2="84.33195" xlink:href="#o"/><linearGradient id="s" x1="47.88991" y1="196.7008" x2="90.92232" y2="196.7008" xlink:href="#o"/><linearGradient id="t" x1="88.20666" y1="203.85031" x2="44.20807" y2="187.11845" xlink:href="#n"/><linearGradient id="u" x1="117.0857" y1="177.30178" x2="154.342" y2="177.30178" xlink:href="#n"/><linearGradient id="v" x1="151.11266" y1="172.28003" x2="109.90271" y2="186.22325" xlink:href="#o"/></defs><title>08-rocket</title><g class="a"><path class="b" d="M142.32028,160.44514,140.0878,166.21l-6.85173-2.65843,2.18112-5.62534A24.66823,24.66823,0,0,0,142.32028,160.44514Z"/><path class="c" d="M142.76094,122.89655a7.03965,7.03965,0,0,1-.59484,1.01344,10.7367,10.7367,0,0,1-4.935,3.81871c-.14688-.17624-.30107-.35249-.45531-.52138l-3.67923-4.02441-4.02436-4.41356-3.17251-3.46627,5.41969-4.957,4.56044,4.98639,6.31565,6.91784C142.39375,122.46325,142.57734,122.6762,142.76094,122.89655Z"/><path class="d" d="M148.75342,137.94388a25.89179,25.89179,0,0,1-5.79423.64625c-.52138,0-1.03545-.0147-1.54217-.05141a16.95512,16.95512,0,0,0-.76378-4.57514,17.57824,17.57824,0,0,0-3.42217-6.23488,10.7367,10.7367,0,0,0,4.935-3.81871,7.03965,7.03965,0,0,0,.59484-1.01344,20.3548,20.3548,0,0,1,1.31452,1.6817,24.635,24.635,0,0,1,4.66326,13.18939A.71417.71417,0,0,1,148.75342,137.94388Z"/><path class="e" d="M148.937,137.89982a1.67382,1.67382,0,0,1-.18359.04406.71417.71417,0,0,0-.0147-.17624Z"/><path class="e" d="M148.937,137.89982a1.67382,1.67382,0,0,1-.18359.04406.71417.71417,0,0,0-.0147-.17624Z"/><path class="f" d="M146.15375,150.55309l-3.83346,9.89205a24.66823,24.66823,0,0,1-6.9031-2.51895l3.48828-8.99609A22.77519,22.77519,0,0,0,146.15375,150.55309Z"/><path class="g" d="M147.06436,148.20308l-.91062,2.35a22.77519,22.77519,0,0,1-7.24828-1.623L140.22,145.552a17.65573,17.65573,0,0,0,1.197-7.01327c.50672.03671,1.02079.05141,1.54217.05141a25.89179,25.89179,0,0,0,5.79423-.64625A25.05453,25.05453,0,0,1,147.06436,148.20308Z"/><path class="e" d="M148.937,137.89982a1.67382,1.67382,0,0,1-.18359.04406.71417.71417,0,0,0-.0147-.17624Z"/><path class="h" d="M148.56982,137.94388a25.05453,25.05453,0,0,1-1.68905,10.2592l-.91062,2.35-3.83346,9.89205L139.90421,166.21l-1.91671-.74173,1.94607-5.0231,3.83346-9.89205.91062-2.35a25.05453,25.05453,0,0,0,1.68905-10.2592,1.67382,1.67382,0,0,0,.18359-.04406l-.1983-.13218a24.635,24.635,0,0,0-4.66326-13.18939,20.35485,20.35485,0,0,0-1.31452-1.6817c-.18359-.22035-.36719-.4333-.56548-.64625l-6.31565-6.91784-3.55435-3.89218,1.197-1.09421,4.56044,4.98639,6.31565,6.91784c.1983.213.38189.42591.56548.64625a20.35485,20.35485,0,0,1,1.31452,1.6817,24.635,24.635,0,0,1,4.66326,13.18939l.1983.13218A1.67382,1.67382,0,0,1,148.56982,137.94388Z"/><path class="i" d="M142.42311,145.552l-1.31452,3.37811-3.48828,8.99609-2.18112,5.62534,4.935,1.91671-.28642.74173-6.85173-2.65843,2.18112-5.62534,3.48828-8.99609L140.22,145.552a17.65573,17.65573,0,0,0,1.197-7.01327,16.95512,16.95512,0,0,0-.76378-4.57514,17.57824,17.57824,0,0,0-3.42217-6.23488c-.14688-.17624-.30107-.35249-.45531-.52138l-3.67923-4.02441-4.02436-4.41356-3.17251-3.46627,5.41969-4.957,1.00609,1.09421-4.22266,3.86282,3.17251,3.46627,4.02436,4.41356,3.67923,4.02441c.15423.16889.30842.34513.45531.52138a17.57824,17.57824,0,0,1,3.42217,6.23488,16.95512,16.95512,0,0,1,.76378,4.57514A17.65573,17.65573,0,0,1,142.42311,145.552Z"/><path class="j" d="M60.129,184.18011l-5.57393,4.78079-8.72438-10.17843a26.50977,26.50977,0,0,0,4.78079-2.15906c.683-.39655,1.34392-.81515,1.96812-1.2558Z"/><path class="k" d="M44.47952,127.54511l-.918,1.74782-5.11862,9.78188c-.45531-.11748-.91062-.257-1.36593-.41125a26.42179,26.42179,0,0,1-5.39764-2.51155l4.10513-7.83577,2.18847-4.1786Z"/><path class="l" d="M38.44293,139.07481l-.918,1.74782-1.40264,2.68049A13.0529,13.0529,0,0,0,34.94,152.49185a24.18009,24.18009,0,0,1-7.63752-1.645,20.3835,20.3835,0,0,1,1.32922-8.58485,21.13771,21.13771,0,0,1,.98408-2.16642l2.06359-3.94359a26.42179,26.42179,0,0,0,5.39764,2.51155C37.53231,138.81779,37.98762,138.95733,38.44293,139.07481Z"/><path class="m" d="M41.79168,162.7878a26.143,26.143,0,0,1-5.16263,2.35732c-.66831.2203-1.32922.41125-1.99017.58018l-2.43813-2.84207c-.30842-.35984-.60219-.727-.87391-1.10156a20.26307,20.26307,0,0,1-4.02436-10.93481,24.18009,24.18009,0,0,0,7.63752,1.645,12.91874,12.91874,0,0,0,1.81388,4.23736,12.094,12.094,0,0,0,1.02079,1.37328Z"/><path class="n" d="M52.57965,175.36761c-.6242.44065-1.28516.85925-1.96812,1.2558a26.50977,26.50977,0,0,1-4.78079,2.15906L34.63888,165.7253c.661-.16894,1.32187-.35988,1.99017-.58018a26.143,26.143,0,0,0,5.16263-2.35732Z"/><path class="h" d="M60.129,184.18011l-5.57393,4.78079L53.6225,187.874l4.30343-3.69393-7.5494-8.8125-10.788-12.5798-4.017-4.68532a12.094,12.094,0,0,1-1.02079-1.37328,12.91874,12.91874,0,0,1-1.81388-4.23736,13.0529,13.0529,0,0,1,1.18233-8.98874l1.40264-2.68049.918-1.74782,5.11862-9.78188.918-1.74782-4.78079-2.5042.47736-.90327,6.50655,3.40747-.918,1.74782-5.11862,9.78188-.918,1.74782-1.40264,2.68049A13.0529,13.0529,0,0,0,34.94,152.49185a12.91874,12.91874,0,0,0,1.81388,4.23736,12.094,12.094,0,0,0,1.02079,1.37328l4.017,4.68532,10.788,12.5798Z"/><path class="i" d="M55.82562,187.874l-1.2705,1.08686-8.72438-10.17843L34.63888,165.7253l-2.43813-2.84207c-.30842-.35984-.60219-.727-.87391-1.10156A20.318,20.318,0,0,1,28.63169,142.262a21.13771,21.13771,0,0,1,.98408-2.16642l2.06359-3.94359,4.10513-7.83577,2.18847-4.1786,1.72576.90327-1.71111,3.27533L33.88249,136.152,31.8189,140.0956a21.13771,21.13771,0,0,0-.98408,2.16642A20.318,20.318,0,0,0,33.53,161.78167c.27172.37454.56548.74173.87391,1.10156L36.842,165.7253l11.19187,13.05716Z"/><ellipse class="o" cx="77.17094" cy="109.10645" rx="63.82894" ry="22.30914"/><ellipse class="o" cx="77.17094" cy="109.10645" rx="63.82894" ry="22.30914"/><ellipse class="p" cx="77.17094" cy="109.10645" rx="63.82894" ry="22.30914"/><ellipse class="q" cx="77.17094" cy="109.10645" rx="63.82894" ry="22.30914"/><ellipse class="r" cx="77.17094" cy="109.10645" rx="63.82894" ry="22.30914"/><path class="s" d="M103.80795,96.29885q.05642,2.09072-.0437,4.12365c-.03051.70755-.07975,1.40939-.14156,2.10537-1.98228,3.72964-12.87743,6.83194-26.10936,7.189s-24.27854-2.15307-26.4591-5.77037c-.09926-.69163-.18628-1.3898-.25491-2.09467q-.21262-2.02141-.266-4.11529c-.5679-21.04351,10.89672-38.4194,25.6092-38.81644S103.24,75.25534,103.80795,96.29885Z"/><path class="t" d="M103.80795,96.29885q.05642,2.09072-.0437,4.12365c-.03051.70755-.07975,1.40939-.14156,2.10537-1.98228,3.72964-12.87743,6.83194-26.10936,7.189s-24.27854-2.15307-26.4591-5.77037c-.09926-.69163-.18628-1.3898-.25491-2.09467q-.21262-2.02141-.266-4.11529c-.5679-21.04351,10.89672-38.4194,25.6092-38.81644S103.24,75.25534,103.80795,96.29885Z"/><path class="u" d="M103.80795,96.29885q.05642,2.09072-.0437,4.12365c-.03051.70755-.07975,1.40939-.14156,2.10537-1.98228,3.72964-12.87743,6.83194-26.10936,7.189s-24.27854-2.15307-26.4591-5.77037c-.09926-.69163-.18628-1.3898-.25491-2.09467q-.21262-2.02141-.266-4.11529c-.5679-21.04351,10.89672-38.4194,25.6092-38.81644S103.24,75.25534,103.80795,96.29885Z"/><path class="s" d="M90.91874,190.99006,85.277,212.042a.10514.10514,0,0,1-.20428-.00476l-3.86765-17.6944a.10514.10514,0,0,0-.02546-.04887l-7.36935-7.98346a.10514.10514,0,0,0-.11361-.02734l-11.63953,4.28825a.10514.10514,0,0,0-.0688.09866v8.56741a.10514.10514,0,0,0,.021.06309l7.39925,9.86566a.10515.10515,0,0,0,.04054.0326l10.06412,4.58334a.10514.10514,0,0,1-.01637.19725l-15.80155,4.23395a.10514.10514,0,0,1-.10156-.02721L47.9207,202.51312a.10514.10514,0,0,1-.02721-.10156l5.738-21.41723a.10514.10514,0,0,1,.07437-.07436l21.41107-5.73179a.10514.10514,0,0,1,.10154.02722l15.67309,15.67309A.10514.10514,0,0,1,90.91874,190.99006Z"/><path class="v" d="M90.91874,190.99006,85.277,212.042a.10514.10514,0,0,1-.20428-.00476l-3.86765-17.6944a.10514.10514,0,0,0-.02546-.04887l-7.36935-7.98346a.10514.10514,0,0,0-.11361-.02734l-11.63953,4.28825a.10514.10514,0,0,0-.0688.09866v8.56741a.10514.10514,0,0,0,.021.06309l7.39925,9.86566a.10515.10515,0,0,0,.04054.0326l10.06412,4.58334a.10514.10514,0,0,1-.01637.19725l-15.80155,4.23395a.10514.10514,0,0,1-.10156-.02721L47.9207,202.51312a.10514.10514,0,0,1-.02721-.10156l5.738-21.41723a.10514.10514,0,0,1,.07437-.07436l21.41107-5.73179a.10514.10514,0,0,1,.10154.02722l15.67309,15.67309A.10514.10514,0,0,1,90.91874,190.99006Z"/><path class="w" d="M90.91874,190.99006,85.277,212.042a.10514.10514,0,0,1-.20428-.00476l-3.86765-17.6944a.10514.10514,0,0,0-.02546-.04887l-7.36935-7.98346a.10514.10514,0,0,0-.11361-.02734l-11.63953,4.28825a.10514.10514,0,0,0-.0688.09866v8.56741a.10514.10514,0,0,0,.021.06309l7.39925,9.86566a.10515.10515,0,0,0,.04054.0326l10.06412,4.58334a.10514.10514,0,0,1-.01637.19725l-15.80155,4.23395a.10514.10514,0,0,1-.10156-.02721L47.9207,202.51312a.10514.10514,0,0,1-.02721-.10156l5.738-21.41723a.10514.10514,0,0,1,.07437-.07436l21.41107-5.73179a.10514.10514,0,0,1,.10154.02722l15.67309,15.67309A.10514.10514,0,0,1,90.91874,190.99006Z"/><path class="s" d="M154.342,172.49539l-4.9886,18.63434-17.21862,4.61054a.19939.19939,0,0,1-.18244-.343l11.21649-9.758,2.47879-9.91517-7.43638-5.57729-7.43638,3.09849-2.47879,8.05608,1.40148,12.889a.36021.36021,0,0,1-.61281.29365l-11.999-11.999,4.9886-18.63434,18.63434-4.99477Z"/><path class="x" d="M154.342,172.49539l-4.9886,18.63434-17.21862,4.61054a.19939.19939,0,0,1-.18244-.343l11.21649-9.758,2.47879-9.91517-7.43638-5.57729-7.43638,3.09849-2.47879,8.05608,1.40148,12.889a.36021.36021,0,0,1-.61281.29365l-11.999-11.999,4.9886-18.63434,18.63434-4.99477Z"/><path class="y" d="M154.342,172.49539l-4.9886,18.63434-17.21862,4.61054a.19939.19939,0,0,1-.18244-.343l11.21649-9.758,2.47879-9.91517-7.43638-5.57729-7.43638,3.09849-2.47879,8.05608,1.40148,12.889a.36021.36021,0,0,1-.61281.29365l-11.999-11.999,4.9886-18.63434,18.63434-4.99477Z"/></g></svg>