<svg xmlns="http://www.w3.org/2000/svg" xmlns:xlink="http://www.w3.org/1999/xlink" viewBox="0 0 1366 768"><defs><style>.a{isolation:isolate;}.b{fill:url(#a);}.c{fill:url(#b);}.d{fill:url(#c);}.e{fill:url(#d);}.f{fill:url(#f);}.g{fill:url(#g);}.h{fill:#412947;opacity:0.35;}.h,.p,.q,.r,.t,.u,.v,.w,.x,.y{mix-blend-mode:darken;}.i{fill:#9e89a3;opacity:0.25;mix-blend-mode:lighten;}.j{fill:url(#i);}.k{fill:url(#j);}.l{fill:url(#k);}.m{fill:url(#l);}.n{fill:url(#m);}.o{fill:#ac86b5;}.p,.q,.r,.t,.u,.v,.w,.x,.y{opacity:0.51;}.p{fill:url(#n);}.q{fill:url(#o);}.r{fill:url(#p);}.s{fill:#84628c;}.t{fill:url(#q);}.u{fill:url(#r);}.v{fill:url(#s);}.w{fill:url(#t);}.x{fill:url(#u);}.y{fill:url(#v);}</style><linearGradient id="a" x1="750.89407" y1="459.27915" x2="759.97828" y2="459.27915" gradientUnits="userSpaceOnUse"><stop offset="0.10586" stop-color="#84628c"/><stop offset="0.82883" stop-color="#412947"/></linearGradient><linearGradient id="b" x1="743.55767" y1="416.24845" x2="760.41894" y2="416.24845" xlink:href="#a"/><linearGradient id="c" x1="754.88907" y1="427.95441" x2="766.41142" y2="427.95441" xlink:href="#a"/><linearGradient id="d" x1="766.39672" y1="435.06683" x2="766.59501" y2="435.06683" xlink:href="#a"/><linearGradient id="f" x1="753.07519" y1="451.89869" x2="763.81175" y2="451.89869" xlink:href="#a"/><linearGradient id="g" x1="756.56347" y1="441.45956" x2="766.43884" y2="441.45956" xlink:href="#a"/><linearGradient id="i" x1="663.48874" y1="479.37532" x2="677.78705" y2="479.37532" xlink:href="#a"/><linearGradient id="j" x1="651.16363" y1="422.48476" x2="659.97613" y2="435.15273" xlink:href="#a"/><linearGradient id="k" x1="645.46757" y1="435.21009" x2="654.28007" y2="447.32728" xlink:href="#a"/><linearGradient id="l" x1="642.59743" y1="453.83122" x2="660.03884" y2="458.23747" xlink:href="#a"/><linearGradient id="m" x1="652.29688" y1="467.9962" x2="670.23765" y2="467.9962" xlink:href="#a"/><linearGradient id="n" x1="631" y1="406.31752" x2="758.65787" y2="406.31752" gradientUnits="userSpaceOnUse"><stop offset="0.3" stop-color="#412947" stop-opacity="0"/><stop offset="1" stop-color="#260a2d"/></linearGradient><linearGradient id="o" x1="631" y1="406.31752" x2="758.65787" y2="406.31752" gradientUnits="userSpaceOnUse"><stop offset="0" stop-color="#fff"/><stop offset="0.5" stop-color="#412947" stop-opacity="0"/></linearGradient><linearGradient id="p" x1="651.24368" y1="385.80681" x2="763.60306" y2="438.68181" gradientUnits="userSpaceOnUse"><stop offset="0" stop-color="#fff"/><stop offset="0.03378" stop-color="#7739ee" stop-opacity="0"/><stop offset="0.5" stop-color="#380047" stop-opacity="0.4"/></linearGradient><linearGradient id="q" x1="668.17106" y1="381.54302" x2="721.48682" y2="381.54302" xlink:href="#n"/><linearGradient id="r" x1="668.17106" y1="381.54302" x2="721.48682" y2="381.54302" xlink:href="#o"/><linearGradient id="s" x1="665.54791" y1="493.91187" x2="708.58032" y2="493.91187" xlink:href="#o"/><linearGradient id="t" x1="705.86466" y1="501.06138" x2="661.86607" y2="484.32952" xlink:href="#n"/><linearGradient id="u" x1="734.7437" y1="474.51285" x2="772" y2="474.51285" xlink:href="#n"/><linearGradient id="v" x1="768.77066" y1="469.4911" x2="727.56071" y2="483.43432" xlink:href="#o"/></defs><title>05-flying-saucer</title><g class="a"><path class="b" d="M759.97828,457.65621,757.7458,463.421l-6.85173-2.65843,2.18112-5.62534A24.66823,24.66823,0,0,0,759.97828,457.65621Z"/><path class="c" d="M760.41894,420.10762a7.03964,7.03964,0,0,1-.59484,1.01344,10.7367,10.7367,0,0,1-4.935,3.81871c-.14688-.17624-.30107-.35249-.45531-.52138l-3.67923-4.02441-4.02436-4.41356-3.17251-3.46627,5.41969-4.957,4.56044,4.98639,6.31565,6.91784C760.05175,419.67431,760.23534,419.88727,760.41894,420.10762Z"/><path class="d" d="M766.41142,435.155a25.8918,25.8918,0,0,1-5.79423.64625c-.52138,0-1.03545-.0147-1.54217-.05141a16.95512,16.95512,0,0,0-.76378-4.57514,17.57824,17.57824,0,0,0-3.42217-6.23488,10.7367,10.7367,0,0,0,4.935-3.81871,7.03964,7.03964,0,0,0,.59484-1.01344,20.35481,20.35481,0,0,1,1.31452,1.6817,24.635,24.635,0,0,1,4.66326,13.18939A.71417.71417,0,0,1,766.41142,435.155Z"/><path class="e" d="M766.595,435.11089a1.67382,1.67382,0,0,1-.18359.04406.71417.71417,0,0,0-.0147-.17624Z"/><path class="e" d="M766.595,435.11089a1.67382,1.67382,0,0,1-.18359.04406.71417.71417,0,0,0-.0147-.17624Z"/><path class="f" d="M763.81175,447.76416l-3.83346,9.89205a24.66823,24.66823,0,0,1-6.9031-2.51895l3.48828-8.99609A22.77519,22.77519,0,0,0,763.81175,447.76416Z"/><path class="g" d="M764.72236,445.41415l-.91062,2.35a22.77519,22.77519,0,0,1-7.24828-1.623l1.31452-3.37811a17.65573,17.65573,0,0,0,1.197-7.01327c.50672.03671,1.02079.05141,1.54217.05141a25.8918,25.8918,0,0,0,5.79423-.64625A25.05453,25.05453,0,0,1,764.72236,445.41415Z"/><path class="e" d="M766.595,435.11089a1.67382,1.67382,0,0,1-.18359.04406.71417.71417,0,0,0-.0147-.17624Z"/><path class="h" d="M766.22782,435.155a25.05453,25.05453,0,0,1-1.68905,10.2592l-.91062,2.35-3.83346,9.89205-2.23248,5.76483-1.91671-.74173,1.94607-5.0231,3.83346-9.89205.91062-2.35a25.05453,25.05453,0,0,0,1.68905-10.2592,1.67382,1.67382,0,0,0,.18359-.04406l-.1983-.13218a24.635,24.635,0,0,0-4.66326-13.18939,20.35485,20.35485,0,0,0-1.31452-1.6817c-.18359-.22035-.36719-.4333-.56548-.64625l-6.31565-6.91784-3.55435-3.89218,1.197-1.09421,4.56044,4.98639,6.31565,6.91784c.1983.213.38189.42591.56548.64625a20.35485,20.35485,0,0,1,1.31452,1.6817,24.635,24.635,0,0,1,4.66326,13.18939l.1983.13218A1.67382,1.67382,0,0,1,766.22782,435.155Z"/><path class="i" d="M760.08111,442.76307l-1.31452,3.37811-3.48828,8.99609-2.18112,5.62534,4.935,1.91671-.28642.74173-6.85173-2.65843,2.18112-5.62534,3.48828-8.99609,1.31452-3.37811a17.65573,17.65573,0,0,0,1.197-7.01327,16.95512,16.95512,0,0,0-.76378-4.57514,17.57824,17.57824,0,0,0-3.42217-6.23488c-.14688-.17624-.30107-.35249-.45531-.52138l-3.67923-4.02441-4.02436-4.41356-3.17251-3.46627,5.41969-4.957,1.00609,1.09421-4.22266,3.86282,3.17251,3.46627,4.02436,4.41356,3.67923,4.02441c.15423.16889.30842.34513.45531.52138a17.57824,17.57824,0,0,1,3.42217,6.23488,16.95512,16.95512,0,0,1,.76378,4.57514A17.65573,17.65573,0,0,1,760.08111,442.76307Z"/><path class="j" d="M677.787,481.39117l-5.57393,4.78079-8.72438-10.17843a26.50977,26.50977,0,0,0,4.78079-2.15906c.683-.39655,1.34392-.81515,1.96812-1.2558Z"/><path class="k" d="M662.13752,424.75618l-.918,1.74782-5.11862,9.78188c-.45531-.11748-.91062-.257-1.36593-.41125a26.4218,26.4218,0,0,1-5.39764-2.51155l4.10513-7.83577,2.18847-4.1786Z"/><path class="l" d="M656.10093,436.28587l-.918,1.74782-1.40264,2.68049a13.0529,13.0529,0,0,0-1.18233,8.98874,24.18008,24.18008,0,0,1-7.63752-1.645,20.38349,20.38349,0,0,1,1.32922-8.58485,21.13771,21.13771,0,0,1,.98408-2.16642l2.06359-3.94359a26.4218,26.4218,0,0,0,5.39764,2.51155C655.19031,436.02886,655.64562,436.16839,656.10093,436.28587Z"/><path class="m" d="M659.44968,459.99887a26.143,26.143,0,0,1-5.16263,2.35732c-.66831.2203-1.32922.41125-1.99017.58018l-2.43813-2.84207c-.30842-.35984-.60219-.727-.87391-1.10156a20.26307,20.26307,0,0,1-4.02436-10.93481,24.18008,24.18008,0,0,0,7.63752,1.645,12.91874,12.91874,0,0,0,1.81388,4.23736,12.094,12.094,0,0,0,1.02079,1.37328Z"/><path class="n" d="M670.23765,472.57867c-.6242.44065-1.28516.85925-1.96812,1.2558a26.50977,26.50977,0,0,1-4.78079,2.15906l-11.19187-13.05716c.661-.16894,1.32187-.35988,1.99017-.58018a26.143,26.143,0,0,0,5.16263-2.35732Z"/><path class="h" d="M677.787,481.39117l-5.57393,4.78079-.93263-1.08686,4.30343-3.69393-7.5494-8.8125-10.788-12.5798-4.017-4.68532a12.094,12.094,0,0,1-1.02079-1.37328,12.91874,12.91874,0,0,1-1.81388-4.23736,13.0529,13.0529,0,0,1,1.18233-8.98874l1.40264-2.68049.918-1.74782,5.11862-9.78188.918-1.74782-4.78079-2.5042.47736-.90327,6.50655,3.40747-.918,1.74782-5.11862,9.78188-.918,1.74782-1.40264,2.68049a13.0529,13.0529,0,0,0-1.18233,8.98874,12.91874,12.91874,0,0,0,1.81388,4.23736,12.094,12.094,0,0,0,1.02079,1.37328l4.017,4.68532,10.788,12.5798Z"/><path class="i" d="M673.48362,485.0851l-1.2705,1.08686-8.72438-10.17843-11.19187-13.05716-2.43813-2.84207c-.30842-.35984-.60219-.727-.87391-1.10156a20.318,20.318,0,0,1-2.69514-19.51966,21.13771,21.13771,0,0,1,.98408-2.16642l2.06359-3.94359,4.10513-7.83577,2.18847-4.1786,1.72576.90327-1.71111,3.27533-4.10513,7.83577-2.06359,3.94359a21.13771,21.13771,0,0,0-.98408,2.16642,20.318,20.318,0,0,0,2.69514,19.51966c.27172.37454.56548.74173.87391,1.10156L654.5,462.93637l11.19187,13.05716Z"/><ellipse class="o" cx="694.82894" cy="406.31752" rx="63.82894" ry="22.30914"/><ellipse class="o" cx="694.82894" cy="406.31752" rx="63.82894" ry="22.30914"/><ellipse class="p" cx="694.82894" cy="406.31752" rx="63.82894" ry="22.30914"/><ellipse class="q" cx="694.82894" cy="406.31752" rx="63.82894" ry="22.30914"/><ellipse class="r" cx="694.82894" cy="406.31752" rx="63.82894" ry="22.30914"/><path class="s" d="M721.46595,393.50992q.05642,2.09072-.0437,4.12365c-.03051.70755-.07975,1.40939-.14156,2.10537-1.98228,3.72964-12.87743,6.83194-26.10936,7.189s-24.27854-2.15307-26.4591-5.77037c-.09926-.69163-.18628-1.3898-.25491-2.09467q-.21262-2.02141-.266-4.11529c-.5679-21.04351,10.89672-38.4194,25.6092-38.81644S720.898,372.46641,721.46595,393.50992Z"/><path class="t" d="M721.46595,393.50992q.05642,2.09072-.0437,4.12365c-.03051.70755-.07975,1.40939-.14156,2.10537-1.98228,3.72964-12.87743,6.83194-26.10936,7.189s-24.27854-2.15307-26.4591-5.77037c-.09926-.69163-.18628-1.3898-.25491-2.09467q-.21262-2.02141-.266-4.11529c-.5679-21.04351,10.89672-38.4194,25.6092-38.81644S720.898,372.46641,721.46595,393.50992Z"/><path class="u" d="M721.46595,393.50992q.05642,2.09072-.0437,4.12365c-.03051.70755-.07975,1.40939-.14156,2.10537-1.98228,3.72964-12.87743,6.83194-26.10936,7.189s-24.27854-2.15307-26.4591-5.77037c-.09926-.69163-.18628-1.3898-.25491-2.09467q-.21262-2.02141-.266-4.11529c-.5679-21.04351,10.89672-38.4194,25.6092-38.81644S720.898,372.46641,721.46595,393.50992Z"/><path class="s" d="M708.57674,488.20113l-5.64174,21.052a.10514.10514,0,0,1-.20428-.00476l-3.86765-17.6944a.10514.10514,0,0,0-.02546-.04887l-7.36935-7.98346a.10514.10514,0,0,0-.11361-.02734l-11.63953,4.28825a.10514.10514,0,0,0-.0688.09866v8.56741a.10514.10514,0,0,0,.021.06309l7.39925,9.86566a.10514.10514,0,0,0,.04054.0326l10.06412,4.58334a.10514.10514,0,0,1-.01637.19725l-15.80155,4.23395a.10514.10514,0,0,1-.10156-.02721L665.5787,499.72419a.10514.10514,0,0,1-.02721-.10156l5.738-21.41723a.10514.10514,0,0,1,.07437-.07436l21.41107-5.73179a.10514.10514,0,0,1,.10154.02722l15.67309,15.67309A.10514.10514,0,0,1,708.57674,488.20113Z"/><path class="v" d="M708.57674,488.20113l-5.64174,21.052a.10514.10514,0,0,1-.20428-.00476l-3.86765-17.6944a.10514.10514,0,0,0-.02546-.04887l-7.36935-7.98346a.10514.10514,0,0,0-.11361-.02734l-11.63953,4.28825a.10514.10514,0,0,0-.0688.09866v8.56741a.10514.10514,0,0,0,.021.06309l7.39925,9.86566a.10514.10514,0,0,0,.04054.0326l10.06412,4.58334a.10514.10514,0,0,1-.01637.19725l-15.80155,4.23395a.10514.10514,0,0,1-.10156-.02721L665.5787,499.72419a.10514.10514,0,0,1-.02721-.10156l5.738-21.41723a.10514.10514,0,0,1,.07437-.07436l21.41107-5.73179a.10514.10514,0,0,1,.10154.02722l15.67309,15.67309A.10514.10514,0,0,1,708.57674,488.20113Z"/><path class="w" d="M708.57674,488.20113l-5.64174,21.052a.10514.10514,0,0,1-.20428-.00476l-3.86765-17.6944a.10514.10514,0,0,0-.02546-.04887l-7.36935-7.98346a.10514.10514,0,0,0-.11361-.02734l-11.63953,4.28825a.10514.10514,0,0,0-.0688.09866v8.56741a.10514.10514,0,0,0,.021.06309l7.39925,9.86566a.10514.10514,0,0,0,.04054.0326l10.06412,4.58334a.10514.10514,0,0,1-.01637.19725l-15.80155,4.23395a.10514.10514,0,0,1-.10156-.02721L665.5787,499.72419a.10514.10514,0,0,1-.02721-.10156l5.738-21.41723a.10514.10514,0,0,1,.07437-.07436l21.41107-5.73179a.10514.10514,0,0,1,.10154.02722l15.67309,15.67309A.10514.10514,0,0,1,708.57674,488.20113Z"/><path class="s" d="M772,469.70646l-4.9886,18.63434-17.21862,4.61054a.19939.19939,0,0,1-.18244-.343l11.21649-9.758,2.47879-9.91517-7.43638-5.57729-7.43638,3.09849-2.47879,8.05608,1.40148,12.889a.36021.36021,0,0,1-.61281.29365l-11.999-11.999,4.9886-18.63434,18.63434-4.99477Z"/><path class="x" d="M772,469.70646l-4.9886,18.63434-17.21862,4.61054a.19939.19939,0,0,1-.18244-.343l11.21649-9.758,2.47879-9.91517-7.43638-5.57729-7.43638,3.09849-2.47879,8.05608,1.40148,12.889a.36021.36021,0,0,1-.61281.29365l-11.999-11.999,4.9886-18.63434,18.63434-4.99477Z"/><path class="y" d="M772,469.70646l-4.9886,18.63434-17.21862,4.61054a.19939.19939,0,0,1-.18244-.343l11.21649-9.758,2.47879-9.91517-7.43638-5.57729-7.43638,3.09849-2.47879,8.05608,1.40148,12.889a.36021.36021,0,0,1-.61281.29365l-11.999-11.999,4.9886-18.63434,18.63434-4.99477Z"/></g></svg>