<svg xmlns="http://www.w3.org/2000/svg" viewBox="0 0 1366 768"><defs><linearGradient id="a" x1="278.516" y1="349.592" x2="278.516" y2="529.639" gradientUnits="userSpaceOnUse"><stop offset=".273" stop-color="#270682"/><stop offset=".435" stop-color="#21056e"/><stop offset=".809" stop-color="#130443"/><stop offset="1" stop-color="#0e0333"/></linearGradient></defs><g style="isolation:isolate"><path d="M492 461c-.461 4.72 66.684 74.8 65 76-30.104 21.46-342.806 15.08-376.288 16.5-5.309.23-11.99.21-19.659-.01-29.836-.83-74.783-4.65-113.564-8.96-17.814-1.98-34.34-4.05-47.489-5.99V418.85c23.09-14.86 43.296-1.45 60.595-3.35 18.232-2 52.551-29 85.798-44s62.203 2 79.363 8S380.623 408 401 427c15.594 14.54 92.501 18.63 91 34z" fill="url(#a)"/><path d="M1366 530v238H0V536.21c.66.04 1.32.09 2 .13 12.47.8 27.73 1.4 46.4 1.68 19.3.29 42.24.23 69.51-.34h.01c.36 0 .72-.01 1.09-.02q10.455-.21 21.77-.54l7.33-.21c.1-.01.2-.01.29-.01 2.01-.07 4.03-.13 6.08-.2 1.99-.06 3.99-.13 6.02-.2q11.475-.39 22.74-.76h.01c.69-.01 1.38-.04 2.07-.06q22.65-.72 44.46-1.29c1.32-.04 2.63-.07 3.94-.11q9.585-.24 18.99-.47 14.19-.33 27.96-.59c1.45-.03 2.89-.05 4.33-.08 77.32-1.44 144.02-1.28 194.81.79h.01q15.3.63 28.63 1.48c8.92.57 17.16 1.23 24.65 1.97 16.54 1.62 29.49 3.66 38.4 6.12 14 3.87 40.93 4.42 73.76 3.01 11.76-.5 24.27-1.26 37.22-2.2C754.73 539.05 840.54 527.95 884 522c73-10 222 13 285-2 24.64-5.87 60.15-5.61 94.25-3.13C1316.33 520.73 1366 530 1366 530z" fill="#810f91"/><path d="M114.31 635.54C106.12 631.58 92.91 629 78 629c-24.85 0-45 7.16-45 16a7.725 7.725 0 0 0 2.69 5.46C30.23 647.81 27 644.54 27 641c0-8.84 20.15-16 45-16 19.46 0 36.03 4.39 42.31 10.54zM204 710.5a3.348 3.348 0 0 1-1.39 2.5c-2.71-2.35-9.13-4-16.61-4s-13.9 1.65-16.61 4a3.348 3.348 0 0 1-1.39-2.5c0-3.59 8.06-6.5 18-6.5s18 2.91 18 6.5zm1094 33a3.348 3.348 0 0 1-1.39 2.5c-2.71-2.35-9.13-4-16.61-4s-13.9 1.65-16.61 4a3.348 3.348 0 0 1-1.39-2.5c0-3.59 8.06-6.5 18-6.5s18 2.91 18 6.5zm-1040 1a3.348 3.348 0 0 1-1.39 2.5c-2.71-2.35-9.13-4-16.61-4s-13.9 1.65-16.61 4a3.348 3.348 0 0 1-1.39-2.5c0-3.59 8.06-6.5 18-6.5s18 2.91 18 6.5zm568.35-43.091a3.597 3.597 0 0 1-1.854 2.773c-3.613-2.607-12.174-4.437-22.147-4.437s-18.533 1.83-22.146 4.437a3.597 3.597 0 0 1-1.854-2.773c0-3.983 10.747-7.211 24-7.211s24 3.228 24 7.21zM895 638.302a3.597 3.597 0 0 1-1.853 2.774c-3.614-2.608-12.174-4.438-22.147-4.438s-18.533 1.83-22.147 4.438a3.597 3.597 0 0 1-1.853-2.774c0-3.983 10.747-7.21 24-7.21s24 3.227 24 7.21zM557 584.5a3.348 3.348 0 0 1-1.39 2.5c-2.71-2.35-9.13-4-16.61-4s-13.9 1.65-16.61 4a3.348 3.348 0 0 1-1.39-2.5c0-3.59 8.06-6.5 18-6.5s18 2.91 18 6.5zm-58.85 92.11C487.48 669.72 465.45 665 440 665c-35.9 0-65 9.4-65 21a7.433 7.433 0 0 0 .85 3.39c-4.38-2.82-6.85-6.01-6.85-9.39 0-11.6 29.1-21 65-21 32.33 0 59.14 7.62 64.15 17.61zm717.67-118.08c-4.61-2.69-13.77-4.53-24.32-4.53-15.19 0-27.5 3.81-27.5 8.5a2.73 2.73 0 0 0 .18.97c-2.03-1.19-3.18-2.54-3.18-3.97 0-4.69 12.31-8.5 27.5-8.5 14.13 0 25.76 3.3 27.32 7.53zm-746 46c-4.61-2.69-13.77-4.53-24.32-4.53-15.19 0-27.5 3.81-27.5 8.5a2.73 2.73 0 0 0 .18.97c-2.03-1.19-3.18-2.54-3.18-3.97 0-4.69 12.31-8.5 27.5-8.5 14.13 0 25.76 3.3 27.32 7.53zm-238.47-20.08c-3.73-2.65-11-4.45-19.35-4.45-12.15 0-22 3.81-22 8.5a3.704 3.704 0 0 0 .65 2.05c-1.69-1.21-2.65-2.59-2.65-4.05 0-4.69 9.85-8.5 22-8.5 10.32 0 18.97 2.75 21.35 6.45zM171 546.5a.66.66 0 0 1-.01.14 8.69 8.69 0 0 0-5.49-1.64c-3.5 0-6.36 1.49-6.49 3.36a2.466 2.466 0 0 1-1.01-1.86c0-1.93 2.91-3.5 6.5-3.5s6.5 1.57 6.5 3.5zm1073 201a.66.66 0 0 1-.01.14 8.69 8.69 0 0 0-5.49-1.64c-3.5 0-6.36 1.49-6.49 3.36a2.466 2.466 0 0 1-1.01-1.86c0-1.93 2.91-3.5 6.5-3.5s6.5 1.57 6.5 3.5zm-726-140a.66.66 0 0 1-.01.14 8.69 8.69 0 0 0-5.49-1.64c-3.5 0-6.36 1.49-6.49 3.36a2.466 2.466 0 0 1-1.01-1.86c0-1.93 2.91-3.5 6.5-3.5s6.5 1.57 6.5 3.5zm241.394 145.384a.34.34 0 0 1-.023.15c-2.697-1.067-7.457-1.767-12.874-1.767-8.208 0-14.914 1.606-15.22 3.622-1.5-.572-2.368-1.272-2.368-2.005 0-2.08 6.824-3.773 15.243-3.773s15.242 1.692 15.242 3.773zM1032 559c0 1.21-1.03 2.39-2.95 3.5-9.46-5.48-40.6-9.5-77.55-9.5s-68.09 4.02-77.55 9.5c-1.92-1.11-2.95-2.29-2.95-3.5 0-7.18 36.04-13 80.5-13s80.5 5.82 80.5 13zM688.26 756.97c-14.18-6.1-46.35-10.357-83.76-10.357-50.53 0-91.5 7.77-91.5 17.345a4.767 4.767 0 0 0 1.74 3.374c-4.98-2.139-7.74-4.502-7.74-6.988C507 750.77 547.97 743 598.5 743c44.43 0 81.47 6.005 89.76 13.97zm-5.742-180.21c-7.16-4.262-23.402-7.235-42.29-7.235-25.513 0-46.199 5.427-46.199 12.117a3.897 3.897 0 0 0 .879 2.358c-2.514-1.495-3.908-3.146-3.908-4.882 0-6.69 20.686-12.118 46.198-12.118 22.433 0 41.135 4.196 45.32 9.76zM702 679a1.447 1.447 0 0 1-.22.76c-12.21-3.4-38.64-5.76-69.28-5.76-40.29 0-73.31 4.07-76.28 9.24-4.63-1.28-7.22-2.72-7.22-4.24 0-5.52 34.25-10 76.5-10s76.5 4.48 76.5 10zm142-79.347a2.823 2.823 0 0 1-.178.996c-9.896-4.457-31.316-7.551-56.149-7.551-32.653 0-59.414 5.335-61.822 12.113-3.752-1.678-5.851-3.566-5.851-5.558 0-7.237 27.758-13.11 62-13.11s62 5.873 62 13.11zM809.36 768c11.09-10.47 42.11-18 78.64-18 34.81 0 64.61 6.84 76.94 16.54C963.36 752.34 926.83 741 882 741c-45.84 0-83 11.86-83 26.5a4.18 4.18 0 0 0 .02.5z" style="mix-blend-mode:darken" fill="#550763" opacity=".54"/></g></svg>