<svg xmlns="http://www.w3.org/2000/svg" xmlns:xlink="http://www.w3.org/1999/xlink" viewBox="0 0 1366 768"><defs><style>.a{isolation:isolate;}.b{fill:url(#a);}.c{fill:#810f91;}.d{fill:#550763;opacity:0.54;mix-blend-mode:darken;}</style><linearGradient id="a" x1="278.51557" y1="349.59217" x2="278.51557" y2="529.63941" gradientUnits="userSpaceOnUse"><stop offset="0.27252" stop-color="#270682"/><stop offset="0.43549" stop-color="#21056e"/><stop offset="0.80883" stop-color="#130443"/><stop offset="1" stop-color="#0e0333"/></linearGradient></defs><title>06-ground</title><g class="a"><path class="b" d="M492,461c-.46116,4.72,66.68379,74.8,65,76-30.10435,21.46-342.80552,15.08-376.28812,16.5-5.30876.23-11.99025.21-19.65847-.01-29.83624-.83-74.78359-4.65-113.56423-8.96C29.67534,542.55,13.14854,540.48,0,538.54V418.85c23.0904-14.86,43.29577-1.45,60.59478-3.35,18.23206-2,52.55123-29,85.79792-44s62.20349,2,79.36308,8S380.623,408,401,427C416.59375,441.54,493.50149,445.63,492,461Z"/><path class="c" d="M1366,530V768H0V536.21c.66.04,1.32.09,2,.13,12.47.8,27.73,1.4,46.4,1.68,19.3.29,42.24.23,69.50995-.34h.01c.36,0,.72-.01,1.09-.02q10.455-.21,21.77-.54c2.41-.07,4.86-.14,7.33-.21.1-.01.2-.01.29-.01,2.00995-.07,4.03-.13,6.08-.2,1.99-.06,3.99-.13,6.02-.2q11.475-.39,22.74-.76h.01c.69-.01,1.38-.04,2.07-.06q22.65-.72,44.46-1.29c1.31995-.04,2.62994-.07,3.93994-.11q9.585-.24,18.99005-.47,14.18994-.33,27.96-.59c1.45-.03,2.89-.05,4.33-.08,77.32-1.44,144.02-1.28,194.81.79h.01q15.3.63,28.63,1.48c8.92.57,17.16,1.23,24.65,1.97,16.54,1.62,29.49005,3.66,38.4,6.12,14,3.87,40.93,4.42,73.76,3.01,11.76-.5,24.27-1.26,37.22-2.2C754.73,539.05,840.54,527.95,884,522c73-10,222,13,285-2,24.64-5.87,60.15-5.61,94.25-3.13C1316.33008,520.73,1366,530,1366,530Z"/><path class="d" d="M114.31,635.54C106.12,631.58,92.91,629,78,629c-24.85,0-45,7.16-45,16a7.72473,7.72473,0,0,0,2.69,5.46C30.23,647.81,27,644.54,27,641c0-8.84,20.15-16,45-16C91.46,625,108.03,629.39,114.31,635.54Z"/><path class="d" d="M204,710.5a3.3479,3.3479,0,0,1-1.39,2.5c-2.71-2.35-9.13-4-16.61-4s-13.9,1.65-16.61,4a3.3479,3.3479,0,0,1-1.39-2.5c0-3.59,8.06-6.5,18-6.5S204,706.91,204,710.5Z"/><path class="d" d="M1298,743.5a3.3479,3.3479,0,0,1-1.39,2.5c-2.71-2.35-9.13-4-16.61-4s-13.9,1.65-16.61,4a3.3479,3.3479,0,0,1-1.39-2.5c0-3.59,8.06-6.5,18-6.5S1298,739.91,1298,743.5Z"/><path class="d" d="M258,744.5a3.3479,3.3479,0,0,1-1.39,2.5c-2.71-2.35-9.13-4-16.61-4s-13.9,1.65-16.61,4a3.3479,3.3479,0,0,1-1.39-2.5c0-3.59,8.06-6.5,18-6.5S258,740.91,258,744.5Z"/><path class="d" d="M826.34916,701.40875a3.59688,3.59688,0,0,1-1.85335,2.77344c-3.61328-2.60707-12.17334-4.4375-22.14665-4.4375s-18.53337,1.83043-22.14665,4.4375a3.59688,3.59688,0,0,1-1.85335-2.77344c0-3.98269,10.74666-7.21094,24-7.21094S826.34916,697.42607,826.34916,701.40875Z"/><path class="d" d="M895,638.30208a3.59688,3.59688,0,0,1-1.85335,2.77344c-3.61328-2.60707-12.17334-4.4375-22.14665-4.4375s-18.53337,1.83043-22.14665,4.4375A3.59688,3.59688,0,0,1,847,638.30208c0-3.98269,10.74666-7.21094,24-7.21094S895,634.3194,895,638.30208Z"/><path class="d" d="M557,584.5a3.3479,3.3479,0,0,1-1.39,2.5c-2.71-2.35-9.13-4-16.61-4s-13.9,1.65-16.61,4a3.3479,3.3479,0,0,1-1.39-2.5c0-3.59,8.06-6.5,18-6.5S557,580.91,557,584.5Z"/><path class="d" d="M498.15,676.61C487.48,669.72,465.45,665,440,665c-35.9,0-65,9.4-65,21a7.43341,7.43341,0,0,0,.85,3.39c-4.38-2.82-6.85-6.01-6.85-9.39,0-11.6,29.1-21,65-21C466.33,659,493.14,666.62,498.15,676.61Z"/><path class="d" d="M1215.82,558.53c-4.61-2.69-13.77-4.53-24.32-4.53-15.19,0-27.5,3.81-27.5,8.5a2.73028,2.73028,0,0,0,.18.97c-2.03-1.19-3.18-2.54-3.18-3.97,0-4.69,12.31-8.5,27.5-8.5C1202.63,551,1214.26,554.3,1215.82,558.53Z"/><path class="d" d="M469.82,604.53c-4.61-2.69-13.77-4.53-24.32-4.53-15.19,0-27.5,3.81-27.5,8.5a2.73028,2.73028,0,0,0,.18.97c-2.03-1.19-3.18-2.54-3.18-3.97,0-4.69,12.31-8.5,27.5-8.5C456.63,597,468.26,600.3,469.82,604.53Z"/><path class="d" d="M231.35,584.45c-3.73-2.65-11-4.45-19.35-4.45-12.15,0-22,3.81-22,8.5a3.70386,3.70386,0,0,0,.65,2.05c-1.69-1.21-2.65-2.59-2.65-4.05,0-4.69,9.85-8.5,22-8.5C220.32,578,228.97,580.75,231.35,584.45Z"/><path class="d" d="M171,546.5a.66.66,0,0,1-.01.14A8.69022,8.69022,0,0,0,165.5,545c-3.5,0-6.36,1.49-6.49,3.36A2.466,2.466,0,0,1,158,546.5c0-1.93,2.91-3.5,6.5-3.5S171,544.57,171,546.5Z"/><path class="d" d="M1244,747.5a.66.66,0,0,1-.01.14,8.69022,8.69022,0,0,0-5.49-1.64c-3.5,0-6.36,1.49-6.49,3.36a2.466,2.466,0,0,1-1.01-1.86c0-1.93,2.91-3.5,6.5-3.5S1244,745.57,1244,747.5Z"/><path class="d" d="M518,607.5a.66.66,0,0,1-.01.14A8.69022,8.69022,0,0,0,512.5,606c-3.5,0-6.36,1.49-6.49,3.36A2.466,2.466,0,0,1,505,607.5c0-1.93,2.91-3.5,6.5-3.5S518,605.57,518,607.5Z"/><path class="d" d="M759.39415,752.88374a.33969.33969,0,0,1-.02347.15093c-2.69666-1.06725-7.45708-1.76789-12.874-1.76789-8.2075,0-14.91416,1.60617-15.219,3.622-1.50083-.57136-2.36847-1.272-2.36847-2.005,0-2.08048,6.82389-3.7729,15.2425-3.7729S759.39415,750.80326,759.39415,752.88374Z"/><path class="d" d="M1032,559c0,1.21-1.03,2.39-2.95,3.5-9.46-5.48-40.6-9.5-77.55-9.5s-68.09,4.02-77.55,9.5c-1.92-1.11-2.95-2.29-2.95-3.5,0-7.18,36.04-13,80.5-13S1032,551.82,1032,559Z"/><path class="d" d="M688.26,756.96923c-14.18-6.09932-46.35-10.35587-83.76-10.35587-50.53,0-91.5,7.76873-91.5,17.34415a4.76731,4.76731,0,0,0,1.74,3.37487c-4.98-2.13913-7.74-4.50224-7.74-6.98823C507,750.76873,547.97,743,598.5,743,642.93,743,679.97,749.00541,688.26,756.96923Z"/><path class="d" d="M682.51832,576.75971c-7.15949-4.26133-23.40217-7.23521-42.29049-7.23521-25.51265,0-46.19842,5.42768-46.19842,12.11762A3.89714,3.89714,0,0,0,594.90793,584C592.39353,582.50548,591,580.85448,591,579.11762,591,572.42768,611.68577,567,637.19842,567,659.63116,567,678.33267,571.19572,682.51832,576.75971Z"/><path class="d" d="M702,679a1.44738,1.44738,0,0,1-.22.76c-12.21-3.4-38.64-5.76-69.28-5.76-40.29,0-73.31,4.07-76.28,9.24C551.59,681.96,549,680.52,549,679c0-5.52,34.25-10,76.5-10S702,673.48,702,679Z"/><path class="d" d="M844,599.65256a2.82285,2.82285,0,0,1-.17828.99631c-9.8957-4.45714-31.31609-7.55088-56.14852-7.55088-32.65332,0-59.41464,5.33543-61.82172,12.11284-3.75237-1.678-5.85148-3.56573-5.85148-5.55827,0-7.23628,27.75817-13.10915,62-13.10915S844,592.41628,844,599.65256Z"/><path class="d" d="M809.36,768c11.09-10.47,42.11-18,78.64-18,34.81,0,64.61,6.84,76.94,16.54C963.36,752.34,926.83,741,882,741c-45.84,0-83,11.86-83,26.5a4.18041,4.18041,0,0,0,.02.5Z"/></g></svg>