<svg xmlns="http://www.w3.org/2000/svg" xmlns:xlink="http://www.w3.org/1999/xlink" viewBox="0 0 1366 768"><defs><style>.a{isolation:isolate;}.b{fill:#550763;opacity:0.54;mix-blend-mode:darken;}.c{fill:url(#a);}.d{fill:#66169f;}.e{fill:url(#b);}.f{fill:#450870;}.g{fill:url(#c);}.h{fill:#60108e;}.i{fill:url(#d);}.j{fill:url(#e);}</style><linearGradient id="a" x1="41.65473" y1="672.12128" x2="77.65473" y2="758.12128" gradientUnits="userSpaceOnUse"><stop offset="0.27252" stop-color="#782dba"/><stop offset="0.42273" stop-color="#6720ad"/><stop offset="0.72404" stop-color="#480996"/><stop offset="0.89414" stop-color="#3d008e"/></linearGradient><linearGradient id="b" x1="75.90172" y1="543.85683" x2="125.90172" y2="589.85683" gradientUnits="userSpaceOnUse"><stop offset="0.33784" stop-color="#66169f"/><stop offset="0.9955" stop-color="#3d008e"/></linearGradient><linearGradient id="c" x1="529.92018" y1="505.26968" x2="626.93046" y2="553.77482" gradientUnits="userSpaceOnUse"><stop offset="0.0991" stop-color="#450870"/><stop offset="0.41604" stop-color="#3f0870"/><stop offset="0.84272" stop-color="#2e0870"/><stop offset="0.97523" stop-color="#270870"/></linearGradient><linearGradient id="d" x1="349.50639" y1="468.3245" x2="413.50639" y2="564.99117" gradientUnits="userSpaceOnUse"><stop offset="0.33541" stop-color="#60108e"/><stop offset="1" stop-color="#43008e"/></linearGradient><linearGradient id="e" x1="1296.00953" y1="525.87785" x2="1344.67619" y2="567.87785" gradientUnits="userSpaceOnUse"><stop offset="0.23631" stop-color="#60108e"/><stop offset="0.71538" stop-color="#4c008e"/></linearGradient></defs><title>07-rocks</title><g class="a"><path class="b" d="M24,589s54,35,113,32,103-15-12-49S92,607,24,589Z"/><path class="b" d="M693,576.05c-24,7.99-131.58-8.62-130-7.04C575,581.02,587,575.02,595,590.02c7.99,15,15.99,39.01-112.01,29.97C354.99,610.96,309,582.95,309,582.95s182.73-37.81,224.1-45.57c16.54,1.62,29.49005,3.66,38.4,6.12,14,3.87,40.93,4.42,73.76,3.01,11.76-.5,24.27-1.26,37.22-2.2C705.6,555.88,711.57,569.86,693,576.05Z"/><path class="b" d="M1366,539.84v65.64C1313.16992,594.43,1225,567,1225,567s87-37,92-40C1318.77,525.94,1339.66992,531.38,1366,539.84Z"/><path class="c" d="M163.58,768H0V677.72a14.56656,14.56656,0,0,1,8.74-2.75,254.22652,254.22652,0,0,1,36.63,2.66c14.37,2.07,28.47,5.34,37.81,9.83,17.85,8.59,32.8,9.44,46.61,33.5C141.49,741.35,151.69,752.53,163.58,768Z"/><path class="d" d="M164.5,588.5c-24.85,14.02-77.72,14.64-111,9.62-18.94-2.86-31.54-7.54-29-12.62,7-14,13-22,19-38s15-18,25-25c7.7-5.39,21.92-10.19,33.99-13.02,3.61-.85,7.02-1.52,10.01-1.98,13-2,14,20,23,24S164.5,588.5,164.5,588.5Z"/><path class="e" d="M164.5,588.5c-24.85,14.02-77.72,14.64-111,9.62,8.15-5.35,20.44-13,24.5-21.12,6-12,14-12,18-15s15-17,13-34-6.5-18.5-6.5-18.5c0-.01-.01-.01-.01-.02,3.61-.85,7.02-1.52,10.01-1.98,13-2,14,20,23,24S164.5,588.5,164.5,588.5Z"/><path class="f" d="M616.5,558.5c-24.36,6.09-76.54-1.73-110.29-5.81-2.95-.35-5.76-.68-8.39-.97-6.82-.75-12.5-1.22-16.49-1.22-23.16,0-9.83-11,2.17-37,11.91-25.8,16.92-49.64,72.71-46.09.39.03.77.05,1.16.08.04,0,.09.01.13.01,57,4,46,40,58,48S656,546,656,546C664,548,648.5,550.5,616.5,558.5Z"/><path class="g" d="M616.5,558.5c-24.36,6.09-76.54-1.73-110.29-5.81A19.82177,19.82177,0,0,1,513,547c13-7,17-10,21-19s20,4,24-9,13-12,10-27a64.40456,64.40456,0,0,0-10.63-24.51c.04,0,.09.01.13.01,57,4,46,40,58,48S656,546,656,546C664,548,648.5,550.5,616.5,558.5Z"/><path class="h" d="M524.5,558.5c-4,12-64,22-105,31-30.96,6.8-88.13,7.32-114.29-9.19-8.49005-5.35-13.71-12.5-13.71-21.81,0,0-11-53,26-79,29.16-20.49,50.87-36.63,70.5-35.21a33.38471,33.38471,0,0,1,15.5,5.21c24,15,53,19,68,46S528.5,546.5,524.5,558.5Z"/><path class="i" d="M524.5,558.5c-4,12-64,22-105,31-30.96,6.8-88.13,7.32-114.29-9.19,12.6,1.44,23.12-1.93,35.79-5.31,15-4,3-10,9-21s4-10,11-18,3-9-4-13,12-8,15-15,19-8,18-20,14-14,8-27-10-16.5-10-16.5v-.21a33.38471,33.38471,0,0,1,15.5,5.21c24,15,53,19,68,46S528.5,546.5,524.5,558.5Z"/><path class="h" d="M1366,484.46v90.76c-11.91992-2.27-31.41992-4.99-44.5-1.72-20,5-42,2-59-5-10.57007-4.35-31.2,3.28-36.14-.91-3.0199-2.54-.23-9.45,14.14-26.09,8.91992-10.32,16.29-18.33,22.75-24.63,21.1-20.53,32.52-22.78,56.25-27.37,5.02-.97,9.6-1.79,13.78-2.46C1348.72,484.55,1358.77,483.97,1366,484.46Z"/><path class="j" d="M1366,484.46v90.76c-11.91992-2.27-31.41992-4.99-44.5-1.72-20,5-42,2-59-5-10.57007-4.35-31.2,3.28-36.14-.91A24.75871,24.75871,0,0,1,1243,563c12,1,46-8,49-21s26-4,35-20c6.97-12.39,6.74-28.37,6.28-34.96C1348.72,484.55,1358.77,483.97,1366,484.46Z"/></g></svg>