<svg xmlns="http://www.w3.org/2000/svg" viewBox="0 0 1366 768"><defs><style>.h{fill:#60108e}</style><linearGradient id="a" x1="41.655" y1="672.121" x2="77.655" y2="758.121" gradientUnits="userSpaceOnUse"><stop offset=".273" stop-color="#782dba"/><stop offset=".423" stop-color="#6720ad"/><stop offset=".724" stop-color="#480996"/><stop offset=".894" stop-color="#3d008e"/></linearGradient><linearGradient id="b" x1="75.902" y1="543.857" x2="125.902" y2="589.857" gradientUnits="userSpaceOnUse"><stop offset=".338" stop-color="#66169f"/><stop offset=".996" stop-color="#3d008e"/></linearGradient><linearGradient id="c" x1="529.92" y1="505.27" x2="626.93" y2="553.775" gradientUnits="userSpaceOnUse"><stop offset=".099" stop-color="#450870"/><stop offset=".416" stop-color="#3f0870"/><stop offset=".843" stop-color="#2e0870"/><stop offset=".975" stop-color="#270870"/></linearGradient><linearGradient id="d" x1="349.506" y1="468.325" x2="413.506" y2="564.991" gradientUnits="userSpaceOnUse"><stop offset=".335" stop-color="#60108e"/><stop offset="1" stop-color="#43008e"/></linearGradient><linearGradient id="e" x1="1296.01" y1="525.878" x2="1344.676" y2="567.878" gradientUnits="userSpaceOnUse"><stop offset=".236" stop-color="#60108e"/><stop offset=".715" stop-color="#4c008e"/></linearGradient></defs><g style="isolation:isolate"><path d="M24 589s54 35 113 32 103-15-12-49-33 35-101 17zm669-12.95c-24 7.99-131.58-8.62-130-7.04 12 12.01 24 6.01 32 21.01 7.99 15 15.99 39.01-112.01 29.97-128-9.03-173.99-37.04-173.99-37.04s182.73-37.81 224.1-45.57c16.54 1.62 29.49 3.66 38.4 6.12 14 3.87 40.93 4.42 73.76 3.01 11.76-.5 24.27-1.26 37.22-2.2 23.12 11.57 29.09 25.55 10.52 31.74zm673-36.21v65.64c-52.83-11.05-141-38.48-141-38.48s87-37 92-40c1.77-1.06 22.67 4.38 49 12.84z" style="mix-blend-mode:darken" fill="#550763" opacity=".54"/><path d="M163.58 768H0v-90.28a14.567 14.567 0 0 1 8.74-2.75 254.227 254.227 0 0 1 36.63 2.66c14.37 2.07 28.47 5.34 37.81 9.83 17.85 8.59 32.8 9.44 46.61 33.5 11.7 20.39 21.9 31.57 33.79 47.04z" fill="url(#a)"/><path d="M164.5 588.5c-24.85 14.02-77.72 14.64-111 9.62-18.94-2.86-31.54-7.54-29-12.62 7-14 13-22 19-38s15-18 25-25c7.7-5.39 21.92-10.19 33.99-13.02 3.61-.85 7.02-1.52 10.01-1.98 13-2 14 20 23 24s29 57 29 57z" fill="#66169f"/><path d="M164.5 588.5c-24.85 14.02-77.72 14.64-111 9.62 8.15-5.35 20.44-13 24.5-21.12 6-12 14-12 18-15s15-17 13-34-6.5-18.5-6.5-18.5c0-.01-.01-.01-.01-.02 3.61-.85 7.02-1.52 10.01-1.98 13-2 14 20 23 24s29 57 29 57z" fill="url(#b)"/><path d="M616.5 558.5c-24.36 6.09-76.54-1.73-110.29-5.81-2.95-.35-5.76-.68-8.39-.97-6.82-.75-12.5-1.22-16.49-1.22-23.16 0-9.83-11 2.17-37 11.91-25.8 16.92-49.64 72.71-46.09.39.03.77.05 1.16.08.04 0 .09.01.13.01 57 4 46 40 58 48S656 546 656 546c8 2-7.5 4.5-39.5 12.5z" fill="#450870"/><path d="M616.5 558.5c-24.36 6.09-76.54-1.73-110.29-5.81A19.822 19.822 0 0 1 513 547c13-7 17-10 21-19s20 4 24-9 13-12 10-27a64.405 64.405 0 0 0-10.63-24.51c.04 0 .09.01.13.01 57 4 46 40 58 48S656 546 656 546c8 2-7.5 4.5-39.5 12.5z" fill="url(#c)"/><path class="h" d="M524.5 558.5c-4 12-64 22-105 31-30.96 6.8-88.13 7.32-114.29-9.19-8.49-5.35-13.71-12.5-13.71-21.81 0 0-11-53 26-79 29.16-20.49 50.87-36.63 70.5-35.21a33.385 33.385 0 0 1 15.5 5.21c24 15 53 19 68 46s57 51 53 63z"/><path d="M524.5 558.5c-4 12-64 22-105 31-30.96 6.8-88.13 7.32-114.29-9.19 12.6 1.44 23.12-1.93 35.79-5.31 15-4 3-10 9-21s4-10 11-18 3-9-4-13 12-8 15-15 19-8 18-20 14-14 8-27-10-16.5-10-16.5v-.21a33.385 33.385 0 0 1 15.5 5.21c24 15 53 19 68 46s57 51 53 63z" fill="url(#d)"/><path class="h" d="M1366 484.46v90.76c-11.92-2.27-31.42-4.99-44.5-1.72-20 5-42 2-59-5-10.57-4.35-31.2 3.28-36.14-.91-3.02-2.54-.23-9.45 14.14-26.09 8.92-10.32 16.29-18.33 22.75-24.63 21.1-20.53 32.52-22.78 56.25-27.37 5.02-.97 9.6-1.79 13.78-2.46 15.44-2.49 25.49-3.07 32.72-2.58z"/><path d="M1366 484.46v90.76c-11.92-2.27-31.42-4.99-44.5-1.72-20 5-42 2-59-5-10.57-4.35-31.2 3.28-36.14-.91A24.759 24.759 0 0 1 1243 563c12 1 46-8 49-21s26-4 35-20c6.97-12.39 6.74-28.37 6.28-34.96 15.44-2.49 25.49-3.07 32.72-2.58z" fill="url(#e)"/></g></svg>