<svg xmlns="http://www.w3.org/2000/svg" viewBox="0 0 232.768 257.229"><defs><style>.b{fill:#007380}.c{fill:#003a40}.d{fill:#409cdb}.f{fill:#0f4360}.i{fill:#641b0b}.m{fill:#fffb79}.n{fill:#001d20}.o{fill:#002c30}</style><linearGradient id="a" x1="416.094" y1="603.242" x2="254.094" y2="666.242" gradientUnits="userSpaceOnUse"><stop offset=".5" stop-color="#412947" stop-opacity="0"/><stop offset="1"/></linearGradient><linearGradient id="b" x1="416.094" y1="603.242" x2="254.094" y2="666.242" gradientUnits="userSpaceOnUse"><stop offset="0" stop-color="#fff"/><stop offset=".5" stop-color="#412947" stop-opacity="0"/></linearGradient></defs><g style="isolation:isolate"><path class="b" d="M136.085 255.229h-20.34c-1.71-6.12-6.19-27.37-4.18-30.52a.249.249 0 0 1 .04-.07l1.76-1.14.02-.01 6.92-4.49.2-.14 2.01-1.3s-.42 5-.75 10.94c-.42 7.84-.69 17.32.37 19.07 1.37 2.27 8.66 4.82 13.95 7.66z"/><path class="c" d="M137.035 253.469c-1.81-.97-3.81-1.89-5.74-2.78-2.72-1.26-6.85-3.16-7.42-4.11-.15-.34-.87-2.69-.19-16.37.02-.52.05-1.05.08-1.6.01-.14.02-.28.02-.42q.06-1.05.12-2.04c.29-4.72.6-8.38.6-8.42l.34-4.06-3.84 2.49-8.44 5.47-.08.06-1.69 1.09-.28.18-.59.55-.12.25a3.96 3.96 0 0 0-.34.85c-1.93 6.7 4.28 30.9 4.35 31.16l.41 1.46h29.81zm-19.76-.24c-1.19-4.64-2.63-11.67-3.49-17.49q-.165-1.095-.3-2.13c-.47-3.59-.66-6.46-.32-7.6l.62-.4.09-.06 6.34-4.11c-.11 1.51-.23 3.34-.35 5.32a.277.277 0 0 0-.01.09l-.09 1.54-.03.56c-.04.73-.07 1.43-.1 2.1-.7 15.11.3 16.74.79 17.55.97 1.62 3.27 2.93 6.86 4.63z"/><path class="b" d="M98.715 255.229h-9.31c3.36-5.45 1.18-27.92.42-34.84-.15-1.29-.24-2.04-.24-2.04l1.73.39.44.1 5.51 1.24 2.04.46s.1 2.35.19 5.91c.01.66.03 1.36.04 2.1.16 8 .19 20.03-.82 26.68z"/><path class="c" d="M101.565 230.519l-.03-2v-.01l-.04-2v-.11c-.09-3.58-.19-5.95-.19-5.95l-.07-1.52-13.97-3.15.32 2.68.01.11.24 2.04c.05.47.1.95.15 1.41.13 1.21.24 2.4.35 3.56 1.36 14.73 1.15 25.72-.63 28.6l-1.88 3.05h14.61l.26-1.7c.93-6.15 1-16.63.87-25.01zm-4.61 22.71h-4.69c1.43-5.89 1.03-16.39.3-25.29-.09-1.1-.19-2.17-.28-3.2-.13-1.34-.26-2.62-.39-3.82l.4.09.13.03 4.94 1.11c.04.96.07 2.33.12 3.99v.1a1.924 1.924 0 0 1 .01.24l.04 1.86v.25l.03 1.79a196.81 196.81 0 0 1-.61 22.85z"/><path class="d" d="M208.168 139.466c.954 1.048.2 17.374-.063 23.026-.042.996-5.673-7.277-5.673-7.277s-4.729 15.801-2.013 21.935c2.726 6.134 1.416 12.845 1.31 15.078-.052.996-6.72-6.312-6.72-6.312s-15.613 24.756-18.276 27.189c-2.087 1.897-2.758-5.138-3.712-6.187-.954-1.038-8.011 21.663-13.002 21.432-2.999-.147-2.537-10.129-5.536-10.265-2.003-.094-4.341 5.568-10.454 9.52-7.225 4.677-1.5-8.073-5.62-8.262-5.002-.23-4.373 7.801-11.408 8.483-7.036.671-11.083 1.489-13.264 5.39-2.181 3.91-.44-12.027-4.488-11.22-3.47.703-.44 5.41-6.543 6.386a18.628 18.628 0 0 1-3.764.147c-5.495-.252-8.273-5.935-9.206-8.368a.455.455 0 0 0-.84-.02c-1.289 2.788-5.022 10.275-9.174 12.508-5.127 2.768-2.212-17.122-8.346-14.396-6.124 2.716-2.36 7.895-12.635 13.432-14.753 7.948.461-9.993-5.348-14.271-5.809-4.267-9.751-2.758-27.534-32.305 0 0-1.867-3.083-11.083 1.489-7.718-6.355 9.269-16.064 3.061-22.88-.954-1.048 2.36-7.906-6.815-4.32-9.175 3.576 8.598-12.613 3.733-15.843-4.855-3.23-11.702-6.553-8.567-9.405 3.135-2.863 16.4-8.252 57.429-51.41A53.193 53.193 0 0 1 80.98 70.63c45.077-19.797 115.55 17.237 115.55 17.237s.188.179.523.483c2.003 1.782 9.542 7.99 18.088 8.388 9.992.461-7.172 3.67-12.08 1.447-4.896-2.233 6.533 10.307 6.302 15.309-.23 4.99-.01 22.019 7.707 28.383 7.707 6.365-9.856-3.46-8.902-2.411z"/><path class="c" d="M218.345 140.339c-6.25-5.16-7.33-19.24-6.98-26.75.13-2.9-2.17-6.75-5.19-11.49-.26-.42-.56-.88-.84-1.34 4.97.6 12.56-.31 14.15-1.78a2.183 2.183 0 0 0 .6-2.36c-.57-1.56-2.37-1.76-4.85-1.88-6.35-.29-12.21-4.16-15.23-6.53-.54-.42-.98-.8-1.33-1.1-.05-.04-.11-.09-.15-.13h-.01a1.183 1.183 0 0 0-.12-.11c-.31-.28-.49-.45-.49-.46l-.2-.18-.25-.13q-.195-.105-.81-.42a246.552 246.552 0 0 0-40.91-16q-4.665-1.365-9.61-2.54a163.894 163.894 0 0 0-22.33-3.81q-3.435-.33-6.87-.47c-.72-.03-1.43-.05-2.15-.07a97.912 97.912 0 0 0-13.95.62 71.632 71.632 0 0 0-20.65 5.39 55.391 55.391 0 0 0-18.01 12.56q-4.725 4.98-8.96 9.29-3.465 3.525-6.62 6.66c-.02.01-.03.03-.05.05q-1.86 1.83-3.6 3.53c-14.82 14.44-24.16 21.87-30 26.09-.21.15-.4.29-.6.43-.02.01-.03.02-.05.03-.67.48-1.29.92-1.86 1.31a1.875 1.875 0 0 1-.18.12c-.78.54-1.47 1-2.08 1.42-.1.06-.2.13-.29.19-.46.31-.87.58-1.24.83a15.468 15.468 0 0 0-1.79 1.36 3.929 3.929 0 0 0-1.43 3.36c.26 2.92 3.73 5.09 7.75 7.6.84.53 1.69 1.06 2.44 1.52.4 1.22-2.73 5.89-4.07 7.88-2.55 3.8-4.1 6.1-2.64 7.92 1.35 1.68 3.8.72 4.85.31 2.67-1.04 3.64-.91 3.86-.85a5.945 5.945 0 0 1 .06 1.6 3.97 3.97 0 0 0 .69 3.06c1.81 1.98.69 4.33-2.11 8.87-2.55 4.15-6.05 9.83-.74 14.2l1 .83 1.16-.58c6.15-3.05 8.25-2.24 8.6-2.06 14.93 24.78 20.4 28.06 25.23 30.95a31.082 31.082 0 0 1 2.71 1.75c1.37 1 .02 5.12-.87 7.85-1.12 3.44-2.09 6.42-.11 8.07 1.84 1.54 4.72.52 8.46-1.5 6.32-3.41 7.94-6.92 9.11-9.49.86-1.86 1.37-2.98 3.39-3.88a1.248 1.248 0 0 1 .21-.07c.76.69 1.33 4.32 1.64 6.3.6 3.85 1.13 7.17 3.35 8.27a3.438 3.438 0 0 0 3.28-.17c3-1.61 5.68-5.34 7.67-8.83.34-.59.66-1.16.95-1.72a18.66 18.66 0 0 0 1.05 1.63 14.21 14.21 0 0 0 2.23 2.45 10.108 10.108 0 0 0 5 2.44 8.786 8.786 0 0 0 1.28.15c.25.01.49.02.72.02.71.02 1.38.01 2-.03.51-.03 1-.09 1.46-.16 4.75-.76 5.55-3.61 6.04-5.32.07-.24.17-.61.26-.83a3.08 3.08 0 0 1 .14.4 32.828 32.828 0 0 1 .85 5.54c.25 2.66.42 4.38 1.39 5.18a2.329 2.329 0 0 0 .99.46 2.09 2.09 0 0 0 .46.05 1.8 1.8 0 0 0 .63-.1 2.953 2.953 0 0 0 1.7-1.55 6.643 6.643 0 0 1 4.15-3.14 17.227 17.227 0 0 1 2.03-.5c.62-.13 1.29-.23 2.02-.34 1.05-.14 2.21-.27 3.51-.39 4.69-.46 6.72-3.59 8.2-5.87 1.14-1.76 1.7-2.5 2.59-2.6a15.827 15.827 0 0 1 .09 2.81c-.06 2.44-.12 4.97 1.86 6.08 1.79 1 3.81-.07 5.18-.95a33.512 33.512 0 0 0 7.56-7.09c.54-.64 1.17-1.39 1.62-1.83a21.426 21.426 0 0 1 1.02 3.33c.76 3.05 1.63 6.5 4.61 6.65 4.34.23 7.75-7 12.12-17.19.18-.42.36-.86.55-1.29.57 1.68 1.3 3.05 2.72 3.46a2.833 2.833 0 0 0 2.77-.75c1.38-1.26 5.47-7.27 9.51-13.43.39-.58.77-1.17 1.15-1.75.39-.59.77-1.18 1.15-1.76a426.9 426.9 0 0 0 2.46-3.82c.45-.7.88-1.37 1.28-2q.705-1.11 1.29-2.04c.13-.2.26-.4.38-.59 5.29 5.64 5.91 5.42 7.05 5.01a2.07 2.07 0 0 0 1.37-1.88c.02-.32.06-.76.12-1.28.32-3.16.91-9.06-1.6-14.7-1.5-3.4-.23-11.08 1.02-16.42 3.62 5.07 4.15 4.91 5.35 4.58l1.42-.48.07-1.43c.5-10.76.6-16.62.49-19.89a.142.142 0 0 0 .06.02c6.74 3.3 8.77 4.3 10.04 2.33 1.17-1.81-.7-3.35-2.35-4.71zm-11.91.2c.2 1.04.38 4.69-.11 16.76-.74-1.03-1.52-2.16-2.24-3.21l-2.36-3.47-1.21 4.02c-.5 1.69-4.85 16.7-1.92 23.32a22.357 22.357 0 0 1 1.47 10.38c-1.11-1.12-2.43-2.51-3.58-3.77l-1.77-1.94-1.4 2.22c-.12.19-.25.39-.37.59-.44.69-.9 1.42-1.38 2.17-.44.69-.89 1.39-1.35 2.12-1.25 1.96-2.58 4.02-3.9 6.06-.39.6-.78 1.19-1.16 1.78-.41.62-.81 1.24-1.21 1.84-3.14 4.79-6.03 9.04-7.59 11.08-.19-.56-.36-1.18-.49-1.62a8.052 8.052 0 0 0-1.37-3.3l-.83-.84-1.07.19c-1.48.25-1.95 1.35-4.23 6.67-1.47 3.42-5.83 13.61-8.04 14.69a17.49 17.49 0 0 1-1.13-3.55c-.77-3.05-1.63-6.5-4.62-6.64-1.93-.06-3.19 1.43-4.97 3.54a29.543 29.543 0 0 1-6.66 6.3 7.351 7.351 0 0 1-.86.49c-.05-.63-.03-1.54-.01-2.16.06-2.52.16-6.74-3.57-6.91-3.51-.19-5.15 2.38-6.47 4.43-1.32 2.03-2.45 3.79-5.22 4.06-1.01.09-1.98.19-2.91.31-.7.08-1.37.18-2.02.29-.71.12-1.38.25-2.03.41a13.15 13.15 0 0 0-5.59 2.6c-.14-1.41-.28-2.7-.48-3.84a15.28 15.28 0 0 0-.47-2.08 7.266 7.266 0 0 0-.83-1.84 3.985 3.985 0 0 0-.98-1.06 3.284 3.284 0 0 0-2.65-.59c-2.68.54-3.28 2.65-3.64 3.91-.4 1.4-.6 2.1-2.82 2.46-.28.04-.58.08-.9.1a18.36 18.36 0 0 1-2 .04c-.15-.01-.31-.01-.46-.02a5.998 5.998 0 0 1-1.55-.29c-2.55-.83-4.23-3.3-5.19-5.23-.3-.6-.53-1.14-.7-1.57a2.46 2.46 0 0 0-2.21-1.57 2.44 2.44 0 0 0-2.3 1.43c-2.61 5.64-5.55 9.84-8.02 11.41a27.858 27.858 0 0 1-1.08-5.02c-.64-4.05-1.24-7.88-3.73-9.24a4.006 4.006 0 0 0-3.69-.02c-3.4 1.51-4.42 3.72-5.4 5.86-1.1 2.39-2.23 4.87-7.37 7.64a20.175 20.175 0 0 1-3.65 1.63 32.814 32.814 0 0 1 .99-3.44c1.4-4.28 3.13-9.6-.56-12.32-1.06-.78-2.06-1.38-3.03-1.96-4.44-2.65-9.47-5.66-23.98-29.77-.38-.64-1.56-2-4.5-2a19.527 19.527 0 0 0-7.84 2.1c-1.21-1.79-.08-4.06 2.43-8.13 2.46-4 5.52-8.95 1.98-13.29.01-.17.02-.39.02-.56.07-1.38.17-3.7-1.69-5.03-1.4-1-3.42-1.05-6.29-.12.39-.6.81-1.23 1.18-1.78 2.59-3.86 5.27-7.86 4.67-10.88a3.85 3.85 0 0 0-1.66-2.49c-.83-.55-1.7-1.1-2.58-1.65-1.93-1.2-5.48-3.42-5.87-4.49l.12-.12a27.19 27.19 0 0 1 2.56-1.83c5.68-3.8 18.19-12.15 44.97-39.33.23-.24.47-.49.72-.74 2.92-2.98 6.01-6.17 9.28-9.61.27-.28.54-.56.82-.83a46.104 46.104 0 0 1 3.41-3.14 52.256 52.256 0 0 1 12.49-7.69c14.62-6.42 32.12-6.66 48.97-4.11 3.76.56 7.49 1.27 11.15 2.07a245.573 245.573 0 0 1 47.27 16.12c.97.45 1.83.85 2.59 1.22 1.05.49 1.9.91 2.53 1.22.49.25.85.43 1.07.54q.135.12.36.33c.4.36 1 .86 1.75 1.45a39.113 39.113 0 0 0 9.64 5.64 9.545 9.545 0 0 1-3.22-.57c-1.89-.86-2.94-.29-3.49.34-1.39 1.59-.2 3.45 2.4 7.54 1.74 2.73 4.65 7.3 4.56 9.15-.09 1.92-.57 16.5 4.76 25.59-3.74-1.83-4.55-2.18-5.59-.79l-.96 1.39z"/><path class="f" d="M121.192 225.446c.084.346.167.67.262.975a15.11 15.11 0 0 0-7.11 2.83c-.408-4.308-1.037-9.383-4.802-9.383a3.264 3.264 0 0 0-.702.073c-2.747.556-3.356 2.705-3.722 3.985-.399 1.404-.577 2.034-2.748 2.39a15.07 15.07 0 0 1-2.201.147c-.357 0-.724-.01-1.122-.032-4.279-.188-6.564-4.97-7.35-7.025a2.54 2.54 0 0 0-2.38-1.636 2.57 2.57 0 0 0-2.329 1.5c-2.59 5.6-5.494 9.762-7.874 11.303a29.41 29.41 0 0 1-1.028-4.897c-.723-4.582-1.541-9.772-5.63-9.772a4.84 4.84 0 0 0-1.93.43c-3.439 1.531-4.508 3.859-5.452 5.914-1.09 2.38-2.223 4.833-7.33 7.591a21.643 21.643 0 0 1-3.48 1.583c.199-.933.64-2.285.964-3.282 1.405-4.299 3.156-9.657-.587-12.414-1.07-.787-2.076-1.384-3.051-1.971-4.425-2.643-9.448-5.652-23.938-29.726-.21-.346-1.395-2.035-4.677-2.035a19.716 19.716 0 0 0-7.728 2.056c-1.058-1.605-.167-3.639 2.485-7.959 2.486-4.016 5.547-8.996 2.003-13.38 0-.156.01-.356.021-.523.053-1.29.147-3.24-1.195-4.635a4.4 4.4 0 0 0-3.334-1.28 11.704 11.704 0 0 0-3.324.588c.346-.524.713-1.07 1.038-1.552 2.6-3.88 5.295-7.885 4.687-10.947a3.989 3.989 0 0 0-1.71-2.558c-.828-.545-1.709-1.09-2.59-1.646-1.876-1.175-5.305-3.314-5.798-4.394a.456.456 0 0 1 .074-.062 26.19 26.19 0 0 1 2.548-1.814c5.735-3.828 18.412-12.32 45.695-40.086.996 1.132 2.118 2.36 3.345 3.638.776.797 1.583 1.615 2.443 2.443-2.276 8.483-6.155 23.267-6.166 25.815.01 2.82 5.662-1.415 7.078-1.426 1.405.01-10.622 20.52-7.088 24.054 2.128 2.118 9.196-4.95 11.314-2.82 1.415 1.415-1.196 6.951 0 14.134 1.415 8.493 6.983-4.33 9.898-1.406 3.533 3.545-2.82 8.483 1.405 14.145 4.246 5.652 6.365 9.196 4.949 13.432-1.416 4.247 9.185-7.77 11.314-4.236 1.824 3.04-3.702 3.974-.315 9.143a19.068 19.068 0 0 0 2.433 2.873c3.88 3.9 9.96 2.129 12.383 1.175a.455.455 0 0 1 .577.608c-1.185 2.83-4.215 10.632-3.062 15.203 1.405 5.652 14.145-9.887 16.263-3.523 2.107 6.355-4.257 7.068-1.426 18.392z" opacity=".36"/><path class="c" d="M111.785 181.719a4.64 4.64 0 0 0-4.93-1.55 4.986 4.986 0 0 0-2.89 2.05 16.823 16.823 0 0 1-1.92 2.05c-.48.42-2.86 1.1-8.53 1.23-.64.02-1.33.03-2.06.03-.04 0-.08-.01-.12-.01a7.198 7.198 0 0 0 1.67-4.59 6.353 6.353 0 0 0-.22-1.42c-.55-1.93-1.53-3.16-2.93-3.64a4.696 4.696 0 0 0-4.3.92 29.377 29.377 0 0 0-2.74 2.68c-.02.02-.06.08-.14.17-.45.5-2.2 2.12-8.31 5.51-3.82 2.11-7.62.03-13.1-7.19-6.68-8.8-8.33-20.37-8.34-20.49a1.998 1.998 0 0 0-3.96.54c.01.07.05.39.14.9.03.19.07.41.12.65l.18.92c.09.41.19.86.31 1.35.09.36.18.74.28 1.13l.16.61c.12.41.24.84.37 1.29l.91 2.82.27.75c.18.5.38 1.01.59 1.53a47.408 47.408 0 0 0 2.67 5.62c.11.21.23.41.35.62a38.637 38.637 0 0 0 2.76 4.18c2.94 3.86 9.82 12.92 18.22 8.27a81.52 81.52 0 0 0 2.88-1.65c.31-.18.6-.36.88-.53 1.42-.87 2.5-1.6 3.33-2.2a10.548 10.548 0 0 0 2.68-2.47c.34-.35 1.65-1.6 1.85-1.77a2.083 2.083 0 0 1 .63-.34 2.816 2.816 0 0 1 .39.91c.32 1.11-.6 2.38-1.4 3.23l-.02.02c-.27.28-.51.5-.7.67a2.84 2.84 0 0 0 1.81 4.97l1.49.03c1.17.01 2.25.01 3.24-.01 9.09-.18 10.77-1.73 11.38-2.28a20.03 20.03 0 0 0 2.35-2.51c.47-.59.47-.59.86-.7a.704.704 0 0 1 .7.17c.25.33.39 1.42-.73 3.43-1.13 2.02-4.64 4.04-9.62 5.55a5.56 5.56 0 0 0-1.51.73 5.268 5.268 0 0 0-2.22 4.66c.08 1.33-.31 2.28-2.52 2.62-5.37.83-13.14-3.72-14-5.29-.03-2.18-2.32-2.54-6.03-3.12-9.31-1.46-28.66-4.49-32.28-27a1.942 1.942 0 0 0-.28-.75 2.001 2.001 0 0 0-3.67 1.38c4.08 25.38 26.17 28.84 35.61 30.32 1.04.16 2.18.34 2.87.5a6.476 6.476 0 0 0 1.81 2.41c2.79 2.51 9.25 5.64 14.71 5.64a11.51 11.51 0 0 0 1.87-.14c3.93-.6 6.14-3.15 5.9-6.83a1.257 1.257 0 0 1 .9-1.3c.93-.28 1.92-.61 2.92-1 3.61-1.38 7.37-3.45 9.03-6.43 2.37-4.24 1.25-6.74.38-7.85zm112.87 45.11c-.02.01-4.06 1.8-4.09 1.81a30.917 30.917 0 0 1-6.59.77l.96-1.18-.31-.95a30.657 30.657 0 0 0 5.29-.64c.66-.29 3.13-1.39 3.73-1.66a22.811 22.811 0 0 0 4.39-3.46 16.32 16.32 0 0 0-2.45-.07 23.228 23.228 0 0 1-4.76-.31l1.53-1.9a21.407 21.407 0 0 0 3.15.12c11.69-.44-.08 6.96-.85 7.47zm-23.13-3.42l-1.32 1.65a16.048 16.048 0 0 1-1.91-1.95c-7.57-9.36 6.18-3.72-3.21-17.17a24.968 24.968 0 0 0-6.34-6.54 14.59 14.59 0 0 0-1.72-1.04 16.02 16.02 0 0 0-1.87-.79 10.994 10.994 0 0 0-8.73.5l2.91-3.05a13.985 13.985 0 0 1 6.98.77 15.44 15.44 0 0 1 1.85.82 18.704 18.704 0 0 1 1.73 1.03 27.1 27.1 0 0 1 6.91 7.1c5.04 7.21 4.47 10.26 1.79 13.08-.7.73-1.02 1.07 1.33 3.97a13.627 13.627 0 0 0 1.6 1.62zm14.22-15.27l-.26.32c-.03 0-.06.01-.1.01-.38.07-.81.14-1.27.21l-.13-.39-.36.45c-2.76.31-6.68.09-11.69-3.77a39.072 39.072 0 0 1-9.58-11.15c-.4-.68-.77-1.35-1.11-1.99-.38-.73-.73-1.44-1.03-2.1a43.444 43.444 0 0 1-1.75-4.31l1.64-1.74a34.466 34.466 0 0 0 1.46 3.93c.29.66.62 1.39 1 2.16.32.65.68 1.34 1.07 2.05a37.339 37.339 0 0 0 9.58 11.49c5.97 4.6 9.91 3.39 12.48 2.98l-.39.49zm-4.56 5.57c.01 0 .01.01.02.02l-.72.88-.48-1.49-.98 1.21a3.332 3.332 0 0 1-.4-3.3c.28-.6 1.23-2.01 3.82-1.88.23.01.51.03.8.06l-1.67 2.08c-1.29.21-1.52 1.2-.39 2.42zm1.05 17.78c-.49-.02-1-.05-1.51-.1l1.05-1.3z"/><path class="c" d="M211.775 213.029l-.57.7c-.01-.01-.01-.02-.02-.02-1.13-1.22-.9-2.21.39-2.42l-.26.33zm6.93-8.54l-.28.34-.17-.51c.15.05.3.11.45.17zm-1.29-.35l-1.72 2.15c-2.57.41-6.51 1.62-12.48-2.98a37.339 37.339 0 0 1-9.58-11.49c-.39-.71-.75-1.4-1.07-2.05-.38-.77-.71-1.5-1-2.16a34.466 34.466 0 0 1-1.46-3.93l-1.64 1.74c-.23-.66-.35-1.08-.38-1.16a2.1 2.1 0 0 1 4.04-1.15c.01.03.27.92.82 2.33.26.64.57 1.4.95 2.23.3.66.65 1.37 1.03 2.11a36.233 36.233 0 0 0 9.57 11.87c4.74 3.65 7.75 3.12 10.16 2.69a9.847 9.847 0 0 1 2.76-.2zm-18.06 21.98l.42 1.3a17.817 17.817 0 0 1-3.11-2.99c-3.88-4.8-3.3-7.2-1.11-9.5.92-.97 1.88-1.97-2.19-7.79a22.908 22.908 0 0 0-5.77-5.99 13.361 13.361 0 0 0-1.74-1.01 10.149 10.149 0 0 0-1.91-.73 8.727 8.727 0 0 0-6.45.47 2.101 2.101 0 0 1-2.15-3.61 12.035 12.035 0 0 1 3.99-1.25l-2.91 3.05a10.994 10.994 0 0 1 8.73-.5 16.02 16.02 0 0 1 1.87.79 14.59 14.59 0 0 1 1.72 1.04 24.968 24.968 0 0 1 6.34 6.54c9.39 13.45-4.36 7.81 3.21 17.17a16.048 16.048 0 0 0 1.91 1.95zm26.54 2.41l-.09.05c-.02.02-4.32 2-4.76 2.1a33.501 33.501 0 0 1-7.48.84q-.615 0-1.26-.03l1.67-2.08a30.917 30.917 0 0 0 6.59-.77c.03-.01 4.07-1.8 4.09-1.81.77-.51 12.54-7.91.85-7.47a21.407 21.407 0 0 1-3.15-.12l.55-.68-.46-1.43a19.014 19.014 0 0 0 2.98.13c2.91-.1 6.35.11 7.18 2.73.51 1.62.21 4.06-6.71 8.54z"/><path class="b" d="M213.625 208.739l-.38.47c-.29-.03-.57-.05-.8-.06-2.59-.13-3.54 1.28-3.82 1.88a3.332 3.332 0 0 0 .4 3.3l-1.7 2.12.48 1.47-1.29 1.58-.5-1.54-2.68 3.32.5 1.53-1.2 1.48-.15-.09-.46-1.41-.5.62a13.627 13.627 0 0 1-1.6-1.62c-2.35-2.9-2.03-3.24-1.33-3.97 2.68-2.82 3.25-5.87-1.79-13.08a27.1 27.1 0 0 0-6.91-7.1 18.704 18.704 0 0 0-1.73-1.03 15.44 15.44 0 0 0-1.85-.82 13.985 13.985 0 0 0-6.98-.77l9.13-9.6a43.444 43.444 0 0 0 1.75 4.31c.3.66.65 1.37 1.03 2.1.34.64.71 1.31 1.11 1.99a39.072 39.072 0 0 0 9.58 11.15c5.01 3.86 8.93 4.08 11.69 3.77zm14.41 12.78a22.811 22.811 0 0 1-4.39 3.46c-.6.27-3.07 1.37-3.73 1.66a30.657 30.657 0 0 1-5.29.64l-.17-.5 1.29-1.59.5 1.53 2.67-3.33-.49-1.5.87-1.07c.21.06.42.11.64.16l.3.91.59-.75a23.228 23.228 0 0 0 4.76.31 16.32 16.32 0 0 1 2.45.07zm-12.55-13.06l-.77.94c-.1-.01-.19-.02-.3-.04a.248.248 0 0 1-.08-.01l-.22-.67c.46-.07.89-.14 1.27-.21.04 0 .07-.01.1-.01z"/><path d="M143.24 146.506c-16.044 0-34.428-11.08-39.538-20.612-1.78-3.32-1.897-6.185-.349-8.515 1.746-2.627 3.21-5.162 4.626-7.613 5.791-10.029 9.976-17.275 25.89-17.275 1.654 0 3.443.081 5.317.24 15.63 1.325 26.49 8.51 29.795 19.71 3.078 10.435-1.223 22.043-10.96 29.573-3.853 2.98-8.826 4.492-14.78 4.492z" fill="#ffeefd"/><path d="M168.325 107.029a25.192 25.192 0 0 0-4.2-5.59c-.39-.41-.81-.81-1.25-1.2a33.095 33.095 0 0 0-11.47-6.54 38.533 38.533 0 0 0-3.85-1.13 46.413 46.413 0 0 0-5.19-.98c-.99-.15-2.01-.26-3.05-.35-1.95-.17-3.76-.25-5.45-.25-5.87 0-10.25.97-13.71 2.66a19.367 19.367 0 0 0-2.9 1.74 21.422 21.422 0 0 0-2.09 1.69c-4.64 4.29-7.41 10.42-11.52 17.06-.49.8-1 1.6-1.54 2.41-7.64 11.5 19.25 31.46 41.14 31.46 5.83 0 11.32-1.43 15.69-4.81 12.18-9.42 15.8-24.61 9.39-36.17zm-2.87 24a30.536 30.536 0 0 1-8.35 9.8c-3.59 2.77-8.25 4.18-13.86 4.18-15.54 0-33.31-10.66-38.22-19.82-1.5-2.8-1.64-5.14-.42-6.98.98-1.48 1.87-2.92 2.72-4.33q1.005-1.71 1.95-3.36c3.58-6.2 6.41-11.1 11.68-13.91a21.04 21.04 0 0 1 6.06-2.05c.02 0 .04-.01.06-.01a34.884 34.884 0 0 1 5.96-.55h.02c.27-.01.54-.01.81-.01h.01c1.61 0 3.35.08 5.18.24q1.725.15 3.36.39c.47.07.94.14 1.4.23.59.1 1.17.21 1.74.34.55.11 1.09.24 1.62.38a31.585 31.585 0 0 1 14.38 7.5 22.253 22.253 0 0 1 5.99 9.8 23.545 23.545 0 0 1-.66 14.96 27.459 27.459 0 0 1-1.43 3.2zm-23.04-36.41c.47.07.94.14 1.4.23.12-.14.25-.27.38-.41l-1.78.18zm-8.55-.63v-.07c-.27.03-.54.05-.81.08.27-.01.54-.01.81-.01z"/><path d="M146.168 94.556c-8.958 8.956-12.527 20.087-8.93 27.498a19.278 19.278 0 0 0 5.364 6.376c16.476 11.773 26.159-2.797 26.159-2.797a24.283 24.283 0 0 0 .507-10.989 24.774 24.774 0 0 0-7.393-13.356z"/><path d="M155.053 134.526c-4.317 0-8.784-1.632-13.323-4.876a20.836 20.836 0 0 1-5.841-6.94c-3.909-8.054-.204-19.794 9.218-29.215l2.121 2.121c-8.385 8.385-11.939 18.988-8.64 25.783a17.846 17.846 0 0 0 4.886 5.81c4.934 3.525 9.675 4.9 14.095 4.088a16.676 16.676 0 0 0 9.815-6.315 22.854 22.854 0 0 0 .41-10.063 23.332 23.332 0 0 0-6.945-12.537l2.053-2.188a26.36 26.36 0 0 1 7.84 14.174 25.879 25.879 0 0 1-.537 11.67l-.064.228-.13.197a19.656 19.656 0 0 1-11.899 7.785 16.912 16.912 0 0 1-3.06.278zm-51.767 44.647a1.5 1.5 0 0 1-1.157-2.454c2.35-2.849 3.147-9.602 3.256-11.964a1.482 1.482 0 0 1 1.568-1.429 1.5 1.5 0 0 1 1.429 1.568c-.018.387-.478 9.539-3.938 13.733a1.495 1.495 0 0 1-1.158.546z"/><path d="M127.17 182.277a1.499 1.499 0 0 1-1.052-.43c-.092-.091-9.312-9.056-19.581-9.53a1.5 1.5 0 0 1-1.43-1.568 1.484 1.484 0 0 1 1.569-1.429c11.432.529 21.14 9.989 21.548 10.391a1.5 1.5 0 0 1-1.054 2.566z"/><path d="M218.7 204.493l-.275.339 2.266 6.939 1.707 5.227 1.287-1.586-3.974-12.165-1.011 1.246zm-20.12 24.792l3.646 11.14-5.106-4.087-1.223-3.747-.906 1.117a3.324 3.324 0 0 0 .487 4.675l3.186 2.586a3.324 3.324 0 0 0 4.675-.487l.501-.617-3.972-12.166zm31.674-27.243l-3.186-2.585a3.324 3.324 0 0 0-4.675.486l-1.15 1.416 2.102 1.498 3.023 9.25 1.286-1.585-1.964-6 4.333 3.08.717-.884a3.324 3.324 0 0 0-.486-4.676zm-11.905 14.076l-.824-2.525-.661-2.023-.671-2.058-.365-1.118-.085-.257-.257.317-.768.946-.261.322.6 1.838.7 2.146.447 1.368.916 2.806.837 2.565.472 1.444.865-1.066.422-.52-.553-1.692-.814-2.493zm-12.768 12.032l-.87-2.663-.874-2.679-1.204 1.484-.083.102.933 2.859.878 2.689 2.161 6.618 1.287-1.585-1.427-4.37-.801-2.455zm6.792-13.289l-.598-1.834-.569.7-.718.886.634 1.942 3.338 10.224 1.287-1.586-2.234-6.842-1.14-3.49zm-1.555 12.283l-3.012-9.226-1.287 1.586 2.401 7.353.745 2.281.724 2.218.102.314.23-.284 1.057-1.302-.243-.743-.717-2.197z" fill="#d25e45"/><path class="i" d="M222.44 217.13l-.138-.015.096-.117-1.707-5.227-2.266-6.94-.167-.512-.284-.869-.554.69-1.729 2.153-.39.487.442 1.357.085.257.365 1.118.671 2.058.66 2.023.825 2.525.814 2.493.553 1.692.22.673.296.909.596-.743 1.53-1.904.548-.683zm-4.011 4.759l-.472-1.444-.837-2.565-.916-2.806-.447-1.368-.7-2.146-.6-1.838-.122-.373-.219-.671-.129-.393-.367.457-.375.467-1.669 2.078-.263.327.462 1.413.598 1.834 1.14 3.49 2.234 6.842.498 1.527 2.674-3.33-.49-1.501zm-3.805 5.392l-.164-.502-3.338-10.224-.634-1.942-.488-1.494-.974 1.213-1.7 2.117.48 1.469 3.012 9.226.717 2.197.243.743.459 1.405.07.004 1.671-2.08.954-1.188zm-4.133 4.389l-.102-.314-.724-2.218-.745-2.281-2.401-7.353-.506-1.55-2.674 3.329.498 1.525.874 2.679.87 2.663.801 2.455 1.427 4.37.462 1.414 2.674-3.33-.454-1.389zm-3.969 4.89l-2.16-6.618-.879-2.69-.933-2.858-.064-.195-.46-1.41-.5.621-1.326 1.651-.848 1.057.425 1.303c.066.05.133.097.199.145l-.108.133 3.972 12.166.444 1.358 2.674-3.33zm19.846-24.454l-3.023-9.249-2.101-1.498-.948-.675-1.011 1.258.426 1.305 3.974 12.165.536 1.638 2.675-3.326-.528-1.618zm4.23-4.096l-.575-.408-4.333-3.081 1.964 6.001.554 1.694 2.675-3.327-.285-.879zm-32.017 21.275l-.544-1.662-2.675 3.327.536 1.641 1.222 3.747 5.106 4.088-3.645-11.141z"/><path class="i" d="M222.44 217.13l-.042-.132-.096.117c.046.006.093.01.139.015z"/><path d="M200.377 214.992a7.13 7.13 0 0 1-1.782 2.82c-.692.734-1.017 1.07 1.331 3.974a13.064 13.064 0 0 0 1.605 1.626l.492-.619.462 1.405c.052.031.105.063.147.094l1.205-1.489-.503-1.52 2.013-2.506a76.36 76.36 0 0 1-4.97-3.785zm16.85 10.496l-.985 1.227-.493-1.52-1.29 1.582.168.504a30.307 30.307 0 0 0 5.284-.64c.011-.01.032-.01.042-.02a49.427 49.427 0 0 1-2.726-1.133z" opacity=".25"/><path class="f" d="M197.546 73.65c-5.935-13.558-109.73-10.12-125.583-9.522a4.538 4.538 0 0 0-3.292 1.615L52.858 84.638a4.314 4.314 0 0 0-.083 5.463 95.181 95.181 0 0 0 3.072 3.701c.996 1.132 2.118 2.36 3.345 3.638.776.797 1.583 1.615 2.443 2.443 7.161 6.879 17.101 14.114 27.618 14.659 18.58.954 87.081-8.546 99.014-10.234a4.501 4.501 0 0 0 2.967-1.73c3.23-4.246 11.576-16.934 6.312-28.929z" opacity=".3"/><path d="M198.574 86.966S113.014 97.03 98.03 96.339c-10.685-.492-20.51-8.577-25.27-13.18a4.618 4.618 0 0 0-2.17-1.205 3.163 3.163 0 0 0-.43-.095 4.854 4.854 0 0 0-3.89 1.101c-9.626 8.158-37.014 31.446-53.602 46.272a4.848 4.848 0 0 1-7.958-2.527C-.585 104.13-5.66 47.792 44.638 16.787a100.174 100.174 0 0 1 27.241-11.67c33.323-8.808 66.425.24 85.34 9.29 29.527 14.123 31.236 40.515 31.31 50.529.01 1.048 2.38 4.246 3.387 4.56 5.462 1.741 15.497 5.506 16.021 9.889.724 6.04-9.363 7.58-9.363 7.58z" fill="#eae27f"/><path class="m" d="M141.47 16.526s32.23 17.506 31.077 42.48z"/><path class="n" d="M172.548 60.507l-.07-.002a1.5 1.5 0 0 1-1.43-1.567c1.098-23.762-29.979-40.924-30.293-41.094a1.5 1.5 0 0 1 1.432-2.637c1.35.733 33.042 18.25 31.859 43.87a1.5 1.5 0 0 1-1.498 1.43z"/><path class="m" d="M96.838 18.858c-.383-.8 18.923 17.34 19.042 42.927z"/><path class="n" d="M115.88 63.285a1.5 1.5 0 0 1-1.5-1.493c-.11-23.71-16.733-40.196-18.227-41.6a1.484 1.484 0 0 1-.667-.686 1.51 1.51 0 0 1 1.912-2.068c1.243.484 19.864 18.96 19.982 44.34a1.5 1.5 0 0 1-1.493 1.507z"/><path class="m" d="M63.9 22.795c-1.877 6.818-9.86 32.978-3.146 51.378z"/><path class="o" d="M60.754 75.673a1.5 1.5 0 0 1-1.41-.986c-6.532-17.905.473-42.883 2.775-51.091l.334-1.2a1.5 1.5 0 0 1 2.893.797l-.338 1.213c-2.238 7.978-9.046 32.256-2.845 49.253a1.5 1.5 0 0 1-1.41 2.014z"/><path class="m" d="M29.453 42.115a171.378 171.378 0 0 0-11.106 63.06z"/><path class="o" d="M18.346 106.674a1.5 1.5 0 0 1-1.5-1.475A174.636 174.636 0 0 1 28.073 41.53a1.5 1.5 0 0 1 2.763 1.168 171.446 171.446 0 0 0-10.988 62.45 1.5 1.5 0 0 1-1.475 1.526z"/><path class="n" d="M209.425 79.209c-.47-3.94-6.21-7.69-16.98-11.11a9.93 9.93 0 0 1-2.42-3.17c-.17-23.96-11.29-41.89-32.16-51.88-10.17-4.86-46.48-19.93-86.37-9.38a101.985 101.985 0 0 0-27.64 11.84c-22.18 13.67-36.14 33.55-41.5 59.09-4.86 23.19-.99 44.4.89 52.45a6.31 6.31 0 0 0 3.39 4.26 5.381 5.381 0 0 0 .89.37 6.014 6.014 0 0 0 1.71.29 1.618 1.618 0 0 0 .22.01 6.272 6.272 0 0 0 4.21-1.63c11.8-10.55 29.16-25.45 41.4-35.88.26-.23.53-.46.78-.67 4.96-4.23 9.01-7.67 11.4-9.69a2.384 2.384 0 0 1 .43-.3 3.186 3.186 0 0 1 1.56-.49 2.918 2.918 0 0 1 .72.03 1.862 1.862 0 0 1 .29.06 3.144 3.144 0 0 1 1.47.83c5.03 4.86 15.12 13.09 26.25 13.6 3.17.15 9.37-.17 17.2-.76.85-.06 1.71-.13 2.6-.2 1.04-.08 2.1-.17 3.19-.27 6.58-.55 13.95-1.24 21.46-1.99l1.78-.18c.56-.06 1.12-.11 1.68-.17.55-.06 1.1-.11 1.65-.17 1.3-.13 2.59-.26 3.88-.4 17.82-1.85 34.98-3.81 42.89-4.72 1.27-.15 2.31-.27 3.07-.36q.63-.075.99-.12c.18-.01.31-.03.39-.04l.06-.01c.09-.01.53-.08 1.2-.24 2.94-.68 10.15-2.97 9.42-9zm-10.43 6.14c-.34.08-.56.12-.63.13-.15.02-.75.09-1.72.2-.91.11-2.15.25-3.67.43-1.12.13-2.39.27-3.8.43-10.7 1.22-29.14 3.28-46.81 5.05-2.87.28-5.71.56-8.5.83-.3.03-.59.05-.89.08a938.266 938.266 0 0 1-12.82 1.15c-10.17.86-18.35 1.37-22.06 1.19-10.14-.47-19.57-8.19-24.28-12.75a.69.69 0 0 0-.13-.11c23.78-6.9 48.04-10.14 68.22-11.56 2.4-.17 4.75-.31 7.03-.44q3.51-.18 6.8-.3c19.43-.72 32.78.16 34.26.26a4.35 4.35 0 0 0 1.47.99c2.16.69 4.05 1.37 5.69 2.05 6.48 2.63 9.11 5.03 9.29 6.58.45 3.72-5.46 5.35-7.45 5.79zm-130.41-4.98a6.211 6.211 0 0 0-3.29 1.45c-1.08.91-2.49 2.11-4.18 3.54-2.05 1.75-4.49 3.83-7.21 6.14-3.32 2.84-7.05 6.03-10.97 9.39-10.07 8.63-21.34 18.39-30 26.09-.43.39-.85.77-1.27 1.14a3.368 3.368 0 0 1-1.42.75 3.282 3.282 0 0 1-1.81-.05 3.334 3.334 0 0 1-2.26-2.46 123.53 123.53 0 0 1-2.86-20.72c-.05-.75-.09-1.51-.11-2.28-.94-24.79 4.82-62.24 42.22-85.3a99.303 99.303 0 0 1 26.84-11.49q2.265-.6 4.5-1.08a110.604 110.604 0 0 1 23.58-2.49 136.103 136.103 0 0 1 56.23 12.76c19.76 9.45 30.29 26.46 30.45 49.19a4.687 4.687 0 0 0 .6 1.85c-2.04-.11-5.16-.24-9.18-.32-7.83-.17-19.07-.14-32.32.66q-3.615.21-7.43.51-3.885.3-7.94.7c-18.97 1.86-40.48 5.38-61.46 11.8-.24.07-.47.15-.71.22z"/><path d="M9.452 128.9a3.298 3.298 0 0 1-3.21-2.581c-1.842-7.936-5.61-28.854-.876-51.69C10.54 49.671 24.03 30.242 45.463 16.882 53.321 11.98 67.86 7.127 77.232 4.446 66.16 28.436 59.915 60.52 68.098 79.822a6.42 6.42 0 0 0-2.846 1.41C56.948 88.35 28.537 112.76 11.62 128.05a3.188 3.188 0 0 1-2.167.85z" opacity=".3"/><path class="d" d="M94.585 191.499c-4.93.44-10.7-.36-16.17.73-.009.001-6.416-.463-6.424-.464-2.26-.363-4.428-.168-6.365-1.386-3.563-2.24-6.77-5.183-10.211-7.15-3.376-1.927-6.757-8.517-9.348-14.817a7.754 7.754 0 0 1 3.038-9.503c.53 3.05 2.69 13.19 8.97 21.47 2.94 3.86 9.82 12.92 18.22 8.27a68.017 68.017 0 0 0 7.09-4.38 7.438 7.438 0 0 1-.36 1.54c-.72 2.17 1.69.1 4.5-1.97-.27.28-.52.51-.71.68a2.84 2.84 0 0 0 1.81 4.97c1.76.04 3.33.05 4.73.02a8.845 8.845 0 0 0 .67 1.21c.16.25.35.51.56.78z"/><path d="M422.9 722.39l.46 1.41-.57.7-.72.88-.48-1.49-.98 1.21-1.7 2.12.48 1.47-1.29 1.58-.5-1.54-2.68 3.32.5 1.53-1.2 1.48-.15-.09-.46-1.41-.5.62-1.32 1.65-.85 1.06.42 1.3a17.817 17.817 0 0 1-3.11-2.99c-3.88-4.8-3.3-7.2-1.11-9.5.92-.97 1.88-1.97-2.19-7.79a22.908 22.908 0 0 0-5.77-5.99c-4.04 6.16-8.13 12.17-9.51 13.43a2.833 2.833 0 0 1-2.77.75c-1.42-.41-2.15-1.78-2.72-3.46-.19.43-.37.87-.55 1.29-4.37 10.19-7.78 17.42-12.12 17.19-2.98-.15-3.85-3.6-4.61-6.65a21.426 21.426 0 0 0-1.02-3.33c-.45.44-1.08 1.19-1.62 1.83a33.512 33.512 0 0 1-7.56 7.09c-1.37.88-3.39 1.95-5.18.95-1.98-1.11-1.92-3.64-1.86-6.08a15.827 15.827 0 0 0-.09-2.81c-.89.1-1.45.84-2.59 2.6-1.48 2.28-3.51 5.41-8.2 5.87-1.3.12-2.46.25-3.51.39-.68 13.68.04 16.03.19 16.37.57.95 4.7 2.85 7.42 4.11 1.93.89 3.93 1.81 5.74 2.78l7 3.76h-29.81l-.41-1.46c-.07-.26-6.28-24.46-4.35-31.16a3.08 3.08 0 0 0-.14-.4c-.09.22-.19.59-.26.83-.49 1.71-1.29 4.56-6.04 5.32-.46.07-.95.13-1.46.16.13 8.38.06 18.86-.87 25.01l-.26 1.7h-14.61l1.88-3.05c1.78-2.88 1.99-13.87.63-28.6-1.99 3.49-4.67 7.22-7.67 8.83a3.438 3.438 0 0 1-3.28.17c-2.22-1.1-2.75-4.42-3.35-8.27-.31-1.98-.88-5.61-1.64-6.3a1.248 1.248 0 0 0-.21.07c-2.02.9-2.53 2.02-3.39 3.88-1.17 2.57-2.79 6.08-9.11 9.49-3.74 2.02-6.62 3.04-8.46 1.5-1.98-1.65-1.01-4.63.11-8.07.89-2.73 2.24-6.85.87-7.85a31.082 31.082 0 0 0-2.71-1.75c-4.83-2.89-10.3-6.17-25.23-30.95-.35-.18-2.45-.99-8.6 2.06l-1.16.58-1-.83c-5.31-4.37-1.81-10.05.74-14.2 2.8-4.54 3.92-6.89 2.11-8.87a3.97 3.97 0 0 1-.69-3.06 5.945 5.945 0 0 0-.06-1.6c-.22-.06-1.19-.19-3.86.85-1.05.41-3.5 1.37-4.85-.31-1.46-1.82.09-4.12 2.64-7.92 1.34-1.99 4.47-6.66 4.07-7.88-.75-.46-1.6-.99-2.44-1.52-4.02-2.51-7.49-4.68-7.75-7.6a3.929 3.929 0 0 1 1.43-3.36 15.468 15.468 0 0 1 1.79-1.36 6.31 6.31 0 0 1-3.39-4.26c-1.88-8.05-5.75-29.26-.89-52.45 5.36-25.54 19.32-45.42 41.5-59.09a101.985 101.985 0 0 1 27.64-11.84c39.89-10.55 76.2 4.52 86.37 9.38 20.87 9.99 31.99 27.92 32.16 51.88a9.93 9.93 0 0 0 2.42 3.17c10.77 3.42 16.51 7.17 16.98 11.11.73 6.03-6.48 8.32-9.42 9 3.02 2.37 8.88 6.24 15.23 6.53 2.48.12 4.28.32 4.85 1.88a2.183 2.183 0 0 1-.6 2.36c-1.59 1.47-9.18 2.38-14.15 1.78.28.46.58.92.84 1.34 3.02 4.74 5.32 8.59 5.19 11.49-.35 7.51.73 21.59 6.98 26.75 1.65 1.36 3.52 2.9 2.35 4.71-1.27 1.97-3.3.97-10.04-2.33a.142.142 0 0 1-.06-.02c.11 3.27.01 9.13-.49 19.89l-.07 1.43-1.42.48c-1.2.33-1.73.49-5.35-4.58-1.25 5.34-2.52 13.02-1.02 16.42 2.51 5.64 1.92 11.54 1.6 14.7-.06.52-.1.96-.12 1.28a2.07 2.07 0 0 1-1.37 1.88c-1.14.41-1.76.63-7.05-5.01-.12.19-.25.39-.38.59a36.233 36.233 0 0 0 9.57 11.87c4.74 3.65 7.75 3.12 10.16 2.69a9.847 9.847 0 0 1 2.76-.2l-1.72 2.15-.39.49.44 1.36-.26.32-.77.94-.26.32-.12-.37-.22-.67-.13-.39-.36.45-.38.47-1.67 2.08z" transform="translate(-211.585 -510.771)" style="mix-blend-mode:darken" fill="url(#a)" opacity=".28"/><path d="M422.9 722.39l.46 1.41-.57.7-.72.88-.48-1.49-.98 1.21-1.7 2.12.48 1.47-1.29 1.58-.5-1.54-2.68 3.32.5 1.53-1.2 1.48-.15-.09-.46-1.41-.5.62-1.32 1.65-.85 1.06.42 1.3a17.817 17.817 0 0 1-3.11-2.99c-3.88-4.8-3.3-7.2-1.11-9.5.92-.97 1.88-1.97-2.19-7.79a22.908 22.908 0 0 0-5.77-5.99c-4.04 6.16-8.13 12.17-9.51 13.43a2.833 2.833 0 0 1-2.77.75c-1.42-.41-2.15-1.78-2.72-3.46-.19.43-.37.87-.55 1.29-4.37 10.19-7.78 17.42-12.12 17.19-2.98-.15-3.85-3.6-4.61-6.65a21.426 21.426 0 0 0-1.02-3.33c-.45.44-1.08 1.19-1.62 1.83a33.512 33.512 0 0 1-7.56 7.09c-1.37.88-3.39 1.95-5.18.95-1.98-1.11-1.92-3.64-1.86-6.08a15.827 15.827 0 0 0-.09-2.81c-.89.1-1.45.84-2.59 2.6-1.48 2.28-3.51 5.41-8.2 5.87-1.3.12-2.46.25-3.51.39-.68 13.68.04 16.03.19 16.37.57.95 4.7 2.85 7.42 4.11 1.93.89 3.93 1.81 5.74 2.78l7 3.76h-29.81l-.41-1.46c-.07-.26-6.28-24.46-4.35-31.16a3.08 3.08 0 0 0-.14-.4c-.09.22-.19.59-.26.83-.49 1.71-1.29 4.56-6.04 5.32-.46.07-.95.13-1.46.16.13 8.38.06 18.86-.87 25.01l-.26 1.7h-14.61l1.88-3.05c1.78-2.88 1.99-13.87.63-28.6-1.99 3.49-4.67 7.22-7.67 8.83a3.438 3.438 0 0 1-3.28.17c-2.22-1.1-2.75-4.42-3.35-8.27-.31-1.98-.88-5.61-1.64-6.3a1.248 1.248 0 0 0-.21.07c-2.02.9-2.53 2.02-3.39 3.88-1.17 2.57-2.79 6.08-9.11 9.49-3.74 2.02-6.62 3.04-8.46 1.5-1.98-1.65-1.01-4.63.11-8.07.89-2.73 2.24-6.85.87-7.85a31.082 31.082 0 0 0-2.71-1.75c-4.83-2.89-10.3-6.17-25.23-30.95-.35-.18-2.45-.99-8.6 2.06l-1.16.58-1-.83c-5.31-4.37-1.81-10.05.74-14.2 2.8-4.54 3.92-6.89 2.11-8.87a3.97 3.97 0 0 1-.69-3.06 5.945 5.945 0 0 0-.06-1.6c-.22-.06-1.19-.19-3.86.85-1.05.41-3.5 1.37-4.85-.31-1.46-1.82.09-4.12 2.64-7.92 1.34-1.99 4.47-6.66 4.07-7.88-.75-.46-1.6-.99-2.44-1.52-4.02-2.51-7.49-4.68-7.75-7.6a3.929 3.929 0 0 1 1.43-3.36 15.468 15.468 0 0 1 1.79-1.36 6.31 6.31 0 0 1-3.39-4.26c-1.88-8.05-5.75-29.26-.89-52.45 5.36-25.54 19.32-45.42 41.5-59.09a101.985 101.985 0 0 1 27.64-11.84c39.89-10.55 76.2 4.52 86.37 9.38 20.87 9.99 31.99 27.92 32.16 51.88a9.93 9.93 0 0 0 2.42 3.17c10.77 3.42 16.51 7.17 16.98 11.11.73 6.03-6.48 8.32-9.42 9 3.02 2.37 8.88 6.24 15.23 6.53 2.48.12 4.28.32 4.85 1.88a2.183 2.183 0 0 1-.6 2.36c-1.59 1.47-9.18 2.38-14.15 1.78.28.46.58.92.84 1.34 3.02 4.74 5.32 8.59 5.19 11.49-.35 7.51.73 21.59 6.98 26.75 1.65 1.36 3.52 2.9 2.35 4.71-1.27 1.97-3.3.97-10.04-2.33a.142.142 0 0 1-.06-.02c.11 3.27.01 9.13-.49 19.89l-.07 1.43-1.42.48c-1.2.33-1.73.49-5.35-4.58-1.25 5.34-2.52 13.02-1.02 16.42 2.51 5.64 1.92 11.54 1.6 14.7-.06.52-.1.96-.12 1.28a2.07 2.07 0 0 1-1.37 1.88c-1.14.41-1.76.63-7.05-5.01-.12.19-.25.39-.38.59a36.233 36.233 0 0 0 9.57 11.87c4.74 3.65 7.75 3.12 10.16 2.69a9.847 9.847 0 0 1 2.76-.2l-1.72 2.15-.39.49.44 1.36-.26.32-.77.94-.26.32-.12-.37-.22-.67-.13-.39-.36.45-.38.47-1.67 2.08z" transform="translate(-211.585 -510.771)" style="mix-blend-mode:darken" fill="url(#b)" opacity=".28"/></g></svg>