<svg xmlns="http://www.w3.org/2000/svg" xmlns:xlink="http://www.w3.org/1999/xlink" viewBox="0 0 232.76807 257.22861"><defs><style>.a{isolation:isolate;}.b{fill:#007380;}.c{fill:#003a40;}.d{fill:#409cdb;}.e{opacity:0.36;}.e,.k,.q,.r{mix-blend-mode:darken;}.f{fill:#0f4360;}.g{fill:#ffeefd;}.h{fill:#d25e45;}.i{fill:#641b0b;}.j{opacity:0.25;}.k,.p{opacity:0.3;}.l{fill:#eae27f;}.m{fill:#fffb79;}.n{fill:#001d20;}.o{fill:#002c30;}.q,.r{opacity:0.28;}.q{fill:url(#a);}.r{fill:url(#b);}</style><linearGradient id="a" x1="416.09392" y1="603.24151" x2="254.09392" y2="666.24151" gradientUnits="userSpaceOnUse"><stop offset="0.5" stop-color="#412947" stop-opacity="0"/><stop offset="1"/></linearGradient><linearGradient id="b" x1="416.09392" y1="603.24151" x2="254.09392" y2="666.24151" gradientUnits="userSpaceOnUse"><stop offset="0" stop-color="#fff"/><stop offset="0.5" stop-color="#412947" stop-opacity="0"/></linearGradient></defs><title>09-thinking-monster-cropped</title><g class="a"><path class="b" d="M347.67,766H327.33c-1.71-6.12-6.19-27.37-4.18-30.52a.24884.24884,0,0,1,.04-.07l1.76-1.14.02-.00995,6.92-4.49005.2-.14,2.00995-1.3s-.42,5-.75,10.94c-.42,7.84-.69,17.32.37,19.07C335.09,760.61,342.38,763.16,347.67,766Z" transform="translate(-211.58508 -510.77139)"/><path class="c" d="M348.62,764.24c-1.81-.97-3.81-1.89-5.74-2.78-2.72-1.25995-6.85-3.16-7.42-4.11-.15-.34-.87-2.69-.19-16.37.02-.52.05-1.05.08-1.6.01-.14.02-.28.02-.42q.06-1.04993.12-2.04c.29-4.72.6-8.38.6-8.42l.34-4.06-3.84,2.49-8.44,5.47-.08.06-1.69,1.09-.28.18-.59.55-.12.25a3.96071,3.96071,0,0,0-.34.85c-1.93,6.7,4.28,30.9,4.35,31.16l.41,1.46h29.81ZM328.86,764c-1.19-4.64-2.63-11.67-3.49-17.49q-.165-1.09506-.3-2.13c-.47-3.59-.66-6.46-.32-7.6l.62-.4.09-.06,6.34-4.11c-.11,1.51-.23,3.34-.35,5.32a.27676.27676,0,0,0-.01.09c-.03.5-.06,1.02-.09,1.54-.00995.19-.02.38-.03.56-.04.73-.07,1.43-.1,2.1-.7,15.11.3,16.74.79,17.55.97,1.62,3.27,2.93,6.86,4.63Z" transform="translate(-211.58508 -510.77139)"/><path class="b" d="M310.3,766h-9.31c3.36-5.45,1.18-27.92.42-34.84-.15-1.29-.24-2.04-.24-2.04l1.73.39.44.1,5.50995,1.24,2.04.46s.1,2.35.19,5.91c.01.66.03,1.36.04,2.1C311.28,747.32,311.31,759.35,310.3,766Z" transform="translate(-211.58508 -510.77139)"/><path class="c" d="M313.15,741.29c-.01-.68-.02-1.35-.03-2v-.01l-.04-2v-.11c-.09-3.58-.19-5.95-.19-5.95l-.07-1.52-13.97-3.15.32,2.68.01.11.24,2.04c.05.47.1.95.15,1.41.13,1.21.24,2.4.35,3.56,1.36,14.73,1.15,25.72-.63,28.6L297.41,768h14.61l.26-1.7C313.21,760.15,313.28,749.67,313.15,741.29ZM308.54,764h-4.69c1.43005-5.89,1.03-16.39.3-25.29-.09-1.1-.19-2.17-.28-3.2-.13-1.34-.26-2.62-.39-3.82l.4.09.13.03,4.94,1.11c.04.96.07,2.33.12,3.99v.1a1.92435,1.92435,0,0,1,.01.24l.04,1.86v.25c.01.6.02,1.2.03,1.79A196.80929,196.80929,0,0,1,308.54,764Z" transform="translate(-211.58508 -510.77139)"/><path class="d" d="M419.753,650.23712c.95408,1.04854.19916,17.37427-.063,23.0259-.042.99612-5.67262-7.27685-5.67262-7.27685s-4.72891,15.80146-2.01324,21.93538c2.7263,6.134,1.41563,12.84458,1.31067,15.078-.05235.99612-6.721-6.31215-6.721-6.31215s-15.61273,24.75594-18.27606,27.18856c-2.08658,1.89791-2.75766-5.13786-3.71173-6.18639-.95433-1.038-8.011,21.66281-13.002,21.43216-2.99867-.14694-2.53738-10.1289-5.53618-10.26522-2.00274-.09446-4.341,5.56779-10.454,9.52067-7.22431,4.67656-1.49934-8.07368-5.62-8.26248-5.00154-.23065-4.37245,7.80118-11.40822,8.48276-7.03564.671-11.083,1.48884-13.26389,5.38937-2.181,3.911-.44043-12.02669-4.48777-11.21929-3.47072.70244-.4403,5.41049-6.54286,6.38568a18.62823,18.62823,0,0,1-3.76434.14668c-5.49432-.25164-8.27284-5.93463-9.20606-8.3673a.45472.45472,0,0,0-.83875-.021c-1.28981,2.78914-5.02253,10.27571-9.1747,12.5091-5.12749,2.76815-2.21253-17.12256-8.34644-14.39652-6.12342,2.7158-2.35921,7.89551-12.63479,13.43182-14.753,7.948.46129-9.99259-5.34764-14.27057-5.80894-4.26749-9.75145-2.75766-27.53459-32.30542,0,0-1.86643-3.0827-11.083,1.4889-7.71722-6.35413,9.269-16.06359,3.06177-22.87908-.95433-1.04854,2.35921-7.90595-6.81549-4.32-9.1747,3.57555,8.598-12.61387,3.73273-15.84338-4.85473-3.22951-11.70171-6.55336-8.56659-9.40535,3.13512-2.86255,16.39913-8.252,57.42839-51.4098a53.19307,53.19307,0,0,1,17.36383-12.11059c45.0766-19.79638,115.54873,17.238,115.54873,17.238s.18867.17823.52427.48229c2.00274,1.78253,9.54179,7.98991,18.08726,8.3883,9.99259.46136-7.172,3.66988-12.07917,1.447-4.89659-2.23339,6.53236,10.30714,6.30172,15.30868-.23065,4.991-.0105,22.01928,7.70685,28.3839C436.36165,659.01344,418.79865,649.18859,419.753,650.23712Z" transform="translate(-211.58508 -510.77139)"/><path class="c" d="M429.93,651.11c-6.25-5.16-7.33-19.24-6.98-26.75.13-2.9-2.17-6.75-5.19-11.49-.26-.42-.56-.88-.84-1.34,4.97.6,12.56-.31,14.15-1.78a2.183,2.183,0,0,0,.6-2.36c-.57-1.56006-2.37-1.76-4.85-1.88-6.35-.29-12.21-4.16-15.23-6.53-.54-.42-.98-.8-1.33-1.1-.05-.04-.11-.09-.15-.13h-.01a1.18332,1.18332,0,0,0-.12-.11c-.31-.28-.49-.45-.49-.46l-.2-.18-.25-.13q-.195-.105-.81-.42a246.55161,246.55161,0,0,0-40.91-16q-4.665-1.36505-9.61-2.54a163.89354,163.89354,0,0,0-22.33-3.81q-3.435-.33-6.87-.47c-.72-.03-1.43-.05-2.15-.07a97.91172,97.91172,0,0,0-13.95.62,71.63187,71.63187,0,0,0-20.65,5.39,55.39106,55.39106,0,0,0-18.01,12.56q-4.725,4.98-8.96,9.29-3.465,3.525-6.62,6.66c-.02.01-.03.03-.05.05q-1.86,1.83-3.6,3.53c-14.82,14.44-24.16,21.87-30,26.09-.21.15-.4.29-.6.43-.02.01-.03.02-.05.03-.67.48-1.29.92-1.86,1.31a1.87464,1.87464,0,0,1-.18.12006c-.78.54-1.47,1-2.08,1.42-.1.06-.2.13-.29.19-.46.31-.87.58-1.24005.83a15.46848,15.46848,0,0,0-1.79,1.36A3.92883,3.92883,0,0,0,215,646.8c.26,2.92,3.73,5.09,7.75,7.6.84.53,1.69,1.06,2.44,1.52.4,1.22-2.73,5.89-4.07,7.88-2.55,3.8-4.1,6.1-2.64,7.92,1.35,1.68,3.8.72,4.85.31,2.67-1.04,3.64-.91,3.86-.85a5.9454,5.9454,0,0,1,.06,1.6,3.97,3.97,0,0,0,.69,3.06c1.81,1.98.69,4.33-2.11,8.87-2.55,4.15-6.05,9.83-.74,14.2l1,.83,1.16-.58c6.15-3.05,8.25-2.24,8.6-2.06,14.93005,24.78,20.4,28.06,25.23,30.95a31.0816,31.0816,0,0,1,2.71,1.75c1.37,1,.02,5.12-.87,7.85-1.12,3.44-2.09,6.42-.11,8.07,1.84,1.54,4.72.52,8.46-1.5,6.32-3.41,7.94-6.92,9.11-9.49.86-1.86,1.37-2.98,3.39-3.88a1.24848,1.24848,0,0,1,.21-.07c.76.69,1.33,4.32,1.64,6.3.6,3.85,1.13,7.17,3.35,8.27a3.43774,3.43774,0,0,0,3.28-.17c3-1.61,5.68-5.34,7.67-8.83.34-.59.66-1.16.95-1.72a18.6595,18.6595,0,0,0,1.05,1.63,14.2109,14.2109,0,0,0,2.23,2.45,10.10761,10.10761,0,0,0,5,2.44,8.78582,8.78582,0,0,0,1.28.15c.25.01.49.02.72.02.71.02,1.38.00995,2-.03.50995-.03,1-.09,1.46-.16,4.75-.76,5.55-3.61,6.04-5.32.06995-.24.17-.61.25995-.83a3.0798,3.0798,0,0,1,.14.4,32.82784,32.82784,0,0,1,.85,5.54c.25,2.66.42,4.38,1.39,5.18a2.3288,2.3288,0,0,0,.99005.46,2.09045,2.09045,0,0,0,.46.05,1.80011,1.80011,0,0,0,.63-.1,2.95271,2.95271,0,0,0,1.7-1.55,6.64261,6.64261,0,0,1,4.15-3.14,17.22692,17.22692,0,0,1,2.03-.5c.62-.13,1.29-.23,2.02-.34,1.05-.14,2.21-.27,3.51-.39,4.68994-.46,6.72-3.59,8.2-5.87,1.14-1.76,1.7-2.5,2.59-2.6a15.82679,15.82679,0,0,1,.09,2.81c-.06,2.44-.12,4.97,1.86,6.08,1.79,1,3.81-.07,5.18-.95a33.51171,33.51171,0,0,0,7.56-7.09c.54-.64,1.17-1.39,1.62-1.83a21.42622,21.42622,0,0,1,1.02,3.33c.75995,3.05,1.63,6.5,4.61,6.65,4.34.23,7.75-7,12.12-17.19.18-.42.36-.86.55-1.29.57,1.68,1.3,3.05,2.72,3.46a2.83323,2.83323,0,0,0,2.77-.75c1.38-1.26,5.47-7.27,9.51-13.43.39-.58.77-1.17,1.15-1.75.39-.59.77-1.18,1.15-1.76.86-1.32,1.69-2.61,2.46-3.82.45-.7.88-1.37,1.28-2q.705-1.11,1.29-2.04c.13-.2.26-.4.38-.59,5.29,5.64,5.91,5.42,7.05,5.01a2.07009,2.07009,0,0,0,1.37-1.88c.02-.32.06-.76.12-1.28.32-3.16.91-9.06-1.6-14.7-1.5-3.4-.23-11.08,1.02-16.42,3.62,5.07,4.15,4.91,5.35,4.58l1.42-.48.07-1.43c.5-10.76.6-16.62.49-19.89a.142.142,0,0,0,.06.02c6.74,3.3,8.77,4.3,10.04,2.33C433.45,654.01,431.58,652.47,429.93,651.11Zm-11.91.2c.2,1.04.38,4.69-.11,16.76-.74-1.03-1.52-2.16-2.24-3.21l-2.36-3.47-1.21,4.02c-.5,1.69-4.85,16.7-1.92,23.32a22.357,22.357,0,0,1,1.47,10.38c-1.11-1.12-2.43005-2.51-3.58-3.77l-1.77-1.94-1.4,2.22c-.12.19-.25.39-.37.59-.44.69-.9,1.42-1.38,2.17-.44.69-.89,1.39-1.35,2.12-1.25,1.96-2.58,4.02-3.9,6.06-.39.6-.78,1.19-1.16,1.78-.41.62-.81,1.24-1.21,1.84-3.14,4.79-6.03,9.04-7.59,11.08-.19-.56-.36-1.18005-.49-1.62a8.05227,8.05227,0,0,0-1.37-3.3l-.83-.84-1.07.19c-1.48.25-1.95,1.35-4.23,6.67-1.47,3.42-5.83,13.61-8.04,14.69A17.48923,17.48923,0,0,1,370.78,733.5c-.77-3.05-1.63-6.5-4.62006-6.64-1.93-.06-3.19,1.43-4.97,3.54a29.54334,29.54334,0,0,1-6.66,6.3,7.35117,7.35117,0,0,1-.86.49c-.05-.63-.03-1.54-.01-2.16.06-2.52.16-6.74-3.56995-6.91-3.51-.19-5.15,2.38-6.47,4.43-1.32,2.03-2.45,3.79-5.22,4.06-1.01.09-1.98.19-2.91.31-.7.08-1.37.18-2.02.29-.71.12-1.37994.25-2.03.41a13.14905,13.14905,0,0,0-5.59,2.6c-.14-1.41-.28-2.7-.48-3.84a15.2796,15.2796,0,0,0-.47-2.08,7.26554,7.26554,0,0,0-.83-1.84,3.98524,3.98524,0,0,0-.98-1.06,3.284,3.284,0,0,0-2.65-.59c-2.68.54-3.28,2.65-3.64,3.91-.4,1.4-.6,2.1-2.82,2.46-.28.04-.58.08-.9.1a18.36073,18.36073,0,0,1-2,.04c-.15-.01-.31-.01-.46-.02a5.99759,5.99759,0,0,1-1.55-.29c-2.55-.83-4.23-3.3-5.19-5.23-.3-.6-.53-1.14-.7-1.57a2.45917,2.45917,0,0,0-2.21-1.56995,2.44031,2.44031,0,0,0-2.3,1.43c-2.61,5.64-5.55,9.84-8.02,11.41a27.85828,27.85828,0,0,1-1.08-5.02c-.64-4.05-1.24-7.88-3.73-9.24a4.00569,4.00569,0,0,0-3.69-.02c-3.4,1.50995-4.42,3.72-5.4,5.86-1.1,2.39-2.23,4.87-7.37,7.64a20.1747,20.1747,0,0,1-3.65,1.62994,32.814,32.814,0,0,1,.99-3.43994c1.4-4.28,3.13-9.6-.56-12.32-1.06-.78-2.06-1.38-3.03-1.96-4.44-2.65-9.47-5.66-23.98-29.77-.38-.64-1.56-2-4.5-2a19.52723,19.52723,0,0,0-7.84,2.1c-1.21-1.79-.08-4.06,2.43-8.13,2.46-4,5.52-8.95,1.98-13.29.01-.17.02-.39.02-.56.07-1.38.17-3.7-1.69-5.03-1.4-1-3.42-1.05-6.29-.12.39-.6.81-1.23,1.18-1.78,2.59-3.86,5.27-7.86,4.67-10.88a3.85,3.85,0,0,0-1.66-2.49c-.83-.55-1.7-1.1-2.58-1.65-1.93-1.2-5.48-3.42-5.87-4.49005l.12-.12a27.19067,27.19067,0,0,1,2.56-1.83c5.68-3.8,18.19-12.15,44.97-39.33.23-.24.47-.49.72-.74,2.92-2.98,6.01-6.17,9.28-9.61.27-.28.54-.56006.81995-.83a46.10442,46.10442,0,0,1,3.41-3.14,52.25562,52.25562,0,0,1,12.49-7.69c14.62-6.42,32.12-6.66,48.97-4.11,3.75995.56,7.49,1.27,11.15,2.07a245.57317,245.57317,0,0,1,47.27,16.12c.97.45,1.83.85,2.59,1.22,1.05.49,1.9.91,2.53,1.22.49.25.85.43,1.07.54q.13495.12.36.33c.4.36,1,.86,1.75,1.45a39.11279,39.11279,0,0,0,9.64,5.64,9.54537,9.54537,0,0,1-3.22-.56995c-1.89-.86-2.94-.29-3.49.34-1.39,1.59-.2,3.45,2.4,7.54,1.74,2.73,4.65,7.3,4.56,9.15-.09,1.92-.57,16.5,4.76,25.59-3.74005-1.83-4.55-2.18005-5.59-.79l-.96,1.39Z" transform="translate(-211.58508 -510.77139)"/><g class="e"><path class="f" d="M332.77676,736.21722c.08384.346.1678.671.26213.97507a15.1095,15.1095,0,0,0-7.10911,2.831c-.40894-4.30934-1.038-9.38435-4.80225-9.38435a3.26441,3.26441,0,0,0-.70257.07347c-2.74716.55576-3.3554,2.70518-3.72223,3.98449-.39858,1.40488-.57675,2.0341-2.74729,2.39057a15.07091,15.07091,0,0,1-2.20177.14681c-.35659,0-.72356-.0105-1.122-.03149-4.27811-.18867-6.56385-4.97006-7.35025-7.02515a2.54025,2.54025,0,0,0-2.3802-1.63578,2.57032,2.57032,0,0,0-2.32772,1.49946c-2.58986,5.59915-5.49432,9.76181-7.87452,11.30313a29.41007,29.41007,0,0,1-1.02755-4.89659c-.72343-4.5821-1.54132-9.77244-5.63077-9.77244a4.83978,4.83978,0,0,0-1.92914.42994c-3.43923,1.531-4.50876,3.85867-5.45247,5.91376-1.09039,2.3802-2.22289,4.83374-7.32926,7.5914a21.64265,21.64265,0,0,1-3.48109,1.5833c.19916-.93321.63946-2.28574.96457-3.28193,1.40513-4.299,3.15611-9.657-.58724-12.41464-1.0694-.7864-2.07608-1.38414-3.05115-1.97125-4.4248-2.64233-9.44733-5.65163-23.93818-29.72606-.20966-.346-1.39451-2.03416-4.67643-2.03416a19.71641,19.71641,0,0,0-7.72771,2.05516c-1.0589-1.60423-.1678-3.63839,2.485-7.95836,2.48516-4.01591,5.5468-8.99647,2.00274-13.37934,0-.15731.0105-.35653.021-.52427.05235-1.28974.14681-3.24-1.19535-4.63458a4.39966,4.39966,0,0,0-3.33428-1.27918,11.70369,11.70369,0,0,0-3.324.58718c.3461-.52427.71319-1.06953,1.03817-1.55181,2.60035-3.8796,5.295-7.885,4.68693-10.94673a3.98872,3.98872,0,0,0-1.70912-2.55843c-.82839-.54526-1.70912-1.09052-2.58986-1.64621-1.87692-1.17436-5.30566-3.31341-5.79844-4.39337a.45636.45636,0,0,1,.07347-.06291,26.19042,26.19042,0,0,1,2.54787-1.81395c5.73547-3.82719,18.41237-12.32031,45.69532-40.08561.99606,1.13244,2.11807,2.35921,3.34477,3.63846.77591.7969,1.5833,1.61472,2.44317,2.443-2.2755,8.48269-6.155,23.267-6.16553,25.815.0105,2.8205,5.66213-1.41556,7.07762-1.42606,1.40513.0105-10.62156,20.51988-7.08812,24.05344,2.12856,2.11807,9.19569-4.94906,11.31376-2.82057,1.41563,1.41556-1.19535,6.95181,0,14.13432,1.41563,8.49312,6.98329-4.33046,9.89813-1.40507,3.53369,3.54406-2.8205,8.48269,1.40513,14.14475,4.24663,5.65163,6.36469,9.19569,4.94906,13.43176-1.4155,4.24656,9.18519-7.76963,11.31376-4.23607,1.82444,3.04072-3.70137,3.97393-.31461,9.14321a19.06845,19.06845,0,0,0,2.43268,2.873c3.87954,3.90053,9.9611,2.1285,12.38316,1.17436a.4547.4547,0,0,1,.57662.60811c-1.18472,2.83106-4.215,10.63218-3.06165,15.20379,1.40513,5.65163,14.14475-9.8877,16.26282-3.52307C336.31033,724.18,329.94564,724.893,332.77676,736.21722Z" transform="translate(-211.58508 -510.77139)"/></g><path class="c" d="M323.37,692.49a4.64034,4.64034,0,0,0-4.93-1.55,4.986,4.986,0,0,0-2.89,2.05,16.8232,16.8232,0,0,1-1.92,2.05c-.48.42-2.86,1.1-8.53,1.23-.64.02-1.33.03-2.06.03-.04,0-.08-.01-.12-.01a7.19831,7.19831,0,0,0,1.67-4.59,6.3528,6.3528,0,0,0-.22-1.42c-.55-1.93-1.53-3.16-2.93-3.64a4.69629,4.69629,0,0,0-4.3.92,29.37749,29.37749,0,0,0-2.74,2.68c-.02.02-.06.08-.14.17-.45.5-2.2,2.12-8.31,5.51-3.82,2.11-7.62.03-13.1-7.19-6.68-8.8-8.33-20.37-8.34-20.49a1.99833,1.99833,0,0,0-3.96.54c.01.07.05.39.14.9.03.19.07.41.12.65l.18.92c.09.41.19.86.31,1.35.09.36.18.74.28,1.13l.16.61c.12.41.24.84.37,1.29l.91,2.82.27.75c.18.5.38,1.00995.59,1.53a47.40794,47.40794,0,0,0,2.67,5.62c.11.21.23.41.35.62a38.63716,38.63716,0,0,0,2.75995,4.18c2.94,3.86,9.82,12.92,18.22,8.27,1.08-.59,2.03-1.14,2.88-1.65.31-.18.6-.36.88-.53,1.42-.87,2.5-1.6,3.33-2.2a10.5481,10.5481,0,0,0,2.68005-2.47c.34-.35,1.65-1.6,1.85-1.77a2.08287,2.08287,0,0,1,.63-.34,2.816,2.816,0,0,1,.39.91c.32,1.11-.6,2.38-1.4,3.23l-.02.02c-.27.28-.50995.5-.7.67a2.83908,2.83908,0,0,0,1.81,4.97c.50995.00995,1.00995.02,1.49.03,1.17.01,2.25.01,3.24-.01,9.09-.18,10.77-1.73,11.38-2.28a20.03011,20.03011,0,0,0,2.35-2.51c.47-.59.47-.59.86-.7a.70356.70356,0,0,1,.7.17c.25.33.39,1.42-.73,3.43005-1.13,2.02-4.64,4.04-9.62,5.55a5.56053,5.56053,0,0,0-1.51.73,5.26848,5.26848,0,0,0-2.22,4.66c.08,1.33-.31,2.28-2.52,2.62006-5.37.83-13.14-3.72-14-5.29-.03-2.18-2.32-2.54-6.03-3.12-9.31-1.46-28.66-4.49-32.28-27a1.94179,1.94179,0,0,0-.28-.75,2.00117,2.00117,0,0,0-3.67,1.38c4.08,25.38,26.17,28.84,35.61,30.32,1.04.16,2.18.34,2.87.5a6.47615,6.47615,0,0,0,1.81,2.41c2.79,2.51,9.25,5.64,14.71,5.64a11.51,11.51,0,0,0,1.87-.14c3.93-.6,6.14-3.15,5.9-6.83a1.25653,1.25653,0,0,1,.9-1.3c.93-.28,1.92-.61,2.92-1,3.61-1.37994,7.37-3.45,9.03-6.43C325.36,696.1,324.24,693.6,323.37,692.49Z" transform="translate(-211.58508 -510.77139)"/><path class="c" d="M436.24,737.6c-.02.01-4.06,1.8-4.09,1.81a30.91659,30.91659,0,0,1-6.59.77l.96-1.18-.31-.95a30.657,30.657,0,0,0,5.29-.64c.66-.29,3.13-1.39,3.73-1.66a22.81107,22.81107,0,0,0,4.39-3.46,16.31987,16.31987,0,0,0-2.45-.07,23.2284,23.2284,0,0,1-4.76-.31l1.53-1.9a21.40721,21.40721,0,0,0,3.15.12C448.78,729.69,437.01,737.09,436.24,737.6Z" transform="translate(-211.58508 -510.77139)"/><path class="c" d="M413.11,734.18l-1.32,1.65a16.048,16.048,0,0,1-1.91-1.95c-7.57-9.36,6.18-3.72-3.21-17.17a24.96766,24.96766,0,0,0-6.34-6.54,14.59074,14.59074,0,0,0-1.72-1.04,16.02072,16.02072,0,0,0-1.87-.79,10.99376,10.99376,0,0,0-8.73.5l2.91-3.05a13.9845,13.9845,0,0,1,6.98.77,15.43958,15.43958,0,0,1,1.85.82,18.70381,18.70381,0,0,1,1.73,1.03,27.09974,27.09974,0,0,1,6.91,7.1c5.04,7.21,4.47,10.25995,1.79,13.08-.7.73-1.02,1.07,1.33,3.97A13.62734,13.62734,0,0,0,413.11,734.18Z" transform="translate(-211.58508 -510.77139)"/><path class="c" d="M427.33,718.91l-.26.32c-.03,0-.06.01-.1.01-.37994.07-.81.14-1.27.21l-.13-.39-.36.45c-2.76.31-6.68.09-11.69-3.77a39.07214,39.07214,0,0,1-9.58-11.15c-.4-.68-.77-1.35-1.11-1.99-.38-.73-.73-1.44-1.03-2.1a43.44407,43.44407,0,0,1-1.75-4.31l1.64-1.74a34.46579,34.46579,0,0,0,1.46,3.93c.29.66.62,1.39,1,2.16.31995.65.68,1.34,1.06995,2.05a37.33864,37.33864,0,0,0,9.58,11.49c5.97,4.6,9.91,3.39,12.48,2.98l-.39.49Z" transform="translate(-211.58508 -510.77139)"/><path class="c" d="M422.77,724.48c.01,0,.01.01.02.02l-.72.88-.48-1.49-.98,1.21a3.33166,3.33166,0,0,1-.4-3.3c.28-.6,1.23-2.01,3.82-1.88.23.01.50995.03.8.06l-1.67,2.08C421.87,722.27,421.64,723.26,422.77,724.48Z" transform="translate(-211.58508 -510.77139)"/><path class="c" d="M423.82,742.26c-.49-.02-1-.05-1.51-.1l1.05-1.3Z" transform="translate(-211.58508 -510.77139)"/><path class="c" d="M423.36,723.8l-.57.7c-.00995-.01-.00995-.02-.02-.02-1.13-1.22-.9-2.21.39-2.42l-.25995.33Z" transform="translate(-211.58508 -510.77139)"/><path class="c" d="M430.29,715.26l-.28.34-.17-.51C429.99,715.14,430.14,715.2,430.29,715.26Z" transform="translate(-211.58508 -510.77139)"/><path class="c" d="M429,714.91l-1.72,2.15c-2.57.41-6.51,1.62-12.48-2.98a37.33864,37.33864,0,0,1-9.58-11.49c-.39-.71-.75-1.4-1.06995-2.05-.38-.77-.71-1.5-1-2.16a34.46579,34.46579,0,0,1-1.46-3.93l-1.64,1.74c-.23-.66-.35-1.08-.38-1.16a2.10027,2.10027,0,0,1,4.04-1.15c.00995.03.27.92.82,2.33.25995.64.56995,1.4.95,2.23.3.66.65,1.37,1.03,2.11a36.2331,36.2331,0,0,0,9.57,11.87c4.74,3.65,7.75,3.12,10.16,2.69A9.84679,9.84679,0,0,1,429,714.91Z" transform="translate(-211.58508 -510.77139)"/><path class="c" d="M410.94,736.89l.42,1.3a17.81679,17.81679,0,0,1-3.11-2.99c-3.88-4.8-3.3-7.2-1.11-9.5.92-.97,1.88-1.97-2.19-7.79a22.90786,22.90786,0,0,0-5.77-5.99,13.36129,13.36129,0,0,0-1.74-1.01,10.1487,10.1487,0,0,0-1.91-.73,8.72682,8.72682,0,0,0-6.45.47,2.101,2.101,0,0,1-2.15-3.61,12.03537,12.03537,0,0,1,3.99-1.25l-2.91,3.05a10.99376,10.99376,0,0,1,8.73-.5,16.02072,16.02072,0,0,1,1.87.79,14.59074,14.59074,0,0,1,1.72,1.04,24.96766,24.96766,0,0,1,6.34,6.54c9.39,13.45-4.36,7.81,3.21,17.17a16.048,16.048,0,0,0,1.91,1.95Z" transform="translate(-211.58508 -510.77139)"/><path class="c" d="M437.48,739.3l-.09.05c-.02.02-4.32,2-4.76,2.1a33.50135,33.50135,0,0,1-7.48.84q-.61505,0-1.26-.03l1.67-2.08a30.91659,30.91659,0,0,0,6.59-.77c.03-.01,4.06995-1.8,4.09-1.81.77-.51,12.54-7.91.85-7.47a21.40721,21.40721,0,0,1-3.15-.12l.55-.68005-.46-1.43a19.01352,19.01352,0,0,0,2.98.13c2.91-.1,6.35.11,7.18,2.73C444.7,732.38,444.4,734.82,437.48,739.3Z" transform="translate(-211.58508 -510.77139)"/><path class="b" d="M425.21,719.51l-.38.47c-.29-.03-.57-.05-.8-.06-2.59-.13-3.54,1.28-3.82,1.88a3.33166,3.33166,0,0,0,.4,3.3l-1.7,2.12.48,1.47-1.29,1.58-.5-1.54-2.68,3.32.5,1.53-1.2,1.48-.15-.09-.46-1.41-.5.62a13.62734,13.62734,0,0,1-1.6-1.62c-2.35-2.9-2.03-3.24-1.33-3.97,2.68-2.82,3.25-5.87-1.79-13.08a27.09974,27.09974,0,0,0-6.91-7.1,18.70381,18.70381,0,0,0-1.73-1.03,15.43958,15.43958,0,0,0-1.85-.82,13.9845,13.9845,0,0,0-6.98-.77l9.13-9.6a43.44407,43.44407,0,0,0,1.75,4.31c.3.66.65,1.37,1.03,2.1.34.64.71,1.31,1.11,1.99a39.07214,39.07214,0,0,0,9.58,11.15C418.53,719.6,422.45,719.82,425.21,719.51Z" transform="translate(-211.58508 -510.77139)"/><path class="b" d="M439.62,732.29a22.81107,22.81107,0,0,1-4.39,3.46c-.6.27-3.07,1.37-3.73,1.66a30.657,30.657,0,0,1-5.29.64l-.17-.5,1.29-1.59.5,1.53,2.67-3.33-.49-1.5.87-1.07c.21.06.42.11.64.16l.3.91.59-.75a23.2284,23.2284,0,0,0,4.76.31A16.31987,16.31987,0,0,1,439.62,732.29Z" transform="translate(-211.58508 -510.77139)"/><path class="b" d="M427.07,719.23l-.77.94c-.1-.01-.19-.02-.3-.04a.24841.24841,0,0,1-.08-.01l-.22-.67c.46-.07.89-.14,1.27-.21C427.01,719.24,427.04,719.23,427.07,719.23Z" transform="translate(-211.58508 -510.77139)"/><path class="g" d="M354.8252,657.27734c-16.04395,0-34.42822-11.08008-39.53857-20.6123-1.77979-3.31934-1.897-6.18457-.34814-8.51465,1.74561-2.627,3.20947-5.16211,4.62549-7.61328,5.7915-10.02832,9.97607-17.27441,25.88965-17.27441,1.65479,0,3.44385.08105,5.31787.24023,15.63037,1.32422,26.49023,8.50879,29.79492,19.71,3.07813,10.43457-1.22363,22.042-10.95947,29.57227C365.75342,655.76563,360.78027,657.27734,354.8252,657.27734Z" transform="translate(-211.58508 -510.77139)"/><path d="M379.91,617.8a25.19247,25.19247,0,0,0-4.2-5.59c-.39-.41-.81-.81-1.25-1.2a33.09476,33.09476,0,0,0-11.47-6.54,38.533,38.533,0,0,0-3.85-1.13,46.4128,46.4128,0,0,0-5.19-.98c-.99-.15-2.01-.26-3.05-.35-1.95-.17-3.76-.25-5.45-.25-5.87,0-10.25.97-13.71,2.66a19.36722,19.36722,0,0,0-2.9,1.74,21.42173,21.42173,0,0,0-2.09,1.69c-4.64,4.29-7.41,10.42-11.52,17.06-.49.8-1,1.6-1.54,2.41-7.64,11.5,19.25,31.46,41.14,31.46,5.83,0,11.32-1.43,15.69-4.81C382.7,644.55,386.32,629.36,379.91,617.8Zm-2.87,24a30.53564,30.53564,0,0,1-8.35,9.8c-3.59,2.77-8.25,4.18-13.86,4.18-15.54,0-33.31-10.66-38.22-19.82-1.5-2.8-1.64-5.14-.42-6.98.98-1.48,1.87-2.92,2.72-4.33q1.00507-1.70993,1.95-3.36c3.58-6.2,6.41-11.1,11.68-13.91a21.04032,21.04032,0,0,1,6.06-2.05c.02,0,.04-.00995.06-.00995a34.88408,34.88408,0,0,1,5.96-.55h.02c.27-.00995.54-.00995.81-.00995h.01c1.61,0,3.35.08,5.18.24q1.72495.15,3.36.39c.47.06995.94.14,1.4.23.59.1,1.17.21,1.74.34.55.11,1.09.24005,1.62.38a31.58516,31.58516,0,0,1,14.38,7.5,22.25341,22.25341,0,0,1,5.99,9.8,23.54492,23.54492,0,0,1-.66,14.96A27.45854,27.45854,0,0,1,377.04,641.8ZM354,605.39c.47.06995.94.14,1.4.23.12-.14.25-.27.38-.41C355.19,605.27,354.59,605.33,354,605.39Zm-8.55-.63v-.07c-.27.03-.54.05-.81.08C344.91,604.76,345.18,604.76,345.45,604.76Z" transform="translate(-211.58508 -510.77139)"/><path d="M357.75308,605.32751c-8.9582,8.9563-12.52666,20.08713-8.92972,27.49786a19.278,19.278,0,0,0,5.36369,6.37622c16.47586,11.7731,26.15871-2.797,26.15871-2.797h0a24.2831,24.2831,0,0,0,.5073-10.9891,24.77372,24.77372,0,0,0-7.39254-13.35606Z" transform="translate(-211.58508 -510.77139)"/><path d="M366.6377,645.29785c-4.31641,0-8.78369-1.63281-13.32275-4.876a20.83614,20.83614,0,0,1-5.84131-6.94141c-3.9082-8.05273-.20361-19.793,9.21875-29.21387l2.12109,2.12109c-8.38574,8.38477-11.939,18.9873-8.64062,25.78223a17.84648,17.84648,0,0,0,4.88623,5.81055c4.93359,3.52539,9.67529,4.90039,14.09521,4.08789a16.67607,16.67607,0,0,0,9.81445-6.31543,22.85364,22.85364,0,0,0,.40967-10.0625,23.33216,23.33216,0,0,0-6.94434-12.53711l2.05273-2.1875a26.35927,26.35927,0,0,1,7.84082,14.17383,25.87891,25.87891,0,0,1-.5376,11.66895l-.064.22852-.13086.19727a19.65558,19.65558,0,0,1-11.89795,7.78516A16.91155,16.91155,0,0,1,366.6377,645.29785Z" transform="translate(-211.58508 -510.77139)"/><path d="M314.87061,689.94434a1.49975,1.49975,0,0,1-1.15625-2.4541c2.34912-2.84863,3.14648-9.60156,3.25537-11.96387a1.48186,1.48186,0,0,1,1.56787-1.42871,1.49972,1.49972,0,0,1,1.4292,1.56738c-.01807.3877-.478,9.53906-3.938,13.7334A1.49529,1.49529,0,0,1,314.87061,689.94434Z" transform="translate(-211.58508 -510.77139)"/><path d="M338.75537,693.04883a1.49869,1.49869,0,0,1-1.05273-.43066c-.0918-.09082-9.312-9.05566-19.58057-9.53027a1.5,1.5,0,0,1-1.4292-1.56738,1.48417,1.48417,0,0,1,1.56787-1.42871c11.43262.52832,21.14111,9.98828,21.54883,10.39063a1.49927,1.49927,0,0,1-1.0542,2.56641Z" transform="translate(-211.58508 -510.77139)"/><polygon class="h" points="218.7 204.493 218.425 204.832 220.691 211.771 222.398 216.998 223.685 215.412 219.711 203.247 218.7 204.493"/><path class="h" d="M410.166,740.05618l3.64543,11.141-5.106-4.08753-1.22287-3.7468-.906,1.11625a3.32385,3.32385,0,0,0,.48638,4.67541l3.18606,2.5855a3.32385,3.32385,0,0,0,4.67541-.48638l.50072-.61694-3.97233-12.1662Z" transform="translate(-211.58508 -510.77139)"/><path class="h" d="M441.83908,712.8138l-3.18593-2.58557a3.32383,3.32383,0,0,0-4.67541.48645l-1.149,1.41588,2.10168,1.49812,3.02222,9.24887,1.286-1.58452-1.96357-6.00035,4.33328,3.08033.71716-.88381A3.32383,3.32383,0,0,0,441.83908,712.8138Z" transform="translate(-211.58508 -510.77139)"/><polygon class="h" points="218.349 216.118 217.525 213.593 216.864 211.57 216.193 209.512 215.828 208.394 215.743 208.137 215.486 208.454 214.718 209.4 214.457 209.722 215.057 211.56 215.757 213.706 216.204 215.074 217.12 217.88 217.957 220.445 218.429 221.889 219.294 220.823 219.716 220.303 219.163 218.611 218.349 216.118"/><polygon class="h" points="205.581 228.15 204.711 225.487 203.837 222.808 202.633 224.292 202.55 224.394 203.483 227.253 204.361 229.942 206.522 236.56 207.809 234.975 206.382 230.605 205.581 228.15"/><polygon class="h" points="212.373 214.861 211.775 213.027 211.206 213.727 210.488 214.613 211.122 216.555 214.46 226.779 215.747 225.193 213.513 218.351 212.373 214.861"/><polygon class="h" points="210.818 227.144 207.806 217.918 206.519 219.504 208.92 226.857 209.665 229.138 210.389 231.356 210.491 231.67 210.721 231.386 211.778 230.084 211.535 229.341 210.818 227.144"/><path class="i" d="M434.026,727.90163c-.04582-.0055-.09305-.00922-.13849-.01485l.09536-.1175-1.70656-5.22681-2.26577-6.93933-.16716-.51236-.28389-.86934-.55448.69041-1.72845,2.15211-.39115.487.44312,1.35713.08422.25778.36491,1.11785.67172,2.05759.66058,2.02309.82442,2.52509.81379,2.49258.55256,1.69235.21977.67313.29682.90889.5962-.74263,1.52954-1.90431.54833-.68273Z" transform="translate(-211.58508 -510.77139)"/><polygon class="i" points="218.429 221.889 217.957 220.445 217.12 217.88 216.204 215.074 215.757 213.706 215.057 211.56 214.457 209.722 214.335 209.349 214.116 208.678 213.987 208.285 213.62 208.742 213.245 209.209 211.576 211.287 211.313 211.614 211.775 213.027 212.373 214.861 213.513 218.351 215.747 225.193 216.245 226.72 218.919 223.39 218.429 221.889"/><path class="i" d="M426.20906,738.0528l-.16409-.50225-3.33812-10.22413-.63409-1.94214-.48766-1.49364-.97392,1.21263-1.70016,2.11685.47973,1.46913,3.01237,9.22654.71716,2.19672.24268.74295.45873,1.40494.07065.00352,1.67072-2.08031.95395-1.18767Z" transform="translate(-211.58508 -510.77139)"/><polygon class="i" points="210.491 231.67 210.389 231.356 209.665 229.138 208.92 226.857 206.519 219.504 206.013 217.954 203.339 221.283 203.837 222.808 204.711 225.487 205.581 228.15 206.382 230.605 207.809 234.975 208.271 236.389 210.945 233.059 210.491 231.67"/><path class="i" d="M418.10722,747.33169l-2.16082-6.61831-.878-2.68905-.93334-2.85884-.06361-.19474-.46065-1.41089-.49957.622-1.3259,1.65075-.84861,1.05673.42558,1.3035c.06566.04953.13247.09619.19852.14463l-.1079.133,3.97233,12.1662.44338,1.358,2.67408-3.32954Z" transform="translate(-211.58508 -510.77139)"/><polygon class="i" points="226.368 212.106 223.345 202.857 221.244 201.359 220.296 200.684 219.285 201.942 219.711 203.247 223.685 215.412 224.221 217.05 226.896 213.724 226.368 212.106"/><polygon class="i" points="230.598 208.01 230.023 207.602 225.69 204.521 227.654 210.522 228.208 212.216 230.883 208.889 230.598 208.01"/><polygon class="i" points="198.581 229.285 198.037 227.623 195.362 230.95 195.898 232.591 197.12 236.338 202.226 240.426 198.581 229.285"/><path class="i" d="M434.026,727.90156l-.04313-.13222-.09536.11737C433.93294,727.89247,433.98017,727.89612,434.026,727.90156Z" transform="translate(-211.58508 -510.77139)"/><g class="j"><path d="M411.96217,725.76334a7.12922,7.12922,0,0,1-1.78246,2.8205c-.69194.73392-1.01705,1.06953,1.33166,3.974a13.06389,13.06389,0,0,0,1.60429,1.62516l.49278-.6186.46129,1.405c.05248.03149.105.063.14694.09433l1.20572-1.48884-.50328-1.52033,2.01324-2.50615C415.08692,728.25873,413.43028,726.97955,411.96217,725.76334Z" transform="translate(-211.58508 -510.77139)"/><path d="M428.81223,736.2592l-.98556,1.22671-.49278-1.52033-1.28968,1.5833.16767.50328a30.30672,30.30672,0,0,0,5.28467-.63972c.0105-.0105.03149-.0105.042-.02086C430.60519,737.03511,429.6931,736.65752,428.81223,736.2592Z" transform="translate(-211.58508 -510.77139)"/></g><g class="k"><path class="f" d="M409.13117,584.4205c-5.93463-13.55758-109.72929-10.11841-125.5833-9.52073a4.53841,4.53841,0,0,0-3.29229,1.61472l-15.812,18.89466a4.31362,4.31362,0,0,0-.08384,5.4629c.80727,1.038,1.8558,2.2963,3.07227,3.7013.99606,1.13244,2.11807,2.35921,3.34477,3.63846.77591.7969,1.5833,1.61472,2.44317,2.443,7.16133,6.8784,17.10157,14.11333,27.6183,14.65859,18.58017.95414,87.081-8.5456,99.0134-10.23373a4.50144,4.50144,0,0,0,2.96731-1.73011C406.04853,609.103,414.39485,596.41577,409.13117,584.4205Z" transform="translate(-211.58508 -510.77139)"/></g><path class="l" d="M410.15872,597.73693s-85.56047,10.06593-100.5441,9.37392c-10.68466-.49285-20.50944-8.57709-25.26984-13.18012a4.61787,4.61787,0,0,0-2.17042-1.20584,3.16335,3.16335,0,0,0-.42994-.0944,4.85443,4.85443,0,0,0-3.89,1.101c-9.6255,8.15758-37.01341,31.44561-53.60121,46.27194a4.8478,4.8478,0,0,1-7.95836-2.527c-5.29516-22.575-10.37017-78.9129,39.92824-109.91815a100.17412,100.17412,0,0,1,27.241-11.67016c33.32254-8.80774,66.42479.24114,85.34044,9.29,29.52671,14.12376,31.236,40.51548,31.3093,50.529.0105,1.04854,2.3802,4.24656,3.38688,4.56111,5.46284,1.74061,15.49728,5.50482,16.02155,9.8877C420.24577,596.19555,410.15872,597.73693,410.15872,597.73693Z" transform="translate(-211.58508 -510.77139)"/><path class="m" d="M353.056,527.297s32.22942,17.506,31.07647,42.48127Z" transform="translate(-211.58508 -510.77139)"/><path class="n" d="M384.1333,571.27832c-.02295,0-.04639-.001-.07031-.002a1.49939,1.49939,0,0,1-1.4292-1.56738c1.09717-23.76172-29.97949-40.92383-30.29346-41.09375a1.50016,1.50016,0,0,1,1.43164-2.63672c1.34961.7334,33.042,18.249,31.85889,43.86914A1.5002,1.5002,0,0,1,384.1333,571.27832Z" transform="translate(-211.58508 -510.77139)"/><path class="m" d="M308.42324,529.62935c-.38335-.80026,18.92294,17.33993,19.04224,42.92688Z" transform="translate(-211.58508 -510.77139)"/><path class="n" d="M327.46533,574.05664a1.5002,1.5002,0,0,1-1.5-1.49316c-.11035-23.71-16.7334-40.19629-18.22754-41.60059a1.48436,1.48436,0,0,1-.667-.68555,1.50987,1.50987,0,0,1,1.91211-2.06836c1.24365.48438,19.86426,18.96,19.98242,44.34082a1.50009,1.50009,0,0,1-1.49316,1.50684Z" transform="translate(-211.58508 -510.77139)"/><path class="m" d="M275.48469,533.56646c-1.87655,6.81805-9.85887,32.97785-3.14561,51.37831Z" transform="translate(-211.58508 -510.77139)"/><path class="o" d="M272.33887,586.44434a1.49951,1.49951,0,0,1-1.40918-.98633c-6.53223-17.9043.47266-42.88281,2.77441-51.09082l.33447-1.19922a1.50017,1.50017,0,0,1,2.89258.79688l-.33838,1.21289c-2.2373,7.97754-9.04541,32.25586-2.84473,49.25293a1.49978,1.49978,0,0,1-1.40918,2.01367Z" transform="translate(-211.58508 -510.77139)"/><path class="m" d="M241.03852,552.88605a171.378,171.378,0,0,0-11.10673,63.05955Z" transform="translate(-211.58508 -510.77139)"/><path class="o" d="M229.93115,617.44531a1.50008,1.50008,0,0,1-1.49951-1.47461,174.63578,174.63578,0,0,1,11.2251-63.66895,1.50017,1.50017,0,0,1,2.76367,1.168,171.44568,171.44568,0,0,0-10.98877,62.4502,1.50059,1.50059,0,0,1-1.47461,1.52539Z" transform="translate(-211.58508 -510.77139)"/><path class="n" d="M421.01,589.98c-.47-3.94-6.21-7.69-16.98-11.11a9.92958,9.92958,0,0,1-2.42-3.17c-.17-23.96-11.29-41.89-32.16-51.88-10.17-4.86-46.48-19.93-86.37-9.38a101.98452,101.98452,0,0,0-27.64,11.84c-22.18,13.67-36.14,33.55-41.5,59.09-4.86,23.19-.99,44.4.89,52.45a6.31091,6.31091,0,0,0,3.39,4.25995,5.3813,5.3813,0,0,0,.89.37006,6.01389,6.01389,0,0,0,1.71.29,1.6182,1.6182,0,0,0,.22.01,6.272,6.272,0,0,0,4.21-1.63c11.8-10.55,29.16-25.45,41.4-35.88.25995-.23.53-.46.78-.67,4.96-4.23,9.01-7.67,11.4-9.69a2.3835,2.3835,0,0,1,.43-.3,3.18561,3.18561,0,0,1,1.56-.49,2.91831,2.91831,0,0,1,.72.03,1.86231,1.86231,0,0,1,.29.06,3.14386,3.14386,0,0,1,1.47.83c5.03,4.86,15.12,13.09,26.25,13.6,3.17.15,9.37-.17,17.2-.76.85-.06,1.71-.13,2.6-.2,1.04-.08,2.1-.17,3.19-.27,6.58-.55,13.95-1.24,21.46-1.99.59-.06006,1.19-.12006,1.78-.18005.56-.06,1.12-.11,1.68-.17.55-.06,1.1-.11,1.65-.17,1.3-.13,2.59-.26,3.88-.4,17.82-1.85,34.98-3.81,42.89-4.72,1.27-.15,2.31-.27,3.07-.36q.63-.07507.99-.12006c.18-.00995.31-.03.39-.04l.06-.01c.09-.01.53-.08,1.2-.24C414.53,598.3,421.74,596.01,421.01,589.98Zm-10.43,6.14c-.34.08-.56.12-.63.13-.15.02-.75.09-1.72.2-.91.11-2.15.25-3.67.43-1.12.13-2.39.27-3.8.43-10.7,1.22-29.14,3.28-46.81,5.05-2.87.28-5.71.56-8.5.83-.3.03-.59.05-.89.08-2.07.2-4.12.39-6.11.57-2.31.21-4.56.4-6.71.58-10.17.86-18.35,1.37-22.06,1.19-10.14-.47-19.57-8.19-24.28-12.75a.68973.68973,0,0,0-.13-.11c23.78-6.9,48.04-10.14,68.22-11.56,2.4-.17,4.75-.31,7.03-.44q3.50995-.18,6.8-.3c19.43-.72,32.78.16,34.26.25995a4.35045,4.35045,0,0,0,1.47.99005c2.16.69,4.05,1.37,5.69,2.05,6.48,2.63,9.11,5.03,9.29,6.58C418.48,594.05,412.57,595.68,410.58,596.12Zm-130.41-4.98a6.21134,6.21134,0,0,0-3.29,1.45c-1.08.91-2.49,2.11-4.18,3.54-2.05,1.75-4.49,3.83-7.21,6.14-3.32,2.84-7.05,6.03-10.97,9.39-10.07,8.63-21.34,18.39-30,26.09-.43.39-.85.77-1.27,1.14a3.3684,3.3684,0,0,1-1.42.75,3.28193,3.28193,0,0,1-1.81-.05,3.33427,3.33427,0,0,1-2.26-2.46,123.53086,123.53086,0,0,1-2.86-20.72c-.05-.75-.09-1.51-.11-2.28-.94-24.79,4.82-62.24,42.22-85.3a99.30346,99.30346,0,0,1,26.84-11.49q2.265-.59995,4.5-1.08A110.60393,110.60393,0,0,1,311.93,513.77a136.1032,136.1032,0,0,1,56.23,12.76c19.76,9.45,30.29,26.46,30.45,49.19a4.68738,4.68738,0,0,0,.6,1.85c-2.04-.11-5.16-.24005-9.18-.32-7.83-.17-19.07-.14-32.32.66q-3.61505.21-7.43.51-3.885.3-7.94.7c-18.97,1.86-40.48,5.38-61.46,11.8C280.64,590.99,280.41,591.07,280.17,591.14Z" transform="translate(-211.58508 -510.77139)"/><g class="p"><path d="M221.03756,639.67144a3.29767,3.29767,0,0,1-3.21114-2.58137c-1.84108-7.93566-5.61029-28.85373-.87549-51.69049,5.17408-24.95632,18.66478-44.38542,40.09732-57.74474,7.85788-4.90387,22.39609-9.756,31.76842-12.43778-11.07108,23.99128-17.31622,56.07561-9.13374,75.37632a6.41969,6.41969,0,0,0-2.84559,1.41028c-8.30433,7.11662-36.71518,31.52726-53.63308,46.81768A3.18825,3.18825,0,0,1,221.03756,639.67144Z" transform="translate(-211.58508 -510.77139)"/></g><path class="d" d="M306.17,702.27c-4.93005.44-10.7-.36-16.17.73-.0087.0018-6.41617-.46262-6.42429-.46393-2.25946-.36249-4.42792-.16742-6.365-1.38578C273.64855,698.90978,270.44186,695.96783,267,694c-3.37569-1.92687-6.757-8.5167-9.34824-14.81649A7.754,7.754,0,0,1,260.69,669.68h0c.53,3.05,2.69,13.19,8.97,21.47,2.94,3.86,9.82,12.92,18.22,8.27a68.01713,68.01713,0,0,0,7.09-4.38,7.43754,7.43754,0,0,1-.36,1.54c-.72,2.17,1.69.1,4.5-1.97-.27.28-.52.51-.71.68a2.83908,2.83908,0,0,0,1.81,4.97c1.76.04,3.33.05,4.73.02a8.84491,8.84491,0,0,0,.67,1.21C305.77,701.74,305.96,702,306.17,702.27Z" transform="translate(-211.58508 -510.77139)"/><path class="q" d="M422.9,722.39l.46,1.41-.57.7-.72.88-.48-1.49-.98,1.21-1.7,2.12.48,1.47-1.29,1.58-.5-1.54-2.68,3.32.5,1.53-1.2,1.48-.15-.09-.46-1.41-.5.62-1.32,1.65-.85,1.06006.42,1.3a17.81679,17.81679,0,0,1-3.11-2.99c-3.88-4.8-3.3-7.2-1.11-9.5.92-.97,1.88-1.97-2.19-7.79a22.90786,22.90786,0,0,0-5.77-5.99c-4.04,6.16-8.13,12.17-9.51,13.43a2.83323,2.83323,0,0,1-2.77.75c-1.42-.41-2.15-1.78-2.72-3.46-.19.43-.37.87-.55,1.29-4.37,10.19-7.78,17.42-12.12,17.19-2.98-.15-3.85-3.6-4.61-6.65a21.42622,21.42622,0,0,0-1.02-3.33c-.45.43994-1.08,1.18994-1.62,1.83a33.51171,33.51171,0,0,1-7.56,7.09c-1.37.88-3.39,1.95-5.18.95-1.98-1.11-1.92-3.64-1.86-6.08a15.82679,15.82679,0,0,0-.09-2.81c-.89.1-1.45.84-2.59,2.6-1.48,2.28-3.51,5.41-8.2,5.87-1.3.12-2.46.25-3.51.39-.68,13.68.04,16.03.19,16.37.57.95,4.7,2.85,7.42,4.11,1.93.89,3.93,1.81,5.74,2.78l7,3.76H325.81l-.41-1.46c-.07-.26-6.28-24.46-4.35-31.16a3.0798,3.0798,0,0,0-.14-.4c-.09.22-.19.59-.25995.83-.49005,1.71-1.29,4.56-6.04,5.32-.46.07-.95.13-1.46.16.13,8.38.06,18.86-.87,25.01l-.26,1.7H297.41l1.88-3.05c1.78-2.88,1.99005-13.87006.63-28.6-1.99,3.49-4.67,7.22-7.67,8.83a3.43774,3.43774,0,0,1-3.28.17c-2.22-1.1-2.75-4.42-3.35-8.27-.31-1.98-.88-5.61-1.64-6.3a1.24848,1.24848,0,0,0-.21.07c-2.02.9-2.53,2.02-3.39,3.88-1.17,2.57-2.79,6.08-9.11,9.49-3.74,2.02-6.62,3.04-8.46,1.5-1.98-1.65-1.01-4.63.11-8.07.89-2.73,2.24-6.85.87-7.85a31.0816,31.0816,0,0,0-2.71-1.75c-4.83-2.89-10.3-6.17-25.23-30.95-.35-.18-2.45-.99-8.6,2.06l-1.16.58-1-.83c-5.31-4.37-1.81-10.05.74-14.2,2.8-4.54,3.92-6.89,2.11-8.87a3.97,3.97,0,0,1-.69-3.06,5.9454,5.9454,0,0,0-.06-1.6c-.22-.06-1.19-.19-3.86.85-1.05.41-3.5,1.37-4.85-.31-1.46-1.82.09-4.12,2.64-7.92,1.34-1.99,4.47-6.66,4.07-7.88-.75-.46-1.6-.99-2.44-1.52-4.02-2.50995-7.49-4.68-7.75-7.6a3.92883,3.92883,0,0,1,1.43-3.36,15.46848,15.46848,0,0,1,1.79-1.36,6.31091,6.31091,0,0,1-3.39-4.25995c-1.88-8.05-5.75-29.26-.89-52.45,5.36-25.54,19.32-45.42,41.5-59.09a101.98452,101.98452,0,0,1,27.64-11.84c39.89-10.55,76.2,4.52,86.37,9.38,20.87,9.99,31.99,27.92,32.16,51.88a9.92958,9.92958,0,0,0,2.42,3.17c10.77,3.42,16.50995,7.17,16.98,11.11.73,6.03-6.48,8.32-9.42,9,3.02,2.37,8.87994,6.24,15.23,6.53,2.48.12,4.28.31995,4.85,1.88a2.183,2.183,0,0,1-.6,2.36c-1.59,1.47-9.18,2.38-14.15,1.78.28.46.58.92.84,1.34,3.02,4.74,5.32,8.59,5.19,11.49-.35,7.51.73,21.59,6.98,26.75,1.65,1.36,3.52,2.9,2.35,4.71-1.27,1.97-3.3.97-10.04-2.33a.142.142,0,0,1-.06-.02c.11,3.27.01,9.13-.49,19.89l-.07,1.43-1.42.48c-1.2.33-1.73.49005-5.35-4.58-1.25,5.34-2.52,13.02-1.02,16.42,2.51,5.64,1.92,11.54,1.6,14.7-.06.52-.1.96-.12,1.28a2.07009,2.07009,0,0,1-1.37,1.88c-1.14.41-1.76.63-7.05-5.01-.12.19-.25.39-.38.59a36.2331,36.2331,0,0,0,9.57,11.87c4.74,3.65,7.75,3.12,10.16,2.69a9.84679,9.84679,0,0,1,2.76-.2l-1.72,2.15-.39.49.44,1.36-.26.32-.77.94-.26.32-.12-.37-.22-.67-.13-.39-.36.45-.38.47-1.67,2.08Z" transform="translate(-211.58508 -510.77139)"/><path class="r" d="M422.9,722.39l.46,1.41-.57.7-.72.88-.48-1.49-.98,1.21-1.7,2.12.48,1.47-1.29,1.58-.5-1.54-2.68,3.32.5,1.53-1.2,1.48-.15-.09-.46-1.41-.5.62-1.32,1.65-.85,1.06006.42,1.3a17.81679,17.81679,0,0,1-3.11-2.99c-3.88-4.8-3.3-7.2-1.11-9.5.92-.97,1.88-1.97-2.19-7.79a22.90786,22.90786,0,0,0-5.77-5.99c-4.04,6.16-8.13,12.17-9.51,13.43a2.83323,2.83323,0,0,1-2.77.75c-1.42-.41-2.15-1.78-2.72-3.46-.19.43-.37.87-.55,1.29-4.37,10.19-7.78,17.42-12.12,17.19-2.98-.15-3.85-3.6-4.61-6.65a21.42622,21.42622,0,0,0-1.02-3.33c-.45.43994-1.08,1.18994-1.62,1.83a33.51171,33.51171,0,0,1-7.56,7.09c-1.37.88-3.39,1.95-5.18.95-1.98-1.11-1.92-3.64-1.86-6.08a15.82679,15.82679,0,0,0-.09-2.81c-.89.1-1.45.84-2.59,2.6-1.48,2.28-3.51,5.41-8.2,5.87-1.3.12-2.46.25-3.51.39-.68,13.68.04,16.03.19,16.37.57.95,4.7,2.85,7.42,4.11,1.93.89,3.93,1.81,5.74,2.78l7,3.76H325.81l-.41-1.46c-.07-.26-6.28-24.46-4.35-31.16a3.0798,3.0798,0,0,0-.14-.4c-.09.22-.19.59-.25995.83-.49005,1.71-1.29,4.56-6.04,5.32-.46.07-.95.13-1.46.16.13,8.38.06,18.86-.87,25.01l-.26,1.7H297.41l1.88-3.05c1.78-2.88,1.99005-13.87006.63-28.6-1.99,3.49-4.67,7.22-7.67,8.83a3.43774,3.43774,0,0,1-3.28.17c-2.22-1.1-2.75-4.42-3.35-8.27-.31-1.98-.88-5.61-1.64-6.3a1.24848,1.24848,0,0,0-.21.07c-2.02.9-2.53,2.02-3.39,3.88-1.17,2.57-2.79,6.08-9.11,9.49-3.74,2.02-6.62,3.04-8.46,1.5-1.98-1.65-1.01-4.63.11-8.07.89-2.73,2.24-6.85.87-7.85a31.0816,31.0816,0,0,0-2.71-1.75c-4.83-2.89-10.3-6.17-25.23-30.95-.35-.18-2.45-.99-8.6,2.06l-1.16.58-1-.83c-5.31-4.37-1.81-10.05.74-14.2,2.8-4.54,3.92-6.89,2.11-8.87a3.97,3.97,0,0,1-.69-3.06,5.9454,5.9454,0,0,0-.06-1.6c-.22-.06-1.19-.19-3.86.85-1.05.41-3.5,1.37-4.85-.31-1.46-1.82.09-4.12,2.64-7.92,1.34-1.99,4.47-6.66,4.07-7.88-.75-.46-1.6-.99-2.44-1.52-4.02-2.50995-7.49-4.68-7.75-7.6a3.92883,3.92883,0,0,1,1.43-3.36,15.46848,15.46848,0,0,1,1.79-1.36,6.31091,6.31091,0,0,1-3.39-4.25995c-1.88-8.05-5.75-29.26-.89-52.45,5.36-25.54,19.32-45.42,41.5-59.09a101.98452,101.98452,0,0,1,27.64-11.84c39.89-10.55,76.2,4.52,86.37,9.38,20.87,9.99,31.99,27.92,32.16,51.88a9.92958,9.92958,0,0,0,2.42,3.17c10.77,3.42,16.50995,7.17,16.98,11.11.73,6.03-6.48,8.32-9.42,9,3.02,2.37,8.87994,6.24,15.23,6.53,2.48.12,4.28.31995,4.85,1.88a2.183,2.183,0,0,1-.6,2.36c-1.59,1.47-9.18,2.38-14.15,1.78.28.46.58.92.84,1.34,3.02,4.74,5.32,8.59,5.19,11.49-.35,7.51.73,21.59,6.98,26.75,1.65,1.36,3.52,2.9,2.35,4.71-1.27,1.97-3.3.97-10.04-2.33a.142.142,0,0,1-.06-.02c.11,3.27.01,9.13-.49,19.89l-.07,1.43-1.42.48c-1.2.33-1.73.49005-5.35-4.58-1.25,5.34-2.52,13.02-1.02,16.42,2.51,5.64,1.92,11.54,1.6,14.7-.06.52-.1.96-.12,1.28a2.07009,2.07009,0,0,1-1.37,1.88c-1.14.41-1.76.63-7.05-5.01-.12.19-.25.39-.38.59a36.2331,36.2331,0,0,0,9.57,11.87c4.74,3.65,7.75,3.12,10.16,2.69a9.84679,9.84679,0,0,1,2.76-.2l-1.72,2.15-.39.49.44,1.36-.26.32-.77.94-.26.32-.12-.37-.22-.67-.13-.39-.36.45-.38.47-1.67,2.08Z" transform="translate(-211.58508 -510.77139)"/></g></svg>