<svg xmlns="http://www.w3.org/2000/svg" xmlns:xlink="http://www.w3.org/1999/xlink" viewBox="0 0 161.67 181.087"><defs><style>.r{fill:#4d4d4e}.v{fill:gray}.w{fill:#191919}</style><linearGradient id="a" x1="45.25" y1="119.295" x2="49.75" y2="114.795" gradientUnits="userSpaceOnUse"><stop offset="0" stop-color="#9d1f60"/><stop offset="1" stop-color="#9d1f60"/></linearGradient><linearGradient id="b" x1="37.585" y1="147.46" x2="57.13" y2="127.915" gradientUnits="userSpaceOnUse"><stop offset="0" stop-color="#9d1f60"/><stop offset=".027" stop-color="#9e2062"/><stop offset="1" stop-color="#ca4f9d"/></linearGradient><linearGradient id="c" x1="-7.415" y1="122.46" x2="12.13" y2="102.915" xlink:href="#b"/><linearGradient id="d" x1="74.277" y1="151.374" x2="82.814" y2="142.837" gradientUnits="userSpaceOnUse"><stop offset="0" stop-color="#0c4b27"/><stop offset=".333" stop-color="#08562d"/><stop offset="1" stop-color="#006937"/></linearGradient><linearGradient id="e" x1="-7.661" y1="117.105" x2="10.274" y2="106.75" gradientUnits="userSpaceOnUse"><stop offset="0" stop-color="#651642"/><stop offset=".61" stop-color="#8a1c56"/><stop offset="1" stop-color="#9d1f60"/></linearGradient><linearGradient id="f" x1="149.795" y1="115.17" x2="169.795" y2="95.17" xlink:href="#b"/><linearGradient id="g" x1="149.462" y1="115.168" x2="168.627" y2="96.003" xlink:href="#b"/><linearGradient id="h" x1="149.225" y1="109.98" x2="166.727" y2="99.875" xlink:href="#e"/><linearGradient id="i" x1="37.554" y1="142.482" x2="55.06" y2="132.376" xlink:href="#e"/><linearGradient id="j" x1="-6.875" y1="122.67" x2="13.125" y2="102.67" xlink:href="#b"/><linearGradient id="k" x1="38.125" y1="147.67" x2="58.542" y2="127.253" xlink:href="#b"/><linearGradient id="l" x1="39.167" y1="126.213" x2="122.502" y2="42.878" xlink:href="#b"/><linearGradient id="m" x1="38.255" y1="128.24" x2="123.06" y2="43.435" xlink:href="#b"/><linearGradient id="n" x1="10.45" y1="110.974" x2="37.051" y2="95.616" xlink:href="#e"/><linearGradient id="o" x1="104.585" y1="119.545" x2="104.585" y2="82.045" gradientUnits="userSpaceOnUse"><stop offset="0" stop-color="#651642"/><stop offset=".146" stop-color="#8a1c56"/><stop offset=".24" stop-color="#9d1f60"/></linearGradient><linearGradient id="p" x1="124.5" y1="80.458" x2="130.907" y2="74.051" xlink:href="#d"/><linearGradient id="q" x1="125.371" y1="84.251" x2="150.53" y2="109.41" gradientUnits="userSpaceOnUse"><stop offset=".44" stop-color="#006937"/><stop offset=".596" stop-color="#026c38"/><stop offset=".715" stop-color="#0a763a"/><stop offset=".822" stop-color="#17863e"/><stop offset=".921" stop-color="#289d44"/><stop offset="1" stop-color="#3bb54a"/></linearGradient><linearGradient id="r" x1="72.5" y1="69.881" x2="72.5" y2="84.209" gradientTransform="rotate(10.926 72.5 77.043)" gradientUnits="userSpaceOnUse"><stop offset="0" stop-color="#666766"/><stop offset="1" stop-color="#4d4d4e"/></linearGradient><linearGradient id="s" x1="79.967" y1="52.672" x2="66.045" y2="76.785" gradientUnits="userSpaceOnUse"><stop offset=".302" stop-color="#4d4d4e"/><stop offset="1" stop-color="#333"/></linearGradient><linearGradient id="t" x1="86.524" y1="146.621" x2="94.551" y2="138.593" xlink:href="#d"/><linearGradient id="u" x1="95.372" y1="146.577" x2="110.084" y2="131.865" xlink:href="#q"/><linearGradient id="v" x1="88" y1="154.566" x2="91" y2="154.566" gradientUnits="userSpaceOnUse"><stop offset="0" stop-color="gray"/><stop offset="1" stop-color="#333"/></linearGradient><linearGradient id="w" x1="112" y1="165.566" x2="115" y2="165.566" xlink:href="#v"/><linearGradient id="x" x1="142" y1="159.566" x2="145" y2="159.566" xlink:href="#v"/><linearGradient id="y" x1="120" y1="150.566" x2="123" y2="150.566" xlink:href="#v"/><linearGradient id="z" x1="83.371" y1="151.578" x2="98.084" y2="136.865" xlink:href="#q"/><linearGradient id="aa" x1="126.688" y1="71.222" x2="136.986" y2="71.222" gradientUnits="userSpaceOnUse"><stop offset="0" stop-color="#00a99d"/><stop offset=".197" stop-color="#13ae9d"/><stop offset=".734" stop-color="#44bb9f"/><stop offset="1" stop-color="#57c09f"/></linearGradient><linearGradient id="ab" x1="118.099" y1="149.225" x2="118.099" y2="76.948" gradientUnits="userSpaceOnUse"><stop offset="0" stop-color="#006937"/><stop offset="1" stop-color="#3bb54a"/></linearGradient><linearGradient id="ac" x1="128.965" y1="111" x2="128.965" y2="155.895" gradientUnits="userSpaceOnUse"><stop offset="0" stop-color="#662f90"/><stop offset="1" stop-color="#272361"/></linearGradient><linearGradient id="ad" x1="88.579" y1="83.693" x2="98.112" y2="74.16" gradientUnits="userSpaceOnUse"><stop offset="0" stop-color="#00a99d"/><stop offset=".135" stop-color="#13ae9d"/><stop offset=".502" stop-color="#44bb9f"/><stop offset=".684" stop-color="#57c09f"/></linearGradient><linearGradient id="ae" x1="58.983" y1="109.267" x2="65.226" y2="103.024" xlink:href="#d"/><linearGradient id="af" x1="77.87" y1="122.986" x2="84.393" y2="111.686" gradientUnits="userSpaceOnUse"><stop offset="0" stop-color="#006937"/><stop offset=".212" stop-color="#0d7a3b"/><stop offset="1" stop-color="#3bb54a"/></linearGradient><linearGradient id="ag" x1="18.72" y1="92.164" x2="124.547" y2="-13.663" gradientUnits="userSpaceOnUse"><stop offset="0" stop-color="#0d71ba"/><stop offset=".159" stop-color="#0a81c3"/><stop offset=".787" stop-color="#00bce3"/></linearGradient></defs><path fill="url(#a)" d="M46 114.045h3v6h-3z"/><path fill="url(#b)" d="M49 119.785v36.76l-1.5.5-1-.67v-38.33l1 .7 1.5 1.04z"/><path fill="url(#c)" d="M4 94.785v36.76l-1.5.5-1-.67v-38.33l1 .7 1.5 1.04z"/><path d="M82.649 150.8a6.892 6.892 0 0 1-1.016.411 7.854 7.854 0 0 1-4.791-.119 8.392 8.392 0 0 0-1.663-.942c-1.777-.751-2.885-.477-3.179-1.109-.268-.575.3-1.565 1-2 1.183-.731 3.2-.166 4.895 1.57l-1.5-1.587c-1.743-.773-2.638-2.057-2.394-2.983a1.538 1.538 0 0 1 1-1c1.158-.375 2.84.753 4.1 2.888l.75.879c.121.142-.388-1.481-.853-3.767-.264-1.3-.263-1.723 0-2a1.674 1.674 0 0 1 2 0c.954.71.954 2.592.955 4.9a4.294 4.294 0 0 0 .034.538 5.659 5.659 0 0 0 1.037 2.112 1.771 1.771 0 0 1 .164 1.6 1.508 1.508 0 0 1-.539.609z" fill="url(#d)"/><path fill="url(#e)" d="M2.5 93.285v38.76l-1-.67-1.5-1v-38.5l2.5 1.41z"/><path fill="url(#f)" d="M161.67 87.045v36.67l-1 .33-1.5.5v-39.17l2.5 1.67z"/><path fill="url(#g)" d="M160.67 88.045v36l-1.5.5-1-.67v-37.5l1 .67 1.5 1z"/><path fill="url(#h)" d="M159.17 86.785v37.76l-1-.67-1.5-1v-37.5l2.5 1.41z"/><path fill="#412312" d="M114.167 107.045l2.5-.833V69.545l-2.5-1.667v39.167z"/><path fill="#5f3916" d="M111.667 67.878v37.5l2.5 1.667V69.282l-2.5-1.404z"/><path fill="url(#i)" d="M45 117.878v37.5l2.5 1.667v-37.763l-2.5-1.404z"/><path fill="url(#j)" d="M5 94.545v36.67l-1 .33-1.5.5v-39.17l2.5 1.67z"/><path fill="url(#k)" d="M47.5 157.045l2.5-.833v-37.5l-2.5-.834v39.167z"/><path fill="url(#l)" d="M161.67 82.045L47.5 113.715 0 87.045l115-30 46.67 25z"/><path fill="url(#m)" d="M161.67 82.045v2.23L47.5 116.715 0 89.985v-2.94l115-30 46.67 25z"/><path fill="url(#n)" d="M47.5 113.715v5.83L0 92.875v-5.83l47.5 26.67z"/><path fill="url(#o)" d="M161.67 82.045v5.83L47.5 119.545v-5.83l114.17-31.67z"/><path class="r" d="M57.334 106.285L43 98.238l53.549-14.193 14.082 7.544-53.297 14.696z"/><path d="M43 98.238v1.76l14.334 8.047v-1.76L43 98.238zm67.631-6.649v1.76l-53.297 14.696v-1.76l53.297-14.696z" fill="#333"/><path d="M129.434 80.366a12.848 12.848 0 0 1-4.775-.41 2.238 2.238 0 0 1-1.6-1.042 2.115 2.115 0 0 1-.209-1.366c.3-2.11 3.013 0 3.013 0l-1.4-1.675a1.474 1.474 0 0 1-.118-1.5 1.371 1.371 0 0 1 .923-.694 1.927 1.927 0 0 1 1.966 1.267l.695.924-.262-1.939c-.1-.824.187-1.487.643-1.656.065-.024.325-.12.862.147.986.493 1.945 2.874 1.945 2.874a12.05 12.05 0 0 1 .815 3.055 1.66 1.66 0 0 1-.06 1c-.158.312-.583.812-2.438 1.015z" fill="url(#p)"/><path d="M145.462 104.738v-.3a42.473 42.473 0 0 0-3.628-15.938s-3.678-8.763-8.8-10.1a4.191 4.191 0 0 0-.971-.127c-2-.045-1.045 1.977-1.045 1.977a27.566 27.566 0 0 1 6.839 7.158c4.386 6.7 4.564 13.568 4.61 17.11a37.239 37.239 0 0 1-.9 8.623 3.216 3.216 0 0 0 .72 2.938 1.124 1.124 0 0 0 .9.458q1.87-.237 2.275-11.799z" fill="url(#q)"/><path class="v" d="M84.131 96.722l-1.638-.92 2.015-.477 1.609.862-1.986.535z"/><path class="w" d="M82.493 95.802v.201l1.638.92v-.201l-1.638-.92zm3.624.385v.202l-1.986.534v-.201l1.986-.535z"/><path class="v" d="M87.093 95.735l-1.638-.92 2.015-.477 1.609.862-1.986.535z"/><path class="w" d="M85.455 94.815v.201l1.638.92v-.201l-1.638-.92z"/><path class="w" d="M89.079 95.2v.201l-1.986.535v-.201l1.986-.535z"/><path class="v" d="M90.055 95.241l-1.639-.92 2.016-.477 1.609.862-1.986.535z"/><path class="w" d="M88.416 94.321v.201l1.639.92v-.201l-1.639-.92zm3.625.385v.202l-1.986.534v-.201l1.986-.535z"/><path class="v" d="M93.017 94.747l-1.639-.919 2.015-.478 1.61.863-1.986.534z"/><path class="w" d="M91.378 93.828v.201l1.639.92v-.202l-1.639-.919zm3.625.385v.201l-1.986.535v-.202l1.986-.534z"/><path class="v" d="M97.46 93.76l-1.639-.92 2.015-.477 1.61.862-1.986.535z"/><path class="w" d="M95.821 92.84v.202l1.639.919v-.201l-1.639-.92zm3.625.385v.202l-1.986.534v-.201l1.986-.535z"/><path class="v" d="M100.915 92.773l-1.638-.92 2.015-.477 1.61.862-1.987.535z"/><path class="w" d="M99.277 91.853v.201l1.638.92v-.201l-1.638-.92zm3.625.385v.201l-1.987.535v-.201l1.987-.535z"/><path class="v" d="M104.371 91.786l-1.638-.92 2.015-.477 1.609.862-1.986.535z"/><path class="w" d="M102.733 90.866v.201l1.638.92v-.201l-1.638-.92z"/><path class="w" d="M106.357 91.251v.201l-1.986.535v-.201l1.986-.535z"/><path class="v" d="M98.447 91.292l-1.638-.92 2.015-.477 1.609.862-1.986.535z"/><path class="w" d="M96.809 90.372v.201l1.638.92v-.201l-1.638-.92zm3.624.385v.201l-1.986.535v-.201l1.986-.535z"/><path class="v" d="M93.017 90.305l-1.639-.92 2.015-.477 1.61.862-1.986.535z"/><path class="w" d="M91.378 89.385v.201l1.639.92v-.201l-1.639-.92zm3.625.385v.201l-1.986.535v-.201l1.986-.535z"/><path class="v" d="M91.042 88.824l-1.638-.92 2.015-.477 1.61.862-1.987.535z"/><path class="w" d="M89.404 87.904v.201l1.638.92v-.201l-1.638-.92zm3.625.385v.201l-1.987.535v-.201l1.987-.535z"/><path class="v" d="M94.004 87.836l-1.638-.92 2.015-.477 1.61.863-1.987.534z"/><path class="w" d="M92.366 86.916v.202l1.638.919v-.201l-1.638-.92zm3.625.386v.201l-1.987.534v-.201l1.987-.534z"/><path class="v" d="M96.472 89.317l-1.638-.92 2.015-.477 1.61.863-1.987.534z"/><path class="w" d="M94.834 88.397v.202l1.638.919v-.201l-1.638-.92zm3.625.386v.201l-1.987.534v-.201l1.987-.534z"/><path class="v" d="M99.928 88.33l-1.638-.92 2.015-.477 1.609.862-1.986.535z"/><path class="w" d="M98.29 87.41v.201l1.638.92v-.201l-1.638-.92z"/><path class="w" d="M101.914 87.795v.201l-1.986.535v-.201l1.986-.535z"/><path class="v" d="M97.46 86.849l-1.639-.92 2.015-.477 1.61.862-1.986.535z"/><path class="w" d="M95.821 85.929v.201l1.639.92v-.201l-1.639-.92zm3.625.385v.202l-1.986.534v-.201l1.986-.535z"/><path class="v" d="M61.423 102.646l-1.639-.92 2.015-.477 1.61.862-1.986.535z"/><path class="w" d="M59.784 101.726v.201l1.639.92v-.201l-1.639-.92zm3.625.385v.202l-1.986.534v-.201l1.986-.535z"/><path class="v" d="M64.385 101.659l-1.639-.92 2.015-.477 1.61.862-1.986.535z"/><path class="w" d="M62.746 100.739v.201l1.639.92v-.201l-1.639-.92z"/><path class="w" d="M66.371 101.124v.201l-1.986.535v-.201l1.986-.535z"/><path class="v" d="M67.84 100.671l-1.638-.919 15.344-3.933 1.609.862-15.315 3.99z"/><path class="w" d="M66.202 99.752v.201l1.638.92v-.202l-1.638-.919zm16.953-3.071v.201l-15.315 3.991v-.202l15.315-3.99z"/><path class="v" d="M50.069 100.178l-1.639-.92 2.015-.477 1.61.862-1.986.535z"/><path class="w" d="M48.43 99.258v.201l1.639.92v-.201l-1.639-.92zm3.625.385v.201l-1.986.535v-.201l1.986-.535z"/><path class="v" d="M53.723 102.536l-1.639-.92 3.496-.971 1.61.862-3.467 1.029z"/><path class="w" d="M52.084 101.616v.201l1.639.92v-.201l-1.639-.92z"/><path class="w" d="M57.19 101.507v.202l-3.467 1.028v-.201l3.467-1.029z"/><path class="v" d="M90.253 93.65l-1.638-.92 3.496-.971 1.61.862-3.468 1.029z"/><path class="w" d="M88.615 92.73v.201l1.638.92v-.201l-1.638-.92zm5.106-.109v.202l-3.468 1.028v-.201l3.468-1.029z"/><path class="v" d="M53.243 99.108l-1.638-.92 2.015-.477 1.609.862-1.986.535z"/><path class="w" d="M51.605 98.188v.201l1.638.92v-.201l-1.638-.92zm3.624.385v.201l-1.986.535v-.201l1.986-.535z"/><path class="v" d="M56.177 98.374l-1.638-.92 2.015-.477 1.61.862-1.987.535z"/><path class="w" d="M54.539 97.454v.201l1.638.92v-.201l-1.638-.92zm3.625.385v.202l-1.987.534v-.201l1.987-.535z"/><path class="v" d="M59.112 97.64l-1.639-.919 2.015-.478 1.61.863-1.986.534z"/><path class="w" d="M57.473 96.721v.201l1.639.92v-.202l-1.639-.919zm3.625.385v.201l-1.986.535v-.202l1.986-.534z"/><path class="v" d="M62.046 96.907l-1.638-.92 2.015-.477 1.609.862-1.986.535z"/><path class="w" d="M60.408 95.987v.201l1.638.92v-.201l-1.638-.92zm3.624.385v.201l-1.986.535v-.201l1.986-.535z"/><path class="v" d="M64.98 96.173l-1.638-.92 2.015-.477 1.61.863-1.987.534z"/><path class="w" d="M63.342 95.253v.202l1.638.919v-.201l-1.638-.92zm3.625.386v.201l-1.987.534v-.201l1.987-.534z"/><path class="v" d="M67.915 95.44l-1.639-.92 2.015-.477 1.61.862-1.986.535z"/><path class="w" d="M66.276 94.52v.201l1.639.92v-.201l-1.639-.92zm3.625.385v.201l-1.986.535v-.201l1.986-.535z"/><path class="v" d="M70.849 94.706l-1.638-.92 2.015-.477 1.609.862-1.986.535z"/><path class="w" d="M69.211 93.786v.201l1.638.92v-.201l-1.638-.92z"/><path class="w" d="M72.835 94.171v.202l-1.986.534v-.201l1.986-.535z"/><path class="v" d="M73.783 93.972l-1.638-.919 2.015-.478 1.61.863-1.987.534z"/><path class="w" d="M72.145 93.053v.201l1.638.92v-.202l-1.638-.919zm3.625.385v.201l-1.987.535v-.202l1.987-.534z"/><path class="v" d="M76.718 93.239l-1.639-.92 2.015-.477 1.61.862-1.986.535z"/><path class="w" d="M75.079 92.319v.201l1.639.92v-.201l-1.639-.92zm3.625.385v.201l-1.986.535v-.201l1.986-.535z"/><path class="v" d="M79.652 92.505l-1.638-.92 2.015-.477 1.609.863-1.986.534z"/><path class="w" d="M78.014 91.585v.202l1.638.92v-.202l-1.638-.92zm3.624.386v.201l-1.986.535v-.202l1.986-.534z"/><path class="v" d="M82.587 91.772l-1.639-.92 2.015-.477 1.61.862-1.986.535z"/><path class="w" d="M80.948 90.852v.201l1.639.92v-.201l-1.639-.92zm3.625.385v.201l-1.986.535v-.201l1.986-.535z"/><path class="v" d="M85.521 91.038l-1.639-.92 2.015-.477 1.61.862-1.986.535z"/><path class="w" d="M83.882 90.118v.202l1.639.919v-.201l-1.639-.92zm3.625.385v.202l-1.986.534v-.201l1.986-.535z"/><path class="v" d="M56.911 99.841l-1.639-.92 2.016-.477 1.609.863-1.986.534z"/><path class="w" d="M55.272 98.921v.202l1.639.919v-.201l-1.639-.92zm3.625.386v.201l-1.986.534v-.201l1.986-.534z"/><path class="v" d="M57.645 101.308l-1.639-.919 2.015-.478 1.61.863-1.986.534z"/><path class="w" d="M56.006 100.389v.201l1.639.92v-.202l-1.639-.919zm3.625.385v.201l-1.986.535v-.202l1.986-.534z"/><path class="v" d="M51.776 101.308l-1.639-.919 4.216-1.211 1.61.862-4.187 1.268z"/><path class="w" d="M50.137 100.389v.201l1.639.92v-.202l-1.639-.919zm5.826-.349v.201l-4.187 1.269v-.202l4.187-1.268z"/><path class="v" d="M56.177 104.003l-1.638-.92 4.216-1.211 1.609.863-4.187 1.268z"/><path class="w" d="M54.539 103.083v.201l1.638.92v-.201l-1.638-.92zm5.825-.348v.201l-4.187 1.268v-.201l4.187-1.268z"/><path class="v" d="M60.579 100.575l-1.639-.92 2.015-.477 1.61.862-1.986.535z"/><path class="w" d="M58.94 99.655v.201l1.639.92v-.201l-1.639-.92zm3.625.385v.201l-1.986.535v-.201l1.986-.535z"/><path class="v" d="M59.845 99.108l-1.638-.92 2.015-.477 1.61.862-1.987.535z"/><path class="w" d="M58.207 98.188v.201l1.638.92v-.201l-1.638-.92zm3.625.385v.201l-1.987.535v-.201l1.987-.535z"/><path class="v" d="M62.78 98.374l-1.639-.92 2.015-.477 1.61.862-1.986.535z"/><path class="w" d="M61.141 97.454v.201l1.639.92v-.201l-1.639-.92zm3.625.385v.202l-1.986.534v-.201l1.986-.535z"/><path class="v" d="M65.714 97.64l-1.638-.919 2.015-.478 1.609.863-1.986.534z"/><path class="w" d="M64.076 96.721v.201l1.638.92v-.202l-1.638-.919zm3.624.385v.201l-1.986.535v-.202l1.986-.534z"/><path class="v" d="M68.648 96.907l-1.638-.92 2.015-.477 1.61.862-1.987.535z"/><path class="w" d="M67.01 95.987v.201l1.638.92v-.201l-1.638-.92zm3.625.385v.201l-1.987.535v-.201l1.987-.535z"/><path class="v" d="M71.583 96.173l-1.639-.92 2.015-.477 1.61.863-1.986.534z"/><path class="w" d="M69.944 95.253v.202l1.639.919v-.201l-1.639-.92zm3.625.386v.201l-1.986.534v-.201l1.986-.534z"/><path class="v" d="M74.517 95.44l-1.638-.92 2.015-.477 1.609.862-1.986.535z"/><path class="w" d="M72.879 94.52v.201l1.638.92v-.201l-1.638-.92z"/><path class="w" d="M76.503 94.905v.201l-1.986.535v-.201l1.986-.535z"/><path class="v" d="M77.451 94.706l-1.638-.92 2.015-.477 1.61.862-1.987.535z"/><path class="w" d="M75.813 93.786v.201l1.638.92v-.201l-1.638-.92zm3.625.385v.202l-1.987.534v-.201l1.987-.535z"/><path class="v" d="M80.386 93.972l-1.639-.919 2.015-.478 1.61.863-1.986.534z"/><path class="w" d="M78.747 93.053v.201l1.639.92v-.202l-1.639-.919zm3.625.385v.201l-1.986.535v-.202l1.986-.534z"/><path class="v" d="M83.32 93.239l-1.638-.92 2.015-.477 1.609.862-1.986.535z"/><path class="w" d="M81.682 92.319v.201l1.638.92v-.201l-1.638-.92z"/><path class="w" d="M85.306 92.704v.201l-1.986.535v-.201l1.986-.535z"/><path class="v" d="M86.254 92.505l-1.638-.92 2.015-.477 1.61.863-1.987.534z"/><path class="w" d="M84.616 91.585v.202l1.638.92v-.202l-1.638-.92zm3.625.386v.201l-1.987.535v-.202l1.987-.534z"/><path class="v" d="M89.189 91.772l-1.639-.92 2.015-.477 1.61.862-1.986.535z"/><path class="w" d="M87.55 90.852v.201l1.639.92v-.201l-1.639-.92zm3.625.385v.201l-1.986.535v-.201l1.986-.535z"/><path class="v" d="M63.513 99.841l-1.638-.92 2.015-.477 1.61.863-1.987.534z"/><path class="w" d="M61.875 98.921v.202l1.638.919v-.201l-1.638-.92zm3.625.386v.201l-1.987.534v-.201l1.987-.534z"/><path class="v" d="M66.448 99.108l-1.639-.92 2.015-.477 1.61.862-1.986.535z"/><path class="w" d="M64.809 98.188v.201l1.639.92v-.201l-1.639-.92zm3.625.385v.201l-1.986.535v-.201l1.986-.535z"/><path class="v" d="M69.382 98.374l-1.639-.92 2.016-.477 1.609.862-1.986.535z"/><path class="w" d="M67.743 97.454v.201l1.639.92v-.201l-1.639-.92zm3.625.385v.202l-1.986.534v-.201l1.986-.535z"/><path class="v" d="M72.316 97.64l-1.638-.919 2.015-.478 1.61.863-1.987.534z"/><path class="w" d="M70.678 96.721v.201l1.638.92v-.202l-1.638-.919zm3.625.385v.201l-1.987.535v-.202l1.987-.534z"/><path class="v" d="M75.251 96.907l-1.639-.92 2.015-.477 1.61.862-1.986.535z"/><path class="w" d="M73.612 95.987v.201l1.639.92v-.201l-1.639-.92zm3.625.385v.201l-1.986.535v-.201l1.986-.535z"/><path class="v" d="M78.185 96.173l-1.638-.92 2.015-.477 1.609.863-1.986.534z"/><path class="w" d="M76.547 95.253v.202l1.638.919v-.201l-1.638-.92zm3.624.386v.201l-1.986.534v-.201l1.986-.534z"/><path class="v" d="M81.119 95.44l-1.638-.92 2.015-.477 1.61.862-1.987.535z"/><path class="w" d="M79.481 94.52v.201l1.638.92v-.201l-1.638-.92zm3.625.385v.201l-1.987.535v-.201l1.987-.535z"/><path class="v" d="M84.054 94.706l-1.639-.92 2.015-.477 1.61.862-1.986.535z"/><path class="w" d="M82.415 93.786v.201l1.639.92v-.201l-1.639-.92zm3.625.385v.202l-1.986.534v-.201l1.986-.535z"/><path class="v" d="M86.988 93.972l-1.638-.919 2.015-.478 1.609.863-1.986.534z"/><path class="w" d="M85.35 93.053v.201l1.638.92v-.202l-1.638-.919zm3.624.385v.201l-1.986.535v-.202l1.986-.534z"/><ellipse cx="72.5" cy="77.045" rx="21.5" ry="6" transform="rotate(-10.926 72.498 77.045)" fill="url(#r)"/><path d="M74 78.045a10.747 10.747 0 0 1-5.083 0c-.157-.027-.235-.042-.313-.057a4.485 4.485 0 0 1-3.535-3.546l-.035-.2a8.732 8.732 0 0 1-.114-1.272 4.538 4.538 0 0 1 .109-1.058L69.056 53.7a4.523 4.523 0 0 1 5.394-3.44l1.488.329a4.523 4.523 0 0 1 3.531 4.792L78 73.045a5.363 5.363 0 0 1-1 3 5.605 5.605 0 0 1-3 2z" fill="url(#s)"/><ellipse class="r" cx="118.5" cy="83.545" rx="3.5" ry="5.5" transform="rotate(-30 118.5 83.546)"/><path d="M94.649 145.8a6.892 6.892 0 0 1-1.016.411 7.854 7.854 0 0 1-4.791-.119 8.392 8.392 0 0 0-1.663-.942c-1.777-.751-2.885-.477-3.179-1.109-.268-.575.3-1.565 1-2 1.183-.731 3.2-.166 4.895 1.57l-1.5-1.587c-1.558-.419-2.474-1.284-2.394-1.983.073-.634.949-.98 1-1 1.171-.446 2.776.324 4.1 1.888l.75.879a6.546 6.546 0 0 0-.38-1.919c-.628-1.739-1.7-2.32-1.473-2.848.262-.6 2.08-.825 3 0 .867.777.055 1.7.955 3.9a12.916 12.916 0 0 0 1.071 2.65 1.771 1.771 0 0 1 .164 1.6 1.508 1.508 0 0 1-.539.609z" fill="url(#t)"/><path d="M113 140.045a44.433 44.433 0 0 0-11-7 5.768 5.768 0 0 0-4 1 5.833 5.833 0 0 0-2 3c-.536 1.573 0 7 0 7s-1 3-2 1-1-7-1-7a8.937 8.937 0 0 1 2-5 8.342 8.342 0 0 1 5-3c1.8-.253 3.891.828 8 3 2.25 1.19 7 4 7 4s5 3-2 3z" fill="url(#u)"/><path d="M91 140.025v29.61a2.708 2.708 0 0 1-1 .41 2.877 2.877 0 0 1-2-.41v-29.61c0-.54.68-.98 1.5-.98s1.5.44 1.5.98z" fill="url(#v)"/><path d="M115 151.025v29.61a2.708 2.708 0 0 1-1 .41 2.877 2.877 0 0 1-2-.41v-29.61c0-.54.68-.98 1.5-.98s1.5.44 1.5.98z" fill="url(#w)"/><path d="M145 146.025v27.61a2.708 2.708 0 0 1-1 .41 2.877 2.877 0 0 1-2-.41v-27.61c0-.54.68-.98 1.5-.98s1.5.44 1.5.98z" fill="url(#x)"/><path d="M123 136.025v29.61a2.708 2.708 0 0 1-1 .41 2.877 2.877 0 0 1-2-.41v-29.61c0-.54.68-.98 1.5-.98s1.5.44 1.5.98z" fill="url(#y)"/><path d="M145.91 145.125v.01a2.955 2.955 0 0 1-.67 1.56l-.15.06-29.14 9.09a.109.109 0 0 1-.05.01l-.4.13a1.406 1.406 0 0 1-1.1-.12l-.55-.31c-.02-.01-.04-.01-.05-.02l-.39-.22-25.77-14.47a1.21 1.21 0 0 1 .32-2.25l24.04-6.43 7.35-1.96a1.378 1.378 0 0 1 1.05.13l24.96 14.18a1.281 1.281 0 0 1 .55.61z" fill="#272361"/><path d="M104.73 143.935c0 .58-.78 1.07-3.39 1.1-.23-.09-.46-.18-.69-.28a40.131 40.131 0 0 0-3.53-2.71c-.85-.59-1.69-1.13-2.52-1.61a43.589 43.589 0 0 0-4.6-2.39 5.36 5.36 0 0 0-6 4c-.54 1.57 0 7 0 7s-.56 1.69-1.27 1.69c-.23 0-.48-.19-.73-.69-1-2-1-7-1-7a8.959 8.959 0 0 1 2-5 8.336 8.336 0 0 1 5-3c1.36-.19 2.88.38 5.31 1.6.79.4 1.68.87 2.69 1.4 2.25 1.19 7 4 7 4s1.73 1.04 1.73 1.89z" fill="url(#z)"/><path d="M136.94 64.8a3.991 3.991 0 0 1-3.08 3.3 1.087 1.087 0 0 1-.01.18l-1.25 11.36a3.442 3.442 0 0 1-.12.64 6.335 6.335 0 0 1-.26.72 1.173 1.173 0 0 1-.05.11 2.116 2.116 0 0 1-2.1 1.44c-.04-.01-.07-.01-.15-.03a3.865 3.865 0 0 1-2.19-.91 3.234 3.234 0 0 1-.96-1.71 4.429 4.429 0 0 1 .06-1.94l2.26-10.56a4 4 0 0 1 1.92-7.51 4.047 4.047 0 0 1 .6.05l1.98.31a4 4 0 0 1 3.35 4.55z" fill="url(#aa)"/><path d="M148 114.045c-.03 9.8-.07 20.83-7 27.99-8.09 8.35-23.75 9.53-39.66 3-.23-.09-.46-.18-.69-.28q-1.455-.615-2.91-1.32a7.066 7.066 0 0 1-3.14-3 6.612 6.612 0 0 1-.53-1.25c-.26-.81-.51-1.65-.76-2.54a111.651 111.651 0 0 1-3.31-15.6c-2.12-15.31-3.34-24.1 2-32 6.21-9.18 18.28-12.75 28-12 3.33.26 13.65 1.58 21 10 7.07 8.1 7.03 17.78 7 27z" fill="url(#ab)"/><path d="M145.93 144.735a2.549 2.549 0 0 1-.02.39v.01a2.955 2.955 0 0 1-.67 1.56 3.477 3.477 0 0 1-1.65 1.06l-27.17 7.99a2.827 2.827 0 0 1-.47.1.109.109 0 0 1-.05.01 3.539 3.539 0 0 1-2.05-.3c-.02-.01-.04-.01-.05-.02l-.39-.22a3.024 3.024 0 0 1-1.41-2.51v-32.39a3.143 3.143 0 0 1 2.52-2.98l26.17-6.33a3.335 3.335 0 0 1 4.25 2.89z" fill="url(#ac)"/><path d="M99.25 86.925a3.1 3.1 0 0 1-.54 1.88 3.91 3.91 0 0 1-1.92 1.4 1.182 1.182 0 0 1-.13.06 2.12 2.12 0 0 1-2.38-.91c-.02-.03-.05-.06-.07-.09-.16-.23-.3-.44-.42-.65a2.881 2.881 0 0 1-.27-.59l-3.79-10.59a4 4 0 0 1-2.4-7.53l1.79-.89a4.018 4.018 0 0 1 5.36 1.81 3.977 3.977 0 0 1 .41 1.76 4.023 4.023 0 0 1-.89 2.53c.03.05.06.11.09.17l4.65 9.77a4.278 4.278 0 0 1 .51 1.87z" fill="url(#ad)"/><path d="M62.115 109.986a12.887 12.887 0 0 1-4.331-2.052 2.242 2.242 0 0 1-1.137-1.536 2.109 2.109 0 0 1 .281-1.353c1.016-1.873 2.825 1.048 2.825 1.048l-.728-2.06a1.474 1.474 0 0 1 .414-1.448 1.37 1.37 0 0 1 1.107-.328 1.926 1.926 0 0 1 1.4 1.874l.328 1.108.432-1.908c.2-.806.694-1.328 1.181-1.328.069 0 .347 0 .756.439.752.807.819 3.372.819 3.372a12.027 12.027 0 0 1-.3 3.148 1.662 1.662 0 0 1-.405.914c-.257.247-.832.568-2.642.11z" fill="url(#ae)"/><path d="M89.15 124.043c-.1 0-.2 0-.3-.007A42.465 42.465 0 0 1 73 120.045s-8.677-3.877-9.9-9.026a4.129 4.129 0 0 1-.1-.974c0-2 2-1 2-1a27.553 27.553 0 0 0 7 7c6.6 4.538 13.46 4.873 17 5a37.25 37.25 0 0 0 8.642-.7 3.22 3.22 0 0 1 2.921.788 1.125 1.125 0 0 1 .437.914q-.282 1.853-11.85 1.996z" fill="url(#af)"/><path d="M139.256 1.045v46s-61 3-133.4 32.253L5 30.467C71.256 4.045 139.256 1.045 139.256 1.045z" stroke="#333" stroke-miterlimit="10" stroke-width="2" fill="url(#ag)"/></svg>