<svg xmlns="http://www.w3.org/2000/svg" viewBox="0 0 163.184 66.81"><path fill="#bd00ff" d="M95.111 12.023l9.395-3.492-9.395-3.671V0l16.09 6.479v4.032l-16.09 6.515v-5.003z"/><path d="M6.191 43.015C2.808 43.015 0 41.287 0 37.472v-.216C0 32.612 4.031 31.1 8.891 31.1h2.34v-.9c0-1.872-.828-3.024-2.771-3.024a2.583 2.583 0 0 0-2.844 2.448H.576C.935 25.449 4.247 23.4 8.711 23.4c4.535 0 7.775 1.944 7.775 6.623v12.6h-5.147v-2.16a5.964 5.964 0 0 1-5.148 2.552zm5.039-6.659v-1.8H9.142c-2.592 0-3.923.72-3.923 2.411v.18c0 1.3.792 2.2 2.556 2.2 1.8-.003 3.455-1.011 3.455-2.991zm17.17 6.659c-5.219 0-9-3.239-9-9.61v-.252c0-6.371 4.031-9.755 9.034-9.755 4.283 0 7.812 2.16 8.243 7.091h-5.035c-.324-1.835-1.26-3.023-3.1-3.023-2.232 0-3.779 1.764-3.779 5.472v.576c0 3.815 1.367 5.543 3.815 5.543 1.8 0 3.131-1.332 3.419-3.384h4.793c-.36 4.282-3.276 7.342-8.39 7.342zm19.584 0c-5.219 0-9-3.239-9-9.61v-.252c0-6.371 4.031-9.755 9.034-9.755 4.283 0 7.812 2.16 8.243 7.091h-5.035c-.324-1.835-1.26-3.023-3.1-3.023-2.232 0-3.779 1.764-3.779 5.472v.576c0 3.815 1.367 5.543 3.815 5.543 1.8 0 3.131-1.332 3.419-3.384h4.788c-.355 4.282-3.269 7.342-8.383 7.342zm19.728 0c-5.435 0-9.143-3.239-9.143-9.5v-.36c0-6.3 3.923-9.755 8.962-9.755 4.68 0 8.6 2.628 8.6 8.854v2.269H63.9c.216 3.383 1.655 4.679 3.923 4.679a3.251 3.251 0 0 0 3.456-2.447h4.859c-.577 3.56-3.492 6.26-8.423 6.26zm-3.741-11.987h7.056c-.108-2.772-1.368-3.959-3.456-3.959-1.656 0-3.171.9-3.6 3.959zm15.408-7.234h5.255V26.6a6.125 6.125 0 0 1 5.687-3.2c3.42 0 5.687 2.052 5.687 6.623v12.6h-5.255v-11.81c0-2.2-.9-3.168-2.808-3.168a3.15 3.15 0 0 0-3.311 3.492v11.482h-5.255zm26.459-5.687v5.688h3.6v3.923h-3.6v8.927c0 1.4.647 2.052 1.872 2.052a4.533 4.533 0 0 0 1.835-.323v4.1a10.74 10.74 0 0 1-2.951.4c-4.1 0-6.047-1.872-6.047-5.687v-9.47h-2.2v-3.923h2.2v-3.528zm23.4 24.513h-5.256v-2.772a5.735 5.735 0 0 1-5.472 3.167c-3.383 0-5.867-2.052-5.867-6.479V23.794h5.292v11.95c0 2.159.863 3.167 2.735 3.167a3.167 3.167 0 0 0 3.311-3.491V23.794h5.256zm3.817-18.825h5.255v3.455a5.616 5.616 0 0 1 5.651-3.707v5.183c-3.564 0-5.651 1.08-5.651 4.212v9.683h-5.255zm21.707 19.221c-5.436 0-9.143-3.239-9.143-9.5v-.36c0-6.3 3.923-9.755 8.962-9.755 4.68 0 8.6 2.628 8.6 8.854v2.269h-12.235c.216 3.383 1.655 4.679 3.923 4.679a3.251 3.251 0 0 0 3.456-2.447h4.859c-.576 3.559-3.491 6.259-8.422 6.259zm-3.744-11.986h7.056c-.108-2.772-1.368-3.959-3.456-3.959-1.656-.002-3.168.898-3.601 3.957z"/></svg>