<svg xmlns="http://www.w3.org/2000/svg" viewBox="0 0 236.813 238.313" fill="#002b5c"><path d="M53.482 119.155A64.819 64.819 0 0 1 126.2 54.713a351.527 351.527 0 0 0-7.563 11.05h-.028a52.527 52.527 0 0 0-32.121 94.093 238.075 238.075 0 0 0-4.282 13.2 64.858 64.858 0 0 1-28.721-53.9zm64.924 64.926a65.036 65.036 0 0 1-16.512-2.125q3.808-6.2 7.725-11.9a52.519 52.519 0 0 0 47.339-87.641 365.032 365.032 0 0 1 8.634-7.828 64.908 64.908 0 0 1-47.185 109.5z"/><path d="M129.129 107.864l18.783 7.231s-27.449 26.336-51.958 70.441l11.469 2.014-28.03 17.307-5.623-30.114 9.116 7.454s7.76-33.45 24.086-58.4l-13.687-6.621C115.272 70.338 139.9 44.179 139.9 44.179l45.4 6.028s-45.7 38.158-56.176 57.658zM95.741 226.588l-.435-.116c-1.388-.372-3.545-.741-3.016-2.715.483-1.8 2.591-1.166 3.85-.829l.543.145-.942 3.515zm-.486-7.385c-2.994-.8-6.226-.459-7.144 2.969-.61 2.278-.037 4.129 2.225 5.061l-.012.044a3.515 3.515 0 0 0-2.7 2.858c-.837 3.124.813 4.776 3.721 5.555l6.075 1.628 4.383-16.359-6.548-1.759zm-1.212 13.721l-.3-.081c-1.15-.308-2.45-.749-2.049-2.246.372-1.388 1.6-1.27 2.724-.967l.477.128-.849 3.167zm-6.62-14.969l-3.937-1.92-5.545 8.142-.04-.02.781-10.465-1.575-.768-7.927 6.98-.041-.02 3.163-9.3-3.957-1.93-5.123 16.345 3.937 1.92 7.239-6.541-.879 9.643 3.9 1.9 10.008-13.962zm-36.48-5.3l-2.085 3.091 7.989 5.388 9.47-14.034-7.989-5.388-2.085 3.088 4.339 2.927-1.633 2.421-4.115-2.776-2.085 3.091 4.116 2.776-1.583 2.347-4.339-2.927zM32.38 200.84l3.013 3.721 8.679-16.195-2.149-2.654-17.713 5.038 3.011 3.718 10.579-3.279-5.42 9.651zm-12.417-16.246l2.462 3.65 14.041-9.471L34 175.124l-14.041 9.471zm-4.778-8.426l2.067 3.887 14.954-7.955-4.545-8.548-3.292 1.75 2.478 4.661-11.661 6.2zm-5.643-12.695l1.506 4.137 15.915-5.793-3.311-9.1L20.148 154l1.806 4.96-12.412 4.513zm8.254-22.2l2.678-1.642-.9-4.608-15.403 9.49.917 4.719 17.869 3.168-.892-4.59-3.111-.585-1.154-5.956zm-3.08 1.812l.7 3.593-5.639-.757-.009-.044 4.949-2.792zm3.963-9.025v-4.38l-9.749-1.419v-.045l9.749-3.886v-1.752l-9.749-4.065v-.045l9.749-1.236v-4.4l-16.936 2.56v4.38l9.052 3.639-9.052 3.437v4.335l16.936 2.875zM3.547 98.42c-1.014 4.768 1.568 9.909 6.577 10.974a9.01 9.01 0 0 0 11.092-7.218 9.01 9.01 0 0 0-7.2-11.106C9.01 90.005 4.56 93.652 3.547 98.42zm4.174.887a4.734 4.734 0 0 1 5.367-3.751 4.792 4.792 0 1 1-1.989 9.36 4.734 4.734 0 0 1-3.378-5.609zM12.98 73.9a11.59 11.59 0 0 0-3.353 4.336 5.489 5.489 0 0 0 2.949 7.6c3.019 1.281 4.391-.113 6.194-2.349.617-.763 1.686-2.188 2.823-1.705a1.875 1.875 0 0 1 .738 2.631 6.04 6.04 0 0 1-3.14 2.913l2.53 3.123a10.45 10.45 0 0 0 4.107-4.723 7.434 7.434 0 0 0 .407-5.049 5.753 5.753 0 0 0-3.513-3.395c-2.523-1.07-4.329.139-5.892 2.038l-.749.9c-.526.607-1.343 1.553-2.252 1.167-.869-.369-.882-1.545-.566-2.29a4.633 4.633 0 0 1 2.175-2.249L12.98 73.9zm15.276 3.766l2.256-3.755-7.627-6.234.024-.038 10.357 1.69.9-1.5-6.263-8.506.023-.038 8.992 3.962 2.267-3.774-15.832-6.529L21.1 56.7l5.886 7.781-9.53-1.716-2.236 3.714 13.037 11.187zm1.636-39.955l-3 .65.752 4.939 2.2-.465.05-5.124zm7.943 4.371l-2.771-2.495-6.448 7.161L41.2 58.081l6.448-7.161-2.768-2.495-3.5 3.889-2.17-1.954 3.322-3.689-2.771-2.495-3.322 3.689-2.1-1.894 3.5-3.889zm14.573-4.7a4.553 4.553 0 0 0-.13-6.051c-2.276-2.81-5.252-2.453-7.853-.346l-5.115 4.141 10.659 13.159 3.421-2.77-4.1-5.063.035-.028 7.329 2.447 4.26-3.449-8.505-2.044zm-7.557-2.407l.332-.268c1.117-.905 2.544-1.713 3.7-.282s.072 2.658-1.045 3.563l-.332.269-2.658-3.282zm17.259 3.19L66 36.1l-4.872-9.163.04-.021 11.992 5.377 3.887-2.067-7.955-14.956-3.892 2.068 4.861 9.143-.04.021-11.976-5.358-3.887 2.067 7.952 14.954zM78.637 4.381a2.2 2.2 0 1 0 2.748 1.461 2.21 2.21 0 0 0-2.748-1.461zm5.5-1.681a2.2 2.2 0 1 0 2.748 1.461A2.21 2.21 0 0 0 84.136 2.7zm-1.051 6.474c-4.661 1.425-7.906 6.176-6.409 11.073a9.009 9.009 0 0 0 11.69 6.2 9.009 9.009 0 0 0 6.224-11.677c-1.5-4.9-6.844-7.021-11.506-5.6zm1.248 4.081a4.735 4.735 0 0 1 5.883 2.875 4.792 4.792 0 1 1-9.151 2.8 4.734 4.734 0 0 1 3.268-5.673zm18.876-1.121h-.045l-.73-6.947-4.378.46 1.77 16.853 4.378-.46-.768-7.3h.045l6.419 6.71 5.674-.6-8.237-8.1 5.862-8.69-5.428.571-4.564 7.5zm18.436-8.143h-4.4v16.937h4.4V3.992zm25.825-1.751L145.366 0l-3.846 3.188 1.533 1.648 4.418-2.6zm.344 9.06l.712-3.66-9.459-1.84-3.231 16.625 9.459 1.839.711-3.66-5.137-1 .557-2.867 4.873.948.711-3.66-4.873-.947.54-2.778 5.138 1zm16.285 2.488a11.582 11.582 0 0 0-4.559-3.042 5.489 5.489 0 0 0-7.372 3.472c-1.068 3.1.419 4.373 2.775 6.016.8.562 2.3 1.529 1.9 2.7a1.875 1.875 0 0 1-2.573.92 6.037 6.037 0 0 1-3.125-2.929l-2.94 2.741a10.449 10.449 0 0 0 5 3.768 7.433 7.433 0 0 0 5.065.054 5.752 5.752 0 0 0 3.141-3.741c.892-2.591-.441-4.309-2.444-5.735l-.952-.684c-.642-.482-1.643-1.231-1.321-2.165.307-.892 1.48-.987 2.245-.724a4.633 4.633 0 0 1 2.4 2.013l2.768-2.658zm20.339 9.874l-3.692-2.4-9.225 14.2 3.692 2.4 9.224-14.2zM178.09 39.75l3.421 2.771 6.53-8.065.035.028-.264 13.14 3.422 2.771 10.658-13.162-3.421-2.771-6.517 8.047-.035-.028.249-13.122-3.421-2.771L178.09 39.75zm31.593 12.457l2.856-2.4-6.251-7.451-12.974 10.89 2.83 3.372 5.094-4.274 3.1 3.7 2.856-2.4-3.1-3.7 2.168-1.819 3.422 4.078zm11.13 8.91c-2.583-4.133-8.012-6.039-12.355-3.325a9.367 9.367 0 0 0 9.927 15.887c4.343-2.714 5.01-8.428 2.427-12.562zm-3.62 2.262a4.734 4.734 0 0 1-1.255 6.427 4.792 4.792 0 1 1-5.071-8.115 4.734 4.734 0 0 1 6.326 1.689zm3.949 23.309a4.554 4.554 0 0 0 5.8 1.746c3.376-1.3 3.955-4.237 2.756-7.362l-2.358-6.144L211.523 81l1.578 4.11 6.081-2.335.016.042-4.592 6.214 1.964 5.117 4.572-7.457zm4.625-6.443l.153.4c.515 1.342.843 2.949-.876 3.609s-2.551-.753-3.066-2.1l-.153-.4 3.942-1.513zm-8.975 14.533l.76 4.314 9.847-.3.008.044-8.926 5.52.3 1.726 10.306 2.311.008.044-9.386 2.909.765 4.336 16.234-5.463-.76-4.314-9.547-2.011 8.318-4.957-.753-4.269-17.178.11zm5.848 34.015l-2.979 1-.164 4.692 17.148-5.784.168-4.8-16.7-7.105-.163 4.673 2.9 1.271-.212 6.06zm3.409-1.072l.128-3.659 5.324 2.007v.045l-5.45 1.608zm4.759 16.545l-.694 3.572 3.66.711L236 137.083l-3.661-.711-.694 3.572-12.965-2.52-.84 4.322 12.965 2.52zm.772 12.048l1.214-4.232-16.28-4.668-1.214 4.232 16.28 4.668zm-9.589 6.507l.017-.042 6.477 2.617 1.649-4.082-15.7-6.345-1.649 4.082 6.81 2.752-.017.042-8.939 2.517-2.138 5.29 11.02-3.47 4.911 9.252 2.045-5.061-4.483-7.553zm-17.933 18.607l-3.067-.679-2.557 3.937 17.679 3.874 2.618-4.031-10.654-14.69-2.547 3.921 1.832 2.582-3.3 5.086zm3.474.837l1.994-3.07 3.53 4.462-.025.038-5.5-1.429zm-.779 18.044l2.888-3.323-12.782-11.111-2.889 3.325 12.782 11.111zm-21.434 10.257l.037-.026 4.007 5.722 3.606-2.525-9.714-13.873-3.606 2.525 4.213 6.017-.037.026-8.868-2.757-4.673 3.272 11.132 3.092-.92 10.434 4.471-3.131.354-8.776zm-24.865 6.234l-2.317-2.122-4.183 2.131 13.372 12.194 4.6-2.1-1.882-18.049-4.166 2.123.3 3.152-5.72 2.674zm2.591 2.462l3.578-1.583.826 5.629-.04.02-4.365-4.067zm-17.768 6.843a4.554 4.554 0 0 0-2.341 5.581c.936 3.493 3.8 4.377 7.033 3.511l6.357-1.7-4.384-16.359-4.252 1.139 1.686 6.292-.044.012-5.7-5.217-5.294 1.418 6.938 5.326zm5.924 5.273l-.412.111c-1.388.372-3.021.53-3.5-1.249s1.016-2.459 2.4-2.83l.412-.11 1.093 4.079zm-30.623 3.457a4.234 4.234 0 1 0-4.3-4.171 4.2 4.2 0 0 0 4.3 4.171z"/></svg>