<svg xmlns="http://www.w3.org/2000/svg" viewBox="0 0 390.088 268.347"><defs><style>.a,.b,.c,.d,.e,.f,.g,.h,.i,.j,.k{fill:none}.b,.c,.d,.e,.f,.g,.h,.i,.j,.k{stroke:#000;stroke-linecap:round;stroke-dasharray:0 6.5}.b{stroke-width:3.5px}.c{stroke-width:3.25px}.d{stroke-width:3px}.e{stroke-width:2.75px}.f{stroke-width:2.5px}.g{stroke-width:2.25px}.h{stroke-width:2px}.i{stroke-width:1.75px}.j{stroke-width:1.5px}.k{stroke-width:1.25px}.m{opacity:.4;fill:url(#b)}</style><linearGradient id="a" x1="106.513" y1="-895.312" x2="106.513" y2="-681.832" gradientTransform="matrix(1 0 0 -1 0 -681.832)" gradientUnits="userSpaceOnUse"><stop offset="0" stop-color="#004c7e"/><stop offset=".038" stop-color="#4ac8f2"/><stop offset=".091" stop-color="#0e8dc8"/><stop offset=".489" stop-color="#00bdef"/><stop offset=".909" stop-color="#4763ae"/><stop offset=".968" stop-color="#049fda"/><stop offset=".995" stop-color="#004c7e"/></linearGradient><pattern id="b" width="83" height="65" patternTransform="matrix(1 0 0 -1 74.838 1228.856)" patternUnits="userSpaceOnUse"><path class="a" d="M0 0h83v65H0z"/><path class="a" d="M0 0h83v65H0z"/><path class="b" d="M83 0v-65.5M0 0v-65.5"/><path class="c" d="M4.61 3.25V-65.5"/><path class="d" d="M9.22 0v-65.5"/><path class="e" d="M13.83 3.25V-65.5"/><path class="f" d="M18.45 0v-65.5"/><path class="g" d="M23.06 3.25V-65.5"/><path class="h" d="M27.67 0v-65.5"/><path class="i" d="M32.28 3.25V-65.5"/><path class="j" d="M36.89 0v-65.5"/><path class="k" d="M41.5 3.25V-65.5"/><path class="b" d="M83 0v-65.5"/><path class="c" d="M78.39 3.25V-65.5"/><path class="d" d="M73.78 0v-65.5"/><path class="e" d="M69.17 3.25V-65.5"/><path class="f" d="M64.55 0v-65.5"/><path class="g" d="M59.94 3.25V-65.5"/><path class="h" d="M55.33 0v-65.5"/><path class="i" d="M50.72 3.25V-65.5"/><path class="j" d="M46.11 0v-65.5"/><path class="b" d="M0 0v-65.5M83 65V-.5M0 65V-.5"/><path class="c" d="M4.61 68.25V-.5"/><path class="d" d="M9.22 65V-.5"/><path class="e" d="M13.83 68.25V-.5"/><path class="f" d="M18.45 65V-.5"/><path class="g" d="M23.06 68.25V-.5"/><path class="h" d="M27.67 65V-.5"/><path class="i" d="M32.28 68.25V-.5"/><path class="j" d="M36.89 65V-.5"/><path class="k" d="M41.5 68.25V-.5"/><path class="b" d="M83 65V-.5"/><path class="c" d="M78.39 68.25V-.5"/><path class="d" d="M73.78 65V-.5"/><path class="e" d="M69.17 68.25V-.5"/><path class="f" d="M64.55 65V-.5"/><path class="g" d="M59.94 68.25V-.5"/><path class="h" d="M55.33 65V-.5"/><path class="i" d="M50.72 68.25V-.5"/><path class="j" d="M46.11 65V-.5"/><path class="b" d="M0 65V-.5M83 130V64.5M0 130V64.5"/><path class="c" d="M4.61 133.25V64.5"/><path class="d" d="M9.22 130V64.5"/><path class="e" d="M13.83 133.25V64.5"/><path class="f" d="M18.45 130V64.5"/><path class="g" d="M23.06 133.25V64.5"/><path class="h" d="M27.67 130V64.5"/><path class="i" d="M32.28 133.25V64.5"/><path class="j" d="M36.89 130V64.5"/><path class="k" d="M41.5 133.25V64.5"/><path class="b" d="M83 130V64.5"/><path class="c" d="M78.39 133.25V64.5"/><path class="d" d="M73.78 130V64.5"/><path class="e" d="M69.17 133.25V64.5"/><path class="f" d="M64.55 130V64.5"/><path class="g" d="M59.94 133.25V64.5"/><path class="h" d="M55.33 130V64.5"/><path class="i" d="M50.72 133.25V64.5"/><path class="j" d="M46.11 130V64.5"/><path class="b" d="M0 130V64.5"/></pattern><linearGradient id="c" x1="221.548" y1="-895.312" x2="221.548" y2="-681.832" gradientTransform="matrix(1 0 0 -1 0 -681.832)" gradientUnits="userSpaceOnUse"><stop offset="0" stop-color="#851662"/><stop offset=".012" stop-color="#a13777"/><stop offset=".038" stop-color="#f281b3"/><stop offset=".107" stop-color="#c8539e"/><stop offset=".218" stop-color="#cd529e"/><stop offset=".375" stop-color="#db509d"/><stop offset=".516" stop-color="#ee4d9b"/><stop offset=".689" stop-color="#e34396"/><stop offset=".909" stop-color="#db3b93"/><stop offset=".968" stop-color="#f281b3"/><stop offset="1" stop-color="#851662"/></linearGradient><linearGradient id="e" x1="311.873" y1="-788.522" x2="311.873" y2="-681.852" gradientTransform="matrix(1 0 0 -1 0 -681.832)" gradientUnits="userSpaceOnUse"><stop offset="0" stop-color="#8b521c"/><stop offset=".07" stop-color="#ffd69e"/><stop offset=".172" stop-color="#edaf5c"/><stop offset=".495" stop-color="#ffd600"/><stop offset=".833" stop-color="#e8cb4c"/><stop offset=".881" stop-color="#f3d07b"/><stop offset=".916" stop-color="#fad494"/><stop offset=".936" stop-color="#ffd69e"/><stop offset="1" stop-color="#8b521c"/></linearGradient></defs><path d="M169.858 178.07c-2.53-6.25-6.64-16.5-9.12-22.77l-14.75-37.16c-2.49-6.27-4.52-11.4-4.52-11.4L136.8 95.4l-18.75-45.49c-2.57-6.24-7.23-16.23-10.36-22.2 0 0-14.5-27.71-44.79-27.71H6.658c22.17 0 36.5 35.41 36.5 35.41 2.53 6.25 6.64 16.5 9.12 22.76l14.75 37.16c2.49 6.27 4.52 11.4 4.52 11.4l4.67 11.34 18.76 45.5c2.57 6.24 7.23 16.22 10.36 22.2 0 0 14.5 27.71 44.79 27.71h56.24c-22.18 0-36.51-35.41-36.51-35.41z" fill="url(#a)"/><path class="m" d="M169.858 178.07c-2.53-6.25-6.64-16.5-9.12-22.77l-14.75-37.16c-2.49-6.27-4.52-11.4-4.52-11.4L136.8 95.4l-18.75-45.49c-2.57-6.24-7.23-16.23-10.36-22.2 0 0-14.5-27.71-44.79-27.71H6.658c22.17 0 36.5 35.41 36.5 35.41 2.53 6.25 6.64 16.5 9.12 22.76l14.75 37.16c2.49 6.27 4.52 11.4 4.52 11.4l4.67 11.34 18.76 45.5c2.57 6.24 7.23 16.22 10.36 22.2 0 0 14.5 27.71 44.79 27.71h56.24c-22.18 0-36.51-35.41-36.51-35.41z"/><path d="M284.9 178.07c-2.53-6.25-6.63-16.5-9.12-22.77l-14.75-37.16c-2.49-6.27-4.52-11.4-4.52-11.4l-4.67-11.34-18.75-45.49c-2.57-6.24-7.23-16.23-10.36-22.2 0 0-14.5-27.71-44.79-27.71H121.7c22.17 0 36.5 35.41 36.5 35.41 2.53 6.25 6.63 16.5 9.12 22.76l14.75 37.16c2.49 6.27 4.52 11.4 4.52 11.4l4.67 11.34 18.75 45.5c2.57 6.24 7.23 16.22 10.36 22.2 0 0 14.5 27.71 44.79 27.71h56.24c-22.172 0-36.5-35.41-36.5-35.41z" fill="url(#c)"/><path class="m" d="M284.9 178.07c-2.53-6.25-6.63-16.5-9.12-22.77l-14.75-37.16c-2.49-6.27-4.52-11.4-4.52-11.4l-4.67-11.34-18.75-45.49c-2.57-6.24-7.23-16.23-10.36-22.2 0 0-14.5-27.71-44.79-27.71H121.7c22.17 0 36.5 35.41 36.5 35.41 2.53 6.25 6.63 16.5 9.12 22.76l14.75 37.16c2.49 6.27 4.52 11.4 4.52 11.4l4.67 11.34 18.75 45.5c2.57 6.24 7.23 16.22 10.36 22.2 0 0 14.5 27.71 44.79 27.71h56.24c-22.172 0-36.5-35.41-36.5-35.41z"/><path d="M353.578 71.28c-1.44-3.56-3.39-8.41-5.26-13.09h.13l-3.41-8.26c-.11-.26-.22-.53-.33-.8-.08-.2-.16-.41-.24-.61h-.01c-2.65-6.25-6.87-15.25-9.77-20.79 0 0-14.5-27.71-44.79-27.71h-56.24c22.17 0 36.5 35.41 36.5 35.41 2.35 5.8 6.05 15.04 8.56 21.35h-.02c.12.28.24.58.37.88.07.18.14.36.21.53h.01c2.64 6.25 6.87 15.25 9.77 20.79 0 0 14.5 27.71 44.79 27.71h56.24c-22.188-.01-36.51-35.41-36.51-35.41z" fill="url(#e)"/><path class="m" d="M353.578 71.28c-1.44-3.56-3.39-8.41-5.26-13.09h.13l-3.41-8.26c-.11-.26-.22-.53-.33-.8-.08-.2-.16-.41-.24-.61h-.01c-2.65-6.25-6.87-15.25-9.77-20.79 0 0-14.5-27.71-44.79-27.71h-56.24c22.17 0 36.5 35.41 36.5 35.41 2.35 5.8 6.05 15.04 8.56 21.35h-.02c.12.28.24.58.37.88.07.18.14.36.21.53h.01c2.64 6.25 6.87 15.25 9.77 20.79 0 0 14.5 27.71 44.79 27.71h56.24c-22.188-.01-36.51-35.41-36.51-35.41z"/><path d="M177.318 125.03c-.83-.19-1.96-.45-3.04-.69l.02.04-1.93-.46c-.06-.02-.13-.03-.19-.05s-.1-.02-.14-.03a59.37 59.37 0 0 1-5-1.53s-6.84-2.51-10.53-11.9c-5.43-13.82-6.63-16.88-6.85-17.45 2.7 6.88 10.93 8.78 10.93 8.78 1.35.31 3.5.79 4.96 1.12a1.461 1.461 0 0 0 .2.05l.12.03v.01c1.47.37 3.63 1.03 5 1.53 0 0 6.84 2.5 10.53 11.9 5.43 13.83 6.63 16.88 6.85 17.44-2.69-6.89-10.93-8.79-10.93-8.79z" fill="#282829" opacity=".8"/><path d="M123.811 267.7v-17.678H99.289V267.7h-1.725v-35.947h1.725v16.653h24.522v-16.653h1.725V267.7zm26.682 0v-3.988c-2.209 2.479-5.82 4.635-9.431 4.635-5.174 0-8.138-2.264-8.138-8.407v-18.271h1.617v18.271c0 5.443 2.694 6.952 6.736 6.952a12.162 12.162 0 0 0 9.216-4.742v-20.48h1.617v26.03zm26.465 0v-18.162c0-5.443-2.695-7.061-6.737-7.061a12.318 12.318 0 0 0-9.216 4.9V267.7h-1.617v-26.031h1.617v4.1c1.94-2.372 5.821-4.743 9.432-4.743 5.174 0 8.138 2.371 8.138 8.516V267.7zm9.004 0v-35.947h12.45c6.683 0 10.509 4.688 10.509 10.186s-3.935 10.187-10.509 10.187h-10.725V267.7zm21.073-25.762c0-4.958-3.4-8.568-8.677-8.568h-10.671v17.138h10.671c5.281 0 8.677-3.608 8.677-8.57zm6.74 25.762v-26.031h1.617v4.743c2.317-3.072 5.174-5.228 8.946-5.228v1.939a10.424 10.424 0 0 0-1.293-.054c-2.749 0-6.467 2.7-7.653 5.12V267.7zm12.99-13.042c0-7.546 5.228-13.636 12.234-13.636 7.976 0 12.072 6.414 12.072 13.636v.538H228.6c.162 6.36 4.312 11.7 10.94 11.7a11.872 11.872 0 0 0 9.054-3.934l.97 1.023a13.006 13.006 0 0 1-10.024 4.365c-7.547-.003-12.775-5.77-12.775-13.692zm12.18-12.181c-6.683 0-10.186 6.145-10.348 11.264h20.75c0-5.012-3.288-11.263-10.402-11.263zm15.741 21.723l1.293-1.186a10.051 10.051 0 0 0 8.246 3.88c4.8 0 7.707-2.587 7.707-6.036 0-7.977-16.707-3.826-16.707-12.935 0-3.826 3.234-6.9 8.839-6.9 4.473 0 7.275 1.778 8.946 3.935l-1.186 1.078a9.179 9.179 0 0 0-7.761-3.558c-4.527 0-7.222 2.371-7.222 5.443 0 7.275 16.708 3.072 16.708 12.935 0 4.042-3.019 7.491-9.324 7.491-4.096 0-6.952-1.186-9.539-4.147zm22.476 0l1.293-1.186a10.051 10.051 0 0 0 8.246 3.88c4.8 0 7.707-2.587 7.707-6.036 0-7.977-16.707-3.826-16.707-12.935 0-3.826 3.233-6.9 8.839-6.9 4.473 0 7.275 1.778 8.946 3.935l-1.186 1.078a9.179 9.179 0 0 0-7.761-3.558c-4.527 0-7.223 2.371-7.223 5.443 0 7.275 16.708 3.072 16.708 12.935 0 4.042-3.019 7.491-9.324 7.491-4.095 0-6.951-1.186-9.538-4.147z" fill="#414042"/></svg>