<svg xmlns="http://www.w3.org/2000/svg" viewBox="0 0 603.78 96.77"><g fill="#004481"><path d="M193.7 72.84l-7.14-16.88-2.55 4.06v12.82h-12.17V24.43h12.17v18.58h.13l9.03-18.58h12.96l-11.78 21.15 13.22 27.26H193.7zM228.29 72.84l-8.11-29.9h-.14v29.9h-11.38V24.43h13.61l7.86 29.83h.12V24.43h11.4v48.41h-13.36z"/><path d="M246 48.63c0 18.1 4.25 25.16 16.69 25.16s16.69-7.05 16.69-25.16-4.25-25.16-16.69-25.16S246 30.53 246 48.63m12.57 0c0-13.09.39-16.61 4.12-16.61s4.12 3.53 4.12 16.61-.39 16.61-4.12 16.61-4.12-3.53-4.12-16.61M283.75 72.84h12.17V53.45h3.21c2.94 0 4 1.42 4 6.92v3.25c0 2 0 6.65 1.18 9.22h13v-.68a3.25 3.25 0 0 1-1.37-1.49c-.59-.95-.59-4.2-.59-6.71v-4.14c0-6.44-1.77-10.31-7.66-10.85v-.14c5.56-.88 8-5.08 8-11.53 0-7.46-3.53-12.88-12.83-12.88h-19zm12.17-39.33h2.36c3.67 0 5.17 1.7 5.17 5.63 0 3.46-1.64 5.76-5.1 5.76h-2.42zM321.31 72.84h12.17V53.45h3.21c2.94 0 4 1.42 4 6.92v3.25c0 2 0 6.65 1.18 9.22h13v-.68a3.26 3.26 0 0 1-1.37-1.49c-.59-.95-.59-4.2-.59-6.71v-4.14c0-6.44-1.77-10.31-7.66-10.85v-.14c5.56-.88 8-5.08 8-11.53 0-7.46-3.53-12.88-12.83-12.88h-19zm12.17-39.33h2.36c3.66 0 5.17 1.7 5.17 5.63 0 3.46-1.63 5.76-5.1 5.76h-2.42z"/><path d="M357.82 48.09h20.42V58.4h-20.42z"/><path d="M383.34 72.84h18.39c10.14 0 14.07-5.9 14.07-14.31 0-5-2.49-10.44-8.64-11.05v-.14c5.17-1.09 7.33-5.69 7.33-10.85 0-7.26-4.06-12.07-12.76-12.07h-18.39zm12.17-39.33h2.95c2.49 0 3.86 2.31 3.86 5s-1.37 4.88-3.86 4.88h-2.95zm0 18.44h3.4c2.23 0 4.32 2.1 4.32 5.83 0 3.93-2.09 6-4.32 6h-3.4zM420.5 72.84h12.17V53.45h3.21c2.94 0 4 1.42 4 6.92v3.25c0 2 0 6.65 1.18 9.22h13v-.68a3.27 3.27 0 0 1-1.38-1.49c-.59-.95-.59-4.2-.59-6.71v-4.14c0-6.44-1.77-10.31-7.66-10.85v-.14c5.56-.88 8-5.08 8-11.53 0-7.46-3.53-12.88-12.83-12.88h-19zm12.17-39.33H435c3.66 0 5.17 1.7 5.17 5.63 0 3.46-1.64 5.76-5.1 5.76h-2.42z"/><path d="M458.06 72.84h28.27V62.53h-16.1V52.9h14.53v-9.89h-14.53v-8.28h15.51v-10.3h-27.68v48.41zM490.32 72.84h11.39V36.77h.13l6.48 36.07h8.77l6.48-36.07h.13v36.07h11.39V24.43h-17.41l-4.91 28.68h-.13l-4.91-28.68h-17.41v48.41zM570 38.4c0-10.38-4.52-14.92-15.12-14.92-10.27 0-15.31 5.36-15.31 15.12 0 17.15 19.11 12.41 19.11 22 0 2.64-1.44 4.68-3.93 4.68s-4-1.49-4-5.63v-1.19h-11.81v1.7c0 10 5.63 13.63 15.71 13.63 10.73 0 16.56-4.61 16.56-14.92 0-17.7-19.9-13-19.9-22.58 0-2.17 1.18-4.27 3.8-4.27 2.36 0 3.47 2.37 3.47 5.22v1.16zM575.51 72.84h28.27V62.53h-16.1V52.9h14.53v-9.89h-14.53v-8.28h15.51v-10.3h-27.68v48.41zM0 0h136.99v96.77H0z"/></g><g fill="#fff"><path d="M37.35 48.38c0-17.81 13.94-32.26 31.14-32.26s31.13 14.45 31.13 32.26-13.94 32.26-31.13 32.26S37.35 66.2 37.35 48.38m31 24.5c13.07 0 23.66-11 23.66-24.52s-10.55-24.5-23.62-24.5-23.66 11-23.66 24.51 10.6 24.52 23.66 24.52"/><path d="M105.62 30.31a44.07 44.07 0 0 1 0 36.15h-8.48a35.93 35.93 0 0 0 0-36.14zM39.64 30.31a35.94 35.94 0 0 0 0 36.1h-8.48a44 44 0 0 1 0-36.12zM54.35 30.31h9.96v36.13h-9.96zM82.89 66.44l-8.48-18 8.48-18.13h-9.96l-8.48 18 8.48 18.13h9.96z"/><path d="M24.81 48.37a46.41 46.41 0 0 1 3.63-18.06h-7.5l-8.48 18 8.48 18.13h7.49a46.41 46.41 0 0 1-3.63-18.06M112 48.37a46.39 46.39 0 0 0-3.63-18.06h7.49l8.48 18-8.48 18.13h-7.49A46.39 46.39 0 0 0 112 48.37"/></g></svg>