<svg xmlns="http://www.w3.org/2000/svg" viewBox="0 0 200 17"><path d="M120.844 15.307c1.377 0 2.36-.286 2.952-.858.592-.573.888-1.37.888-2.391 0-1.069-.38-1.873-1.14-2.414-.76-.542-1.845-.813-3.252-.813h-3.217v6.476h3.77zm-.768-7.776c1.345 0 2.308-.293 2.892-.878.585-.586.876-1.342.876-2.266 0-.524-.104-.968-.311-1.33a2.484 2.484 0 0 0-.816-.866 3.44 3.44 0 0 0-1.164-.463 6.74 6.74 0 0 0-1.382-.14h-3.096v5.943h3.001zm.264-7.242c.88 0 1.636.112 2.269.336.631.224 1.147.521 1.548.892.399.371.695.804.887 1.298.193.494.288 1.02.288 1.575 0 .525-.08.993-.24 1.402-.16.41-.364.764-.611 1.065a3.665 3.665 0 0 1-.816.742 4.08 4.08 0 0 1-.83.429c.401.093.8.244 1.201.454.4.209.76.476 1.08.801.32.326.584.722.792 1.187.209.465.313.999.313 1.604 0 1.348-.448 2.44-1.345 3.278-.896.837-2.304 1.256-4.224 1.256h-5.041V.289h4.729zm16.585 9.796c-.08-1.284-.384-2.282-.911-2.995-.529-.711-1.4-1.067-2.617-1.067-1.2 0-2.096.356-2.688 1.067-.592.713-.952 1.711-1.08 2.995h7.296zm-2.855 5.525c.72 0 1.335-.078 1.847-.233.512-.155.92-.293 1.224-.418l.432 1.091c-.24.155-.68.33-1.32.523s-1.416.29-2.327.29c-1.937 0-3.377-.522-4.321-1.567s-1.416-2.527-1.416-4.445c0-.913.12-1.745.36-2.496.24-.75.584-1.389 1.032-1.914a4.535 4.535 0 0 1 1.644-1.22c.648-.285 1.38-.428 2.196-.428.768 0 1.456.111 2.064.336a3.638 3.638 0 0 1 1.548 1.09c.425.503.749 1.146.973 1.928.224.782.336 1.729.336 2.842v.28h-8.737c.079 1.346.476 2.406 1.188 3.18.712.773 1.804 1.16 3.277 1.16zm23.762-.349h7.8v1.347h-9.314V.289h1.514v14.972m16.897-4.224a7.82 7.82 0 0 0-.54-.105c-.233-.039-.5-.074-.804-.104a26.195 26.195 0 0 0-.984-.082 15.772 15.772 0 0 0-1.033-.035c-1.184 0-2.011.24-2.483.72s-.708 1.122-.708 1.926c0 .821.263 1.417.79 1.788.53.371 1.217.557 2.065.557a3.6 3.6 0 0 0 1.392-.278 4.136 4.136 0 0 0 1.19-.743c.342-.31.615-.662.814-1.057.201-.394.3-.8.3-1.219v-1.368zm-4.248 5.849a4.73 4.73 0 0 1-1.285-.186 3.493 3.493 0 0 1-1.2-.603 3.24 3.24 0 0 1-.888-1.09c-.232-.45-.348-.999-.348-1.65 0-1.145.372-2.069 1.117-2.773.743-.705 1.867-1.057 3.372-1.057a17.794 17.794 0 0 1 2.928.244c.24.04.423.066.552.082V8.832c0-1.006-.296-1.726-.888-2.16-.592-.433-1.44-.65-2.544-.65-.785 0-1.453.097-2.004.291a9.716 9.716 0 0 0-1.308.545l-.481-1.067c.305-.171.8-.375 1.489-.616.688-.239 1.576-.36 2.664-.36 1.408 0 2.5.321 3.276.964.776.642 1.164 1.62 1.164 2.936v7.893h-1.296l-.047-1.65a3.617 3.617 0 0 1-.853.93 4.351 4.351 0 0 1-1.068.592c-.385.146-.78.252-1.188.312a7.772 7.772 0 0 1-1.164.094zm21.122-2.182c.352.201.86.41 1.524.626.665.218 1.452.326 2.363.326.577 0 1.061-.055 1.453-.163.392-.108.708-.255.948-.44a1.62 1.62 0 0 0 .516-.652 1.95 1.95 0 0 0 .156-.765c0-.557-.172-1.01-.516-1.358-.344-.348-1.012-.606-2.004-.777l-1.296-.232a9.12 9.12 0 0 1-1.392-.36 3.74 3.74 0 0 1-1.092-.592 2.534 2.534 0 0 1-.72-.894c-.169-.347-.253-.777-.253-1.289 0-1.067.408-1.891 1.225-2.47.816-.581 1.88-.871 3.193-.871.8 0 1.523.085 2.172.255.648.17 1.155.348 1.524.533l-.505 1.138a7.01 7.01 0 0 0-1.332-.487c-.52-.14-1.116-.21-1.788-.21-1.056 0-1.84.178-2.352.534-.512.357-.768.828-.768 1.416 0 .295.04.55.12.766.08.217.224.403.432.557.208.156.48.29.817.407.335.116.76.22 1.272.313l1.32.232c.96.186 1.755.526 2.387 1.022.632.495.948 1.214.948 2.159 0 1.051-.388 1.888-1.164 2.506-.776.62-1.868.929-3.275.929-.992 0-1.889-.117-2.689-.349-.8-.232-1.385-.464-1.753-.695l.529-1.115m-50.741 1.904h1.416V.287h-1.416zm4.632 0h1.416V.287h-1.416zm41.464-2.241c-.68.767-1.596 1.15-2.748 1.15a4.42 4.42 0 0 1-1.344-.198 5.362 5.362 0 0 1-1.116-.488 4.773 4.773 0 0 1-.84-.614 3.399 3.399 0 0 1-.516-.58V10.85c0-1.455.344-2.62 1.032-3.494.688-.874 1.671-1.311 2.952-1.311.624 0 1.164.115 1.62.348a2.95 2.95 0 0 1 1.116.976c.289.417.504.915.65 1.496.142.58.214 1.211.214 1.891 0 1.64-.34 2.844-1.02 3.61zm1.248-7.88a4.35 4.35 0 0 0-1.524-1.242c-.609-.302-1.32-.452-2.136-.452-1.04 0-1.9.196-2.58.591a4.165 4.165 0 0 0-1.572 1.567V.287h-1.416v16.32h1.32c0-.279.003-.502.012-.673.007-.17.011-.395.011-.673a5.03 5.03 0 0 0 1.848 1.137 6.538 6.538 0 0 0 2.185.371c.608 0 1.216-.1 1.825-.3a4.191 4.191 0 0 0 1.632-1.011c.48-.471.871-1.09 1.176-1.857.303-.766.455-1.713.455-2.844a8.74 8.74 0 0 0-.311-2.378c-.209-.735-.516-1.366-.925-1.892zM90.842 10.23l3.335-5.917 3.329 5.916h-6.664zM97.667.286H90.99L81.48 16.61h5.922l1.579-2.836h10.381l1.588 2.836h6.22L97.668.287zM75.109 16.61h5.377V.287h-5.377V16.61zm-23.731 0h5.368V.287h-5.368V16.61zM72.889.287h-7.074L56.745 8.1l9.795 8.51h7.586l-10.79-8.69L72.888.287zM44.437 10.912c0 .954-.107 1.247-.378 1.472-.273.234-.698.298-1.87.298h-8.34c-1.175 0-1.586-.064-1.876-.298-.253-.225-.368-.518-.368-1.472V5.929c0-.964.115-1.245.368-1.469.29-.244.701-.305 1.876-.305h8.34c1.172 0 1.597.061 1.87.305.271.224.378.505.378 1.47v4.982zM42.407.017h-8.775c-3.06 0-4.64.34-5.733 1.458-.7.75-1.142 1.533-1.142 3.799v6.293c0 2.267.442 3.05 1.142 3.799 1.092 1.125 2.673 1.462 5.733 1.462h8.776c3.045 0 4.642-.337 5.735-1.462.701-.75 1.135-1.532 1.135-3.799V5.274c0-2.266-.434-3.048-1.135-3.799C47.05.357 45.453.017 42.408.017zm-22.85 12.455L9.363.287H.481V16.61h5.132V4.216L15.989 16.61h8.705V.287h-5.138v12.185z" fill="#124191"/></svg>