<svg xmlns="http://www.w3.org/2000/svg" viewBox="0 0 141 31"><path d="M43.783 11.08c-1.323 0-2.821.67-3.685 4.77-.96 4.558.955 4.85 1.883 4.85.845 0 2.643-.46 3.537-4.825.627-3.054.128-4.796-1.735-4.796m6.574 4.796c-1.21 6.898-5.506 7.78-9.141 7.78-3.59 0-6.896-2.472-5.96-7.815.73-4.175 3.21-8.04 9.242-7.744 4.206.206 6.68 3.086 5.859 7.78m9.159 7.187l-.226.224c-.9.17-1.959.31-2.533.31-2.126 0-5.244-.32-3.925-5.68.893-3.623 1.533-6.334 1.533-6.334l-1.97.057-.17-.224.818-2.843.196-.14h1.858l.817-3.63.195-.195c2.113-.479 2.675-.62 4.618-1.184l.168.17-1.239 4.896 2.872-.057.112.197c-.394 1.182-.507 1.492-.872 2.814l-.224.196-2.59-.057s-.527 2.185-1.263 5.224c-.796 3.286-.377 3.12.42 3.433.68.269 1.573-.076 2.08-.244l.17.143-.845 2.924zm7.904-2.812c1.334.159 2.788-.281 3.772-1.099 1.125-.956 2.139-2.925 2.139-5.063 0-2.365-1.52-2.644-2.082-2.644-.815 0-1.437.421-2.028.814l-1.8 7.992zM69.7 9.475c.734-.506 1.943-1.351 3.772-1.351 2.815 0 4.7 2.109 4.7 5.683 0 2.026-.703 4.418-2.167 6.19-2.787 3.405-6.304 3.375-9.289 3.375l-1.6 6.725-.198.14c-.648 0-1.267-.026-1.914-.026-.958 0-1.802.055-2.843.084l-.14-.198s.99-2.981 2.224-8.109c1.297-5.38 2.508-11.682 2.614-12.966l.197-.195 4.813-.786.168.196-.336 1.238zM0 14.781C0 7.113 6.217.894 13.886.886v5.02c-4.896.01-8.862 3.98-8.862 8.875a8.88 8.88 0 0 0 17.756-.033l5.024.004c0 7.704-6.225 13.926-13.902 13.926C6.224 28.678 0 22.456 0 14.781" fill="#006648"/><path d="M81.862 21.122c1.594.075 3.94.028 5.77-1.21 2.083-1.436 3.07-3.94 3.07-5.74 0-2.56-1.55-3.545-3.353-3.545-1.434 0-2.447.62-3.348 1.182 0 0-1.965 8.622-2.14 9.313zm-3.434 2.053c.187-.853 1.401-5.852 2.64-11.473 1.062-4.822 1.801-7.832 2.06-10.079l.225-.196L86.42.893l.141.198-.787 3.122-1.297 5.401c1.184-.647 2.31-1.266 4.11-1.266 2.787 0 5.123 1.885 5.123 5.432 0 1.434-.45 4.134-2.336 6.3-2.533 2.899-5.657 3.095-9.288 3.237h-1.548l-1.97.028-.14-.17zm28.292-12.379c-.423 0-.844-.027-1.268-.027-.928 0-2.758.056-4.42 1.18-2.955 2.025-3.01 5.657-3.01 5.797 0 1.35.732 3.516 3.292 3.516.76 0 2.018-.179 3.378-1.38l2.028-9.086zm2.08 3.572c-.984 4.333-1.18 5.402-1.742 8.751l-.198.196-2.646.058-.141-.196.197-1.126c-.478.393-1.717 1.434-4.11 1.434-2.87 0-5.206-2.026-5.206-5.542 0-2.221 1.07-4.642 2.252-6.05 2.616-3.066 6.247-3.236 8.837-3.236l3.884.028.14.226-1.266 5.457zm13.94 8.78l-.225.167-2.87.086-.115-.197c.414-1.895 2.148-8.24 2.168-10.214.02-1.688-1.04-2.252-2.364-2.252-1.743 0-2.898.874-3.742 1.494-1.043 4.727-1.38 6.218-2.282 10.916l-.195.167-2.872.086-.14-.197s.854-3.443 1.624-7.024c.606-2.803 1.102-5.114 1.331-7.042l.197-.199c1.323-.167 1.634-.224 2.983-.505l.14.195-.393 1.436c1.098-.732 2.506-1.715 4.84-1.715.93 0 3.97.251 3.97 3.657 0 2.035-1.779 9.153-2.055 11.141m10.755-8.391l4.363 8.299-.17.224-3.124.086-.226-.17c-.727-1.976-3.912-8.186-3.912-8.186-.815 3.573-.985 4.416-1.688 8.13l-.198.168-2.842.058-.112-.17s1.501-6.238 2.801-12.012c.607-2.7 1.55-6.976 1.926-9.568l.198-.169 3.068-.505.168.199c-.566 1.943-3.235 13.475-3.235 13.475 2.017-1.767 5.374-5.29 5.825-5.768l.31-.169h3.237l.085.253c-.8.633-2.281 1.971-2.815 2.449l-3.66 3.377zM7.77 14.781a6.166 6.166 0 0 1 12.332 0 6.163 6.163 0 0 1-6.166 6.163 6.164 6.164 0 0 1-6.166-6.163" fill="#52AE30"/><path d="M21.747 3.441a3.533 3.533 0 1 1 0 7.065 3.534 3.534 0 0 1-3.534-3.531 3.536 3.536 0 0 1 3.534-3.534z" fill="#00674A"/></svg>