<svg xmlns="http://www.w3.org/2000/svg" viewBox="0 0 823.953 256.894"><path d="M77.5 150.85l-28.3-.3 2.044-148.3L99.472 0l1.02 131.063-17.959 9.637zm-10.679 21.523l6.55-13.2-30.6-.286 2.29-147.709-.746.028-14.359.531-3.263 151.186L3.165 188.19l-1.929 51.192 61.624-.1zm54.7-52.6l-1.6-110.953-13.221.08-.939.035 1.04 118.748zm-31.09 26.773l39.4-20.036 100.933 21.79 44.915 26.3 1.753 64.783-64.879-.21-.739-34.1-4.99-.289.231-19.162-6.261-7.264-6.762 7.514v18.168l-5.26-.3-.733 35.357-116.312-.377 4.007-64.12zm171.727 46.334l.25 18.032 8.766-.5v-17.28l-4.759-6.762zm-19.285-1.754l.25 18.534 10.519-.25-.5-18.534-5.009-7.013zm-22.291-2.254l.5 20.037h9.768l.5-19.035-4.759-7.764zm-53.847 16.28l13.024.25-.251-22.791-5.76-7.012-6.262 7.263zm-31.056-2.5l13.775.5.5-24.043-6.262-8.265-7.513 8.014zm-31.56-1.752l15.278.5.5-25.3-7.513-9.767-7.514 9.016zM0 256.894h277.432v-8.988H0zm347.678-5.4q11.819 0 18.856-5.759a18.142 18.142 0 0 0 7.036-14.674 22.9 22.9 0 0 0-1.7-8.99 20.407 20.407 0 0 0-4.958-7.061q-3.255-3.03-10.618-6.636-13.971-6.81-13.971-13.121a8.189 8.189 0 0 1 2.478-6.186 9.689 9.689 0 0 1 6.987-2.378 24.477 24.477 0 0 1 14.473 4.908l3.957-11.219q-5.961-4.756-18.681-4.757-9.765 0-16 5.609a18.187 18.187 0 0 0-6.235 14.123 21.256 21.256 0 0 0 1.577 8.313 18.581 18.581 0 0 0 4.508 6.486q2.93 2.73 11.368 6.961t11.143 7.638a11.35 11.35 0 0 1 2.7 7.161q0 8.014-11.468 8.013-7.465 0-15.175-5.408l-4.808 11.669a33.552 33.552 0 0 0 18.531 5.308zm62.451-55.894q-13.572 0-21.435 7.813t-7.863 20.487q0 12.871 7.188 20.108t19.606 7.237a45.19 45.19 0 0 0 9.641-.9 31.8 31.8 0 0 0 9.541-4.307l-4.608-9.867a18.156 18.156 0 0 1-12.27 4.608q-16.075 0-16.076-16.878 0-8.362 4.131-13.1t11.244-4.733q7.41 0 11.819 4.157l5.359-9.365a26.116 26.116 0 0 0-16.277-5.26zm73.971 54.642v-33.054q0-10.416-5.558-16t-15.626-5.588q-8.514 0-13.372 4.408v-26.39l-12.721 3v73.62h12.721v-38.509a11.56 11.56 0 0 1 4.507-3.831 13.248 13.248 0 0 1 6.26-1.677 11.175 11.175 0 0 1 8.114 3 10.575 10.575 0 0 1 3.1 7.962v33.054zm16.8-6.636q6.786 7.64 19.006 7.638 11.97 0 18.856-7.562t6.888-20.382q0-12.87-6.761-20.282t-18.981-7.418q-11.619 0-18.706 7.713t-7.087 19.987q0 12.67 6.785 20.306zm-.676-66.383a6.9 6.9 0 0 0-2.1 5.059 6.814 6.814 0 0 0 2.1 5.033 6.935 6.935 0 0 0 5.058 2.078 7.1 7.1 0 0 0 7.112-7.111 6.944 6.944 0 0 0-2.079-5.059 6.815 6.815 0 0 0-5.033-2.1 6.9 6.9 0 0 0-5.056 2.1zm10.367 33.2a11.041 11.041 0 0 1 9.315-4.608q12.721 0 12.72 17.478 0 8.515-3.43 13.122a10.976 10.976 0 0 1-9.29 4.607q-12.771 0-12.771-17.729.002-8.259 3.458-12.865zm20.683-33.2a6.9 6.9 0 0 0-2.1 5.059 6.817 6.817 0 0 0 2.1 5.033 6.937 6.937 0 0 0 5.059 2.078 7.095 7.095 0 0 0 7.111-7.111 6.943 6.943 0 0 0-2.078-5.059 6.817 6.817 0 0 0-5.033-2.1 6.9 6.9 0 0 0-5.057 2.1zm71.417 73.019v-32.9q0-10.264-5.534-16t-15.1-5.734q-9.966 0-15.074 6.01l-2.3-5.008h-9.014v53.637h12.521v-38.768a13.546 13.546 0 0 1 4.883-3.856 13.3 13.3 0 0 1 5.884-1.553q5.959 0 8.589 3.156t2.629 10.016v31zm60.8 0v-33.054q0-10.416-5.558-16t-15.625-5.588q-8.514 0-13.372 4.408v-26.39l-12.72 3v73.62h12.72v-38.509a11.556 11.556 0 0 1 4.508-3.831 13.248 13.248 0 0 1 6.26-1.677 11.174 11.174 0 0 1 8.113 3 10.576 10.576 0 0 1 3.105 7.962v33.054zm62.453-29.948q0-10.768-7.062-17.729t-18.73-6.965a25.61 25.61 0 0 0-18.805 7.863q-7.839 7.863-7.838 20.533 0 12.873 7.136 20.058t19.407 7.187q13.12 0 19.732-5.359l-4.858-9.565q-4.457 4.457-13.021 4.457-6.862 0-10.918-3.556t-4.407-9.966h38.313a34.989 34.989 0 0 0 1.052-6.958zm-25.591-14.224q11.718 0 13.021 11.77h-26.343q2.604-11.769 13.322-11.77zm71.917-8.513q-3.406-1.954-9.817-1.954-8.712 0-13.972 5.91v-4.908h-12.52v53.637h12.52v-30.549a14.375 14.375 0 0 1 3.38-9.666q3.381-3.956 7.738-3.957a13.141 13.141 0 0 1 7.362 2.2zm51.683 52.685v-10.918h-28.346l28.046-38.312v-4.407h-46.877v10.918h28.6l-29.1 38.462v4.257z" fill="#173c65"/></svg>