<svg xmlns="http://www.w3.org/2000/svg" viewBox="0 0 523.667 96"><path d="M516.948 22.378h-.41v.946h.35c.4 0 .578-.137.578-.473s-.128-.473-.518-.473m1.365 2.412a1.023 1.023 0 0 1-.815-.307 3.671 3.671 0 0 1-.578-.788h-.382v1.025h-.531v-2.726h1.016c.565 0 .946.259.946.844a.817.817 0 0 1-.5.767 4.151 4.151 0 0 0 .4.543 1.315 1.315 0 0 0 .508.268zm-1.3-3.351a1.9 1.9 0 0 0-2.1 2.005 1.981 1.981 0 0 0 2.156 2.071 1.9 1.9 0 0 0 2.018-2.025 1.952 1.952 0 0 0-2.075-2.05zm0 4.549a2.514 2.514 0 1 1-.013-5.027 2.514 2.514 0 1 1 .012 5.028zM508.71 41.9h-5.428v18.377h-7.44V41.9H490.4v-5.35h18.31zm-22.96 7.565h-15.47v.249c0 4.213.663 5.642 4.107 5.642 2.318 0 4.087-.249 4.2-2.764h7.159c-.057 3.364-1.2 5.232-3.092 6.328-1.972 1.1-4.824 1.373-8.271 1.373-9.229 0-11.4-3.124-11.4-11.891 0-9.048 2-11.951 11.4-11.951 8.792 0 11.363 2.37 11.363 11.951zm-28.8 19.67h-50.119a16.059 16.059 0 0 1-10.785-4.441c-3.735-4.012-4.549-10.284-4.549-16.262s.814-12.272 4.549-16.278a16.1 16.1 0 0 1 10.785-4.444h50.119zm61.16-37.53a17.84 17.84 0 0 0-15.317-8.31h-97.2a17.849 17.849 0 0 0-15.321 8.31c-2.613 4.526-3.194 11.922-3.194 16.822s.58 12.272 3.194 16.806a17.851 17.851 0 0 0 15.321 8.317h97.2a17.842 17.842 0 0 0 15.317-8.317c2.607-4.534 3.2-11.928 3.2-16.806-.001-4.9-.593-12.296-3.2-16.822zM412.835 41.631c2.681 0 4.126.268 4.126 3.948v.178h-8.029c.093-3.147.734-4.126 3.903-4.126zM401.5 48.572c0 8.8 2.2 11.962 11.472 11.962 3.443 0 6.307-.268 8.305-1.374 1.937-1.127 3.088-3.046 3.121-6.472h-7.3c-.084 2.507-1.783 2.775-4.126 2.775-3.372 0-4.038-1.381-4.038-5.584V49.7H424.4v-1.128c0-9.624-2.6-12.022-11.426-12.022-9.457 0-11.474 2.933-11.474 12.022zm39.311 7.295c-1.956 0-3.942-.049-4.031-2.681h-7.446c.057 5.191 2.515 6.886 7.065 7.252 1.381.1 2.872.1 4.412.1 6.272 0 11.474-1.049 11.474-7.847 0-6.477-3.374-6.931-11.482-7.115-4.017-.091-4.254-.941-4.254-2.264 0-1.59.176-2.1 4.262-2.1 1.492 0 3 .139 3.329 2h7.017v-.953c0-5.635-5.917-5.708-10.346-5.708-6.66 0-11.477.146-11.477 7.621 0 4.7 1.62 6.886 11.477 6.886a9.119 9.119 0 0 1 3.131.314c.771.332 1.13 1.013 1.13 2.233-.002 2.043-.755 2.262-4.263 2.262zm33.445-14.483c-3.274 0-3.893 1.058-3.982 4.281h8.185V45.4c-.001-3.736-1.504-4.016-4.205-4.016zM364.095 8.069h1.81v81.489h-1.81zm-87.236-.017h-28.068v10.321h8.131v44.408h11.806V18.373h8.131zM229.01 49.49V21.344a4.5 4.5 0 0 1 .847-3 3.332 3.332 0 0 1 2.671-.991 3.228 3.228 0 0 1 2.632.991 4.571 4.571 0 0 1 .808 3v8.209h10.867v-6.567q-.02-8.033-3.74-11.949c-2.489-2.619-6.138-3.936-10.959-3.922-4.86-.013-8.561 1.3-11.1 3.922s-3.818 6.593-3.831 11.949v24.862q.02 8.014 3.831 11.949c2.541 2.619 6.242 3.935 11.1 3.922 4.821.013 8.47-1.3 10.959-3.922s3.727-6.606 3.74-11.949v-8.21h-10.866v9.852a4.571 4.571 0 0 1-.808 3 3.228 3.228 0 0 1-2.632.991 3.332 3.332 0 0 1-2.671-.991 4.5 4.5 0 0 1-.848-3zm-33.15-7.975q.548-3.773 1.173-8.718t1.173-10.828q.547 5.883 1.134 10.828.606 4.946 1.134 8.718l.625 4.3h-5.864zm8.053 21.266H215.8l-9.46-54.729h-15.327l-9.382 54.729H192.5l1.173-7.193h8.991zM184.524 8.052h-28.068v10.321h8.131v44.408h11.806V18.373h8.131zm-40.656 0V26.5c0 1.264.039 2.645.091 4.144s.117 2.984.183 4.482.143 2.906.2 4.2c-.26-1.29-.547-2.658-.873-4.118s-.652-2.932-.99-4.4-.691-2.879-1.029-4.222l-5.082-18.53h-15.4v54.725h9.851V39.8c0-1.277-.039-2.658-.092-4.17s-.13-3.01-.209-4.508-.169-2.841-.247-4.066q.43 1.818.938 4.027c.339 1.473.691 2.958 1.043 4.457s.678 2.879.99 4.182l6.1 23.064h14.386V8.052zM97.505 49.49V21.344a4.5 4.5 0 0 1 .847-3 3.333 3.333 0 0 1 2.671-.991 3.228 3.228 0 0 1 2.632.991 4.572 4.572 0 0 1 .808 3V49.49a4.572 4.572 0 0 1-.808 3 3.228 3.228 0 0 1-2.632.991 3.333 3.333 0 0 1-2.671-.991 4.5 4.5 0 0 1-.847-3zM85.7 47.848q.02 8.014 3.935 11.949c2.606 2.619 6.411 3.935 11.389 3.922 4.978.013 8.757-1.3 11.35-3.922s3.883-6.606 3.9-11.949V22.986q-.02-8.033-3.9-11.949C109.78 8.417 106 7.1 101.023 7.114c-4.978-.013-8.783 1.3-11.389 3.922s-3.922 6.594-3.934 11.95zM64.042 49.49V21.344a4.494 4.494 0 0 1 .847-3 3.332 3.332 0 0 1 2.671-.991 3.227 3.227 0 0 1 2.632.991 4.569 4.569 0 0 1 .808 3v8.209h10.868v-6.567q-.02-8.033-3.74-11.949C75.639 8.417 71.991 7.1 67.17 7.114c-4.861-.013-8.561 1.3-11.1 3.922s-3.82 6.594-3.833 11.95v24.862q.02 8.014 3.831 11.949c2.541 2.619 6.242 3.935 11.1 3.922 4.821.013 8.469-1.3 10.958-3.922s3.727-6.606 3.74-11.949v-8.21H71v9.852a4.569 4.569 0 0 1-.808 3 3.227 3.227 0 0 1-2.632.991 3.332 3.332 0 0 1-2.671-.991 4.494 4.494 0 0 1-.847-3zM35.818 62.781h11.806V8.052H35.818zM13.067 43.392H2.2v4.456c.013 5.343 1.238 9.33 3.7 11.949s6.1 3.935 10.92 3.922a18.188 18.188 0 0 0 8.249-1.681 10.827 10.827 0 0 0 4.9-4.848 16.864 16.864 0 0 0 1.631-7.778v-1.173a21.6 21.6 0 0 0-.978-6.789 15.549 15.549 0 0 0-2.522-4.808 19.3 19.3 0 0 0-3.427-3.414c-1.251-.951-2.5-1.824-3.753-2.606s-2.385-1.577-3.427-2.384a10.363 10.363 0 0 1-2.511-2.738A6.968 6.968 0 0 1 14 21.813v-.469a4.825 4.825 0 0 1 .743-3 3.1 3.1 0 0 1 2.619-.991 3.02 3.02 0 0 1 2.528.991 4.823 4.823 0 0 1 .756 3v4.77H31.6v-3.128q-.02-8.033-3.74-11.949C25.367 8.417 21.719 7.1 16.9 7.114A17.86 17.86 0 0 0 8.675 8.8 10.762 10.762 0 0 0 3.8 13.669 17.367 17.367 0 0 0 2.2 21.5v.313a21.608 21.608 0 0 0 .976 6.787 15.617 15.617 0 0 0 2.515 4.8 19.7 19.7 0 0 0 3.427 3.4 45.99 45.99 0 0 0 3.753 2.593 41.476 41.476 0 0 1 3.429 2.383 10.209 10.209 0 0 1 2.515 2.75 7.035 7.035 0 0 1 .977 3.714v1.25a4.736 4.736 0 0 1-.769 3 3.126 3.126 0 0 1-2.593.991 3.126 3.126 0 0 1-2.593-.991 4.734 4.734 0 0 1-.768-3zm319.025 46.166v-9.706a2.974 2.974 0 0 1 .29-1.285 2.448 2.448 0 0 1 .777-.939 1.888 1.888 0 0 1 1.109-.363 2 2 0 0 1 .948.188 1.249 1.249 0 0 1 .576.691 4.04 4.04 0 0 1 .192 1.4v10.014h1.409V79.519a5.936 5.936 0 0 0-.2-1.7 2.621 2.621 0 0 0-.563-1.071 2.045 2.045 0 0 0-.853-.555 3.264 3.264 0 0 0-1.067-.158 2.738 2.738 0 0 0-2.159 1 3.059 3.059 0 0 0-.555 1.024v-1.766h-1.331v13.265zm-5.378-3.534a2.976 2.976 0 0 1-.29 1.284 2.47 2.47 0 0 1-.777.939 1.887 1.887 0 0 1-1.109.363 2.182 2.182 0 0 1-.948-.17 1.178 1.178 0 0 1-.572-.658 3.622 3.622 0 0 1-.2-1.349v-.281a3.207 3.207 0 0 1 .273-1.374 2.857 2.857 0 0 1 .7-.948 5.243 5.243 0 0 1 .952-.679c.346-.2.691-.388 1.033-.572a6.189 6.189 0 0 0 .934-.627zm.308 3.534h1.357a11.984 11.984 0 0 1-.191-1.694c-.016-.319-.026-.692-.03-1.118s-.008-.931-.008-1.515v-5.507a5.131 5.131 0 0 0-.376-2.117 2.451 2.451 0 0 0-1.092-1.195 4.3 4.3 0 0 0-3.517 0 2.453 2.453 0 0 0-1.092 1.195 5.137 5.137 0 0 0-.376 2.117v.768h1.331v-.922a2.8 2.8 0 0 1 .427-1.72 1.687 1.687 0 0 1 1.443-.585 1.9 1.9 0 0 1 1.063.26 1.455 1.455 0 0 1 .58.777 3.765 3.765 0 0 1 .175 1.267v.154a1.484 1.484 0 0 1-.294.913 2.686 2.686 0 0 1-.755.666c-.316.192-.661.385-1.037.572s-.751.4-1.127.627a5.4 5.4 0 0 0-1.037.841 3.73 3.73 0 0 0-.755 1.2 4.612 4.612 0 0 0-.295 1.712v.23a5.692 5.692 0 0 0 .2 1.643 2.434 2.434 0 0 0 .563 1.02 2.012 2.012 0 0 0 .854.521 3.55 3.55 0 0 0 1.067.145 2.852 2.852 0 0 0 1.208-.265 2.792 2.792 0 0 0 .922-.7 2.846 2.846 0 0 0 .559-.982c.013.311.039.611.077.9a5.925 5.925 0 0 0 .156.792zm-14.264-17.926v17.926h.973l.384-1.664a3.007 3.007 0 0 0 .572.977 2.746 2.746 0 0 0 .913.683 2.826 2.826 0 0 0 1.2.26 3.282 3.282 0 0 0 1.067-.158 2.043 2.043 0 0 0 .853-.555 2.622 2.622 0 0 0 .563-1.072 5.931 5.931 0 0 0 .205-1.7v-6.81a5.931 5.931 0 0 0-.205-1.7 2.621 2.621 0 0 0-.563-1.071 2.043 2.043 0 0 0-.853-.555 3.265 3.265 0 0 0-1.067-.158 2.837 2.837 0 0 0-1.144.235 2.8 2.8 0 0 0-.888.623 2.873 2.873 0 0 0-.581.884v-6.145zm1.434 8.22a2.966 2.966 0 0 1 .29-1.285 2.446 2.446 0 0 1 .777-.939 1.889 1.889 0 0 1 1.109-.363 2 2 0 0 1 .948.188 1.248 1.248 0 0 1 .576.691 4.032 4.032 0 0 1 .192 1.4v6.761a4.032 4.032 0 0 1-.192 1.4 1.248 1.248 0 0 1-.576.692 2 2 0 0 1-.948.187 1.885 1.885 0 0 1-1.109-.363 2.472 2.472 0 0 1-.777-.939 2.981 2.981 0 0 1-.29-1.284zM306.51 91.99a3.223 3.223 0 0 1-1.182-.175 1.072 1.072 0 0 1-.58-.525 1.948 1.948 0 0 1-.158-.862 1.912 1.912 0 0 1 .115-.683 1.163 1.163 0 0 1 .436-.564 1.5 1.5 0 0 1 .883-.239H308a2.95 2.95 0 0 1 .952.119 1.02 1.02 0 0 1 .589.452 1.838 1.838 0 0 1 .2.939 1.619 1.619 0 0 1-.226.909 1.266 1.266 0 0 1-.645.487 2.934 2.934 0 0 1-1 .14zm2.126-12.5v2.663a2.761 2.761 0 0 1-.444 1.733 2.187 2.187 0 0 1-3 0 2.76 2.76 0 0 1-.444-1.733v-2.659a2.762 2.762 0 0 1 .444-1.733 2.188 2.188 0 0 1 3 0 2.763 2.763 0 0 1 .444 1.733zm-5.224 11.139a2.652 2.652 0 0 0 .277 1.272 1.893 1.893 0 0 0 .922.837 4.148 4.148 0 0 0 1.695.3h1.664a4.349 4.349 0 0 0 1.682-.29 2.234 2.234 0 0 0 1.084-.9 2.938 2.938 0 0 0 .384-1.553 3.228 3.228 0 0 0-.346-1.609 1.983 1.983 0 0 0-1.024-.87 4.59 4.59 0 0 0-1.677-.26h-2.1a1.1 1.1 0 0 1-.585-.153.886.886 0 0 1-.333-.376 1.164 1.164 0 0 1-.107-.5 1.24 1.24 0 0 1 .077-.431 1.07 1.07 0 0 1 .222-.367.791.791 0 0 1 .367-.226 3.494 3.494 0 0 0 .508.081c.183.013.376.021.568.021a4.1 4.1 0 0 0 1.814-.35 2.414 2.414 0 0 0 1.144-1.144 4.747 4.747 0 0 0 .4-2.091v-3.602a1.533 1.533 0 0 1 .12-.683.419.419 0 0 1 .393-.239 2.006 2.006 0 0 1 .274.017c.089.013.188.034.29.06v-1.229a1.253 1.253 0 0 0-.234-.047h-.329a.955.955 0 0 0-.777.325 1.505 1.505 0 0 0-.3.8 2.44 2.44 0 0 0-1.122-1.058 4.06 4.06 0 0 0-1.72-.325 4 4 0 0 0-1.788.35 2.406 2.406 0 0 0-1.126 1.144 4.895 4.895 0 0 0-.388 2.091v2.408a4.823 4.823 0 0 0 .354 2.006 2.43 2.43 0 0 0 1.028 1.143 1.781 1.781 0 0 0-.858.982 2.44 2.44 0 0 0 .051 1.767 1.711 1.711 0 0 0 .576.683 1.762 1.762 0 0 0-.8.76 2.643 2.643 0 0 0-.28 1.26zm-6.5-15.723h.922l2.3-3.047h-1.562zm2.868 11.114a2.988 2.988 0 0 1-.29 1.284 2.469 2.469 0 0 1-.777.939 1.887 1.887 0 0 1-1.11.363 2.182 2.182 0 0 1-.947-.17 1.18 1.18 0 0 1-.572-.658 3.62 3.62 0 0 1-.2-1.349v-.281a3.222 3.222 0 0 1 .273-1.374 2.852 2.852 0 0 1 .7-.948 5.237 5.237 0 0 1 .952-.679c.346-.2.692-.388 1.033-.572a6.185 6.185 0 0 0 .934-.627zm.308 3.534h1.357c-.051-.269-.09-.542-.124-.811s-.051-.564-.068-.883-.026-.692-.03-1.118-.009-.931-.009-1.515v-5.503a5.145 5.145 0 0 0-.376-2.117 2.455 2.455 0 0 0-1.092-1.195 4.3 4.3 0 0 0-3.517 0 2.455 2.455 0 0 0-1.092 1.195 5.14 5.14 0 0 0-.376 2.117v.768h1.332v-.922a2.8 2.8 0 0 1 .427-1.72 1.686 1.686 0 0 1 1.443-.585 1.9 1.9 0 0 1 1.063.26 1.451 1.451 0 0 1 .581.777 3.772 3.772 0 0 1 .175 1.267v.154a1.49 1.49 0 0 1-.294.913 2.688 2.688 0 0 1-.756.666c-.316.192-.662.385-1.037.572s-.751.4-1.127.627a5.392 5.392 0 0 0-1.037.841 3.729 3.729 0 0 0-.755 1.2 4.619 4.619 0 0 0-.294 1.712v.23a5.69 5.69 0 0 0 .2 1.643 2.43 2.43 0 0 0 .564 1.02 2.011 2.011 0 0 0 .853.521 3.55 3.55 0 0 0 1.067.145 2.848 2.848 0 0 0 1.207-.265 2.788 2.788 0 0 0 .922-.7 2.855 2.855 0 0 0 .559-.982c.013.311.038.611.077.9a5.929 5.929 0 0 0 .152.792zm-7.81 0V71.632h-1.434v17.926zm-4.1-15.723v-2.2h-1.434v2.2zm0 15.723V76.293h-1.434v13.265zm-6.12-5.224c-.154.7-.291 1.383-.406 2.053s-.222 1.293-.312 1.865c-.064-.572-.158-1.191-.277-1.865s-.26-1.357-.414-2.053l-1.818-8.041h-1.434l3.022 13.265h1.741l3.022-13.265h-1.306zm-11.728 2.125a3.435 3.435 0 0 1-.167 1.178 1.379 1.379 0 0 1-.572.743 2.056 2.056 0 0 1-1.105.256 2 2 0 0 1-1.109-.273 1.52 1.52 0 0 1-.589-.794 3.914 3.914 0 0 1-.171-1.263V85.2h-1.331v.973a5.012 5.012 0 0 0 .371 2.091 2.381 2.381 0 0 0 1.084 1.178 3.787 3.787 0 0 0 1.771.367 3.975 3.975 0 0 0 1.776-.354 2.394 2.394 0 0 0 1.1-1.127 4.531 4.531 0 0 0 .376-1.976v-.025a4.284 4.284 0 0 0-.278-1.592 3.628 3.628 0 0 0-.721-1.127 5.655 5.655 0 0 0-.986-.819q-.537-.352-1.076-.666a8.659 8.659 0 0 1-.986-.666 2.949 2.949 0 0 1-.721-.828 2.315 2.315 0 0 1-.277-1.14v-.1a3.437 3.437 0 0 1 .17-1.178 1.43 1.43 0 0 1 .589-.742 2.083 2.083 0 0 1 1.109-.256 2 2 0 0 1 1.11.273 1.5 1.5 0 0 1 .589.794 3.9 3.9 0 0 1 .171 1.263v.871h1.332v-.743a5 5 0 0 0-.376-2.091 2.43 2.43 0 0 0-1.1-1.178 3.806 3.806 0 0 0-1.776-.367 3.215 3.215 0 0 0-2.39.811 3.537 3.537 0 0 0-.837 2.595v.026a4.352 4.352 0 0 0 .278 1.6 3.588 3.588 0 0 0 .712 1.133 5.689 5.689 0 0 0 .982.807c.354.23.713.448 1.067.649a8.516 8.516 0 0 1 .982.653 2.749 2.749 0 0 1 .717.811 2.291 2.291 0 0 1 .278 1.135zm-7.272-12.625v-2.2h-1.438v2.2zm0 15.723v-13.26h-1.438v13.265zm-4.1 0V71.632h-1.434v17.926zm-8.247-14.643h.922l2.3-3.047h-1.562zm2.868 11.114a2.984 2.984 0 0 1-.291 1.284 2.471 2.471 0 0 1-.776.939 1.888 1.888 0 0 1-1.11.363 2.183 2.183 0 0 1-.948-.17 1.179 1.179 0 0 1-.572-.658 3.619 3.619 0 0 1-.2-1.349v-.281a3.213 3.213 0 0 1 .273-1.374 2.856 2.856 0 0 1 .7-.948 5.246 5.246 0 0 1 .952-.679c.346-.2.691-.388 1.033-.572a6.222 6.222 0 0 0 .935-.627zm.307 3.534h1.357c-.051-.269-.09-.542-.124-.811s-.051-.564-.068-.883-.025-.692-.03-1.118-.008-.931-.008-1.515v-5.507a5.135 5.135 0 0 0-.376-2.117 2.453 2.453 0 0 0-1.092-1.195 4.3 4.3 0 0 0-3.517 0 2.453 2.453 0 0 0-1.092 1.195 5.136 5.136 0 0 0-.376 2.117v.768h1.332v-.922a2.8 2.8 0 0 1 .427-1.72 1.687 1.687 0 0 1 1.443-.585 1.9 1.9 0 0 1 1.063.26 1.452 1.452 0 0 1 .581.777 3.781 3.781 0 0 1 .175 1.267v.154a1.49 1.49 0 0 1-.295.913 2.694 2.694 0 0 1-.755.666c-.316.192-.662.385-1.037.572s-.751.4-1.127.627a5.391 5.391 0 0 0-1.037.841 3.729 3.729 0 0 0-.755 1.2 4.619 4.619 0 0 0-.295 1.712v.23a5.692 5.692 0 0 0 .2 1.643 2.431 2.431 0 0 0 .563 1.02 2.012 2.012 0 0 0 .854.521 3.55 3.55 0 0 0 1.067.145 2.852 2.852 0 0 0 1.208-.265 2.792 2.792 0 0 0 .922-.7 2.851 2.851 0 0 0 .559-.982c.013.311.038.611.077.9a5.926 5.926 0 0 0 .157.792zm-8.092.154a5.76 5.76 0 0 0 .666-.038 3.407 3.407 0 0 0 .589-.115v-1.18a2.162 2.162 0 0 1-.418.081 7.374 7.374 0 0 1-.606.021.993.993 0 0 1-.8-.281 1.466 1.466 0 0 1-.248-.973v-9.705h2.074v-1.229h-2.074V73.45h-1.434v2.843h-1.152v1.229h1.152v9.808a3.357 3.357 0 0 0 .239 1.392 1.5 1.5 0 0 0 .734.76 2.942 2.942 0 0 0 1.279.229zm-5.3-15.877v-2.2h-1.434v2.2zm0 15.723V76.293h-1.434v13.265zm-7.683 2.432a3.218 3.218 0 0 1-1.182-.175 1.072 1.072 0 0 1-.581-.525 1.944 1.944 0 0 1-.158-.862 1.908 1.908 0 0 1 .115-.683 1.168 1.168 0 0 1 .435-.564 1.5 1.5 0 0 1 .884-.239h1.976a2.95 2.95 0 0 1 .952.119 1.02 1.02 0 0 1 .589.452 1.838 1.838 0 0 1 .2.939 1.622 1.622 0 0 1-.226.909 1.269 1.269 0 0 1-.645.487 2.934 2.934 0 0 1-1 .14zm2.125-12.5v2.663a2.759 2.759 0 0 1-.444 1.733 2.187 2.187 0 0 1-3 0 2.762 2.762 0 0 1-.444-1.733v-2.659a2.764 2.764 0 0 1 .444-1.733 2.188 2.188 0 0 1 3 0 2.761 2.761 0 0 1 .445 1.733zm-5.224 11.139a2.649 2.649 0 0 0 .277 1.272 1.89 1.89 0 0 0 .922.837 4.146 4.146 0 0 0 1.694.3h1.665a4.349 4.349 0 0 0 1.681-.29 2.233 2.233 0 0 0 1.084-.9 2.943 2.943 0 0 0 .384-1.553 3.23 3.23 0 0 0-.346-1.609 1.982 1.982 0 0 0-1.024-.87 4.589 4.589 0 0 0-1.677-.26h-2.1a1.1 1.1 0 0 1-.585-.153.887.887 0 0 1-.333-.376 1.168 1.168 0 0 1-.106-.5 1.24 1.24 0 0 1 .077-.431 1.078 1.078 0 0 1 .222-.367.8.8 0 0 1 .367-.226 3.507 3.507 0 0 0 .508.081c.183.013.376.021.568.021a4.1 4.1 0 0 0 1.814-.35 2.418 2.418 0 0 0 1.144-1.144 4.752 4.752 0 0 0 .4-2.091v-3.602a1.529 1.529 0 0 1 .12-.683.418.418 0 0 1 .393-.239 2 2 0 0 1 .273.017c.09.013.188.034.29.06v-1.229a1.256 1.256 0 0 0-.235-.047h-.328a.954.954 0 0 0-.777.325 1.5 1.5 0 0 0-.3.8 2.444 2.444 0 0 0-1.122-1.058 4.062 4.062 0 0 0-1.72-.325 4 4 0 0 0-1.788.35 2.4 2.4 0 0 0-1.127 1.144 4.894 4.894 0 0 0-.388 2.091v2.408a4.823 4.823 0 0 0 .354 2.006 2.428 2.428 0 0 0 1.028 1.143 1.786 1.786 0 0 0-.858.982 2.443 2.443 0 0 0 .051 1.767 1.706 1.706 0 0 0 .576.683 1.76 1.76 0 0 0-.8.76 2.643 2.643 0 0 0-.277 1.26zm-2.356-16.8v-2.2h-1.434v2.2zm0 15.723V76.293h-1.434v13.265zm-5.224 0h1.383a10.778 10.778 0 0 1-.214-1.694c-.017-.319-.03-.692-.034-1.118s-.008-.931-.008-1.515v-13.6h-1.409V77.8a3.038 3.038 0 0 0-.6-.9 2.731 2.731 0 0 0-.9-.632 2.839 2.839 0 0 0-1.144-.235 3.243 3.243 0 0 0-1.058.158 2.071 2.071 0 0 0-.854.555 2.677 2.677 0 0 0-.568 1.071 6.07 6.07 0 0 0-.209 1.7v6.812a6.092 6.092 0 0 0 .209 1.7 2.678 2.678 0 0 0 .574 1.071 2.071 2.071 0 0 0 .854.555 3.26 3.26 0 0 0 1.058.158 2.909 2.909 0 0 0 1.191-.252 2.842 2.842 0 0 0 1.5-1.643c.012.311.038.606.077.888a5.235 5.235 0 0 0 .153.752zm-.28-3.552a2.984 2.984 0 0 1-.291 1.284 2.467 2.467 0 0 1-.777.939 1.884 1.884 0 0 1-1.109.363 2.013 2.013 0 0 1-.952-.187 1.234 1.234 0 0 1-.589-.692 3.913 3.913 0 0 1-.2-1.4v-6.762a3.913 3.913 0 0 1 .2-1.4 1.234 1.234 0 0 1 .589-.691 2.016 2.016 0 0 1 .952-.188 1.888 1.888 0 0 1 1.109.363 2.441 2.441 0 0 1 .777.939 2.97 2.97 0 0 1 .291 1.285zm-13.47.026a2.984 2.984 0 0 1-.291 1.284 2.467 2.467 0 0 1-.777.939 1.886 1.886 0 0 1-1.109.363 2.184 2.184 0 0 1-.948-.17 1.179 1.179 0 0 1-.572-.658 3.614 3.614 0 0 1-.2-1.349v-.281a3.221 3.221 0 0 1 .273-1.374 2.861 2.861 0 0 1 .7-.948 5.236 5.236 0 0 1 .952-.679c.346-.2.692-.388 1.033-.572a6.177 6.177 0 0 0 .935-.627zm.307 3.534h1.357c-.051-.269-.09-.542-.124-.811s-.051-.564-.068-.883-.025-.692-.03-1.118-.009-.931-.009-1.515v-5.509a5.137 5.137 0 0 0-.376-2.117 2.453 2.453 0 0 0-1.092-1.195 4.3 4.3 0 0 0-3.516 0 2.452 2.452 0 0 0-1.093 1.195 5.14 5.14 0 0 0-.376 2.117v.768h1.332v-.922a2.8 2.8 0 0 1 .427-1.72 1.687 1.687 0 0 1 1.443-.585 1.9 1.9 0 0 1 1.063.26 1.457 1.457 0 0 1 .581.777 3.775 3.775 0 0 1 .175 1.267v.154a1.489 1.489 0 0 1-.295.913 2.685 2.685 0 0 1-.755.666c-.315.192-.661.385-1.037.572s-.751.4-1.127.627a5.365 5.365 0 0 0-1.037.841 3.725 3.725 0 0 0-.756 1.2 4.609 4.609 0 0 0-.294 1.712v.23a5.683 5.683 0 0 0 .2 1.643 2.436 2.436 0 0 0 .563 1.02 2.013 2.013 0 0 0 .854.521 3.545 3.545 0 0 0 1.067.145 2.851 2.851 0 0 0 1.208-.265 2.788 2.788 0 0 0 .922-.7 2.846 2.846 0 0 0 .559-.982c.013.311.038.611.077.9a5.927 5.927 0 0 0 .157.792zm-17.055 2a3.055 3.055 0 0 1-1-.128.84.84 0 0 1-.486-.384 1.312 1.312 0 0 1-.128-.64 1.37 1.37 0 0 1 .1-.525.918.918 0 0 1 .359-.41 1.235 1.235 0 0 1 .666-.167h2.055a2.309 2.309 0 0 1 .713.086.768.768 0 0 1 .444.333 1.308 1.308 0 0 1 .149.683.983.983 0 0 1-.4.9 2.349 2.349 0 0 1-1.263.248zm1.665-12.01v2.25a1.932 1.932 0 0 1-.32 1.225 1.626 1.626 0 0 1-2.168 0 1.905 1.905 0 0 1-.328-1.225v-2.255a1.953 1.953 0 0 1 .328-1.238 1.59 1.59 0 0 1 2.168 0 1.98 1.98 0 0 1 .321 1.238zm-5.326 11.14a2.409 2.409 0 0 0 .324 1.31 2 2 0 0 0 1.033.8 5.3 5.3 0 0 0 1.844.269h2.026a4.566 4.566 0 0 0 2.953-.789 2.867 2.867 0 0 0 .939-2.36 3.018 3.018 0 0 0-.811-2.317 3.662 3.662 0 0 0-2.595-.781h-2.436a.9.9 0 0 1-.474-.115.671.671 0 0 1-.265-.282.855.855 0 0 1-.08-.371 1.019 1.019 0 0 1 .094-.44.663.663 0 0 1 .29-.3c.167.013.337.026.521.034s.363.017.555.017a5.954 5.954 0 0 0 2.194-.346 2.6 2.6 0 0 0 1.357-1.2 4.738 4.738 0 0 0 .469-2.292v-2.366a.976.976 0 0 1 .12-.533.408.408 0 0 1 .367-.184 3.192 3.192 0 0 1 .692.077V76.37a1.309 1.309 0 0 0-.316-.068c-.1-.009-.227-.009-.376-.009a1.174 1.174 0 0 0-.815.269 1.452 1.452 0 0 0-.414.807 2.618 2.618 0 0 0-1.332-1.054 5.726 5.726 0 0 0-2.023-.3 5.583 5.583 0 0 0-2.142.342 2.529 2.529 0 0 0-1.323 1.186 4.89 4.89 0 0 0-.452 2.288v1.69a5 5 0 0 0 .4 2.168 2.59 2.59 0 0 0 1.165 1.212 2.08 2.08 0 0 0-.824.785 2.608 2.608 0 0 0-.329 1.34 2.877 2.877 0 0 0 .167 1.007 1.8 1.8 0 0 0 .55.76 1.914 1.914 0 0 0-.772.734 2.31 2.31 0 0 0-.281 1.158zm-7.042-15.672h1.769l2.484-3.252h-2.561zm2.74 10.806a2.1 2.1 0 0 1-.2.927 1.6 1.6 0 0 1-.546.648 1.457 1.457 0 0 1-.815.243 1.493 1.493 0 0 1-.7-.132.89.89 0 0 1-.435-.469 2.4 2.4 0 0 1-.149-.935v-.18a2.312 2.312 0 0 1 .26-1.126 2.353 2.353 0 0 1 .67-.751 5.248 5.248 0 0 1 .917-.538c.333-.158.666-.315.994-.478zm.41 3.739h2.484q-.083-.448-.141-.871c-.038-.282-.064-.585-.085-.909s-.034-.687-.043-1.1-.013-.892-.013-1.447v-5.025a4.5 4.5 0 0 0-.969-3.184 3.751 3.751 0 0 0-2.873-1.016 3.833 3.833 0 0 0-2.906 1.016 4.485 4.485 0 0 0-.986 3.184v.64h2.433v-.973a2.012 2.012 0 0 1 .312-1.238 1.232 1.232 0 0 1 1.046-.427 1.191 1.191 0 0 1 1.02.427 2.01 2.01 0 0 1 .311 1.238v.154a1.165 1.165 0 0 1-.3.789 2.7 2.7 0 0 1-.777.559c-.32.162-.674.324-1.062.491a11.128 11.128 0 0 0-1.153.568 4.928 4.928 0 0 0-1.063.8 3.613 3.613 0 0 0-.773 1.195 4.668 4.668 0 0 0-.3 1.741v.2a4.922 4.922 0 0 0 .371 2.078 2.2 2.2 0 0 0 1.007 1.076 3.207 3.207 0 0 0 1.464.3 3 3 0 0 0 1.216-.252 2.687 2.687 0 0 0 .9-.674 2.867 2.867 0 0 0 .568-.969 8.779 8.779 0 0 0 .115.9 3.892 3.892 0 0 0 .196.724zm-9.731-3.38a1.81 1.81 0 0 1-.307 1.178 1.274 1.274 0 0 1-1.076.41 1.207 1.207 0 0 1-1.054-.452 2.082 2.082 0 0 1-.3-1.237v-.922H169.2v.666a4.142 4.142 0 0 0 1 3.048 3.889 3.889 0 0 0 2.864.973 4.758 4.758 0 0 0 2.083-.414 2.915 2.915 0 0 0 1.323-1.263 4.532 4.532 0 0 0 .461-2.138v-.077a4.686 4.686 0 0 0-.286-1.715 3.407 3.407 0 0 0-.734-1.156 4.416 4.416 0 0 0-1.007-.764 11.874 11.874 0 0 0-1.093-.542 11.14 11.14 0 0 1-1.007-.483 2.33 2.33 0 0 1-.734-.589 1.361 1.361 0 0 1-.286-.871v-.154a1.838 1.838 0 0 1 .316-1.181 1.282 1.282 0 0 1 1.067-.41 1.207 1.207 0 0 1 1.054.452 2.086 2.086 0 0 1 .3 1.238v.768h2.407v-.512a4.14 4.14 0 0 0-1-3.047 3.84 3.84 0 0 0-2.842-.973 4.805 4.805 0 0 0-2.1.414 2.917 2.917 0 0 0-1.332 1.255 4.471 4.471 0 0 0-.454 2.115v.051a4.842 4.842 0 0 0 .286 1.733 3.365 3.365 0 0 0 .734 1.157 4.391 4.391 0 0 0 1.007.759 11.55 11.55 0 0 0 1.093.529 10.693 10.693 0 0 1 1.007.47 2.264 2.264 0 0 1 .734.58 1.338 1.338 0 0 1 .286.866zm-12.189 3.38v-9.5a2.155 2.155 0 0 1 .2-.926 1.575 1.575 0 0 1 .538-.649 1.407 1.407 0 0 1 .8-.243 1.485 1.485 0 0 1 .708.145.941.941 0 0 1 .427.512 2.662 2.662 0 0 1 .145.982v9.68h2.612V79.7a5.508 5.508 0 0 0-.371-2.206 2.312 2.312 0 0 0-1.007-1.152 2.961 2.961 0 0 0-1.464-.329 2.909 2.909 0 0 0-1.276.281 2.742 2.742 0 0 0-.931.743 3.12 3.12 0 0 0-.559 1.05v-1.794h-2.432v13.265zm-7.068-9.68v6.095a1.883 1.883 0 0 1-.337 1.225 1.323 1.323 0 0 1-1.071.414 1.353 1.353 0 0 1-1.1-.414 1.879 1.879 0 0 1-.333-1.225v-6.1a1.877 1.877 0 0 1 .333-1.225 1.352 1.352 0 0 1 1.1-.414 1.322 1.322 0 0 1 1.071.414 1.881 1.881 0 0 1 .336 1.225zm2.587 5.736v-5.383a4.38 4.38 0 0 0-1.038-3.2 3.951 3.951 0 0 0-2.957-1.029 4 4 0 0 0-2.985 1.033 4.382 4.382 0 0 0-1.042 3.2v5.378a4.382 4.382 0 0 0 1.042 3.2 4 4 0 0 0 2.979 1.028 3.952 3.952 0 0 0 2.957-1.028 4.38 4.38 0 0 0 1.043-3.204zm-10.756 4.1q.448 0 .883-.038a7.015 7.015 0 0 0 .807-.115v-2.2a2.031 2.031 0 0 1-.431.068c-.154.009-.341.009-.568.009a.865.865 0 0 1-.679-.23 1.116 1.116 0 0 1-.218-.768v-7.924h1.9v-2.228h-1.9V73.45h-2.586v2.843h-1.127v2.228h1.127v8.271a4.234 4.234 0 0 0 .286 1.7 1.814 1.814 0 0 0 .9.93 3.745 3.745 0 0 0 1.605.289zm-11.8-11.191h4.276l-4.558 9.091v1.946h7.4V87.33h-4.558l4.558-9.091v-1.946h-7.119zm-1.747-4.228v-2.668h-2.612V74.3zm0 15.262V76.293h-2.612v13.265zm-12.522-17.93v17.926h2l.461-1.716a3.051 3.051 0 0 0 .555 1.02 2.745 2.745 0 0 0 .931.708 2.945 2.945 0 0 0 1.255.269 3.007 3.007 0 0 0 1.464-.329 2.313 2.313 0 0 0 1.007-1.152 5.532 5.532 0 0 0 .371-2.206V79.7a5.516 5.516 0 0 0-.371-2.206 2.311 2.311 0 0 0-1.007-1.152 2.96 2.96 0 0 0-1.464-.329 2.905 2.905 0 0 0-1.114.214 2.758 2.758 0 0 0-.87.572 3.014 3.014 0 0 0-.6.828v-5.995zm2.612 8.425a2.143 2.143 0 0 1 .2-.926 1.575 1.575 0 0 1 .538-.649 1.408 1.408 0 0 1 .8-.243 1.483 1.483 0 0 1 .708.145.939.939 0 0 1 .427.512 2.662 2.662 0 0 1 .145.982v6.095a2.66 2.66 0 0 1-.145.982.953.953 0 0 1-.427.512 1.48 1.48 0 0 1-.708.145 1.41 1.41 0 0 1-.8-.243 1.578 1.578 0 0 1-.538-.649 2.145 2.145 0 0 1-.2-.926zm218.191-68.78c-.011-.139-.027-.279-.047-.423s-.043-.287-.067-.428-.05-.276-.075-.405l-.392-1.952h-1.087V12.8h.648v-2.259c0-.17 0-.336-.007-.5s-.009-.323-.016-.484-.016-.327-.025-.5a50.39 50.39 0 0 0 .154.973c.027.159.058.327.089.5l.467 2.27h.608l.466-2.263.089-.5c.028-.162.054-.319.079-.479s.051-.324.075-.494c-.009.17-.016.337-.023.5s-.013.323-.017.484-.007.327-.007.5V12.8h.756V8.069h-1.081l-.392 1.952q-.037.194-.074.405c-.024.141-.048.284-.068.428s-.04.284-.053.423zM339.7 8.069h-2.21v.676h.716V12.8h.777V8.744h.716zm-56.926 0h43.773a10.976 10.976 0 0 1 10.943 10.943v32.831a10.976 10.976 0 0 1-10.943 10.943h-43.774z" fill="#004573"/><path d="M308.589 12.291a42.437 42.437 0 0 0-13.523 2.286 2.955 2.955 0 0 0-1.822 3.735 29.108 29.108 0 0 1 1.617 8.929 19.124 19.124 0 0 1-2.824 10.022 2.944 2.944 0 0 0-.228 2.528c2.887 7.841 7.26 15.563 17.288 18.382a2.629 2.629 0 0 0 1.594 0C320.708 55.354 325.1 47.633 328 39.792a3.025 3.025 0 0 0-.228-2.528 18.985 18.985 0 0 1-2.825-10.045 29.163 29.163 0 0 1 1.595-8.929 2.934 2.934 0 0 0-1.822-3.69 41.64 41.64 0 0 0-13.193-2.3c.017-3 .375-7.19 6.947-7.19 3.651 0 5.538 1.208 6.523 2.96h1.8c-1.172-2.572-2.933-5.076-8.327-5.076-8.68 0-9.751 6.483-9.887 9.3" fill="#6b8aad"/><path d="M309.507 32.685a.691.691 0 0 0 .456 0 .682.682 0 0 0 .251-.046 77.89 77.89 0 0 0 7.927-2.232 1.469 1.469 0 0 0-.957-2.779 60.83 60.83 0 0 1-5.968 1.708V19.178a1.481 1.481 0 1 0-2.961 0v10.159a55.125 55.125 0 0 1-5.967-1.708 1.47 1.47 0 0 0-1.868.911 1.452 1.452 0 0 0 .911 1.868 73.542 73.542 0 0 0 7.949 2.232.449.449 0 0 0 .228.046m.387-17.447a39.9 39.9 0 0 1 13.849 2.141c-2.283 6.975-2.876 14.082 1.48 21.388-2.785 7.568-6.7 14.128-15.329 16.559-8.616-2.431-12.533-8.991-15.307-16.559 4.345-7.306 3.753-14.413 1.458-21.388a39.981 39.981 0 0 1 13.848-2.142z" fill="#fff"/></svg>