<svg xmlns="http://www.w3.org/2000/svg" viewBox="0 0 255.121 150.407" fill="#33669a"><path d="M236.672 74.7l17.864-28.339h-12.4L225.622 72.43a6.2 6.2 0 0 0-.675 2.436c0 .418.249 1.783 2.555 5.392l12.422 19.553a9.143 9.143 0 0 0 7.717 4.24h7.48zM208.34 46.357v42.859l-22.989-36.841a12.789 12.789 0 0 0-10.851-6.018h-22.672a15.25 15.25 0 0 0-15.412 15.248c0 7.665 4.945 13.764 11.539 15.248l12.857 2.884a7.642 7.642 0 0 1 6.07 8.094 8.008 8.008 0 0 1-8.063 7.154h-18.806l-5.742 9.066H160.2c9.422 0 17.417-7.44 17.524-16.862a16.812 16.812 0 0 0-13.184-16.683l-13.187-2.884a5.092 5.092 0 0 1-4.121-4.781v-2.473c0-2.719 2.061-4.944 5.522-4.944h14.44a11.856 11.856 0 0 1 10.031 5.534l27.164 43.093h9.655a5.77 5.77 0 0 0 5.77-5.771V46.357zM20.587 34.259v8a9.059 9.059 0 0 1-.14 1.588 8.521 8.521 0 0 1-.42 1.527 7.9 7.9 0 0 1-.7 1.411 7.36 7.36 0 0 1-.984 1.242 42.089 42.089 0 0 0-5.063 6.146 41.379 41.379 0 0 0-3.821 7.033A41.13 41.13 0 0 0 6.2 77.288a41.553 41.553 0 0 0 .361 5.475 41 41 0 0 0 2.75 10.255 41.455 41.455 0 0 0 2.3 4.69A21.069 21.069 0 0 1 12.7 99.9a19.782 19.782 0 0 1 .81 2.3 18.785 18.785 0 0 1 .512 2.374A17.747 17.747 0 0 1 14.21 107v4.054A46.795 46.795 0 0 1 .988 86.964a47.423 47.423 0 0 1 7.59-36.9 48.115 48.115 0 0 1 6.11-7.129q.489-.468.944-.969t.873-1.03q.417-.53.8-1.089t.715-1.147zM74.714 34.259l2.567 4.441q.34.586.72 1.146t.8 1.089q.417.53.872 1.03t.943.969a48.069 48.069 0 0 1 6.112 7.129 47.556 47.556 0 0 1-5.641 61.139V107a17.748 17.748 0 0 1 .193-2.432 18.442 18.442 0 0 1 .52-2.368 19.788 19.788 0 0 1 .811-2.3 20.88 20.88 0 0 1 1.087-2.193 41.21 41.21 0 0 0 3.993-9.686 40.956 40.956 0 0 0 1.053-5.259 41.591 41.591 0 0 0-.479-13.8 40.956 40.956 0 0 0-2.41-7.755 41.393 41.393 0 0 0-3.811-7.025 41.863 41.863 0 0 0-5.046-6.128 7.52 7.52 0 0 1-1-1.259 7.985 7.985 0 0 1-.711-1.42 8.526 8.526 0 0 1-.424-1.53 8.984 8.984 0 0 1-.141-1.589zM29.29 7.553l1.921 3.325V72.89l1.962 1.958v7.613l-6.868 9.672v27.739a46.349 46.349 0 0 1-2.277-1.222c-.251-.143-.5-.286-.744-.432a8.192 8.192 0 0 1-1.728-1.374 8.412 8.412 0 0 1-1.29-1.754 8.672 8.672 0 0 1-.807-2.029 8.778 8.778 0 0 1-.279-2.2v-19.51a3.766 3.766 0 0 1 .052-.628 3.814 3.814 0 0 1 .153-.606 3.813 3.813 0 0 1 .6-1.1l5.575-7.162V18.01h-2.29zM66.012 7.553l6.022 10.457h-2.286v63.843l5.575 7.162a3.949 3.949 0 0 1 .344.528 3.853 3.853 0 0 1 .251.574 3.712 3.712 0 0 1 .154.606 3.767 3.767 0 0 1 .053.628v19.511a8.779 8.779 0 0 1-.28 2.2 8.631 8.631 0 0 1-.808 2.029 8.417 8.417 0 0 1-1.291 1.754 8.2 8.2 0 0 1-1.729 1.374q-.369.219-.743.432t-.751.421q-.378.207-.759.408c-.255.133-.51.264-.768.393v-27.74l-6.868-9.672v-7.613l1.961-1.958V10.878z"/><path d="M59.131 0v70.834l-1.962 1.959v11.249l6.868 9.672v28.324q-1.919.7-3.909 1.246t-4.044.91q-2.053.369-4.164.558t-4.269.19q-2.158 0-4.269-.19t-4.165-.558q-2.052-.369-4.043-.91t-3.906-1.246V93.714l6.868-9.672V72.793l-1.959-1.959V0z"/></svg>