<svg xmlns="http://www.w3.org/2000/svg" viewBox="0 0 404.95 56.91"><path d="M6.27 0v56.91M18.82 0v56.91M44.88 0v56.91M57.43 0v56.91M83.48 0v56.91M0 37.12h95.55M0 11.06h95.55" stroke="#78909c"/><g fill="#7cb342"><path d="M76.35 15.357H48.82v-1.706a1.429 1.429 0 0 0-1.056-1.522 13.272 13.272 0 0 0-3.52-.326 14.052 14.052 0 0 0-4.05.44q-1.372.442-1.372 1.338 0 1.153 1.543 1.736a49.03 49.03 0 0 0 8.377 1.408q19.793 2.372 24.933 3.893 5.138 1.521 5.14 4.905 0 2.46-2.852 3.626-2.851 1.166-11.02 1.956-8.168.788-19.01.789a192.763 192.763 0 0 1-20.313-.91q-8.415-.91-11.02-2.318a4.37 4.37 0 0 1-2.605-3.996v-1.507h27.53v2.801a1.574 1.574 0 0 0 1.163 1.664 15.513 15.513 0 0 0 4.119.37 15.27 15.27 0 0 0 4.4-.47q1.442-.468 1.443-1.393 0-2.033-2.746-2.659-2.817-.625-13.87-2.09-11.055-1.478-14.646-2.147a22.67 22.67 0 0 1-5.95-1.848q-2.359-1.18-2.358-3.015 0-2.645 3.344-3.867a47.043 47.043 0 0 1 10.808-1.913q7.463-.689 18.025-.69 11.547 0 19.68.754 8.132.754 10.773 1.899a3.967 3.967 0 0 1 2.64 3.888z"/><path d="M109.605 27.025v4.43L88.601 44.73h21.004v4.43H57.619v-3.213l21.705-14.492h-19.16v-4.43zm71.749 12.961a10.436 10.436 0 0 1-.771 4.724q-.77 1.388-4.823 2.536a62.061 62.061 0 0 1-10.953 1.764q-6.901.615-16.078.615-8.71 0-15.643-.581a63.424 63.424 0 0 1-11.154-1.743q-4.221-1.162-5.025-2.53a10.148 10.148 0 0 1-.804-4.785V36.2a10.432 10.432 0 0 1 .77-4.723q.77-1.388 4.824-2.537a62.022 62.022 0 0 1 10.953-1.763q6.9-.615 16.079-.615 8.707 0 15.642.58a63.524 63.524 0 0 1 11.154 1.744q4.22 1.162 5.025 2.53a10.158 10.158 0 0 1 .804 4.784zm-28.204-7.273q0-1.545-.838-1.976a8.87 8.87 0 0 0-3.45-.43 12.54 12.54 0 0 0-3.383.348q-1.173.349-1.172 2.058v10.336q0 1.928.77 2.379a8.694 8.694 0 0 0 3.585.45 8.11 8.11 0 0 0 3.684-.519q.804-.519.804-2.474zm125.745-5.688V49.16h-24.654l-.034-14.943-9.814 14.943h-17.485l-10.35-14.601-.034 14.601h-24.652V27.025h36.493a50.21 50.21 0 0 1 3.348 4.706l4.005 5.63 6.482-10.336z"/></g><path d="M290.215 27.025h47.03v4.43h-18.826v4.197h17.62v4.211h-17.62v4.867h20.7v4.43h-48.904zm85.215 0V44.73h17.15v4.43h-45.354V27.025z" fill="#ffa726"/></svg>