<svg xmlns="http://www.w3.org/2000/svg" viewBox="0 0 619.587 441.856"><g fill="#e60000"><circle cx="314.659" cy="141.732" r="141.732"/><path d="M32.833 440.069L0 361.723h21.456l20.48 52.014 19.829-52.014h20.48l-31.856 78.346zm126.383-39.499a49.268 49.268 0 0 1-2.358 15.036 41.369 41.369 0 0 1-6.989 13.248 34.609 34.609 0 0 1-11.7 9.427 36.125 36.125 0 0 1-16.5 3.575 36.109 36.109 0 0 1-16.5-3.575 34.609 34.609 0 0 1-11.7-9.427 41.286 41.286 0 0 1-6.989-13.248 49.139 49.139 0 0 1-2.358-15.036 48.392 48.392 0 0 1 2.358-14.953 40.526 40.526 0 0 1 6.989-13.086 34.214 34.214 0 0 1 11.7-9.264 36.823 36.823 0 0 1 16.5-3.494 36.314 36.314 0 0 1 16.417 3.494 35.318 35.318 0 0 1 11.7 9.264 39.8 39.8 0 0 1 7.069 13.086 48.518 48.518 0 0 1 2.361 14.953zm-19.829-.08a37.129 37.129 0 0 0-1.139-9.3 22.627 22.627 0 0 0-3.414-7.584 17.492 17.492 0 0 0-5.527-5.056 16.476 16.476 0 0 0-15.279 0 17.44 17.44 0 0 0-5.525 5.056 22.544 22.544 0 0 0-3.414 7.584 38.856 38.856 0 0 0 0 18.676 24.759 24.759 0 0 0 3.332 7.582 16.1 16.1 0 0 0 5.527 5.138 15.489 15.489 0 0 0 7.72 1.874 15.038 15.038 0 0 0 7.639-1.874 17.164 17.164 0 0 0 5.527-5.138 23.673 23.673 0 0 0 3.414-7.582 36.864 36.864 0 0 0 1.138-9.376zm81.999 39.579l-.82-6.013a25.206 25.206 0 0 1-7.291 5.442 22.9 22.9 0 0 1-10.694 2.358 28.9 28.9 0 0 1-14.258-3.414 32.146 32.146 0 0 1-10.371-9.1 41.427 41.427 0 0 1-6.4-13.166 55.277 55.277 0 0 1-2.187-15.6 50.191 50.191 0 0 1 2.267-14.953 39.456 39.456 0 0 1 6.885-13.086 34.333 34.333 0 0 1 11.588-9.264 36.075 36.075 0 0 1 16.363-3.494 44.246 44.246 0 0 1 13.284 2.254v-30.379h20.158v108.415zm-1.633-61.109a29.822 29.822 0 0 0-10.832-2.284 18.859 18.859 0 0 0-8.894 1.961 17.576 17.576 0 0 0-6.144 5.3 24.179 24.179 0 0 0-3.638 7.5 30.384 30.384 0 0 0-1.213 8.56 40.968 40.968 0 0 0 1.052 9.38 24.423 24.423 0 0 0 3.232 7.829 17.379 17.379 0 0 0 5.5 5.381 14.672 14.672 0 0 0 7.84 2.037 16.277 16.277 0 0 0 7.6-2.037 13.228 13.228 0 0 0 5.5-4.813zm78.517 61.035l-.807-5.85a22.294 22.294 0 0 1-8.32 5.662 29.287 29.287 0 0 1-11.091 2.049 27.919 27.919 0 0 1-9.708-1.707 25.689 25.689 0 0 1-8.237-4.876 23.847 23.847 0 0 1-7.992-18.285 22.334 22.334 0 0 1 2.284-10.32 22.635 22.635 0 0 1 6.2-7.559 34.325 34.325 0 0 1 8.972-5.039 56.792 56.792 0 0 1 10.6-2.926 74.526 74.526 0 0 1 8.567-1.219q4.649-.4 7.749-.733v-1.137q0-6.5-3.351-9.266t-9.228-2.763a25.708 25.708 0 0 0-6.534.815 28.756 28.756 0 0 0-5.556 2.03 43.529 43.529 0 0 0-4.329 2.438 29.266 29.266 0 0 0-3.023 2.2l-6.666-14.147a30.039 30.039 0 0 1 3.982-2.763 45.873 45.873 0 0 1 6.5-3.169 54.406 54.406 0 0 1 8.615-2.6 47.946 47.946 0 0 1 10.32-1.056 38.981 38.981 0 0 1 11.867 1.707 23.98 23.98 0 0 1 9.264 5.36 24.859 24.859 0 0 1 6.1 9.253 37.2 37.2 0 0 1 2.2 13.557v50.345zm-1.618-36.661q-3.274.165-6.708.57t-6.545 1.056q-6.544 1.3-9.082 4.47a10.825 10.825 0 0 0-2.535 6.906 7.7 7.7 0 0 0 2.863 6.26q2.865 2.358 8.1 2.356a18.636 18.636 0 0 0 7.606-1.625 22.411 22.411 0 0 0 6.3-4.065zm82.263-53.801a30.814 30.814 0 0 0-3.82-1.382 25.965 25.965 0 0 0-7.559-.894 10.269 10.269 0 0 0-7.069 2.52q-2.846 2.519-2.846 8.206v3.739h16.905v16.255h-16.742v62.091H337.63v-62.09h-10.4v-16.255h10.4V357.5a37.532 37.532 0 0 1 1.95-12.921 22.376 22.376 0 0 1 5.446-8.615 21.38 21.38 0 0 1 8.208-4.876 32.667 32.667 0 0 1 10.24-1.546 44.765 44.765 0 0 1 12.11 1.382 37.78 37.78 0 0 1 5.607 1.872zm74.769 51.037a49.268 49.268 0 0 1-2.358 15.036 41.369 41.369 0 0 1-6.989 13.248 34.609 34.609 0 0 1-11.7 9.427 39.863 39.863 0 0 1-33 0 34.609 34.609 0 0 1-11.7-9.427 41.286 41.286 0 0 1-6.989-13.248 49.139 49.139 0 0 1-2.358-15.036 48.392 48.392 0 0 1 2.358-14.953 40.526 40.526 0 0 1 6.989-13.086 34.214 34.214 0 0 1 11.7-9.264 36.823 36.823 0 0 1 16.5-3.494 36.314 36.314 0 0 1 16.417 3.494 35.318 35.318 0 0 1 11.7 9.264 39.8 39.8 0 0 1 7.069 13.086 48.518 48.518 0 0 1 2.361 14.953zm-19.829-.08a37.129 37.129 0 0 0-1.139-9.3 22.627 22.627 0 0 0-3.414-7.584 17.492 17.492 0 0 0-5.527-5.056 16.476 16.476 0 0 0-15.279 0 17.44 17.44 0 0 0-5.525 5.056 22.544 22.544 0 0 0-3.414 7.584 38.856 38.856 0 0 0 0 18.676 24.759 24.759 0 0 0 3.332 7.582 16.1 16.1 0 0 0 5.527 5.138 15.489 15.489 0 0 0 7.72 1.874 15.038 15.038 0 0 0 7.639-1.874 17.164 17.164 0 0 0 5.527-5.138 23.673 23.673 0 0 0 3.414-7.582 36.864 36.864 0 0 0 1.139-9.376zm82.391 39.579v-44.7q0-8.937-3.739-13.817a12.372 12.372 0 0 0-10.4-4.876 16.342 16.342 0 0 0-8.7 2.438 37.142 37.142 0 0 0-6.908 5.366v55.588h-20.154v-78.345h18.367l.976 6.177a34.911 34.911 0 0 1 10.646-6.015 35.427 35.427 0 0 1 11.947-2.113 33.482 33.482 0 0 1 11.379 1.87 22.183 22.183 0 0 1 8.939 5.932 27.477 27.477 0 0 1 5.77 10.565 52.7 52.7 0 0 1 2.032 15.6v46.324zm52.466-34.135q.653 9.916 6.2 14.3t14.358 4.388a38.2 38.2 0 0 0 7.669-.733 35.193 35.193 0 0 0 6.363-1.868 38.649 38.649 0 0 0 4.734-2.275 14.678 14.678 0 0 0 2.937-2.115l5.364 16.42a39.975 39.975 0 0 1-3.657 2.193 37.183 37.183 0 0 1-6.258 2.6 65.876 65.876 0 0 1-8.778 2.113 63.67 63.67 0 0 1-11.053.894 43.353 43.353 0 0 1-14.548-2.438 32.4 32.4 0 0 1-12.108-7.559 37.049 37.049 0 0 1-8.29-12.758 48.451 48.451 0 0 1-3.089-18.2 50.113 50.113 0 0 1 2.844-17.554 37.06 37.06 0 0 1 7.8-12.841 33.963 33.963 0 0 1 11.541-7.965 35.983 35.983 0 0 1 14.06-2.763 38.2 38.2 0 0 1 13.817 2.438 28.345 28.345 0 0 1 10.971 7.557 36.511 36.511 0 0 1 7.314 13.248 62.013 62.013 0 0 1 2.681 19.341v3.577zm30.395-14.465a20.824 20.824 0 0 0-1.715-7.071 15.1 15.1 0 0 0-3.431-4.876 13.75 13.75 0 0 0-4.415-2.763 13.6 13.6 0 0 0-4.819-.894 15.492 15.492 0 0 0-9.97 3.9q-4.738 3.9-5.556 11.7z"/></g><path d="M315.782 220.765c-38.942.129-79.456-33.107-79.633-86.475-.117-35.29 18.923-69.266 43.263-89.42 23.74-19.659 56.262-32.27 85.759-32.37 3.8-.013 7.768.3 10.2 1.126-25.791 5.349-46.316 29.351-46.226 56.581a14.78 14.78 0 0 0 .172 2.309c43.157 10.511 62.749 36.551 62.868 72.582s-28.327 75.502-76.403 75.667z" fill="#fff"/></svg>